<?xml version="1.0" encoding="utf-8"?>
<!-- Generator: Adobe Illustrator 27.9.0, SVG Export Plug-In . SVG Version: 6.00 Build 0)  -->
<svg version="1.1" id="Layer_1" xmlns="http://www.w3.org/2000/svg" xmlns:xlink="http://www.w3.org/1999/xlink" x="0px" y="0px"
	 viewBox="0 0 39 32" style="enable-background:new 0 0 39 32;" xml:space="preserve">
<style type="text/css">
	.st0{fill:none;}
	.st1{fill:#FFFFFF;}
</style>
<g>
	<path class="st1" d="M19.4,20.7V25c0,0.7,0.5,1.1,1.1,1.1h5.3v-6.5h-5.3C19.9,19.6,19.4,20.1,19.4,20.7z M22.8,21.1
		c0.9,0,1.8,0.8,1.8,1.8c0,0.9-0.8,1.8-1.8,1.8c-0.9,0-1.8-0.8-1.8-1.8S21.8,21.1,22.8,21.1z"/>
	<path class="st1" d="M22.8,24.2c0.8,0,1.3-0.6,1.3-1.3c0-0.8-0.6-1.3-1.3-1.3s-1.3,0.6-1.3,1.3C21.4,23.6,22,24.2,22.8,24.2z"/>
	<path class="st1" d="M13.9,11.5L13.9,11.5l1.2-1.2l-0.6-0.6c-0.2,0.3-0.6,0.9-1.1,1.5c-0.6,0.7-1.3,1.3-2.1,1.8h1L13.9,11.5z"/>
	<path class="st1" d="M15.3,11.4c0.2-0.1,0.4-0.3,0.7-0.4l-0.6-0.6l-1.1,1.1l0,0L12.8,13h0.8C14,12.4,15.1,11.5,15.3,11.4z"/>
	<path class="st1" d="M15.9,12.2L15.9,12.2l0.3-0.3c0.2-0.2,0.2-0.6,0-0.8l0,0c-0.2,0.1-0.8,0.5-1,0.7s0,0,0,0
		c-0.5,0.4-0.9,0.7-1.2,1.1h1.2L15.9,12.2z"/>
	<path class="st1" d="M22.9,8.4c0.1-0.1,0.1-0.2,0-0.3c0,0-0.3-0.3-0.4-0.2l-5.1,5.1h0.9L22.9,8.4z"/>
	<path class="st1" d="M9.1,13c-0.2-0.5-0.1-1,0.3-1.5l1.2-1.2l0,0l7.1-7.1c0.1-0.1,0.5-0.3,0.5-0.3c0.2-0.1,0.5-0.1,0.8-0.1
		c0.2,0,0.5,0.2,0.7,0.4l5.1,5.1c0.6,0.6,0.6,1.3,0,1.9L21.9,13h1l2.3-2.3c0.9-0.9,0.9-2.1,0-2.9l-5.1-5.1c-0.1-0.1-0.2-0.2-0.3-0.3
		c-0.6-0.4-1.3-0.5-1.9-0.2c-0.3,0.1-0.5,0.3-0.7,0.5L8.9,11c-0.6,0.6-0.8,1.3-0.6,2H9.1z"/>
	<path class="st1" d="M13.1,11.2c0.3-0.3,1.2-1.5,1.2-1.7l-0.1-0.1c-0.1-0.1-0.3-0.3-0.8,0l-2.7,2.7c-0.2,0.2-0.2,0.6,0,0.8l0.1,0.1
		C11.7,12.5,12.4,11.8,13.1,11.2C13.1,11.2,12.8,11.5,13.1,11.2z"/>
	<path class="st1" d="M23.7,9.2c0.1-0.1,0.1-0.2,0-0.3l-0.2-0.2c0,0-0.1-0.1-0.2,0L19,13h0.9L23.7,9.2z"/>
	<path class="st1" d="M37.6,10c-0.5-2.2-1.7-4-3.6-5.2s-4.1-1.6-6.2-1.1c-1.3,0.3-2.6,0.9-3.6,1.7l1.5,1.5c0.8-0.6,1.6-0.9,2.5-1.1
		c1.6-0.4,3.3,0,4.7,0.9c1.4,0.9,2.4,2.3,2.7,3.9c0.3,1.6,0,3.2-0.9,4.5c-0.9,1.2-2.1,2.2-3.6,2.6l0.3-0.4c0.3-0.5,0.2-1.1-0.3-1.4
		c-0.3-0.2-0.6-0.2-0.8-0.2c-0.3,0.1-0.5,0.2-0.7,0.5c0,0-1.6,2.4-1.7,2.6c-0.1,0.3-0.2,0.5-0.1,0.9c0.1,0.4,0.2,0.4,0.4,0.6
		c0.2,0.2,2.6,1.7,2.6,1.7c0.5,0.3,1.1,0.2,1.4-0.3c0.3-0.5,0.2-1.1-0.3-1.4l-0.5-0.3c2-0.5,3.8-1.7,4.9-3.4
		C37.6,14.4,38.1,12.2,37.6,10z"/>
	<g>
		<path class="st1" d="M16.5,25c-0.1,0-0.2,0.1-0.3,0.2c-0.1,0.1-0.1,0.3-0.1,0.6c0,0.2,0,0.4,0.1,0.6c0.1,0.1,0.2,0.2,0.3,0.2
			c0.1,0,0.2-0.1,0.3-0.2c0-0.1,0.1-0.3,0.1-0.6c0-0.3,0-0.4-0.1-0.6C16.7,25.1,16.6,25,16.5,25z"/>
		<path class="st1" d="M6.5,19.2c-0.4,0-0.7,0.1-0.9,0.3c-0.2,0.2-0.4,0.5-0.4,1C5.1,21,5,21.6,5,22.3c0,1.1,0.1,1.8,0.4,2.4
			c0.2,0.5,0.6,0.8,1.1,0.8c0.4,0,0.7-0.1,0.9-0.3c0.2-0.2,0.4-0.5,0.4-1c0.1-0.4,0.1-1,0.1-1.7c0-1.1-0.1-1.9-0.4-2.4
			C7.4,19.5,7,19.2,6.5,19.2z"/>
		<path class="st1" d="M13.1,23.7c0.1-0.1,0.1-0.3,0.1-0.6c0-0.3,0-0.4-0.1-0.6c-0.1-0.1-0.2-0.2-0.3-0.2c-0.1,0-0.2,0.1-0.3,0.2
			c-0.1,0.1-0.1,0.3-0.1,0.6c0,0.2,0,0.4,0.1,0.6c0.1,0.1,0.2,0.2,0.3,0.2C12.9,23.9,13,23.8,13.1,23.7z"/>
		<path class="st1" d="M20.6,18.8h5.3v-1.6c-0.1-0.9-0.9-1.6-1.8-1.6H1.2v14.8h22.9c0.9,0,1.8-0.8,1.8-1.8v-1.9h-5.3
			c-0.9,0-1.8-0.8-1.8-1.8v-4.3C18.8,19.7,19.5,18.8,20.6,18.8z M9.4,26.1c-0.8,0.8-1.7,1.3-3,1.3c-0.8,0-1.5-0.2-2.1-0.6
			c-0.6-0.4-1.1-1-1.4-1.7c-0.3-0.7-0.5-1.6-0.5-2.7c0-1.7,0.4-3,1.1-3.8c0.7-0.9,1.7-1.3,3-1.3c0.8,0,1.5,0.2,2.1,0.6
			s1.1,1,1.4,1.7c0.3,0.8,0.5,1.7,0.5,2.7C10.5,24,10.2,25.2,9.4,26.1z M11.3,23.1c0-0.5,0.1-0.8,0.4-1.1c0.3-0.3,0.6-0.4,1.1-0.4
			c0.4,0,0.8,0.1,1,0.4s0.4,0.6,0.4,1.1c0,0.5-0.1,0.9-0.4,1.1c-0.3,0.3-0.6,0.4-1.1,0.4c-0.4,0-0.8-0.1-1-0.4
			C11.4,24,11.3,23.6,11.3,23.1z M13.6,27.2h-1c0,0-0.1,0-0.1,0c0,0,0,0,0-0.1l3-5.3c0,0,0.1-0.1,0.1-0.1h1c0,0,0.1,0,0.1,0
			c0,0,0,0,0,0.1L13.6,27.2C13.7,27.2,13.7,27.2,13.6,27.2z M17.6,26.9c-0.3,0.3-0.6,0.4-1.1,0.4c-0.4,0-0.8-0.1-1-0.4
			c-0.3-0.2-0.4-0.6-0.4-1.1c0-0.5,0.1-0.8,0.4-1.1c0.3-0.3,0.6-0.4,1.1-0.4c0.4,0,0.8,0.1,1,0.4c0.3,0.2,0.4,0.6,0.4,1.1
			C18,26.2,17.8,26.6,17.6,26.9z"/>
	</g>
	<path class="st1" d="M22.1,13.4c0,0-0.1,0-0.2,0c-0.1,0-0.3,0-0.7,0h-0.1c-0.1,0-0.2,0-0.3,0c-0.1,0-0.3,0-0.5,0
		c-0.1,0-0.1,0-0.2,0c0,0,0,0,0,0c0,0-0.1,0-0.4,0h-0.5h-3.8h-0.4H9.3c-1,0-6,0-6.4,0c-0.1,0-0.2,0-0.2,0c-1.4,0-1.5,1.8-1.5,1.8H3
		h4.8h7.4h2h2.7h0.5h1.6h0.4h1.3C23.7,15.2,23.6,13.4,22.1,13.4z"/>
</g>
</svg>
