<svg width="140" height="200" viewBox="0 0 140 200" fill="none" xmlns="http://www.w3.org/2000/svg">
<g style="mix-blend-mode:multiply">
<path d="M82.5 197C113.704 197 139 190.508 139 182.5C139 174.492 113.704 168 82.5 168C51.2959 168 26 174.492 26 182.5C26 190.508 51.2959 197 82.5 197Z" fill="url(#paint0_radial_1921_74438)" fill-opacity="0.6"/>
</g>
<path d="M24.6018 45C22.0059 45 19.9174 44.1456 18.3363 42.4368C16.7788 40.728 16 38.213 16 34.8917C16 31.6185 16.826 29.0072 18.4779 27.0578C20.1534 25.1083 22.7375 24.1336 26.2301 24.1336C27.6461 24.1336 29.1092 24.3381 30.6195 24.7473C32.1535 25.1324 33.3806 25.5776 34.301 26.083C34.419 26.1312 34.478 26.2515 34.478 26.444V44.278C34.478 44.5187 34.36 44.639 34.124 44.639H29.6992C29.4632 44.639 29.3452 44.5187 29.3452 44.278V30.4875C29.3452 29.5392 28.7903 28.6778 27.8585 28.5018V28.5018C27.2213 28.3815 26.5959 28.3213 25.9823 28.3213C24.3068 28.3213 23.0797 28.8147 22.3009 29.8014C21.5221 30.7882 21.1328 32.4007 21.1328 34.639C21.1328 36.7569 21.4868 38.2972 22.1947 39.2599C22.9027 40.2226 23.9528 40.704 25.3452 40.704C25.6284 40.704 25.9823 40.6799 26.4071 40.6318H26.4779C26.6431 40.6318 26.7493 40.728 26.7965 40.9206L27.2567 44.278V44.3502C27.2567 44.5187 27.1741 44.627 27.0089 44.6751C26.3009 44.8917 25.4986 45 24.6018 45Z" fill="#222222"/>
<path d="M33.9354 15C34.1714 15 34.2894 15.1203 34.2894 15.361V21.2455C34.2894 21.4862 34.1714 21.6065 33.9354 21.6065H17.6521C17.4161 21.6065 17.2981 21.4862 17.2981 21.2455V18.1769C17.2981 17.9362 17.4161 17.8159 17.6521 17.8159H27.0911C28.4469 17.8159 29.546 16.7168 29.546 15.361V15.361C29.546 15.1203 29.664 15 29.9 15H33.9354Z" fill="#222222"/>
<path d="M44.3771 44.9639C42.6071 44.9639 41.1794 44.4344 40.0939 43.3755C39.0083 42.3165 38.4655 40.9687 38.4655 39.3321C38.4655 37.3827 39.1027 35.8424 40.377 34.7112C41.675 33.58 43.5511 32.9904 46.0054 32.9422C46.3358 32.9182 47.0083 32.9061 48.0231 32.9061C49.0379 32.9061 49.6986 32.9182 50.0054 32.9422C50.147 32.9422 50.2178 32.87 50.2178 32.7256V31.2455C50.2178 30.2587 49.911 29.5247 49.2974 29.0433C48.7075 28.5379 47.8343 28.2852 46.678 28.2852C45.7576 28.2852 44.9788 28.4777 44.3417 28.8628C43.7281 29.2479 43.1381 29.7653 42.5717 30.4152C42.5709 30.4163 42.5701 30.4174 42.5693 30.4185C42.4468 30.5829 42.2036 30.6119 42.0408 30.4874V30.4874L39.3151 28.3213C39.1263 28.1769 39.0791 28.0205 39.1735 27.852C39.9287 26.7449 40.9788 25.8544 42.324 25.1805C43.6691 24.4826 45.2266 24.1336 46.9965 24.1336C49.5452 24.1336 51.5747 24.7473 53.0851 25.9747C54.5954 27.1781 55.3506 28.8267 55.3506 30.9206V44.278C55.3506 44.5187 55.2326 44.639 54.9966 44.639H50.5364C50.5324 44.639 50.5284 44.6389 50.5245 44.6388C50.3475 44.633 50.2178 44.455 50.2178 44.278V44.278V36.9856C50.2178 36.8412 50.147 36.769 50.0054 36.769C49.6278 36.7449 48.8491 36.7329 47.6691 36.7329H46.4656C45.4508 36.7569 44.6956 36.9254 44.2001 37.2383C43.7281 37.5511 43.4921 38.0806 43.4921 38.8267C43.4921 39.4765 43.6927 39.994 44.0939 40.3791C44.4951 40.7641 45.085 40.9567 45.8638 40.9567C46.1451 40.9567 46.4759 40.9263 46.8563 40.8657C46.9261 40.8545 46.9967 40.8484 47.0673 40.8484V40.8484C47.2089 40.8484 47.2915 40.9326 47.3151 41.1011L47.6691 44.1336V44.2419C47.6691 44.3381 47.5865 44.4224 47.4213 44.4946C46.501 44.8075 45.4862 44.9639 44.3771 44.9639Z" fill="#222222"/>
<path d="M68.1239 45C65.528 45 63.4395 44.1456 61.8583 42.4368C60.3008 40.728 59.522 38.213 59.522 34.8917C59.522 31.6185 60.348 29.0072 61.9999 27.0578C63.6755 25.1083 66.2595 24.1336 69.7522 24.1336C71.1681 24.1336 72.6312 24.3381 74.1416 24.7473C75.6755 25.1324 76.9027 25.5776 77.823 26.083C77.941 26.1312 78 26.2515 78 26.444V44.278C78 44.5187 77.882 44.639 77.646 44.639H73.2212C72.9852 44.639 72.8672 44.5187 72.8672 44.278V30.4875C72.8672 29.5392 72.3124 28.6778 71.3805 28.5018V28.5018C70.7433 28.3815 70.118 28.3213 69.5044 28.3213C67.8289 28.3213 66.6017 28.8147 65.823 29.8014C65.0442 30.7882 64.6548 32.4007 64.6548 34.639C64.6548 36.7569 65.0088 38.2972 65.7168 39.2599C66.4247 40.2226 67.4749 40.704 68.8672 40.704C69.1504 40.704 69.5044 40.6799 69.9292 40.6318H70C70.1652 40.6318 70.2714 40.728 70.3186 40.9206L70.7787 44.278V44.3502C70.7787 44.5187 70.6961 44.627 70.5309 44.6751C69.823 44.8917 69.0206 45 68.1239 45Z" fill="#222222"/>
<path d="M77.4574 15C77.6934 15 77.8114 15.1203 77.8114 15.361V21.2455C77.8114 21.4862 77.6934 21.6065 77.4574 21.6065H61.1741C60.9382 21.6065 60.8202 21.4862 60.8202 21.2455V18.1769C60.8202 17.9362 60.9382 17.8159 61.1741 17.8159H70.6131C71.9689 17.8159 73.068 16.7168 73.068 15.361V15.361C73.068 15.1203 73.186 15 73.422 15H77.4574Z" fill="#222222"/>
<path d="M42.8307 65.9383C41.2668 65.9383 40.0675 65.4652 39.2325 64.519C38.4108 63.5728 38 62.0644 38 59.9937C38 57.8956 38.3512 56.3666 39.0536 55.4067C39.7693 54.4331 40.6705 53.9463 41.7572 53.9463C42.6602 53.9463 43.35 54.2538 43.8265 54.8689C43.8379 54.8837 43.8555 54.8925 43.8741 54.8925V54.8925C43.893 54.8925 43.9107 54.8835 43.9222 54.8684C44.1334 54.5919 44.4322 54.3736 44.8186 54.2137C45.2162 54.0491 45.6801 53.9669 46.2102 53.9669C46.7403 53.9669 47.224 54.1108 47.6614 54.3988C48.0987 54.6868 48.4433 55.0228 48.6951 55.4067C48.7481 55.4753 48.7746 55.5713 48.7746 55.6947V65.5269C48.7746 65.664 48.7084 65.7326 48.5758 65.7326H46.071C45.9518 65.7326 45.8921 65.664 45.8921 65.5269V57.2025C45.8921 56.7954 45.683 56.4146 45.2759 56.4146V56.4146C44.8518 56.4146 44.5271 56.6409 44.3018 57.0934C44.2753 57.162 44.2421 57.21 44.2024 57.2374C44.1759 57.2511 44.1361 57.258 44.0831 57.258H43.5861C43.4801 57.258 43.4006 57.21 43.3476 57.114C43.0825 56.6477 42.7247 56.4146 42.2741 56.4146C41.3464 56.4146 40.8825 57.5665 40.8825 59.8703C40.8825 60.8165 40.9554 61.5501 41.1012 62.0712C41.2602 62.5923 41.5054 62.9626 41.8367 63.182C42.1813 63.3877 42.6518 63.4905 43.2482 63.4905C43.4204 63.4905 43.6259 63.4768 43.8644 63.4494H43.9042C43.9837 63.4494 44.0367 63.4974 44.0632 63.5934L44.3216 65.5269V65.5886C44.3216 65.6709 44.2819 65.7257 44.2024 65.7532C43.8313 65.8766 43.3741 65.9383 42.8307 65.9383Z" fill="#222222"/>
<path d="M54.344 65.9177C53.35 65.9177 52.5482 65.616 51.9386 65.0127C51.3289 64.4093 51.0241 63.6414 51.0241 62.7089C51.0241 61.5981 51.3819 60.7205 52.0976 60.076C52.8265 59.4315 53.8801 59.0955 55.2584 59.0681C55.444 59.0544 55.8217 59.0475 56.3915 59.0475C56.9614 59.0475 57.3325 59.0544 57.5048 59.0681C57.5843 59.0681 57.6241 59.0269 57.6241 58.9447V58.1013C57.6241 57.5391 57.4518 57.1208 57.1072 56.8466C56.7759 56.5586 56.2855 56.4146 55.6361 56.4146C55.1193 56.4146 54.6819 56.5243 54.3241 56.7437C53.9795 56.9631 53.6482 57.258 53.3301 57.6282C53.3296 57.629 53.329 57.6298 53.3284 57.6305C53.26 57.7235 53.1231 57.7401 53.0319 57.6694V57.6694L51.5012 56.4352C51.3952 56.3529 51.3687 56.2638 51.4217 56.1678C51.8458 55.537 52.4355 55.0296 53.191 54.6456C53.9464 54.248 54.8211 54.0491 55.815 54.0491C57.2463 54.0491 58.3861 54.3988 59.2343 55.0982C60.0825 55.7838 60.5066 56.7232 60.5066 57.9162V65.5269C60.5066 65.664 60.4403 65.7326 60.3078 65.7326H57.803C57.8012 65.7326 57.7995 65.7326 57.7978 65.7325C57.6971 65.73 57.6241 65.6277 57.6241 65.5269V65.5269V61.3719C57.6241 61.2896 57.5843 61.2485 57.5048 61.2485C57.2927 61.2347 56.8554 61.2279 56.1927 61.2279H55.5168C54.947 61.2416 54.5229 61.3376 54.2446 61.5159C53.9795 61.6941 53.847 61.9958 53.847 62.4209C53.847 62.7912 53.9596 63.086 54.1849 63.3054C54.4102 63.5248 54.7415 63.6345 55.1789 63.6345C55.3368 63.6345 55.5227 63.6172 55.7363 63.5826C55.7755 63.5763 55.8151 63.5728 55.8548 63.5728V63.5728C55.9343 63.5728 55.9807 63.6208 55.9939 63.7168L56.1927 65.4446V65.5063C56.1927 65.5612 56.1464 65.6092 56.0536 65.6503C55.5367 65.8286 54.9668 65.9177 54.344 65.9177Z" fill="#222222"/>
<path d="M67.1829 54.0491C68.8926 54.0491 70.2112 54.5222 71.1389 55.4684C72.0799 56.4146 72.5504 57.8613 72.5504 59.8086C72.5504 61.9615 72.1329 63.5248 71.298 64.4984C70.463 65.4583 69.2239 65.9383 67.5805 65.9383C66.0299 65.9383 64.857 65.5475 64.0619 64.7658C63.2799 63.9842 62.889 62.8666 62.889 61.413C62.889 60.9331 62.9354 60.3434 63.0281 59.644C63.0414 59.5206 63.1143 59.4589 63.2468 59.4589H67.0637C67.1962 59.4589 67.2625 59.5275 67.2625 59.6646V61.2279C67.2625 61.365 67.1962 61.4336 67.0637 61.4336H65.8346C65.7778 61.4336 65.7317 61.4796 65.7317 61.5364V61.5364C65.7317 62.1946 65.8841 62.6883 66.189 63.0174C66.4938 63.3328 66.9841 63.4905 67.66 63.4905C68.1637 63.4905 68.5546 63.3877 68.8329 63.182C69.1245 62.9626 69.3365 62.5992 69.4691 62.0918C69.6016 61.5707 69.6679 60.8371 69.6679 59.8909C69.6679 58.6293 69.4823 57.7516 69.1112 57.258C68.7402 56.7643 68.1239 56.5175 67.2625 56.5175C66.295 56.5175 65.3938 56.8671 64.5589 57.5665C64.5191 57.6077 64.4727 57.6282 64.4197 57.6282C64.3667 57.6282 64.3203 57.6008 64.2805 57.5459L63.1435 55.9451C63.0932 55.8743 63.0281 55.8021 63.0281 55.7153V55.7153V55.7153C63.0281 55.5687 63.1793 55.4772 63.2903 55.3814C63.6784 55.0464 64.1675 54.7531 64.7576 54.5017C65.4335 54.2 66.242 54.0491 67.1829 54.0491Z" fill="#222222"/>
<path d="M79.4056 65.9383C77.9478 65.9383 76.7749 65.4515 75.887 64.4779C75.0123 63.5042 74.575 62.0712 74.575 60.1788C74.575 58.3139 75.0388 56.826 75.9665 55.7153C76.9075 54.6045 78.3587 54.0491 80.3201 54.0491C81.1153 54.0491 81.937 54.1657 82.7851 54.3988C83.6466 54.6182 84.3357 54.8719 84.8526 55.1599C84.9189 55.1873 84.952 55.2559 84.952 55.3656V65.5269C84.952 65.664 84.8857 65.7326 84.7532 65.7326H82.2683C82.1358 65.7326 82.0695 65.664 82.0695 65.5269V57.6578C82.0695 57.1241 81.7588 56.6385 81.2346 56.538V56.538C80.8767 56.4695 80.5255 56.4352 80.1809 56.4352C79.24 56.4352 78.5508 56.7163 78.1135 57.2785C77.6761 57.8408 77.4575 58.7595 77.4575 60.0348C77.4575 61.2416 77.6563 62.1192 78.0539 62.6677C78.4514 63.2163 79.0412 63.4905 79.8231 63.4905C79.9822 63.4905 80.1809 63.4768 80.4195 63.4494H80.4593C80.552 63.4494 80.6117 63.5042 80.6382 63.6139L80.8966 65.5269V65.568C80.8966 65.664 80.8502 65.7257 80.7574 65.7532C80.3599 65.8766 79.9093 65.9383 79.4056 65.9383Z" fill="#222222"/>
<path d="M87.7878 65.7326C87.6552 65.7326 87.589 65.664 87.589 65.5269V54.4194C87.589 54.2822 87.6552 54.2137 87.7878 54.2137H89.7558C89.8751 54.2137 89.9546 54.2685 89.9944 54.3782L90.3429 55.5803C90.3484 55.5993 90.3658 55.6124 90.3856 55.6124V55.6124C90.4018 55.6124 90.4167 55.6036 90.4246 55.5895C90.6907 55.1196 91.1171 54.7227 91.704 54.3988C92.3004 54.0697 92.963 53.9051 93.6919 53.9051C94.8052 53.9051 95.6931 54.2205 96.3558 54.8513C97.0317 55.4821 97.3696 56.4009 97.3696 57.6076V65.5269C97.3696 65.664 97.3034 65.7326 97.1708 65.7326H94.6859C94.5534 65.7326 94.4871 65.664 94.4871 65.5269V58.2453C94.4871 57.0386 93.9239 56.4352 92.7974 56.4352C92.1612 56.4352 91.6112 56.682 91.1474 57.1757C90.6968 57.6556 90.4715 58.2453 90.4715 58.9447V65.5269C90.4715 65.664 90.4052 65.7326 90.2727 65.7326H87.7878Z" fill="#222222"/>
<path d="M94.863 52.6093C93.6967 52.6093 92.8353 52.3487 92.2786 51.8276C91.7088 51.3065 91.4238 50.4495 91.4238 49.2564C91.4238 49.1193 91.4901 49.0507 91.6226 49.0507H93.9087C94.0545 49.0507 94.1274 49.1193 94.1274 49.2564C94.1274 49.709 94.1937 50.0175 94.3262 50.1821C94.4587 50.3466 94.7371 50.4289 95.1611 50.4289H99.5545C99.687 50.4289 99.7533 50.4975 99.7533 50.6346V52.4036C99.7533 52.5407 99.687 52.6093 99.5545 52.6093H94.863Z" fill="#222222"/>
<path d="M99.9053 46.0158C100.038 46.0158 100.104 46.0844 100.104 46.2215V47.9905C100.104 48.1276 100.038 48.1962 99.9053 48.1962H95.0945C94.962 48.1962 94.8957 48.1276 94.8957 47.9905V46.7563C94.8957 46.4683 94.856 46.2764 94.7764 46.1804C94.6837 46.0707 94.5114 46.0158 94.2596 46.0158H93.2855C93.153 46.0158 93.0867 45.9472 93.0867 45.8101V44.2057C93.0867 44.0686 93.153 44 93.2855 44H94.6174C95.4258 44 96.0487 44.1646 96.4861 44.4937V44.4937C97.2727 45.1041 97.9926 46.0158 98.9883 46.0158H99.9053Z" fill="#222222"/>
<path d="M103.871 54.0903C105.395 54.1314 106.581 54.5428 107.429 55.3244C108.29 56.1061 108.721 57.1757 108.721 58.5333V60.8782C108.721 62.3866 108.317 63.5728 107.509 64.4367C106.713 65.3006 105.613 65.7326 104.209 65.7326H102.022C101.903 65.7326 101.823 65.6777 101.783 65.568L98.9803 57.3608V57.3608C98.9671 57.3062 98.9508 57.245 98.9809 57.1976C99.0076 57.1556 99.0604 57.1346 99.1394 57.1346H101.684C101.803 57.1346 101.883 57.1894 101.922 57.2991L104.037 63.5146C104.044 63.5371 104.066 63.5522 104.089 63.5522V63.5522C104.739 63.5522 105.189 63.3191 105.441 62.8529C105.706 62.3866 105.839 61.6598 105.839 60.6725V58.8418C105.839 57.3197 105.183 56.5243 103.871 56.4558C103.738 56.4558 103.672 56.3872 103.672 56.2501V54.296C103.672 54.1588 103.738 54.0903 103.871 54.0903Z" fill="#222222"/>
<path d="M115.99 66C115.01 66 114.142 65.8149 113.386 65.4446C112.644 65.0607 112.068 64.5259 111.657 63.8402C111.246 63.1546 111.04 62.3729 111.04 61.4953V54.4194C111.04 54.2822 111.107 54.2137 111.239 54.2137H113.724C113.857 54.2137 113.923 54.2822 113.923 54.4194V61.4747C113.923 62.1055 114.115 62.5992 114.499 62.9557C114.897 63.3123 115.434 63.4905 116.11 63.4905C116.759 63.4905 117.256 63.3123 117.601 62.9557C117.945 62.5992 118.117 62.0644 118.117 61.3513V50.0175C118.117 49.8804 118.184 49.8118 118.316 49.8118H120.801C120.934 49.8118 121 49.8804 121 50.0175V61.1662C121 62.0987 120.801 62.9351 120.404 63.6756C120.019 64.4024 119.449 64.9715 118.694 65.3829C117.939 65.7943 117.037 66 115.99 66Z" fill="#222222"/>
<path d="M116.822 48.845C116.955 48.845 117.021 48.9136 117.021 49.0507V52.4036C117.021 52.5407 116.955 52.6093 116.822 52.6093H109.844C109.712 52.6093 109.646 52.5407 109.646 52.4036V50.6552C109.646 50.518 109.712 50.4495 109.844 50.4495H113.157C113.93 50.4495 114.556 49.8232 114.556 49.0507V49.0507C114.556 48.9136 114.622 48.845 114.755 48.845H116.822Z" fill="#222222"/>
<path d="M95.2031 76C119.513 76 139.203 95.6904 139.203 120C139.203 144.31 119.513 164 95.2031 164C70.8935 164 51.2031 144.31 51.2031 120C51.2031 95.6904 70.9131 76 95.2031 76ZM121.901 111.486C119.982 107.238 115.735 104.498 111.096 104.498C106.438 104.498 102.21 107.238 100.292 111.486C99.6658 112.856 100.292 114.48 101.662 115.107C103.052 115.733 104.657 115.107 105.283 113.737C106.321 111.447 108.591 109.979 111.096 109.979C113.602 109.979 115.872 111.447 116.91 113.737C117.36 114.754 118.358 115.342 119.415 115.342C119.787 115.342 120.178 115.263 120.55 115.107C121.92 114.5 122.527 112.875 121.901 111.486ZM70.0715 127.712C74.4754 137.44 84.1836 143.722 94.8508 143.722C105.518 143.722 115.226 137.44 119.63 127.712C120.257 126.342 119.65 124.717 118.26 124.091C116.87 123.464 115.265 124.091 114.639 125.461C111.136 133.231 103.365 138.262 94.8704 138.262C86.3757 138.262 78.6053 133.231 75.1017 125.461C74.4754 124.091 72.8508 123.464 71.4807 124.091C70.0715 124.717 69.4647 126.322 70.0715 127.712ZM69.1711 115.107C69.543 115.263 69.9149 115.342 70.3063 115.342C71.3437 115.342 72.3419 114.735 72.8117 113.737C73.849 111.447 76.1195 109.979 78.6248 109.979C81.1302 109.979 83.4006 111.447 84.438 113.737C85.0643 115.107 86.6889 115.733 88.059 115.107C89.4291 114.48 90.0554 112.856 89.4291 111.486C87.511 107.238 83.2636 104.498 78.6248 104.498C73.9665 104.498 69.7387 107.238 67.8206 111.486C67.1747 112.875 67.7814 114.5 69.1711 115.107Z" fill="url(#paint1_linear_1921_74438)"/>
<path d="M71.442 124.092C72.8317 123.466 74.4367 124.092 75.063 125.462C78.5665 133.232 86.337 138.263 94.8317 138.263C103.326 138.263 111.097 133.232 114.6 125.462C115.227 124.092 116.851 123.466 118.221 124.092C119.591 124.718 120.218 126.343 119.591 127.713C115.188 137.441 105.479 143.724 94.8121 143.724C84.1448 143.724 74.4367 137.441 70.0327 127.713C69.4651 126.323 70.0719 124.718 71.442 124.092Z" fill="white"/>
<path d="M116.91 113.737C115.872 111.447 113.602 109.979 111.097 109.979C108.591 109.979 106.321 111.447 105.283 113.737C104.657 115.108 103.033 115.734 101.662 115.108C100.292 114.481 99.666 112.857 100.292 111.487C102.211 107.239 106.458 104.499 111.097 104.499C115.755 104.499 119.983 107.239 121.901 111.487C122.527 112.857 121.92 114.481 120.531 115.108C120.159 115.264 119.787 115.342 119.396 115.342C118.358 115.362 117.36 114.755 116.91 113.737Z" fill="white"/>
<path d="M78.6046 104.499C83.2629 104.499 87.4907 107.239 89.4088 111.487C90.0352 112.857 89.4088 114.481 88.0387 115.108C86.6491 115.734 85.0441 115.108 84.4177 113.737C83.3804 111.447 81.1099 109.979 78.6046 109.979C76.0992 109.979 73.8288 111.447 72.7914 113.737C72.3412 114.755 71.343 115.342 70.2861 115.342C69.9142 115.342 69.5227 115.264 69.1508 115.108C67.7807 114.481 67.1544 112.857 67.7807 111.487C69.7185 107.239 73.9658 104.499 78.6046 104.499Z" fill="white"/>
<g filter="url(#filter0_b_1921_74438)">
<path d="M48.19 187.949C48.1925 187.948 48.1935 187.945 48.1916 187.943L18.7159 158.038C17.2721 156.569 16.4521 154.624 16.4324 152.555L16.0943 128.597C16.059 126.456 16.8665 124.447 18.3571 122.935C19.8477 121.423 21.8399 120.61 23.9517 120.644L47.5803 121.007C49.6178 121.044 51.536 121.866 52.9798 123.335L82.4599 153.245C85.3303 156.16 85.3484 160.897 82.4754 163.784L58.587 187.977C55.7326 190.884 51.059 190.866 48.1883 187.955C48.1864 187.953 48.1874 187.949 48.19 187.949V187.949ZM29.7382 134.48C31.5878 132.599 31.5832 129.554 29.7242 127.67C27.8652 125.786 24.858 125.782 23.0058 127.651C21.1562 129.532 21.1608 132.578 23.0198 134.462C24.8787 136.346 27.8886 136.361 29.7382 134.48Z" fill="url(#paint2_linear_1921_74438)"/>
<path d="M48.9938 187.344C48.9667 187.308 48.9368 187.273 48.9039 187.24L19.429 157.335C19.4288 157.335 19.4286 157.335 19.4284 157.335C18.1635 156.048 17.4492 154.349 17.4319 152.543L17.4319 152.539L17.0939 128.581L17.0938 128.579C17.0629 126.706 17.7666 124.957 19.0681 123.637C20.3663 122.32 22.095 121.615 23.9339 121.645L23.9347 121.645L47.5603 122.007C47.5607 122.007 47.5612 122.007 47.5616 122.007C49.3368 122.04 51.0059 122.755 52.2667 124.037L52.2676 124.038L81.7472 153.947L48.9938 187.344ZM48.9938 187.344C51.4857 189.771 55.4484 189.747 57.8746 187.276L57.8766 187.274L81.765 163.081L81.7677 163.079C84.2458 160.588 84.2406 156.48 81.7476 153.948L48.9938 187.344ZM48.9621 188.586C48.9534 188.597 48.9445 188.607 48.9353 188.617C48.9353 188.617 48.9354 188.617 48.9355 188.617C48.9446 188.607 48.9535 188.597 48.9621 188.586ZM22.2939 126.95L22.2966 126.947C24.5436 124.68 28.1894 124.689 30.4361 126.966C32.6762 129.236 32.6858 132.907 30.4501 135.181C28.202 137.468 24.5514 137.439 22.3079 135.165C20.0678 132.895 20.0582 129.224 22.2939 126.95Z" stroke="url(#paint3_linear_1921_74438)" stroke-width="2"/>
</g>
<path d="M50.4376 103.131H17.7978C16.8082 103.131 16 102.325 16 101.317C16 100.31 16.8082 99.5039 17.7978 99.5039H50.4376C51.4272 99.5039 52.2354 100.31 52.2354 101.317C52.2354 102.325 51.4272 103.131 50.4376 103.131V103.131Z" fill="#00BCB4"/>
<path d="M40.4098 110H17.7977C16.8082 110 16 109.194 16 108.186C16 107.179 16.8082 106.373 17.7977 106.373H40.4098C41.3994 106.373 42.2076 107.179 42.2076 108.186C42.2076 109.177 41.3994 110 40.4098 110V110Z" fill="#00BCB4"/>
<defs>
<filter id="filter0_b_1921_74438" x="12.0928" y="116.643" width="76.5283" height="77.5044" filterUnits="userSpaceOnUse" color-interpolation-filters="sRGB">
<feFlood flood-opacity="0" result="BackgroundImageFix"/>
<feGaussianBlur in="BackgroundImageFix" stdDeviation="2"/>
<feComposite in2="SourceAlpha" operator="in" result="effect1_backgroundBlur_1921_74438"/>
<feBlend mode="normal" in="SourceGraphic" in2="effect1_backgroundBlur_1921_74438" result="shape"/>
</filter>
<radialGradient id="paint0_radial_1921_74438" cx="0" cy="0" r="1" gradientUnits="userSpaceOnUse" gradientTransform="translate(82.5 182.505) scale(41.2768 16.2938)">
<stop stop-color="#231F20" stop-opacity="0.26"/>
<stop offset="0.468313" stop-color="#888183" stop-opacity="0.18"/>
<stop offset="0.926656" stop-color="white" stop-opacity="0"/>
</radialGradient>
<linearGradient id="paint1_linear_1921_74438" x1="90.7068" y1="164" x2="102.489" y2="77.6068" gradientUnits="userSpaceOnUse">
<stop stop-color="#FF681E"/>
<stop offset="0.663793" stop-color="#F89C22"/>
<stop offset="1" stop-color="#FEB251"/>
</linearGradient>
<linearGradient id="paint2_linear_1921_74438" x1="31" y1="179" x2="88.1174" y2="167.76" gradientUnits="userSpaceOnUse">
<stop stop-color="#00BCB4" stop-opacity="0.9"/>
<stop offset="0.04" stop-color="#00BCB4" stop-opacity="0.86"/>
<stop offset="0.28" stop-color="#00BCB4" stop-opacity="0.5"/>
<stop offset="0.65" stop-color="#00BCB4" stop-opacity="0.4"/>
<stop offset="1" stop-color="#00BCB4" stop-opacity="0.3"/>
</linearGradient>
<linearGradient id="paint3_linear_1921_74438" x1="15.6116" y1="131.882" x2="112.356" y2="133.282" gradientUnits="userSpaceOnUse">
<stop offset="0.286017" stop-color="#00BCB4" stop-opacity="0"/>
<stop offset="0.437062" stop-color="#00BCB4"/>
<stop offset="0.676651" stop-color="#00BCB4" stop-opacity="0"/>
<stop offset="1" stop-color="#00BCB4"/>
</linearGradient>
</defs>
</svg>
