<svg width="140" height="200" viewBox="0 0 140 200" fill="none" xmlns="http://www.w3.org/2000/svg">
<g style="mix-blend-mode:multiply">
<path d="M74.5 200C106.809 200 133 192.837 133 184C133 175.163 106.809 168 74.5 168C42.1913 168 16 175.163 16 184C16 192.837 42.1913 200 74.5 200Z" fill="url(#paint0_radial_1921_74439)" fill-opacity="0.6"/>
</g>
<path d="M89.3142 125.558C88.9006 124.227 88.2629 123.001 87.2461 121.95C84.7988 119.463 81.1623 117.764 76.3022 116.889L76.4057 116.486C80.2662 115.505 83.6613 113.824 86.6429 111.389C89.6072 108.955 91.5202 105.942 92.4336 102.317C94.9326 92.2288 89.1591 86.4316 75.1648 84.7853L78.3187 72.3853L61.0326 72L57.8614 84.1373L36.7148 83.7169C35.8359 83.7169 35.3188 84.0147 35.1465 84.6977L17.0504 151.882C16.8608 152.6 17.2055 152.933 18.1017 152.933L39.8342 153.003L36.6976 165H54.6214L57.7925 152.618C64.2726 152.057 69.6498 150.831 73.9756 148.992C73.9756 148.852 92.9679 141.461 89.297 125.576L89.3142 125.558ZM66.2029 131.863C64.962 136.732 60.8774 139.149 53.8803 139.114L44.298 139.062C43.7809 139.062 43.5569 138.834 43.6603 138.431L43.712 138.203L45.1769 132.581L47.1416 125.103C47.245 124.7 47.5725 124.49 48.1068 124.49L57.0859 124.577C64.3933 124.647 67.4265 127.012 66.2029 131.863ZM70.2013 104.016C69.6325 106.223 68.4089 107.939 66.4959 109.147C64.5828 110.338 62.1011 110.916 59.0851 110.881L51.657 110.776C51.14 110.776 50.9332 110.584 51.0366 110.181L53.7769 99.7073L54.1733 98.2186C54.2767 97.8158 54.6041 97.6057 55.1212 97.6232L61.9977 97.7282C64.8758 97.7808 66.9784 98.2362 68.3744 99.0593C70.1496 100.093 70.8045 101.739 70.2185 104.033L70.2013 104.016Z" fill="url(#paint1_linear_1921_74439)"/>
<path d="M51.4504 93.6283H18.7984C17.8085 93.6283 17 92.822 17 91.8142C17 90.8063 17.8085 90 18.7984 90H51.4504C52.4404 90 53.2489 90.8063 53.2489 91.8142C53.2489 92.822 52.4404 93.6283 51.4504 93.6283V93.6283Z" fill="#00BCB4"/>
<path d="M41.4189 100.5H18.7984C17.8085 100.5 17 99.6936 17 98.6857C17 97.6779 17.8085 96.8716 18.7984 96.8716H41.4189C42.4089 96.8716 43.2173 97.6779 43.2173 98.6857C43.2173 99.6768 42.4089 100.5 41.4189 100.5V100.5Z" fill="#00BCB4"/>
<g filter="url(#filter0_b_1921_74439)">
<path d="M137.398 144.277C136.715 142.029 135.797 139.859 134.703 137.826C133.062 134.757 130.992 131.981 128.589 129.537C122.163 123.027 113.295 119 103.49 119C97.0055 119 90.9309 120.799 85.6963 123.887C76.8872 129.087 70.4806 138.002 68.6055 148.539C68.2344 150.65 68 152.801 68 155.01C68 172.409 80.1686 186.934 96.3414 190.277C98.6462 190.765 101.049 191 103.49 191C114.526 191 124.37 185.898 130.875 177.902C132.32 176.123 133.609 174.207 134.703 172.154C135.25 171.138 135.758 170.082 136.207 169.007C138.004 164.706 139 159.956 139 154.99C139 151.256 138.434 147.659 137.398 144.277Z" fill="url(#paint2_linear_1921_74439)"/>
<path d="M136.442 144.568L136.442 144.57C137.449 147.859 138 151.358 138 154.99C138 159.822 137.031 164.441 135.284 168.622C134.848 169.665 134.355 170.691 133.822 171.681L133.82 171.684C132.759 173.677 131.506 175.539 130.098 177.271C123.774 185.046 114.209 190 103.49 190C101.112 190 98.7797 189.771 96.5488 189.298L96.5438 189.297C80.8364 186.051 69 171.935 69 155.01C69 152.872 69.2268 150.781 69.5902 148.713C71.4134 138.469 77.6419 129.803 86.2045 124.749C91.2931 121.746 97.1932 120 103.49 120C113.015 120 121.629 123.91 127.877 130.239C130.215 132.617 132.227 135.316 133.821 138.297L133.822 138.3C134.886 140.278 135.778 142.386 136.442 144.568Z" stroke="url(#paint3_linear_1921_74439)" stroke-width="2"/>
</g>
<path fill-rule="evenodd" clip-rule="evenodd" d="M101.727 132C103.234 132 104.455 133.249 104.455 134.789V154.421H122.273C123.779 154.421 125 155.67 125 157.211C125 158.751 123.779 160 122.273 160H101.727C100.221 160 99 158.751 99 157.211V134.789C99 133.249 100.221 132 101.727 132Z" fill="white"/>
<path d="M22.2345 51.8571C20.6108 51.8571 19.3264 51.3929 18.3813 50.4643C17.4604 49.5357 17 48.1905 17 46.4286V31.8929C17 31.6548 17.1212 31.5357 17.3635 31.5357H21.9073C22.1497 31.5357 22.2708 31.6548 22.2708 31.8929V45.4643C22.2708 46.3452 22.392 46.9405 22.6343 47.25C22.8767 47.5595 23.3007 47.7143 23.9066 47.7143L24.9244 47.6786C25.1425 47.6786 25.2516 47.7976 25.2516 48.0357V51.0357C25.2516 51.1548 25.2273 51.2381 25.1789 51.2857C25.1546 51.3333 25.094 51.381 24.9971 51.4286C24.1247 51.7143 23.2038 51.8571 22.2345 51.8571Z" fill="#222222"/>
<path d="M35.9448 31.3214C38.7317 31.3929 40.9006 32.1071 42.4516 33.4643C44.0268 34.8214 44.8144 36.6786 44.8144 39.0357V43.1071C44.8144 45.7262 44.0752 47.7857 42.597 49.2857C41.143 50.7857 39.1316 51.5357 36.5628 51.5357H32.5643C32.3462 51.5357 32.2007 51.4405 32.128 51.25L27.0026 37L26.9663 36.8571C26.9663 36.6905 27.0753 36.6071 27.2934 36.6071H31.9463C32.1644 36.6071 32.3098 36.7024 32.3825 36.8929L36.272 47.75H36.3447C37.5322 47.75 38.3561 47.3452 38.8165 46.5357C39.3012 45.7262 39.5435 44.4643 39.5435 42.75V39.5714C39.5435 36.9286 38.344 35.5476 35.9448 35.4286C35.7025 35.4286 35.5813 35.3095 35.5813 35.0714V31.6786C35.5813 31.4405 35.7025 31.3214 35.9448 31.3214Z" fill="#222222"/>
<path d="M27.5584 28.75C27.3161 28.75 27.1949 28.631 27.1949 28.3929V25.3571C27.1949 25.119 27.3161 25 27.5584 25H44.2796C44.5219 25 44.6431 25.119 44.6431 25.3571V28.3929C44.6431 28.631 44.5219 28.75 44.2796 28.75H27.5584Z" fill="#222222"/>
<path d="M56.1435 52C53.9867 52 52.2661 51.4048 50.9817 50.2143C49.6974 49.0238 49.0552 47.3571 49.0552 45.2143V31.8929C49.0552 31.6548 49.1763 31.5357 49.4187 31.5357H53.9625C54.2048 31.5357 54.326 31.6548 54.326 31.8929V44.1429C54.326 45.3095 54.5683 46.1905 55.053 46.7857C55.5619 47.3571 56.3495 47.6429 57.4158 47.6429C58.579 47.6429 59.5726 47.2262 60.3965 46.3929C61.2447 45.5357 61.6688 44.5 61.6688 43.2857V31.8929C61.6688 31.6548 61.7899 31.5357 62.0323 31.5357H66.5761C66.8184 31.5357 66.9396 31.6548 66.9396 31.8929V51.1786C66.9396 51.4167 66.8184 51.5357 66.5761 51.5357H62.9774C62.7835 51.5357 62.6502 51.4405 62.5775 51.25L61.9232 49.0357H61.7778C61.2689 49.8929 60.5298 50.6071 59.5604 51.1786C58.5911 51.7262 57.4521 52 56.1435 52Z" fill="#222222"/>
<path d="M90.1676 31.5357C90.3857 31.5357 90.4947 31.6429 90.4947 31.8571V34.9643C90.4947 35.1786 90.3857 35.2857 90.1676 35.2857H86.9687C87.9381 36.1905 88.4227 37.3214 88.4227 38.6786V51.1786C88.4227 51.4167 88.3016 51.5357 88.0592 51.5357H83.4791C83.3821 51.5357 83.2973 51.5 83.2246 51.4286C83.1761 51.3571 83.1519 51.2738 83.1519 51.1786V43.8929C83.1519 43.75 83.0792 43.6786 82.9338 43.6786C82.5461 43.6548 81.7342 43.6429 80.4983 43.6429H79.2624C77.2268 43.6905 76.209 44.4643 76.209 45.9643C76.209 47.25 77.0208 47.8929 78.6444 47.8929C78.9595 47.8929 79.3351 47.8571 79.7713 47.7857H79.844C79.9894 47.7857 80.0864 47.881 80.1348 48.0714L80.4983 51.0357V51.1071C80.4983 51.25 80.4256 51.3452 80.2802 51.3929C79.2624 51.7024 78.2082 51.8571 77.1177 51.8571C75.3002 51.8571 73.8341 51.3333 72.7193 50.2857C71.6046 49.2381 71.0472 47.9048 71.0472 46.2857C71.0472 44.3571 71.7257 42.8214 73.0828 41.6786C74.4399 40.5357 76.3423 39.9405 78.7899 39.8929C79.1291 39.869 79.8319 39.8571 80.8982 39.8571C81.9402 39.8571 82.6188 39.869 82.9338 39.8929C83.0792 39.8929 83.1519 39.8214 83.1519 39.6786V38.5714C83.1519 37.6905 82.8248 36.9881 82.1704 36.4643C81.5404 35.9405 80.6316 35.6786 79.4442 35.6786C77.6266 35.6786 76.0999 36.3452 74.864 37.6786C74.6944 37.8929 74.5247 37.9286 74.3551 37.7857L71.6288 35.6429C71.5076 35.5476 71.4349 35.4762 71.4107 35.4286C71.4107 35.3571 71.4349 35.2738 71.4834 35.1786C72.2346 34.0833 73.3252 33.2024 74.7549 32.5357C76.209 31.869 77.8811 31.5357 79.7713 31.5357H90.1676Z" fill="#222222"/>
<path d="M101.858 51.8929C99.1925 51.8929 97.0478 51.0476 95.4242 49.3571C93.8248 47.6667 93.025 45.1786 93.025 41.8929C93.025 38.6548 93.8732 36.0714 95.5696 34.1429C97.2902 32.2143 99.9438 31.25 103.53 31.25C104.984 31.25 106.487 31.4524 108.038 31.8571C109.613 32.2381 110.873 32.6786 111.818 33.1786C111.939 33.2262 112 33.3452 112 33.5357V51.1786C112 51.4167 111.879 51.5357 111.636 51.5357H107.093C106.85 51.5357 106.729 51.4167 106.729 51.1786V36C106.366 35.8333 105.857 35.6905 105.202 35.5714C104.548 35.4524 103.906 35.3929 103.276 35.3929C101.555 35.3929 100.295 35.881 99.4954 36.8571C98.6957 37.8333 98.2959 39.4286 98.2959 41.6429C98.2959 43.7381 98.6594 45.2619 99.3864 46.2143C100.113 47.1667 101.192 47.6429 102.622 47.6429C102.912 47.6429 103.276 47.619 103.712 47.5714H103.785C103.954 47.5714 104.063 47.6667 104.112 47.8571L104.584 51.1786V51.25C104.584 51.4167 104.5 51.5238 104.33 51.5714C103.603 51.7857 102.779 51.8929 101.858 51.8929Z" fill="#222222"/>
<path d="M95.2157 72.7237C95.0719 72.7237 95 72.6529 95 72.5112V61.0354C95 60.8937 95.0719 60.8229 95.2157 60.8229H97.3511C97.4805 60.8229 97.5668 60.8796 97.6099 60.9929L97.9982 62.268H98.0629C98.3505 61.7721 98.8178 61.3542 99.4649 61.0142C100.112 60.6741 100.831 60.5041 101.622 60.5041C102.83 60.5041 103.793 60.83 104.512 61.4817C105.246 62.1334 105.612 63.0826 105.612 64.3294V72.5112C105.612 72.6529 105.54 72.7237 105.396 72.7237H102.7C102.557 72.7237 102.485 72.6529 102.485 72.5112V64.9882C102.485 63.7414 101.873 63.1181 100.651 63.1181C99.961 63.1181 99.3642 63.3731 98.8609 63.8831C98.372 64.379 98.1276 64.9882 98.1276 65.7107V72.5112C98.1276 72.6529 98.0557 72.7237 97.9119 72.7237H95.2157Z" fill="#222222"/>
<path d="M102.892 59.1653C101.627 59.1653 100.692 58.8961 100.088 58.3577C99.47 57.8194 99.1609 56.9339 99.1609 55.7013C99.1609 55.5596 99.2328 55.4888 99.3766 55.4888H101.857C102.015 55.4888 102.094 55.5596 102.094 55.7013C102.094 56.1688 102.166 56.4876 102.31 56.6576C102.454 56.8276 102.756 56.9126 103.216 56.9126H107.983C108.127 56.9126 108.198 56.9835 108.198 57.1251V58.9528C108.198 59.0945 108.127 59.1653 107.983 59.1653H102.892Z" fill="#222222"/>
<path d="M112.666 73C111.386 73 110.365 72.6458 109.603 71.9374C108.841 71.229 108.46 70.2373 108.46 68.9622V61.0354C108.46 60.8937 108.532 60.8229 108.676 60.8229H111.372C111.516 60.8229 111.587 60.8937 111.587 61.0354V68.3247C111.587 69.0189 111.731 69.5431 112.019 69.8973C112.321 70.2373 112.788 70.4073 113.421 70.4073C114.111 70.4073 114.701 70.1594 115.19 69.6635C115.693 69.1535 115.944 68.5372 115.944 67.8146V61.0354C115.944 60.8937 116.016 60.8229 116.16 60.8229H118.856C119 60.8229 119.072 60.8937 119.072 61.0354V72.5112C119.072 72.6529 119 72.7237 118.856 72.7237H116.721C116.606 72.7237 116.527 72.6671 116.484 72.5537L116.095 71.2361H116.009C115.707 71.7462 115.269 72.1712 114.693 72.5112C114.118 72.8371 113.442 73 112.666 73Z" fill="#222222"/>
<path d="M125.672 72.915C124.694 72.915 123.932 72.6387 123.386 72.0862C122.84 71.5337 122.566 70.7332 122.566 69.6848V64.8394C122.566 63.8619 122.696 63.0401 122.955 62.3743C123.228 61.6942 123.602 61 124.076 60.2916C124.349 59.8808 124.544 59.5478 124.659 59.2928C124.788 59.0378 124.853 58.7828 124.853 58.5277C124.853 58.2161 124.745 57.9823 124.529 57.8264C124.328 57.6564 124.04 57.5714 123.666 57.5714C123.077 57.5714 122.48 58.0035 121.876 58.8678C121.79 58.9811 121.689 58.9953 121.574 58.9103L119.892 57.5927C119.777 57.5077 119.755 57.4085 119.827 57.2952C120.215 56.6151 120.762 56.0626 121.466 55.6375C122.171 55.2125 123.034 55 124.055 55C125.248 55 126.197 55.3046 126.902 55.9138C127.606 56.5089 127.959 57.3235 127.959 58.3577C127.959 58.9103 127.872 59.392 127.7 59.8028C127.542 60.1995 127.29 60.7025 126.945 61.3117C126.542 61.9917 126.233 62.6151 126.017 63.1818C125.802 63.7485 125.694 64.464 125.694 65.3282V69.111C125.694 69.6068 125.795 69.954 125.996 70.1523C126.197 70.3506 126.485 70.4498 126.859 70.4498L127.527 70.4286C127.671 70.4286 127.743 70.4923 127.743 70.6198V72.4475C127.743 72.575 127.714 72.6387 127.657 72.6387C127.455 72.7237 127.168 72.7875 126.794 72.83C126.434 72.8867 126.061 72.915 125.672 72.915Z" fill="#222222"/>
<path d="M134.37 60.6529C136.182 60.6529 137.57 61.1275 138.533 62.0767C139.511 63.026 140 64.3719 140 66.1145V66.9646C140 68.8205 139.525 70.2444 138.576 71.2361C137.627 72.2279 136.254 72.7237 134.457 72.7237H132.925C132.781 72.7237 132.702 72.6529 132.688 72.5112L132.041 68.3884H130.725C130.581 68.3884 130.509 68.3176 130.509 68.1759V66.5608C130.509 66.4191 130.581 66.3483 130.725 66.3483H134.392C134.536 66.3483 134.615 66.4191 134.629 66.5608L135.298 70.2586C135.83 70.1736 136.225 69.876 136.484 69.366C136.743 68.8418 136.872 68.0413 136.872 66.9646V66.242C136.872 65.1653 136.642 64.379 136.182 63.8831C135.736 63.3731 135.075 63.1181 134.198 63.1181C133.536 63.1181 132.997 63.2314 132.58 63.4581C132.163 63.6706 131.775 63.9894 131.415 64.4144C131.329 64.5136 131.228 64.5207 131.113 64.4357L129.496 63.1181C129.424 63.0614 129.381 63.0189 129.366 62.9906C129.366 62.9481 129.381 62.8985 129.409 62.8418C129.841 62.2043 130.495 61.68 131.372 61.2692C132.264 60.8583 133.263 60.6529 134.37 60.6529Z" fill="#222222"/>
<path d="M19.8718 18.9206C18.981 18.9206 18.2764 18.6627 17.7578 18.1468C17.2526 17.631 17 16.8836 17 15.9048V7.82937C17 7.69709 17.0665 7.63095 17.1994 7.63095H19.6923C19.8253 7.63095 19.8918 7.69709 19.8918 7.82937V15.369C19.8918 15.8585 19.9583 16.1892 20.0912 16.3611C20.2242 16.5331 20.4568 16.619 20.7892 16.619L21.3476 16.5992C21.4673 16.5992 21.5271 16.6653 21.5271 16.7976V18.4643C21.5271 18.5304 21.5138 18.5767 21.4872 18.6032C21.4739 18.6296 21.4407 18.6561 21.3875 18.6825C20.9089 18.8413 20.4037 18.9206 19.8718 18.9206Z" fill="#222222"/>
<path d="M28.4708 19C27.487 19 26.6161 18.8214 25.8583 18.4643C25.1137 18.0939 24.5353 17.578 24.1232 16.9167C23.711 16.2553 23.5049 15.5013 23.5049 14.6548V7.82937C23.5049 7.69709 23.5714 7.63095 23.7044 7.63095H26.1973C26.3302 7.63095 26.3967 7.69709 26.3967 7.82937V14.6349C26.3967 15.2434 26.5895 15.7196 26.9751 16.0635C27.3739 16.4074 27.9124 16.5794 28.5905 16.5794C29.242 16.5794 29.7405 16.4074 30.0862 16.0635C30.4319 15.7196 30.6048 15.2037 30.6048 14.5159V7.82937C30.6048 7.69709 30.6712 7.63095 30.8042 7.63095H33.2971C33.4301 7.63095 33.4965 7.69709 33.4965 7.82937V14.3373C33.4965 15.2368 33.2971 16.0437 32.8982 16.7579C32.5127 17.459 31.941 18.0079 31.1831 18.4048C30.4253 18.8016 29.5212 19 28.4708 19Z" fill="#222222"/>
<path d="M24.0197 6.08333C23.8868 6.08333 23.8203 6.0172 23.8203 5.88492V4.19841C23.8203 4.06614 23.8868 4 24.0197 4H33.1936C33.3266 4 33.3931 4.06614 33.3931 4.19841V5.88492C33.3931 6.0172 33.3266 6.08333 33.1936 6.08333H24.0197Z" fill="#222222"/>
<path d="M36.3841 18.7421C36.2511 18.7421 36.1847 18.6759 36.1847 18.5437V9.11905C36.1847 9.01323 36.2246 8.93386 36.3043 8.88095C36.8096 8.49735 37.5076 8.16667 38.3984 7.88889C39.3025 7.61111 40.1933 7.47222 41.0708 7.47222C42.6662 7.47222 43.9094 7.81614 44.8002 8.50397C45.691 9.1918 46.1364 10.2302 46.1364 11.619V18.5437C46.1364 18.6759 46.0699 18.7421 45.9369 18.7421H43.444C43.3111 18.7421 43.2446 18.6759 43.2446 18.5437V11.8175C43.2446 11.1032 43.0518 10.6005 42.6662 10.3095C42.2807 10.0053 41.689 9.85317 40.8913 9.85317C40.1201 9.85317 39.5152 9.98545 39.0764 10.25V18.5437C39.0764 18.6759 39.01 18.7421 38.877 18.7421H36.3841Z" fill="#222222"/>
<path d="M51.6565 18.9206C50.7657 18.9206 50.0676 18.6627 49.5624 18.1468C49.0705 17.631 48.8245 16.8836 48.8245 15.9048V9.09921C48.8245 8.99339 48.8644 8.91402 48.9442 8.86111C49.5026 8.46429 50.2139 8.1336 51.0781 7.86905C51.9556 7.6045 52.8331 7.47222 53.7106 7.47222C55.3061 7.47222 56.5492 7.81614 57.44 8.50397C58.3308 9.1918 58.7762 10.2302 58.7762 11.619V18.5437C58.7762 18.6759 58.7097 18.7421 58.5768 18.7421H56.0839C55.9509 18.7421 55.8844 18.6759 55.8844 18.5437V11.7381C55.8844 11.0635 55.685 10.5807 55.2861 10.2897C54.9006 9.99868 54.3156 9.85317 53.5311 9.85317C52.76 9.85317 52.155 9.98545 51.7163 10.25V15.369C51.7163 15.8452 51.8027 16.1759 51.9756 16.3611C52.1484 16.5331 52.4143 16.619 52.7733 16.619L53.3716 16.5992C53.5045 16.5992 53.571 16.6653 53.571 16.7976V18.4643C53.571 18.5966 53.5444 18.6627 53.4912 18.6627C53.3051 18.7421 53.0458 18.8016 52.7135 18.8413C52.3811 18.8942 52.0287 18.9206 51.6565 18.9206Z" fill="#222222"/>
<path d="M65.473 7.47222C67.1881 7.47222 68.511 7.92857 69.4417 8.84127C70.3857 9.75397 70.8576 11.1495 70.8576 13.0278C70.8576 15.1045 70.4388 16.6124 69.6012 17.5516C68.7636 18.4775 67.5205 18.9405 65.8718 18.9405C64.3162 18.9405 63.1396 18.5635 62.3419 17.8095C61.5574 17.0556 61.1652 15.9775 61.1652 14.5754C61.1652 14.1124 61.2117 13.5437 61.3048 12.869C61.3181 12.75 61.3912 12.6905 61.5242 12.6905H65.3533C65.4863 12.6905 65.5527 12.7566 65.5527 12.8889V14.3968C65.5527 14.5291 65.4863 14.5952 65.3533 14.5952H64.0171V14.6944C64.0171 15.3294 64.17 15.8056 64.4758 16.123C64.7816 16.4272 65.2735 16.5794 65.9516 16.5794C66.4568 16.5794 66.849 16.4802 67.1283 16.2817C67.4208 16.0701 67.6335 15.7196 67.7664 15.2302C67.8994 14.7275 67.9659 14.0198 67.9659 13.1071C67.9659 11.8902 67.7797 11.0437 67.4075 10.5675C67.0352 10.0913 66.4169 9.85317 65.5527 9.85317C64.5822 9.85317 63.6781 10.1905 62.8404 10.8651C62.8006 10.9048 62.754 10.9246 62.7008 10.9246C62.6477 10.9246 62.6011 10.8981 62.5612 10.8452L61.3447 9.19841C61.3181 9.1455 61.3048 9.10582 61.3048 9.07937C61.3048 9 61.338 8.94048 61.4045 8.90079C61.8167 8.5172 62.3618 8.18651 63.0399 7.90873C63.7179 7.61773 64.529 7.47222 65.473 7.47222Z" fill="#222222"/>
<path d="M77.0768 19C75.8935 19 74.9496 18.6693 74.2449 18.0079C73.5402 17.3466 73.1879 16.4206 73.1879 15.2302V7.82937C73.1879 7.69709 73.2544 7.63095 73.3873 7.63095H75.8802C76.0132 7.63095 76.0797 7.69709 76.0797 7.82937V14.6349C76.0797 15.2831 76.2126 15.7725 76.4785 16.1032C76.7577 16.4206 77.1899 16.5794 77.7749 16.5794C78.413 16.5794 78.9582 16.3479 79.4102 15.8849C79.8755 15.4087 80.1082 14.8333 80.1082 14.1587V7.82937C80.1082 7.69709 80.1747 7.63095 80.3077 7.63095H82.8006C82.9335 7.63095 83 7.69709 83 7.82937V18.5437C83 18.6759 82.9335 18.7421 82.8006 18.7421H80.8262C80.7198 18.7421 80.6467 18.6892 80.6068 18.5833L80.2478 17.3532H80.1681C79.8888 17.8294 79.4833 18.2262 78.9515 18.5437C78.4197 18.8479 77.7948 19 77.0768 19Z" fill="#222222"/>
<defs>
<filter id="filter0_b_1921_74439" x="64" y="115" width="79" height="80" filterUnits="userSpaceOnUse" color-interpolation-filters="sRGB">
<feFlood flood-opacity="0" result="BackgroundImageFix"/>
<feGaussianBlur in="BackgroundImageFix" stdDeviation="2"/>
<feComposite in2="SourceAlpha" operator="in" result="effect1_backgroundBlur_1921_74439"/>
<feBlend mode="normal" in="SourceGraphic" in2="effect1_backgroundBlur_1921_74439" result="shape"/>
</filter>
<radialGradient id="paint0_radial_1921_74439" cx="0" cy="0" r="1" gradientUnits="userSpaceOnUse" gradientTransform="translate(74.5 184.005) scale(42.7379 17.9794)">
<stop stop-color="#231F20" stop-opacity="0.26"/>
<stop offset="0.468313" stop-color="#888183" stop-opacity="0.18"/>
<stop offset="0.926656" stop-color="white" stop-opacity="0"/>
</radialGradient>
<linearGradient id="paint1_linear_1921_74439" x1="54.995" y1="63.1473" x2="54.995" y2="156.149" gradientUnits="userSpaceOnUse">
<stop stop-color="#E3F1FF"/>
<stop offset="0.2049" stop-color="#A2D7FA"/>
<stop offset="0.4098" stop-color="#69C0F5"/>
<stop offset="0.5984" stop-color="#3BAEF1"/>
<stop offset="0.7656" stop-color="#1BA1EE"/>
<stop offset="0.9052" stop-color="#0799ED"/>
<stop offset="1" stop-color="#0096EC"/>
</linearGradient>
<linearGradient id="paint2_linear_1921_74439" x1="123.932" y1="128.677" x2="125.242" y2="192.426" gradientUnits="userSpaceOnUse">
<stop stop-color="#00BCB4" stop-opacity="0.9"/>
<stop offset="0.04" stop-color="#00BCB4" stop-opacity="0.86"/>
<stop offset="0.28" stop-color="#00BCB4" stop-opacity="0.5"/>
<stop offset="0.65" stop-color="#00BCB4" stop-opacity="0.4"/>
<stop offset="1" stop-color="#00BCB4" stop-opacity="0.3"/>
</linearGradient>
<linearGradient id="paint3_linear_1921_74439" x1="76.9667" y1="123.068" x2="103.939" y2="224.72" gradientUnits="userSpaceOnUse">
<stop offset="0.286017" stop-color="#00BCB4" stop-opacity="0"/>
<stop offset="0.437062" stop-color="#00BCB4"/>
<stop offset="0.676651" stop-color="#00BCB4" stop-opacity="0"/>
<stop offset="1" stop-color="#00BCB4"/>
</linearGradient>
</defs>
</svg>
