<svg width="140" height="200" viewBox="0 0 140 200" fill="none" xmlns="http://www.w3.org/2000/svg">
<g clip-path="url(#clip0_1921_70469)">
<g style="mix-blend-mode:multiply">
<path d="M80 162C111.48 162 137 155.284 137 147C137 138.716 111.48 132 80 132C48.5198 132 23 138.716 23 147C23 155.284 48.5198 162 80 162Z" fill="url(#paint0_radial_1921_70469)" fill-opacity="0.6"/>
</g>
<path fill-rule="evenodd" clip-rule="evenodd" d="M40.3597 63.7709H119.691C121.962 63.7709 123.804 65.6165 123.804 67.8931V111.925C123.804 114.201 121.962 116.047 119.691 116.047H40.3597C38.0882 116.047 36.2468 114.201 36.2468 111.925V67.8931C36.2468 65.6165 38.0882 63.7709 40.3597 63.7709ZM24.8294 143.958H134.444C136.306 143.958 137.391 141.867 136.327 140.349L124.5 123.409C124.07 122.794 123.374 122.425 122.617 122.425H37.3931C36.6769 122.425 35.9812 122.773 35.5515 123.347L22.9878 140.287C21.8624 141.805 22.9469 143.958 24.8294 143.958Z" fill="url(#paint1_linear_1921_70469)"/>
<path d="M113.45 101.132H80.7984C79.8085 101.132 79 100.326 79 99.3181C79 98.3102 79.8085 97.5039 80.7984 97.5039H113.45C114.44 97.5039 115.249 98.3102 115.249 99.3181C115.249 100.326 114.44 101.132 113.45 101.132Z" fill="white"/>
<path d="M103.419 108.004H80.7984C79.8085 108.004 79 107.197 79 106.19C79 105.182 79.8085 104.375 80.7984 104.375H103.419C104.409 104.375 105.217 105.182 105.217 106.19C105.217 107.181 104.409 108.004 103.419 108.004Z" fill="white"/>
<g filter="url(#filter0_b_1921_70469)">
<path d="M61.978 55.3761C61.978 55.2389 61.9547 55.1017 61.9547 54.976C61.3257 54.6101 60.6386 54.8273 59.9747 54.8159C59.7767 54.7473 59.5787 54.7359 59.3807 54.7816C57.6454 54.553 55.91 54.4272 54.1979 54.0499C53.1963 53.8327 52.1481 53.8327 51.2047 53.3982C49.3063 52.7694 47.4428 52.0491 45.6142 51.2373C45.4512 51.1344 45.2765 51.0315 45.1134 50.9401C42.9122 49.7281 40.7226 48.5048 38.9523 46.6755C38.2185 45.8409 37.4033 45.0748 36.7394 44.1716C36.5647 43.9315 36.4133 43.9544 36.2386 44.1716C35.9241 44.5718 35.6096 44.9719 35.2602 45.3492C31.51 49.4652 26.7697 51.9347 21.4472 53.4439C18.2443 54.3472 14.9599 54.7359 11.6406 54.8273C11.0349 54.8502 11 55.0903 11 55.5591C11 62.2932 11.0116 69.0388 11 75.773C11 79.4888 11.4892 83.1359 12.5374 86.7031C13.3061 89.3213 14.4591 91.7566 16.1945 93.8946C17.9182 96.387 19.9331 98.6051 22.2508 100.572C23.7765 101.978 25.4653 103.19 27.2356 104.276C29.5999 105.659 32.0457 106.837 34.7128 107.557C35.4582 107.763 36.157 108.14 36.9956 107.946C40.8623 107.02 44.3447 105.271 47.6058 103.087C50.4593 101.166 52.9284 98.7994 55.1064 96.1698C56.7136 94.2376 58.2626 92.2482 59.2759 89.9501C61.0346 85.9485 61.9314 81.7182 61.9663 77.3622C62.0245 70.0449 61.9896 62.7163 61.9896 55.399L61.978 55.3761Z" fill="url(#paint2_linear_1921_70469)"/>
<path d="M60.9896 55.763C60.8779 55.7658 60.7645 55.7747 60.6192 55.7861C60.598 55.7878 60.576 55.7895 60.5533 55.7913C60.3848 55.8044 60.1755 55.8195 59.9575 55.8158L59.798 55.813L59.6473 55.7608C59.6304 55.755 59.6221 55.7543 59.6201 55.7542C59.6183 55.7541 59.6145 55.754 59.6058 55.756L59.4295 55.7967L59.2501 55.773C58.7859 55.7119 58.3072 55.657 57.8196 55.601C56.5669 55.4573 55.2559 55.3069 53.9842 55.0268M60.9896 55.763L54.1979 54.0499M60.9896 55.763C60.9899 57.6396 60.9924 59.516 60.9948 61.392C61.0017 66.7158 61.0087 72.037 60.9663 77.3542C60.9325 81.5756 60.0639 85.6716 58.3604 89.5478C57.4083 91.7067 55.9404 93.6034 54.3376 95.5303L54.3362 95.5319C52.2071 98.1026 49.8075 100.399 47.049 102.256C43.8565 104.394 40.4847 106.081 36.7669 106.973C36.5603 107.02 36.3505 107.006 36.0681 106.933C35.9204 106.895 35.768 106.846 35.5829 106.784L35.5405 106.769C35.3743 106.714 35.1791 106.649 34.979 106.593L34.9736 106.592C32.4255 105.904 30.0672 104.774 27.7496 103.418C26.0226 102.358 24.3925 101.186 22.9285 99.8363L22.9134 99.8224L22.8978 99.8091C20.646 97.8985 18.6903 95.7454 17.0169 93.3258L16.9951 93.2942L16.9709 93.2644C15.3356 91.2496 14.2364 88.9403 13.4969 86.4214L13.4968 86.4212C12.4774 82.9519 12.0001 79.4004 12 75.7738C12.0078 71.2832 12.0052 66.7864 12.0026 62.2928C12.0013 60.1331 12.0001 57.9741 12 55.8168C15.2668 55.7074 18.5243 55.3072 21.7186 54.4064L21.72 54.406C27.1689 52.861 32.0895 50.3126 35.9967 46.0257C36.1691 45.8394 36.3328 45.649 36.4892 45.4597C36.8236 45.8514 37.178 46.2295 37.5103 46.584C37.7587 46.8491 37.9949 47.101 38.2012 47.3357L38.217 47.3537L38.2337 47.3709C40.1231 49.3233 42.4438 50.6118 44.6275 51.8141C44.7773 51.8982 44.9356 51.9915 45.0805 52.083L45.142 52.1218L45.2085 52.1513C47.0508 52.9692 48.928 53.6957 50.8401 54.3309M60.9896 55.763L51.2047 53.3982M53.9842 55.0268C53.9837 55.0267 53.9832 55.0266 53.9827 55.0265L54.1979 54.0499M53.9842 55.0268C53.9848 55.0269 53.9854 55.027 53.986 55.0272L54.1979 54.0499M53.9842 55.0268C53.6846 54.9619 53.4079 54.9227 53.0961 54.8785C52.919 54.8534 52.7307 54.8267 52.5203 54.7928C52.0024 54.7092 51.4184 54.5884 50.8401 54.3309M54.1979 54.0499C53.8649 53.9777 53.5267 53.9294 53.1889 53.8813C52.5108 53.7846 51.8344 53.6882 51.2047 53.3982M50.8401 54.3309C50.8568 54.3364 50.8736 54.3419 50.8903 54.3475L51.2047 53.3982M50.8401 54.3309C50.8222 54.3229 50.8043 54.3148 50.7864 54.3065L51.2047 53.3982M36.4777 44.3639L37.0178 44.7983L37.0196 44.7962L37.0248 44.7895L36.4806 44.3618L36.4793 44.3608L36.2386 44.1716L36.4765 44.3629L36.4777 44.3639Z" stroke="url(#paint3_linear_1921_70469)" stroke-width="2"/>
</g>
<path d="M21.6749 180.853C21.4117 180.853 21.28 180.72 21.28 180.454V176.703C21.28 176.544 21.359 176.384 21.517 176.224C25.1501 173.139 28.0988 170.279 30.363 167.646C31.1265 166.768 31.6793 165.904 32.0216 165.052C32.3638 164.175 32.535 163.217 32.535 162.18C32.535 159.972 31.6003 158.868 29.7311 158.868C28.8096 158.868 28.0988 159.16 27.5986 159.746C27.0984 160.304 26.7561 161.049 26.5718 161.98C26.4928 162.219 26.3349 162.326 26.0979 162.299L21.359 161.421C21.0957 161.368 20.9773 161.209 21.0036 160.943C21.1879 159.666 21.6618 158.509 22.4253 157.471C23.1888 156.407 24.2287 155.569 25.5451 154.958C26.8614 154.319 28.3884 154 30.126 154C31.811 154 33.2853 154.346 34.549 155.037C35.8127 155.729 36.7737 156.673 37.4319 157.87C38.1164 159.041 38.4586 160.344 38.4586 161.781C38.4586 163.403 38.2348 164.773 37.7873 165.89C37.366 167.007 36.6684 168.191 35.6943 169.441C34.9571 170.426 34.0751 171.383 33.0484 172.314C32.0216 173.245 30.5209 174.535 28.5464 176.185V176.344C30.3366 176.158 32.2717 176.065 34.3516 176.065H38.1032C38.3665 176.065 38.4981 176.198 38.4981 176.464V180.454C38.4981 180.72 38.3665 180.853 38.1032 180.853H21.6749Z" fill="#222222"/>
<path d="M51.553 181.252C48.3937 181.252 45.9716 180.095 44.2866 177.781C42.6017 175.466 41.7592 172.141 41.7592 167.805C41.7592 163.15 42.6412 159.692 44.4051 157.431C46.169 155.144 48.7096 154 52.0269 154C55.1598 154 57.5688 155.17 59.2537 157.511C60.9387 159.852 61.7812 163.217 61.7812 167.606C61.7812 172.181 60.886 175.599 59.0958 177.86C57.3318 180.121 54.8176 181.252 51.553 181.252ZM51.8689 176.424C53.3696 176.424 54.449 175.746 55.1072 174.389C55.7654 173.006 56.0945 170.811 56.0945 167.805C56.0945 164.826 55.7127 162.592 54.9492 161.102C54.1857 159.586 53.08 158.828 51.632 158.828C50.1313 158.828 49.0519 159.52 48.3937 160.903C47.7618 162.286 47.4459 164.52 47.4459 167.606C47.4459 170.585 47.8277 172.806 48.5912 174.269C49.3547 175.706 50.4472 176.424 51.8689 176.424Z" fill="#222222"/>
<path d="M62.0235 186C61.7602 186 61.6549 185.854 61.7075 185.561L63.3662 176.544C63.4188 176.331 63.5505 176.224 63.7611 176.224H68.1051C68.2894 176.224 68.4079 176.291 68.4605 176.424C68.5395 176.557 68.5527 176.717 68.5 176.903L65.5777 185.681C65.4987 185.894 65.3539 186 65.1433 186H62.0235Z" fill="#222222"/>
<path d="M80.339 181.252C77.1797 181.252 74.7576 180.095 73.0727 177.781C71.3877 175.466 70.5452 172.141 70.5452 167.805C70.5452 163.15 71.4272 159.692 73.1911 157.431C74.9551 155.144 77.4957 154 80.8129 154C83.9459 154 86.3548 155.17 88.0398 157.511C89.7247 159.852 90.5672 163.217 90.5672 167.606C90.5672 172.181 89.6721 175.599 87.8818 177.86C86.1179 180.121 83.6036 181.252 80.339 181.252ZM80.6549 176.424C82.1556 176.424 83.235 175.746 83.8932 174.389C84.5514 173.006 84.8805 170.811 84.8805 167.805C84.8805 164.826 84.4987 162.592 83.7352 161.102C82.9718 159.586 81.866 158.828 80.418 158.828C78.9173 158.828 77.8379 159.52 77.1797 160.903C76.5479 162.286 76.232 164.52 76.232 167.606C76.232 170.585 76.6137 172.806 77.3772 174.269C78.1407 175.706 79.2333 176.424 80.6549 176.424Z" fill="#222222"/>
<path d="M103.555 181.252C100.396 181.252 97.974 180.095 96.2891 177.781C94.6041 175.466 93.7617 172.141 93.7617 167.805C93.7617 163.15 94.6436 159.692 96.4075 157.431C98.1715 155.144 100.712 154 104.029 154C107.162 154 109.571 155.17 111.256 157.511C112.941 159.852 113.784 163.217 113.784 167.606C113.784 172.181 112.888 175.599 111.098 177.86C109.334 180.121 106.82 181.252 103.555 181.252ZM103.871 176.424C105.372 176.424 106.451 175.746 107.11 174.389C107.768 173.006 108.097 170.811 108.097 167.805C108.097 164.826 107.715 162.592 106.952 161.102C106.188 159.586 105.082 158.828 103.634 158.828C102.134 158.828 101.054 159.52 100.396 160.903C99.7643 162.286 99.4484 164.52 99.4484 167.606C99.4484 170.585 99.8301 172.806 100.594 174.269C101.357 175.706 102.45 176.424 103.871 176.424Z" fill="#222222"/>
<path d="M126.772 181.252C123.613 181.252 121.19 180.095 119.505 177.781C117.821 175.466 116.978 172.141 116.978 167.805C116.978 163.15 117.86 159.692 119.624 157.431C121.388 155.144 123.928 154 127.246 154C130.379 154 132.788 155.17 134.473 157.511C136.158 159.852 137 163.217 137 167.606C137 172.181 136.105 175.599 134.315 177.86C132.551 180.121 130.036 181.252 126.772 181.252ZM127.088 176.424C128.588 176.424 129.668 175.746 130.326 174.389C130.984 173.006 131.313 170.811 131.313 167.805C131.313 164.826 130.932 162.592 130.168 161.102C129.405 159.586 128.299 158.828 126.851 158.828C125.35 158.828 124.271 159.52 123.613 160.903C122.981 162.286 122.665 164.52 122.665 167.606C122.665 170.585 123.047 172.806 123.81 174.269C124.573 175.706 125.666 176.424 127.088 176.424Z" fill="#222222"/>
<path d="M103.373 38.1655C103.491 38.1655 103.55 38.2276 103.55 38.3517V40.1517C103.55 40.2759 103.491 40.3379 103.373 40.3379H101.638C102.163 40.8621 102.426 41.5172 102.426 42.3034V49.5448C102.426 49.6828 102.361 49.7517 102.229 49.7517H99.7444C99.6918 49.7517 99.6458 49.731 99.6064 49.6897C99.5801 49.6483 99.5669 49.6 99.5669 49.5448V45.3241C99.5669 45.2414 99.5275 45.2 99.4486 45.2C99.2383 45.1862 98.7978 45.1793 98.1273 45.1793H97.4568C96.3525 45.2069 95.8003 45.6552 95.8003 46.5241C95.8003 47.269 96.2407 47.6414 97.1216 47.6414C97.2925 47.6414 97.4963 47.6207 97.7329 47.5793H97.7724C97.8513 47.5793 97.9038 47.6345 97.9301 47.7448L98.1273 49.4621V49.5034C98.1273 49.5862 98.0879 49.6414 98.009 49.669C97.4568 49.8483 96.8849 49.9379 96.2933 49.9379C95.3073 49.9379 94.5119 49.6345 93.9071 49.0276C93.3024 48.4207 93 47.6483 93 46.7103C93 45.5931 93.3681 44.7034 94.1044 44.0414C94.8406 43.3793 95.8726 43.0345 97.2005 43.0069C97.3845 42.9931 97.7658 42.9862 98.3443 42.9862C98.9096 42.9862 99.2777 42.9931 99.4486 43.0069C99.5275 43.0069 99.5669 42.9655 99.5669 42.8828V42.2414C99.5669 41.731 99.3895 41.3241 99.0345 41.0207C98.6927 40.7172 98.1997 40.5655 97.5554 40.5655C96.5694 40.5655 95.7412 40.9517 95.0707 41.7241C94.9786 41.8483 94.8866 41.869 94.7946 41.7862L93.3155 40.5448C93.2498 40.4897 93.2104 40.4483 93.1972 40.4207C93.1972 40.3793 93.2104 40.331 93.2366 40.2759C93.6442 39.6414 94.2358 39.131 95.0115 38.7448C95.8003 38.3586 96.7075 38.1655 97.7329 38.1655H103.373Z" fill="#222222"/>
<path d="M102.205 51.1793C102.336 51.1793 102.402 51.2483 102.402 51.3862V53.1241C102.402 54.0069 102.126 54.7034 101.574 55.2138C101.008 55.7379 100.18 56 99.0887 56C98.0764 56 97.3007 55.7448 96.7617 55.2345C96.2227 54.7379 95.9532 54.0552 95.9532 53.1862V53.1655H95.0066C94.8751 53.1655 94.8094 53.0966 94.8094 52.9586V51.3862C94.8094 51.2483 94.8751 51.1793 95.0066 51.1793H98.1224C98.2539 51.1793 98.3196 51.2483 98.3196 51.3862V53.2483C98.3196 53.7862 98.5694 54.0552 99.069 54.0552C99.5817 54.0552 99.8381 53.7724 99.8381 53.2069V51.3862C99.8381 51.2483 99.9038 51.1793 100.035 51.1793H102.205Z" fill="#222222"/>
<path d="M109.065 38.0414C110.576 38.0828 111.753 38.4966 112.595 39.2828C113.449 40.069 113.876 41.1448 113.876 42.5103V44.869C113.876 46.3862 113.475 47.5793 112.673 48.4483C111.885 49.3172 110.793 49.7517 109.4 49.7517H107.231C107.112 49.7517 107.033 49.6966 106.994 49.5862L104.213 41.331L104.194 41.2483C104.194 41.1517 104.253 41.1034 104.371 41.1034H106.895C107.014 41.1034 107.092 41.1586 107.132 41.269L109.242 47.5586H109.281C109.926 47.5586 110.373 47.3241 110.622 46.8552C110.885 46.3862 111.017 45.6552 111.017 44.6621V42.8207C111.017 41.2897 110.366 40.4897 109.065 40.4207C108.933 40.4207 108.867 40.3517 108.867 40.2138V38.2483C108.867 38.1103 108.933 38.0414 109.065 38.0414Z" fill="#222222"/>
<path d="M126.156 38.1655C126.274 38.1655 126.333 38.2276 126.333 38.3517V40.1517C126.333 40.2759 126.274 40.3379 126.156 40.3379H124.42C124.946 40.8621 125.209 41.5172 125.209 42.3034V49.5448C125.209 49.6828 125.143 49.7517 125.012 49.7517H122.527C122.474 49.7517 122.428 49.731 122.389 49.6897C122.363 49.6483 122.35 49.6 122.35 49.5448V45.3241C122.35 45.2414 122.31 45.2 122.231 45.2C122.021 45.1862 121.58 45.1793 120.91 45.1793H120.239C119.135 45.2069 118.583 45.6552 118.583 46.5241C118.583 47.269 119.023 47.6414 119.904 47.6414C120.075 47.6414 120.279 47.6207 120.516 47.5793H120.555C120.634 47.5793 120.686 47.6345 120.713 47.7448L120.91 49.4621V49.5034C120.91 49.5862 120.871 49.6414 120.792 49.669C120.239 49.8483 119.668 49.9379 119.076 49.9379C118.09 49.9379 117.295 49.6345 116.69 49.0276C116.085 48.4207 115.783 47.6483 115.783 46.7103C115.783 45.5931 116.151 44.7034 116.887 44.0414C117.623 43.3793 118.655 43.0345 119.983 43.0069C120.167 42.9931 120.548 42.9862 121.127 42.9862C121.692 42.9862 122.06 42.9931 122.231 43.0069C122.31 43.0069 122.35 42.9655 122.35 42.8828V42.2414C122.35 41.731 122.172 41.3241 121.817 41.0207C121.475 40.7172 120.982 40.5655 120.338 40.5655C119.352 40.5655 118.524 40.9517 117.853 41.7241C117.761 41.8483 117.669 41.869 117.577 41.7862L116.098 40.5448C116.032 40.4897 115.993 40.4483 115.98 40.4207C115.98 40.3793 115.993 40.331 116.019 40.2759C116.427 39.6414 117.018 39.131 117.794 38.7448C118.583 38.3586 119.49 38.1655 120.516 38.1655H126.156Z" fill="#222222"/>
<path d="M124.851 51.3862C124.982 51.3862 125.048 51.4552 125.048 51.5931V55.5241C125.048 55.6621 124.982 55.731 124.851 55.731H122.681C122.55 55.731 122.484 55.6621 122.484 55.5241V53.3724H121.143C121.012 53.3724 120.946 53.3034 120.946 53.1655V51.5931C120.946 51.4552 121.012 51.3862 121.143 51.3862H124.851Z" fill="#222222"/>
<path d="M132.498 49.9586C131.052 49.9586 129.888 49.469 129.007 48.4897C128.14 47.5103 127.706 46.069 127.706 44.1655C127.706 42.2897 128.166 40.7931 129.086 39.6759C130.02 38.5586 131.459 38 133.405 38C134.194 38 135.009 38.1172 135.85 38.3517C136.705 38.5724 137.389 38.8276 137.901 39.1172C137.967 39.1448 138 39.2138 138 39.3241V49.5448C138 49.6828 137.934 49.7517 137.803 49.7517H135.338C135.206 49.7517 135.141 49.6828 135.141 49.5448V40.7517C134.943 40.6552 134.667 40.5724 134.312 40.5034C133.957 40.4345 133.609 40.4 133.267 40.4C132.334 40.4 131.65 40.6828 131.216 41.2483C130.782 41.8138 130.565 42.7379 130.565 44.0207C130.565 45.2345 130.763 46.1172 131.157 46.669C131.551 47.2207 132.136 47.4966 132.912 47.4966C133.07 47.4966 133.267 47.4828 133.504 47.4552H133.543C133.635 47.4552 133.694 47.5103 133.721 47.6207L133.977 49.5448V49.5862C133.977 49.6828 133.931 49.7448 133.839 49.7724C133.445 49.8966 132.998 49.9586 132.498 49.9586Z" fill="#222222"/>
<path d="M110.748 198C109.807 198 108.975 197.832 108.25 197.495C107.538 197.146 106.985 196.659 106.591 196.036C106.197 195.412 106 194.701 106 193.903V187.468C106 187.343 106.064 187.281 106.191 187.281H108.574C108.701 187.281 108.765 187.343 108.765 187.468V193.884C108.765 194.458 108.949 194.907 109.318 195.231C109.699 195.556 110.214 195.718 110.862 195.718C111.485 195.718 111.962 195.556 112.292 195.231C112.623 194.907 112.788 194.421 112.788 193.772V187.468C112.788 187.343 112.852 187.281 112.979 187.281H115.362C115.489 187.281 115.553 187.343 115.553 187.468V193.604C115.553 194.452 115.362 195.213 114.981 195.886C114.612 196.547 114.066 197.065 113.341 197.439C112.616 197.813 111.752 198 110.748 198Z" fill="#222222"/>
<path d="M122.509 197.757C122.381 197.757 122.318 197.694 122.318 197.57V190.872C122.318 189.887 121.797 189.395 120.754 189.395C120.36 189.395 120.023 189.494 119.744 189.694C119.477 189.893 119.21 190.149 118.943 190.461C118.892 190.523 118.848 190.561 118.809 190.573C118.771 190.586 118.727 190.573 118.676 190.536L117.036 189.301C116.934 189.239 116.915 189.158 116.979 189.058C117.309 188.497 117.818 188.035 118.504 187.673C119.204 187.312 120.03 187.131 120.983 187.131C122.229 187.131 123.22 187.43 123.958 188.029C124.708 188.615 125.083 189.463 125.083 190.573V197.57C125.083 197.694 125.019 197.757 124.892 197.757H122.509Z" fill="#222222"/>
<path d="M127.809 197.757C127.682 197.757 127.619 197.694 127.619 197.57V187.468C127.619 187.343 127.682 187.281 127.809 187.281H129.697C129.811 187.281 129.888 187.33 129.926 187.43L130.269 188.553H130.326C130.581 188.116 130.994 187.748 131.566 187.449C132.138 187.15 132.773 187 133.472 187C134.54 187 135.392 187.287 136.028 187.861C136.676 188.434 137 189.27 137 190.367V197.57C137 197.694 136.936 197.757 136.809 197.757H134.426C134.299 197.757 134.235 197.694 134.235 197.57V190.947C134.235 189.85 133.695 189.301 132.614 189.301C132.004 189.301 131.477 189.526 131.032 189.974C130.6 190.411 130.384 190.947 130.384 191.583V197.57C130.384 197.694 130.32 197.757 130.193 197.757H127.809Z" fill="#222222"/>
<path d="M16.354 28.9215C16.118 28.9215 16 28.8053 16 28.5728V17.0994C16 15.5882 16.3658 14.2281 17.0975 13.0192C17.8528 11.8102 18.9267 10.857 20.3192 10.1595C21.7118 9.46208 23.3285 9.11334 25.1695 9.11334C27.1285 9.11334 28.8043 9.46208 30.1968 10.1595C31.5893 10.8338 32.6397 11.787 33.3477 13.0192C34.0794 14.2281 34.4452 15.6231 34.4452 17.204V28.5728C34.4452 28.8053 34.3272 28.9215 34.0912 28.9215H29.6658C29.4297 28.9215 29.3117 28.8053 29.3117 28.5728V17.2389C29.3117 15.9834 28.9813 15.0302 28.3204 14.3793C27.6596 13.705 26.6683 13.3679 25.3465 13.3679C24.0248 13.3679 22.9863 13.7167 22.231 14.4141C21.4993 15.1116 21.1335 16.0183 21.1335 17.1343V20.7262H21.2751C22.1012 18.7733 23.6354 17.7969 25.8776 17.7969C26.3496 17.7969 26.7745 17.8317 27.1521 17.9015C27.3645 17.9247 27.4707 18.0526 27.4707 18.2851V21.9468C27.4707 22.2026 27.3409 22.3072 27.0813 22.2607C26.4912 22.1909 25.8776 22.1561 25.2403 22.1561C23.777 22.1561 22.7267 22.5629 22.0894 23.3766C21.4521 24.1671 21.1335 25.4226 21.1335 27.143V28.5728C21.1335 28.8053 21.0155 28.9215 20.7795 28.9215H16.354Z" fill="#222222"/>
<path d="M33.8185 31.6765C34.0545 31.6765 34.1725 31.7928 34.1725 32.0253V38.6513C34.1725 38.8838 34.0545 39 33.8185 39H29.9241C29.6881 39 29.5701 38.8838 29.5701 38.6513V35.0244H27.1626C26.9266 35.0244 26.8086 34.9082 26.8086 34.6757V32.0253C26.8086 31.7928 26.9266 31.6765 27.1626 31.6765H33.8185Z" fill="#222222"/>
<path d="M33.9963 2.97559C34.2324 2.97559 34.3504 3.09183 34.3504 3.32433V6.32345C34.3504 6.55594 34.2324 6.67219 33.9963 6.67219H24.8976C24.6616 6.67219 24.5436 6.55594 24.5436 6.32345V3.67306C24.5436 3.18483 24.4728 2.85934 24.3312 2.6966C24.1659 2.51061 23.8591 2.41761 23.4107 2.41761H21.4989C21.2629 2.41761 21.1448 2.30137 21.1448 2.06888V-0.651265C21.1448 -0.883755 21.2629 -1 21.4989 -1H24.0479C25.6293 -1 26.8212 -0.674514 27.6237 -0.0235401C28.4262 0.604185 28.8746 1.60389 28.969 2.97559H33.9963Z" fill="#222222"/>
<path d="M50.0333 29.3749C48.7352 29.3749 47.555 29.0959 46.4929 28.5379C45.4308 27.9799 44.6638 27.2941 44.1917 26.4804H44.0855L43.4482 28.6425C43.3774 28.8285 43.2358 28.9215 43.0234 28.9215H39.5184C39.2824 28.9215 39.1644 28.8053 39.1644 28.5728V9.74107C39.1644 9.50857 39.2824 9.39233 39.5184 9.39233H43.9439C44.1799 9.39233 44.2979 9.50857 44.2979 9.74107V20.8657C44.2979 22.0514 44.6992 23.0628 45.5016 23.8997C46.3277 24.7135 47.3072 25.1203 48.4401 25.1203C50.4463 25.1203 51.4494 24.0857 51.4494 22.0166V9.74107C51.4494 9.50857 51.5674 9.39233 51.8035 9.39233H56.2289C56.4649 9.39233 56.5829 9.50857 56.5829 9.74107V23.0976C56.5829 25.1436 55.9811 26.7013 54.7774 27.7707C53.5972 28.8402 52.0159 29.3749 50.0333 29.3749Z" fill="#222222"/>
<path d="M61.6456 28.9215C61.4096 28.9215 61.2916 28.8053 61.2916 28.5728V17.0994C61.2916 15.5882 61.6574 14.2281 62.3891 13.0192C63.1444 11.8102 64.2183 10.857 65.6108 10.1595C67.0034 9.46208 68.6201 9.11334 70.4611 9.11334C72.4201 9.11334 74.0959 9.46208 75.4884 10.1595C76.881 10.8338 77.9313 11.787 78.6393 13.0192C79.371 14.2281 79.7368 15.6231 79.7368 17.204V28.5728C79.7368 28.8053 79.6188 28.9215 79.3828 28.9215H74.9574C74.7213 28.9215 74.6033 28.8053 74.6033 28.5728V17.2389C74.6033 15.9834 74.2729 15.0302 73.612 14.3793C72.9512 13.705 71.9599 13.3679 70.6381 13.3679C69.3164 13.3679 68.2779 13.7167 67.5226 14.4141C66.791 15.1116 66.4251 16.0183 66.4251 17.1343V20.7262H66.5667C67.3928 18.7733 68.927 17.7969 71.1692 17.7969C71.6412 17.7969 72.0661 17.8317 72.4437 17.9015C72.6561 17.9247 72.7624 18.0526 72.7624 18.2851V21.9468C72.7624 22.2026 72.6325 22.3072 72.3729 22.2607C71.7829 22.1909 71.1692 22.1561 70.5319 22.1561C69.0686 22.1561 68.0183 22.5629 67.381 23.3766C66.7438 24.1671 66.4251 25.4226 66.4251 27.143V28.5728C66.4251 28.8053 66.3071 28.9215 66.0711 28.9215H61.6456Z" fill="#222222"/>
<path d="M91.4659 29.2703C88.5628 29.2703 86.0846 28.7123 84.0312 27.5963C83.9368 27.5498 83.8778 27.4801 83.8542 27.3871C83.8306 27.2941 83.8424 27.2011 83.8896 27.1081L85.5181 23.9346C85.6125 23.7254 85.7777 23.6789 86.0138 23.7951C86.6982 24.1904 87.4889 24.5158 88.3858 24.7716C89.3063 25.0273 90.2858 25.1552 91.3243 25.1552C93.4249 25.1552 94.4752 24.5507 94.4752 23.3418C94.4752 22.7373 94.1684 22.2839 93.5547 21.9817C92.9411 21.6562 91.9852 21.3191 90.687 20.9704C89.3181 20.5984 88.1852 20.2264 87.2883 19.8544C86.415 19.4592 85.6479 18.8779 84.9871 18.1107C84.3498 17.3203 84.0312 16.2857 84.0312 15.007C84.0312 13.8678 84.397 12.8564 85.1287 11.973C85.8604 11.0663 86.8399 10.3688 88.0672 9.88056C89.2945 9.36908 90.6162 9.11334 92.0324 9.11334C93.5193 9.11334 94.9119 9.32258 96.21 9.74107C97.5081 10.1363 98.523 10.6245 99.2547 11.2058C99.3963 11.322 99.4081 11.4847 99.2901 11.694L97.1659 14.5885C97.0951 14.7047 97.0243 14.7745 96.9535 14.7977C96.8827 14.7977 96.8 14.7629 96.7056 14.6931C95.0063 13.6702 93.4367 13.1587 91.997 13.1587C91.0529 13.1587 90.333 13.3098 89.8374 13.612C89.3653 13.9143 89.1293 14.3211 89.1293 14.8326C89.1293 15.4371 89.4361 15.9021 90.0498 16.2276C90.6634 16.553 91.6311 16.8901 92.9529 17.2389C94.3454 17.6341 95.4783 18.0177 96.3516 18.3897C97.2249 18.7617 97.9802 19.3429 98.6174 20.1334C99.2547 20.9006 99.5733 21.9236 99.5733 23.2023C99.5733 24.9459 98.9007 26.399 97.5553 27.5615C96.21 28.7007 94.1802 29.2703 91.4659 29.2703Z" fill="#222222"/>
<path d="M110.762 9.11334C113.807 9.11334 116.155 9.91543 117.808 11.5196C119.483 13.1238 120.321 15.5766 120.321 18.8779C120.321 22.528 119.578 25.1784 118.091 26.8291C116.604 28.4566 114.397 29.2703 111.47 29.2703C108.709 29.2703 106.62 28.6077 105.204 27.2825C103.811 25.9573 103.115 24.0625 103.115 21.5981C103.115 20.7844 103.198 19.7847 103.363 18.599C103.386 18.3897 103.516 18.2851 103.752 18.2851H110.55C110.786 18.2851 110.904 18.4013 110.904 18.6338V21.2842C110.904 21.5167 110.786 21.633 110.55 21.633H108.178V21.8073C108.178 22.9233 108.449 23.7602 108.992 24.3182C109.535 24.853 110.408 25.1203 111.612 25.1203C112.509 25.1203 113.205 24.9459 113.701 24.5972C114.22 24.2252 114.598 23.6091 114.834 22.7489C115.07 21.8654 115.188 20.6216 115.188 19.0174C115.188 16.8785 114.857 15.3906 114.196 14.5536C113.535 13.7167 112.438 13.2982 110.904 13.2982C109.181 13.2982 107.576 13.891 106.089 15.0767C106.018 15.1465 105.936 15.1813 105.841 15.1813C105.747 15.1813 105.664 15.1348 105.593 15.0418L103.434 12.1473C103.386 12.0543 103.363 11.9846 103.363 11.9381C103.363 11.7986 103.422 11.694 103.54 11.6242C104.272 10.95 105.239 10.3688 106.443 9.88056C107.647 9.36908 109.086 9.11334 110.762 9.11334Z" fill="#222222"/>
<path d="M131.362 9.18309C134.076 9.25283 136.188 9.9503 137.699 11.2755C139.233 12.6007 140 14.4141 140 16.7158V20.6914C140 23.2488 139.28 25.2598 137.84 26.7245C136.424 28.1892 134.465 28.9215 131.963 28.9215H128.069C127.857 28.9215 127.715 28.8285 127.644 28.6425L122.652 14.728L122.617 14.5885C122.617 14.4257 122.723 14.3444 122.936 14.3444H127.467C127.68 14.3444 127.821 14.4374 127.892 14.6234L131.68 25.2249H131.751C132.907 25.2249 133.71 24.8297 134.158 24.0392C134.63 23.2488 134.866 22.0166 134.866 20.3426V17.2389C134.866 14.6582 133.698 13.3098 131.362 13.1935C131.126 13.1935 131.007 13.0773 131.007 12.8448V9.53182C131.007 9.29933 131.126 9.18309 131.362 9.18309Z" fill="#222222"/>
</g>
<defs>
<filter id="filter0_b_1921_70469" x="7" y="40" width="59" height="72" filterUnits="userSpaceOnUse" color-interpolation-filters="sRGB">
<feFlood flood-opacity="0" result="BackgroundImageFix"/>
<feGaussianBlur in="BackgroundImageFix" stdDeviation="2"/>
<feComposite in2="SourceAlpha" operator="in" result="effect1_backgroundBlur_1921_70469"/>
<feBlend mode="normal" in="SourceGraphic" in2="effect1_backgroundBlur_1921_70469" result="shape"/>
</filter>
<radialGradient id="paint0_radial_1921_70469" cx="0" cy="0" r="1" gradientUnits="userSpaceOnUse" gradientTransform="translate(80 147.005) scale(41.6421 16.8557)">
<stop stop-color="#231F20" stop-opacity="0.26"/>
<stop offset="0.468313" stop-color="#888183" stop-opacity="0.18"/>
<stop offset="0.926656" stop-color="white" stop-opacity="0"/>
</radialGradient>
<linearGradient id="paint1_linear_1921_70469" x1="85.4743" y1="143.958" x2="77.8663" y2="64.4994" gradientUnits="userSpaceOnUse">
<stop stop-color="#FF681E"/>
<stop offset="0.663793" stop-color="#F89C22"/>
<stop offset="1" stop-color="#FEB251"/>
</linearGradient>
<linearGradient id="paint2_linear_1921_70469" x1="51.1764" y1="52.6016" x2="52.6169" y2="109.254" gradientUnits="userSpaceOnUse">
<stop stop-color="#00BCB4" stop-opacity="0.9"/>
<stop offset="0.04" stop-color="#00BCB4" stop-opacity="0.86"/>
<stop offset="0.28" stop-color="#00BCB4" stop-opacity="0.5"/>
<stop offset="0.65" stop-color="#00BCB4" stop-opacity="0.4"/>
<stop offset="1" stop-color="#00BCB4" stop-opacity="0.3"/>
</linearGradient>
<linearGradient id="paint3_linear_1921_70469" x1="17.4409" y1="47.6158" x2="46.1079" y2="134.922" gradientUnits="userSpaceOnUse">
<stop offset="0.286017" stop-color="#00BCB4" stop-opacity="0"/>
<stop offset="0.437062" stop-color="#00BCB4"/>
<stop offset="0.676651" stop-color="#00BCB4" stop-opacity="0"/>
<stop offset="1" stop-color="#00BCB4"/>
</linearGradient>
<clipPath id="clip0_1921_70469">
<rect width="140" height="200" fill="white"/>
</clipPath>
</defs>
</svg>
