<svg width="140" height="200" viewBox="0 0 140 200" fill="none" xmlns="http://www.w3.org/2000/svg">
<g clip-path="url(#clip0_1921_74437)">
<g style="mix-blend-mode:multiply">
<path d="M81.3101 202C108.753 202 131 196.438 131 189.578C131 182.717 108.753 177.155 81.3101 177.155C53.8671 177.155 31.6201 182.717 31.6201 189.578C31.6201 196.438 53.8671 202 81.3101 202Z" fill="url(#paint0_radial_1921_74437)" fill-opacity="0.6"/>
</g>
<path d="M122.385 172.849H42.1795C38.0837 172.849 34.7656 169.563 34.7656 165.515V118.279C34.7656 114.223 38.0837 110.938 42.1795 110.938H122.392C126.488 110.938 129.806 114.223 129.806 118.279V165.515C129.798 169.563 126.48 172.849 122.385 172.849Z" fill="url(#paint1_linear_1921_74437)"/>
<circle cx="97.3796" cy="154.039" r="8.7722" fill="white"/>
<circle cx="111.026" cy="154.039" r="8.7722" fill="white"/>
<path d="M74.6106 156.864H45.6378C44.7594 156.864 44.042 156.149 44.042 155.254C44.042 154.36 44.7594 153.645 45.6378 153.645H74.6106C75.489 153.645 76.2064 154.36 76.2064 155.254C76.2064 156.149 75.489 156.864 74.6106 156.864V156.864Z" fill="white"/>
<path d="M65.7094 162.961H45.6378C44.7594 162.961 44.042 162.245 44.042 161.351C44.042 160.457 44.7594 159.741 45.6378 159.741H65.7094C66.5878 159.741 67.3052 160.457 67.3052 161.351C67.3052 162.231 66.5878 162.961 65.7094 162.961V162.961Z" fill="white"/>
<g filter="url(#filter0_b_1921_74437)">
<path d="M32.7784 92.9116C33.5527 91.6022 35.4473 91.6022 36.2216 92.9117L44.8835 107.561C45.168 108.043 45.641 108.383 46.1878 108.499L62.961 112.077C64.4693 112.399 65.0613 114.235 64.0251 115.377L52.6226 127.948C52.2411 128.368 52.0564 128.931 52.1144 129.496L53.8413 146.297C53.9977 147.819 52.4582 148.945 51.0554 148.337L35.2964 141.496C34.7884 141.275 34.2116 141.275 33.7036 141.496L17.9446 148.337C16.5418 148.945 15.0023 147.819 15.1587 146.297L16.8856 129.496C16.9436 128.931 16.7589 128.368 16.3774 127.948L4.97487 115.377C3.93874 114.235 4.53073 112.399 6.03901 112.077L22.8122 108.499C23.359 108.383 23.832 108.043 24.1165 107.561L32.7784 92.9116Z" fill="url(#paint2_linear_1921_74437)"/>
<path d="M35.3608 93.4206L44.0227 108.07C44.4495 108.792 45.159 109.302 45.9792 109.477L62.7524 113.055C63.5065 113.216 63.8025 114.134 63.2844 114.705L51.8819 127.276C51.3097 127.907 51.0326 128.751 51.1197 129.598L52.8466 146.4C52.9247 147.16 52.155 147.724 51.4536 147.419L35.6946 140.578C34.9325 140.248 34.0675 140.248 33.3054 140.578L17.5464 147.419C16.845 147.724 16.0752 147.16 16.1534 146.4L17.8803 129.598C17.9674 128.751 17.6903 127.907 17.1181 127.276L5.71556 114.705C5.1975 114.134 5.49349 113.216 6.24763 113.055L23.0208 109.477C23.841 109.302 24.5505 108.792 24.9773 108.07L33.6392 93.4206C34.0263 92.7659 34.9737 92.7659 35.3608 93.4206Z" stroke="url(#paint3_linear_1921_74437)" stroke-width="2"/>
</g>
<path d="M20.9612 85.7618C20.9587 85.7618 20.9562 85.7618 20.9537 85.7617C20.8475 85.7581 20.7695 85.6516 20.7695 85.5453V85.5453V71.4073V71.4073C20.7695 71.3011 20.8475 71.1946 20.9537 71.1909C20.9562 71.1908 20.9587 71.1908 20.9612 71.1908H23.9643C24.0637 71.1908 24.1489 71.2413 24.2199 71.3424L27.8197 77.7571C27.8327 77.7801 27.857 77.7943 27.8834 77.7943V77.7943C27.9096 77.7943 27.9339 77.7802 27.9468 77.7574L31.5892 71.3424C31.646 71.2413 31.7241 71.1908 31.8235 71.1908H34.6988C34.8408 71.1908 34.9118 71.263 34.9118 71.4073V85.5453C34.9118 85.6897 34.8408 85.7618 34.6988 85.7618H32.1217C32.1191 85.7618 32.1166 85.7618 32.1141 85.7617C32.008 85.7581 31.93 85.6516 31.93 85.5453V85.5453V76.4847C31.93 76.4546 31.9056 76.4303 31.8756 76.4303V76.4303C31.8565 76.4303 31.8388 76.4404 31.829 76.4568L29.1399 80.9553C29.0689 81.0564 28.9908 81.1069 28.9056 81.1069H26.6479C26.5627 81.1069 26.4846 81.0564 26.4136 80.9553L23.7749 76.4704C23.7603 76.4456 23.7336 76.4303 23.7048 76.4303V76.4303C23.6599 76.4303 23.6235 76.4667 23.6235 76.5116V85.5453C23.6235 85.6897 23.5525 85.7618 23.4106 85.7618H20.9612Z" fill="#222222"/>
<path d="M40.7522 85.9567C39.6873 85.9567 38.8283 85.6608 38.1751 85.069C37.522 84.4628 37.1954 83.6689 37.1954 82.6874C37.1954 81.5183 37.6072 80.6234 38.4307 80.0027C39.2684 79.3676 40.4328 79.014 41.9237 78.9418C42.0798 78.9274 42.3567 78.9202 42.7543 78.9202C43.1803 78.9202 43.4714 78.9274 43.6275 78.9418C43.7695 78.9418 43.8405 78.8769 43.8405 78.747V78.0325C43.8405 76.8922 43.2229 76.3221 41.9876 76.3221C41.4764 76.3221 41.0646 76.4159 40.7522 76.6035C40.4399 76.7912 40.1701 77.0798 39.9429 77.4696C39.8861 77.5995 39.7867 77.6211 39.6447 77.5345L37.8556 76.3221C37.7562 76.2355 37.7278 76.1488 37.7704 76.0622C38.097 75.3983 38.6508 74.857 39.4317 74.4384C40.2127 74.0198 41.1214 73.8106 42.1579 73.8106C43.663 73.8106 44.799 74.1281 45.5657 74.7632C46.3467 75.3839 46.7371 76.3654 46.7371 77.7077V82.3843C46.7371 82.7163 46.801 82.9617 46.9288 83.1204C47.0566 83.2792 47.2625 83.3586 47.5465 83.3586H47.653C47.795 83.3586 47.866 83.4235 47.866 83.5535V85.3505C47.866 85.4515 47.8163 85.5309 47.7169 85.5886C47.3477 85.8051 46.8862 85.9134 46.3325 85.9134C45.3551 85.9134 44.6661 85.5017 44.2654 84.6784C44.2529 84.6527 44.227 84.636 44.1985 84.636V84.636C44.1744 84.636 44.1519 84.6479 44.1378 84.6674C43.8667 85.0428 43.4411 85.3499 42.8608 85.5886C42.2786 85.834 41.5758 85.9567 40.7522 85.9567ZM41.6468 83.5535C42.0869 83.5535 42.5129 83.4741 42.9247 83.3153V83.3153C43.6103 83.0365 43.8405 82.2682 43.8405 81.5281V81.2801C43.8405 81.1358 43.7695 81.0636 43.6275 81.0636C43.4146 81.0492 43.0809 81.0419 42.6265 81.0419C41.0078 81.0419 40.1985 81.4966 40.1985 82.406C40.1985 82.7524 40.3192 83.0338 40.5606 83.2503C40.8019 83.4524 41.164 83.5535 41.6468 83.5535Z" fill="#222222"/>
<path d="M52.9591 85.9783C51.9084 85.9783 50.9926 85.8196 50.2116 85.502C49.4449 85.1845 48.8272 84.802 48.3587 84.3545C48.2735 84.2679 48.2735 84.1669 48.3587 84.0514L49.7857 82.3193C49.8283 82.2616 49.8779 82.2327 49.9347 82.2327V82.2327C50.0541 82.2327 50.1248 82.3633 50.2132 82.4435C50.5203 82.7221 50.9032 82.9621 51.3617 83.1637C51.9013 83.3802 52.4764 83.4885 53.0869 83.4885C53.5413 83.4885 53.875 83.4091 54.088 83.2503C54.3151 83.0771 54.4287 82.8462 54.4287 82.5575C54.4287 82.2544 54.2726 82.009 53.9602 81.8214C53.662 81.6193 53.1863 81.3956 52.5332 81.1502C51.7948 80.8471 51.1914 80.5656 50.7228 80.3058C50.2542 80.046 49.8425 79.6779 49.4875 79.2016C49.1467 78.7253 48.9763 78.1263 48.9763 77.4046C48.9763 76.7551 49.1467 76.1561 49.4875 75.6076C49.8283 75.0591 50.3181 74.6261 50.9571 74.3085C51.596 73.9765 52.3486 73.8106 53.2147 73.8106C54.1235 73.8106 54.9186 73.9477 55.6002 74.2219C56.2295 74.47 56.7543 74.7889 57.1745 75.1787C57.2626 75.2605 57.3892 75.3358 57.3892 75.456V75.456C57.3892 75.5138 57.3608 75.5715 57.304 75.6292L55.6428 77.2314C55.5576 77.318 55.4653 77.318 55.3659 77.2314C55.1103 76.9716 54.7908 76.7551 54.4074 76.5819C54.0241 76.4087 53.6194 76.3221 53.1934 76.3221C52.8384 76.3221 52.5545 76.3942 52.3415 76.5386C52.1427 76.6829 52.0433 76.8922 52.0433 77.1664C52.0433 77.484 52.1924 77.7438 52.4906 77.9459C52.803 78.1335 53.2928 78.3572 53.9602 78.6171C54.6843 78.8913 55.2807 79.1655 55.7493 79.4398C56.232 79.6996 56.6438 80.0677 56.9846 80.544C57.3253 81.0203 57.4957 81.6193 57.4957 82.341C57.4957 82.9184 57.3395 83.4885 57.0272 84.0514C56.729 84.5999 56.2391 85.0618 55.5576 85.4371C54.876 85.7979 54.0099 85.9783 52.9591 85.9783Z" fill="#222222"/>
<path d="M64.0043 85.8701C62.7406 85.8701 61.7679 85.5381 61.0864 84.8742C60.419 84.1958 60.0853 83.2431 60.0853 82.0162V76.5819C60.0853 76.4953 60.0498 76.452 59.9788 76.452H58.6157V76.452C58.5117 76.452 58.4247 76.3633 58.4241 76.2592C58.4241 76.2585 58.4241 76.2578 58.4241 76.2571V74.5034C58.4241 74.3735 58.4808 74.2941 58.5944 74.2652L59.9575 73.9621C60.0569 73.9477 60.1137 73.8972 60.1279 73.8106L60.916 71.2341C60.9586 71.1186 61.0367 71.0609 61.1503 71.0609H62.9606C63.0884 71.0609 63.1523 71.1331 63.1523 71.2774V73.8972C63.1523 73.9838 63.1949 74.0271 63.2801 74.0271H66.0276C66.1554 74.0271 66.2193 74.092 66.2193 74.2219V76.2571C66.2193 76.387 66.1554 76.452 66.0276 76.452H63.2801C63.1949 76.452 63.1523 76.4953 63.1523 76.5819V81.8214C63.1523 82.3266 63.2517 82.7018 63.4505 82.9472C63.6493 83.1926 63.9546 83.3153 64.3663 83.3153C64.6361 83.3153 64.8846 83.2792 65.1118 83.207C65.339 83.1204 65.5946 83.0122 65.8785 82.8823V82.8823C65.9489 82.8537 66.0339 82.8352 66.0807 82.895C66.0996 82.9191 66.1174 82.9509 66.1341 82.9905L66.8583 84.8092C66.9151 84.9247 66.8938 85.0113 66.7944 85.069C65.8998 85.6031 64.9698 85.8701 64.0043 85.8701Z" fill="#222222"/>
<path d="M73.5181 73.7889C75.0658 73.7889 76.223 74.2436 76.9897 75.1529C77.7707 76.0478 78.1612 77.2458 78.1612 78.747C78.1612 79.265 78.1328 79.7447 78.0761 80.1859C78.051 80.3815 78.0389 80.6522 77.8417 80.6522V80.6522H71.3243C71.1965 80.6522 71.1326 80.7172 71.1326 80.8471C71.1752 81.7276 71.4166 82.3915 71.8568 82.839C72.297 83.2864 72.9785 83.5101 73.9014 83.5101C74.7818 83.5101 75.6124 83.207 76.3934 82.6008C76.436 82.5719 76.4857 82.5575 76.5425 82.5575C76.5993 82.5575 76.649 82.5864 76.6916 82.6441L77.715 84.1753C77.7851 84.2801 77.8843 84.38 77.8843 84.5061V84.5061C77.8843 84.5783 77.863 84.636 77.8204 84.6793C77.3518 85.0834 76.7697 85.4082 76.0739 85.6536C75.3781 85.8845 74.5901 86 73.7098 86C71.8923 86 70.5008 85.4804 69.5352 84.4411C68.5697 83.4019 68.0869 81.8719 68.0869 79.8511C68.0869 77.9314 68.5555 76.4447 69.4926 75.3911C70.4298 74.323 71.7716 73.7889 73.5181 73.7889ZM71.1965 78.4005C71.1965 78.516 71.2604 78.5737 71.3882 78.5737H74.9185C75.0979 78.5737 75.2433 78.4283 75.2433 78.249V78.249C75.2433 76.8489 74.6398 76.1488 73.4329 76.1488C72.7087 76.1488 72.1621 76.3509 71.7929 76.7551C71.4379 77.1448 71.2391 77.6788 71.1965 78.3572V78.4005Z" fill="#222222"/>
<path d="M80.5652 85.7618C80.4232 85.7618 80.3522 85.6897 80.3522 85.5453V74.2219C80.3522 74.092 80.4232 74.0271 80.5652 74.0271H82.8016C82.9294 74.0271 83.0004 74.0848 83.0146 74.2003L83.389 76.0611C83.3942 76.087 83.4169 76.1055 83.4433 76.1055V76.1055C83.4671 76.1055 83.4882 76.0902 83.496 76.0677C83.7378 75.3639 84.1098 74.8064 84.612 74.3951C85.1231 73.9765 85.7408 73.7673 86.4649 73.7673C86.7489 73.7673 87.0187 73.7889 87.2743 73.8322C87.3879 73.8466 87.4447 73.926 87.4447 74.0704V76.7551C87.4447 76.8994 87.3737 76.9644 87.2317 76.9499C86.8909 76.9066 86.5217 76.885 86.1242 76.885C84.3209 76.885 83.4192 77.9531 83.4192 80.0893V85.5453C83.4192 85.5517 83.419 85.558 83.4185 85.5643C83.4101 85.6637 83.3273 85.7618 83.2276 85.7618V85.7618H80.5652Z" fill="#222222"/>
<path d="M93.38 86C91.7045 86 90.4053 85.4804 89.4823 84.4411C88.5594 83.4019 88.0979 81.9224 88.0979 80.0027C88.0979 77.9531 88.5523 76.4087 89.461 75.3694C90.384 74.3157 91.7187 73.7889 93.4652 73.7889C94.3455 73.7889 95.1052 73.9332 95.7441 74.2219C96.3973 74.4962 96.9226 74.8787 97.3202 75.3694C97.3235 75.3728 97.3267 75.3763 97.3298 75.3798C97.4059 75.4681 97.4129 75.6235 97.3202 75.6942V75.6942L95.7867 77.1881C95.7299 77.2314 95.6802 77.253 95.6376 77.253V77.253C95.5409 77.253 95.4766 77.1526 95.4055 77.087C94.8841 76.6059 94.2445 76.3654 93.4865 76.3654C92.7623 76.3654 92.2086 76.6252 91.8252 77.1448C91.456 77.6644 91.2714 78.5377 91.2714 79.7645C91.2714 82.2039 92.024 83.4235 93.5291 83.4235C94.2958 83.4235 94.9632 83.1493 95.5311 82.6008C95.6305 82.4998 95.7228 82.4926 95.808 82.5792L97.1924 84.0298C97.2634 84.1019 97.2989 84.1669 97.2989 84.2246C97.2989 84.2968 97.235 84.3978 97.1072 84.5277C96.7096 84.9608 96.1914 85.3144 95.5524 85.5886C94.9135 85.8629 94.1893 86 93.38 86Z" fill="#222222"/>
<path d="M102.027 85.9567C100.962 85.9567 100.103 85.6608 99.4501 85.069C98.7969 84.4628 98.4703 83.6689 98.4703 82.6874C98.4703 81.5183 98.8821 80.6234 99.7056 80.0027C100.543 79.3676 101.708 79.014 103.199 78.9418C103.355 78.9274 103.632 78.9202 104.029 78.9202C104.455 78.9202 104.746 78.9274 104.902 78.9418C105.044 78.9418 105.115 78.8769 105.115 78.747V78.0325C105.115 76.8922 104.498 76.3221 103.263 76.3221C102.751 76.3221 102.34 76.4159 102.027 76.6035C101.715 76.7912 101.445 77.0798 101.218 77.4696C101.161 77.5995 101.062 77.6211 100.92 77.5345L99.1306 76.3221C99.0312 76.2355 99.0028 76.1488 99.0454 76.0622C99.372 75.3983 99.9257 74.857 100.707 74.4384C101.488 74.0198 102.396 73.8106 103.433 73.8106C104.938 73.8106 106.074 74.1281 106.841 74.7632C107.622 75.3839 108.012 76.3654 108.012 77.7077V82.3843C108.012 82.7163 108.076 82.9617 108.204 83.1204C108.332 83.2792 108.537 83.3586 108.821 83.3586H108.928C109.07 83.3586 109.141 83.4235 109.141 83.5535V85.3505C109.141 85.4515 109.091 85.5309 108.992 85.5886C108.623 85.8051 108.161 85.9134 107.607 85.9134C106.63 85.9134 105.941 85.5017 105.54 84.6783C105.528 84.6527 105.502 84.636 105.473 84.636V84.636C105.449 84.636 105.427 84.6479 105.413 84.6674C105.142 85.0428 104.716 85.3499 104.136 85.5886C103.554 85.834 102.851 85.9567 102.027 85.9567ZM102.922 83.5535C103.362 83.5535 103.788 83.4741 104.2 83.3153V83.3153C104.885 83.0365 105.115 82.2682 105.115 81.5281V81.2801C105.115 81.1358 105.044 81.0636 104.902 81.0636C104.69 81.0492 104.356 81.0419 103.901 81.0419C102.283 81.0419 101.473 81.4966 101.473 82.406C101.473 82.7524 101.594 83.0338 101.836 83.2503C102.077 83.4524 102.439 83.5535 102.922 83.5535Z" fill="#222222"/>
<path d="M110.912 85.7618C110.77 85.7618 110.699 85.6897 110.699 85.5453V74.2219C110.699 74.092 110.77 74.0271 110.912 74.0271H113.148C113.276 74.0271 113.347 74.0848 113.361 74.2003L113.735 76.0611C113.74 76.087 113.763 76.1055 113.79 76.1055V76.1055C113.813 76.1055 113.835 76.0902 113.842 76.0677C114.084 75.3639 114.456 74.8064 114.958 74.3951C115.469 73.9765 116.087 73.7673 116.811 73.7673C117.095 73.7673 117.365 73.7889 117.621 73.8322C117.734 73.8466 117.791 73.926 117.791 74.0704V76.7551C117.791 76.8994 117.72 76.9644 117.578 76.9499C117.237 76.9066 116.868 76.885 116.47 76.885C114.667 76.885 113.766 77.9531 113.766 80.0893V85.5453C113.766 85.5517 113.765 85.558 113.765 85.5642C113.756 85.6637 113.674 85.7618 113.574 85.7618V85.7618H110.912Z" fill="#222222"/>
<path d="M128.578 70C128.706 70 128.77 70.0722 128.77 70.2165V85.5453C128.77 85.6897 128.706 85.7618 128.578 85.7618H126.533C126.42 85.7618 126.341 85.7041 126.299 85.5886L125.891 84.6979C125.88 84.6734 125.856 84.6576 125.829 84.6576V84.6576C125.803 84.6576 125.78 84.6715 125.768 84.6934C125.555 85.0668 125.235 85.3724 124.808 85.6103C124.368 85.8412 123.821 85.9567 123.168 85.9567C122.273 85.9567 121.478 85.7546 120.783 85.3505C120.087 84.9319 119.54 84.3112 119.143 83.4885C118.745 82.6658 118.546 81.6698 118.546 80.5007C118.546 78.9562 118.802 77.6933 119.313 76.7118C119.824 75.7303 120.477 75.0302 121.272 74.6116C122.068 74.1786 122.912 73.9621 123.807 73.9621V73.9621C124.794 73.9621 125.703 73.2551 125.703 72.2676V70.2165C125.703 70.0722 125.774 70 125.916 70H128.578ZM123.892 83.4668C124.432 83.4668 124.865 83.2864 125.191 82.9256C125.532 82.5503 125.703 82.0523 125.703 81.4317V78.3207C125.703 77.3935 125.181 76.4953 124.254 76.4953V76.4953C123.487 76.4953 122.863 76.7623 122.38 77.2963C121.911 77.816 121.677 78.7975 121.677 80.2409C121.677 81.3234 121.876 82.1317 122.273 82.6658C122.671 83.1998 123.211 83.4668 123.892 83.4668Z" fill="#222222"/>
<path d="M103.234 55C104.851 55 106.089 55.4325 106.948 56.2975C107.821 57.1626 108.257 58.3891 108.257 59.9771V60.7518C108.257 62.4431 107.834 63.7406 106.987 64.6444C106.14 65.5481 104.915 66 103.311 66H101.945C101.817 66 101.746 65.9354 101.733 65.8063L101.334 63.2096C101.232 62.5421 100.657 62.0493 99.9819 62.0493V62.0493C99.8536 62.0493 99.7895 61.9847 99.7895 61.8556V60.3838C99.7895 60.2547 99.8536 60.1901 99.9819 60.1901H103.254C103.382 60.1901 103.452 60.2547 103.465 60.3838L103.819 62.3837C103.954 63.1432 104.777 63.6309 105.12 62.9401V62.9401C105.351 62.4624 105.467 61.733 105.467 60.7518V60.0933C105.467 59.1121 105.261 58.3955 104.851 57.9437C104.453 57.4789 103.863 57.2465 103.08 57.2465C102.49 57.2465 102.009 57.3498 101.637 57.5563C101.265 57.75 100.919 58.0405 100.598 58.4278C100.521 58.5182 100.431 58.5246 100.328 58.4472L98.885 57.2465C98.8789 57.2416 98.8731 57.2368 98.8675 57.2322C98.7956 57.1725 98.7664 57.0784 98.808 56.9947V56.9947C99.1929 56.4137 99.7767 55.936 100.559 55.5616C101.355 55.1872 102.246 55 103.234 55Z" fill="#222222"/>
<path d="M114.97 66C114.842 66 114.778 65.9354 114.778 65.8063V58.8732C114.778 57.8533 114.252 57.3433 113.2 57.3433C112.802 57.3433 112.462 57.4466 112.18 57.6532C111.911 57.8597 111.641 58.1244 111.372 58.4472C111.32 58.5117 111.275 58.5505 111.237 58.5634C111.199 58.5763 111.154 58.5634 111.102 58.5246L109.447 57.2465C109.345 57.1819 109.325 57.098 109.39 56.9947C109.723 56.4137 110.236 55.936 110.929 55.5616C111.635 55.1872 112.469 55 113.431 55C114.688 55 115.689 55.3099 116.433 55.9296C117.19 56.5364 117.568 57.4143 117.568 58.5634V65.8063C117.568 65.9354 117.504 66 117.376 66H114.97Z" fill="#222222"/>
<path d="M120.359 66C120.231 66 120.166 65.9354 120.166 65.8063V56.6074C120.166 56.5041 120.205 56.4266 120.282 56.375C120.769 56.0006 121.443 55.6778 122.303 55.4067C123.175 55.1356 124.035 55 124.881 55C126.421 55 127.621 55.3357 128.48 56.007C129.34 56.6784 129.77 57.6919 129.77 59.0475V65.8063C129.77 65.9354 129.705 66 129.577 66H127.172C127.043 66 126.979 65.9354 126.979 65.8063V59.2412C126.979 58.544 126.793 58.0534 126.421 57.7694C126.049 57.4724 125.478 57.3239 124.708 57.3239V57.3239C123.581 57.3239 122.957 58.3992 122.957 59.5268V65.8063C122.957 65.9354 122.893 66 122.765 66H120.359Z" fill="#222222"/>
<path d="M28.6907 24.8537C31.8445 24.8537 34.277 25.6951 35.9884 27.378C37.7242 29.061 38.5921 31.6341 38.5921 35.0976C38.5921 38.9268 37.822 41.7073 36.2818 43.439C34.7415 45.1463 32.4557 46 29.4241 46C26.5637 46 24.4001 45.3049 22.9332 43.9146C21.4907 42.5244 20.7695 40.5366 20.7695 37.9512C20.7695 37.0976 20.8551 36.0488 21.0262 34.8049C21.0507 34.5854 21.1851 34.4756 21.4296 34.4756H28.4706C28.7151 34.4756 28.8374 34.5976 28.8374 34.8415V37.622C28.8374 37.8659 28.7151 37.9878 28.4706 37.9878H26.1965C26.0955 37.9878 26.0136 38.0697 26.0136 38.1707V38.1707C26.0136 39.3415 26.2948 40.2195 26.8571 40.8049C27.4194 41.3659 28.324 41.6463 29.5708 41.6463C30.4998 41.6463 31.221 41.4634 31.7344 41.0976C32.2723 40.7073 32.6635 40.061 32.9079 39.1585C33.1524 38.2317 33.2747 36.9268 33.2747 35.2439C33.2747 33 32.9324 31.439 32.2478 30.561C31.5633 29.6829 30.4265 29.2439 28.8374 29.2439C27.0527 29.2439 25.3902 29.8659 23.85 31.1098C23.7766 31.1829 23.6911 31.2195 23.5933 31.2195C23.4955 31.2195 23.4099 31.1707 23.3366 31.0732L21.2379 28.2243C21.1458 28.0994 21.0262 27.9722 21.0262 27.8171V27.8171V27.8171C21.0262 27.5537 21.3044 27.3945 21.5068 27.2259C22.2231 26.6288 23.1265 26.1064 24.2167 25.6585C25.4635 25.122 26.9549 24.8537 28.6907 24.8537Z" fill="#222222"/>
<path d="M44.0872 45.9634C43.1826 45.9634 42.3269 45.8293 41.5201 45.561C41.3245 45.4878 41.2267 45.3537 41.2267 45.1585V42.0488V42.0488C41.2267 41.6531 41.7907 41.7144 42.1863 41.7188C42.2312 41.7193 42.2781 41.7195 42.3269 41.7195C42.8159 41.7195 43.1581 41.6098 43.3537 41.3902C43.5737 41.1463 43.6838 40.6951 43.6838 40.0366V27.8902C43.6838 27.6951 43.7571 27.5488 43.9038 27.4512C44.8573 26.7195 46.1408 26.1098 47.7543 25.622C49.3924 25.1098 51.0304 24.8537 52.6684 24.8537C55.5777 24.8537 57.7902 25.4878 59.306 26.7561C60.8462 28 61.6163 29.9146 61.6163 32.5V45.2683C61.6163 45.5122 61.4941 45.6341 61.2496 45.6341H56.6656C56.4211 45.6341 56.2989 45.5122 56.2989 45.2683V32.7195C56.2989 31.4512 55.9933 30.561 55.3821 30.0488C54.7709 29.5122 53.7563 29.2439 52.3383 29.2439V29.2439C50.1922 29.2439 49.0012 31.287 49.0012 33.4332V41.0244C49.0012 42.8293 48.5734 44.1098 47.7177 44.8659C46.862 45.5976 45.6518 45.9634 44.0872 45.9634Z" fill="#222222"/>
<path d="M44.2175 22.2927C43.973 22.2927 43.8508 22.1707 43.8508 21.9268V18.8171C43.8508 18.5732 43.973 18.4512 44.2175 18.4512H61.0866C61.3311 18.4512 61.4533 18.5732 61.4533 18.8171V21.9268C61.4533 22.1707 61.3311 22.2927 61.0866 22.2927H44.2175Z" fill="#222222"/>
<path d="M85.0334 25.1463C85.2534 25.1463 85.3634 25.2561 85.3634 25.4756V28.6585C85.3634 28.8781 85.2534 28.9878 85.0334 28.9878V28.9878C83.8707 28.9878 83.0957 30.6521 83.2347 31.8064C83.2603 32.0193 83.2731 32.2383 83.2731 32.4634V45.2683C83.2731 45.5122 83.1509 45.6341 82.9064 45.6341H78.2857C78.2802 45.6341 78.2747 45.634 78.2692 45.6338C78.0896 45.6261 77.9557 45.4481 77.9557 45.2683V45.2683V37.8049C77.9557 37.6585 77.8823 37.5854 77.7357 37.5854C77.3445 37.561 76.5255 37.5488 75.2786 37.5488H74.0318C71.9782 37.5976 70.9514 38.3902 70.9514 39.9268C70.9514 41.2439 71.7704 41.9024 73.4084 41.9024C73.7086 41.9024 74.0634 41.8698 74.4728 41.8045C74.521 41.7968 74.5697 41.7927 74.6185 41.7927V41.7927C74.7652 41.7927 74.863 41.8902 74.9119 42.0854L75.2786 45.122V45.1951C75.2786 45.3415 75.2053 45.439 75.0586 45.4878C74.0318 45.8049 72.9683 45.9634 71.8682 45.9634C70.0346 45.9634 68.5555 45.4268 67.4308 44.3537C66.3062 43.2805 65.7439 41.9146 65.7439 40.2561C65.7439 38.2805 66.4285 36.7073 67.7976 35.5366C69.1666 34.3659 71.0858 33.7561 73.5551 33.7073C73.8973 33.6829 74.6063 33.6707 75.682 33.6707C76.7333 33.6707 77.4178 33.6829 77.7357 33.7073C77.8823 33.7073 77.9557 33.6341 77.9557 33.4878V32.3537C77.9557 31.4512 77.6256 30.7317 76.9655 30.1951C76.3299 29.6585 75.4131 29.3902 74.2152 29.3902C72.3816 29.3902 70.8413 30.0732 69.5945 31.439C69.4234 31.6585 69.2522 31.6951 69.0811 31.5488L66.3307 29.3537C66.3189 29.3442 66.3076 29.3351 66.2967 29.3261C66.1602 29.2138 66.1048 29.036 66.184 28.878V28.878C66.9419 27.7561 68.042 26.8537 69.4845 26.1707C70.9514 25.4878 72.6383 25.1463 74.5452 25.1463H85.0334Z" fill="#222222"/>
<path d="M65.8482 22.2927C65.6037 22.2927 65.4815 22.1707 65.4815 21.9268V18.8171C65.4815 18.5732 65.6037 18.4512 65.8482 18.4512H82.7173C82.9618 18.4512 83.084 18.5732 83.084 18.8171V21.9268C83.084 22.1707 82.9618 22.2927 82.7173 22.2927H65.8482Z" fill="#222222"/>
<path d="M88.8329 45.6341C88.5885 45.6341 88.4662 45.5122 88.4662 45.2683V25.5122C88.4662 25.2683 88.5885 25.1463 88.8329 25.1463H92.4635C92.6835 25.1463 92.8302 25.2439 92.9035 25.439L93.5458 27.5749C93.5564 27.6101 93.5887 27.6341 93.6254 27.6341V27.6341C93.6552 27.6341 93.6827 27.6182 93.6978 27.5925C94.1886 26.7571 94.9751 26.0514 96.0573 25.4756C97.1575 24.8902 98.3799 24.5976 99.7245 24.5976C101.778 24.5976 103.416 25.1585 104.639 26.2805C105.885 27.4024 106.509 29.0366 106.509 31.1829V45.2683C106.509 45.5122 106.387 45.6341 106.142 45.6341H101.558C101.314 45.6341 101.191 45.5122 101.191 45.2683V32.3171C101.191 30.1707 100.152 29.0976 98.0743 29.0976C96.9008 29.0976 95.8862 29.5366 95.0305 30.4146C94.1993 31.2683 93.7836 32.3171 93.7836 33.561V45.2683C93.7836 45.5122 93.6614 45.6341 93.4169 45.6341H88.8329Z" fill="#222222"/>
<path d="M119.932 46C118.269 46 116.717 45.7805 115.274 45.3415C113.856 44.8781 112.634 44.2439 111.607 43.439C111.485 43.3415 111.424 43.1951 111.424 43V37.2195C111.424 36.9756 111.546 36.8537 111.79 36.8537H116.338C116.582 36.8537 116.704 36.9756 116.704 37.2195V37.3375C116.704 39.5803 117.872 41.7927 120.115 41.7927V41.7927C121.191 41.7927 122.022 41.5732 122.609 41.1341C123.195 40.6707 123.489 40.061 123.489 39.3049V38.5732C123.489 37.939 123.269 37.4512 122.829 37.1098C122.389 36.7439 121.839 36.4756 121.178 36.3049C120.543 36.1341 119.638 35.9512 118.465 35.7561C116.9 35.4878 115.641 35.2073 114.688 34.9146C113.758 34.622 112.952 34.122 112.267 33.4146C111.607 32.7073 111.277 31.7195 111.277 30.4512C111.277 29.378 111.632 28.4268 112.341 27.5976C113.05 26.7439 114.052 26.0732 115.348 25.5854C116.643 25.0976 118.122 24.8537 119.785 24.8537C121.447 24.8537 123.049 25.061 124.589 25.4756C126.154 25.8659 127.376 26.3902 128.256 27.0488C128.427 27.1951 128.452 27.3659 128.329 27.561L126.423 30.5976C126.3 30.7927 126.141 30.8293 125.946 30.7073C125.115 30.2439 124.112 29.8659 122.939 29.5732C121.79 29.2561 120.726 29.0976 119.748 29.0976C117.621 29.0976 116.558 29.4634 116.558 30.1951C116.558 30.561 116.827 30.8415 117.365 31.0366C117.927 31.2073 118.819 31.4024 120.042 31.622C121.753 31.8902 123.195 32.2195 124.369 32.6098C125.542 32.9756 126.569 33.6098 127.449 34.5122C128.329 35.4146 128.77 36.6707 128.77 38.2805V39.1585C128.77 41.4024 128.012 43.1098 126.496 44.2805C124.98 45.4268 122.792 46 119.932 46Z" fill="#222222"/>
<path d="M111.366 22.2927C111.121 22.2927 110.999 22.1707 110.999 21.9268V18.8171C110.999 18.5732 111.121 18.4512 111.366 18.4512H128.235C128.479 18.4512 128.602 18.5732 128.602 18.8171V21.9268C128.602 22.1707 128.479 22.2927 128.235 22.2927H111.366Z" fill="#222222"/>
<path d="M117.747 14.4024C117.502 14.4024 117.38 14.2805 117.38 14.0366V13.5244C117.38 11.7439 117.857 10.378 118.81 9.42683C119.739 8.47561 121.255 8 123.358 8H127.575C127.819 8 127.942 8.12195 127.942 8.36585V11.5854C127.942 11.8293 127.819 11.9512 127.575 11.9512H123.944C122.844 11.9512 122.294 12.4878 122.294 13.561V14.0366C122.294 14.2805 122.172 14.4024 121.927 14.4024H117.747Z" fill="#222222"/>
</g>
<defs>
<filter id="filter0_b_1921_74437" x="0.455078" y="87.9297" width="68.0898" height="64.5752" filterUnits="userSpaceOnUse" color-interpolation-filters="sRGB">
<feFlood flood-opacity="0" result="BackgroundImageFix"/>
<feGaussianBlur in="BackgroundImageFix" stdDeviation="2"/>
<feComposite in2="SourceAlpha" operator="in" result="effect1_backgroundBlur_1921_74437"/>
<feBlend mode="normal" in="SourceGraphic" in2="effect1_backgroundBlur_1921_74437" result="shape"/>
</filter>
<radialGradient id="paint0_radial_1921_74437" cx="0" cy="0" r="1" gradientUnits="userSpaceOnUse" gradientTransform="translate(81.3101 189.582) scale(36.3016 13.9593)">
<stop stop-color="#231F20" stop-opacity="0.26"/>
<stop offset="0.468313" stop-color="#888183" stop-opacity="0.18"/>
<stop offset="0.926656" stop-color="white" stop-opacity="0"/>
</radialGradient>
<linearGradient id="paint1_linear_1921_74437" x1="38.2088" y1="118.77" x2="102.182" y2="177.412" gradientUnits="userSpaceOnUse">
<stop stop-color="#FB64F3"/>
<stop offset="0.2026" stop-color="#D464F5"/>
<stop offset="0.4457" stop-color="#AC64F8"/>
<stop offset="0.668" stop-color="#8F64FA"/>
<stop offset="0.8601" stop-color="#7D64FB"/>
<stop offset="1" stop-color="#7764FB"/>
</linearGradient>
<linearGradient id="paint2_linear_1921_74437" x1="53.7808" y1="98.8704" x2="54.9472" y2="157.308" gradientUnits="userSpaceOnUse">
<stop stop-color="#00BCB4" stop-opacity="0.9"/>
<stop offset="0.04" stop-color="#00BCB4" stop-opacity="0.86"/>
<stop offset="0.28" stop-color="#00BCB4" stop-opacity="0.5"/>
<stop offset="0.65" stop-color="#00BCB4" stop-opacity="0.4"/>
<stop offset="1" stop-color="#00BCB4" stop-opacity="0.3"/>
</linearGradient>
<linearGradient id="paint3_linear_1921_74437" x1="9.46158" y1="93.7288" x2="33.5683" y2="187.257" gradientUnits="userSpaceOnUse">
<stop offset="0.286017" stop-color="#00BCB4" stop-opacity="0"/>
<stop offset="0.437062" stop-color="#00BCB4"/>
<stop offset="0.676651" stop-color="#00BCB4" stop-opacity="0"/>
<stop offset="1" stop-color="#00BCB4"/>
</linearGradient>
<clipPath id="clip0_1921_74437">
<rect width="140" height="200" fill="white"/>
</clipPath>
</defs>
</svg>
