<svg width="140" height="200" viewBox="0 0 140 200" fill="none" xmlns="http://www.w3.org/2000/svg">
<path d="M20.6888 48.6362C17.7608 48.6362 15.2614 48.0683 13.1904 46.9326C13.0952 46.8852 13.0357 46.8143 13.0119 46.7196C12.9881 46.625 13 46.5303 13.0476 46.4357L14.6901 43.2059C14.7853 42.9929 14.9519 42.9456 15.19 43.0639C15.8803 43.4661 16.6777 43.7974 17.5823 44.0577C18.5107 44.318 19.4985 44.4481 20.5459 44.4481C22.6645 44.4481 23.7238 43.8329 23.7238 42.6025C23.7238 41.9873 23.4143 41.5259 22.7954 41.2183C22.1765 40.887 21.2124 40.5439 19.9032 40.189C18.5226 39.8104 17.38 39.4318 16.4754 39.0532C15.5947 38.651 14.821 38.0595 14.1545 37.2786C13.5118 36.4741 13.1904 35.4212 13.1904 34.1198C13.1904 32.9604 13.5594 31.9311 14.2973 31.0319C15.0353 30.1091 16.0231 29.3993 17.2609 28.9024C18.4988 28.3818 19.8318 28.1216 21.2601 28.1216C22.7597 28.1216 24.1642 28.3345 25.4734 28.7604C26.7826 29.1627 27.8062 29.6596 28.5441 30.2511C28.687 30.3694 28.6989 30.535 28.5798 30.748L26.4375 33.6939C26.366 33.8122 26.2946 33.8832 26.2232 33.9068C26.1518 33.9068 26.0685 33.8713 25.9733 33.8004C24.2594 32.7592 22.6764 32.2387 21.2243 32.2387C20.2722 32.2387 19.5462 32.3925 19.0463 32.7001C18.5702 33.0077 18.3321 33.4218 18.3321 33.9423C18.3321 34.5575 18.6416 35.0308 19.2605 35.362C19.8794 35.6933 20.8554 36.0364 22.1884 36.3913C23.5929 36.7936 24.7355 37.184 25.6162 37.5626C26.497 37.9411 27.2587 38.5327 27.9014 39.3372C28.5441 40.118 28.8655 41.1591 28.8655 42.4605C28.8655 44.2351 28.1871 45.714 26.8302 46.8971C25.4734 48.0565 23.4262 48.6362 20.6888 48.6362Z" fill="#222222"/>
<path d="M26.8857 50.7303C27.1238 50.7303 27.2428 50.8486 27.2428 51.0852V54.0665C27.2428 55.5809 26.7429 56.7758 25.7431 57.6513C24.7196 58.5504 23.2199 59 21.2442 59C19.4112 59 18.0068 58.5623 17.0308 57.6868C16.0548 56.835 15.5669 55.6637 15.5669 54.173V54.1375H13.853C13.6149 54.1375 13.4959 54.0192 13.4959 53.7826V51.0852C13.4959 50.8486 13.6149 50.7303 13.853 50.7303H19.4945C19.7326 50.7303 19.8516 50.8486 19.8516 51.0852V54.2795C19.8516 55.2023 20.3039 55.6637 21.2084 55.6637C22.1368 55.6637 22.601 55.1786 22.601 54.2085V51.0852C22.601 50.8486 22.72 50.7303 22.9581 50.7303H26.8857Z" fill="#222222"/>
<path d="M41.0427 48.6362C38.4243 48.6362 36.3176 47.7962 34.7227 46.1162C33.1516 44.4363 32.3661 41.9636 32.3661 38.6983C32.3661 35.4803 33.1992 32.913 34.8655 30.9965C36.5556 29.0799 39.1622 28.1216 42.6852 28.1216C44.1135 28.1216 45.5893 28.3227 47.1128 28.7249C48.6601 29.1035 49.8979 29.5413 50.8262 30.0382C50.9453 30.0855 51.0048 30.2038 51.0048 30.3931V47.9264C51.0048 48.163 50.8858 48.2813 50.6477 48.2813H46.1844C45.9464 48.2813 45.8274 48.163 45.8274 47.9264V32.8421C45.4703 32.6764 44.9704 32.5345 44.3277 32.4161C43.685 32.2978 43.0542 32.2387 42.4353 32.2387C40.7452 32.2387 39.5074 32.7238 38.7218 33.6939C37.9363 34.664 37.5435 36.2493 37.5435 38.4499C37.5435 40.5321 37.9006 42.0464 38.6147 42.9929C39.3288 43.9394 40.3881 44.4126 41.7926 44.4126C42.0782 44.4126 42.4353 44.3889 42.8637 44.3416H42.9352C43.1018 44.3416 43.2089 44.4363 43.2565 44.6256L43.7207 47.9264V47.9973C43.7207 48.163 43.6374 48.2694 43.4708 48.3168C42.7566 48.5297 41.9473 48.6362 41.0427 48.6362Z" fill="#222222"/>
<path d="M56.1696 48.2813C55.9316 48.2813 55.8126 48.163 55.8126 47.9264V31.0674C55.8126 30.8781 55.884 30.7362 56.0268 30.6415C56.9314 29.9553 58.1811 29.3638 59.776 28.8669C61.3946 28.37 62.9895 28.1216 64.5606 28.1216C67.4171 28.1216 69.6428 28.7368 71.2377 29.9672C72.8326 31.1976 73.63 33.055 73.63 35.5395V47.9264C73.63 48.163 73.511 48.2813 73.2729 48.2813H68.8097C68.5716 48.2813 68.4526 48.163 68.4526 47.9264V35.8944C68.4526 34.6167 68.1074 33.7175 67.4171 33.197C66.7268 32.6528 65.6675 32.3807 64.2392 32.3807C62.8586 32.3807 61.7755 32.6173 60.99 33.0905V47.9264C60.99 48.163 60.871 48.2813 60.6329 48.2813H56.1696Z" fill="#222222"/>
<path d="M69.0521 25.6371C68.814 25.6371 68.695 25.5188 68.695 25.2822V19.3549C68.695 19.1183 68.814 19 69.0521 19H73.1226C73.3606 19 73.4796 19.1183 73.4796 19.3549V25.2822C73.4796 25.5188 73.3606 25.6371 73.1226 25.6371H69.0521Z" fill="#222222"/>
<path d="M85.6198 28.1216C88.6905 28.1216 91.059 28.9379 92.7253 30.5705C94.4154 32.2032 95.2605 34.6995 95.2605 38.0595C95.2605 41.7743 94.5106 44.4718 93.011 46.1517C91.5113 47.808 89.2856 48.6362 86.3339 48.6362C83.5488 48.6362 81.4421 47.9618 80.0139 46.6131C78.6094 45.2644 77.9072 43.336 77.9072 40.8279C77.9072 39.9997 77.9905 38.9823 78.1572 37.7755C78.181 37.5626 78.3119 37.4561 78.5499 37.4561H85.4055C85.6436 37.4561 85.7626 37.5744 85.7626 37.811V40.5084C85.7626 40.745 85.6436 40.8634 85.4055 40.8634H83.0132V41.0408C83.0132 42.1766 83.287 43.0284 83.8345 43.5963C84.382 44.1405 85.2627 44.4126 86.4767 44.4126C87.3813 44.4126 88.0835 44.2351 88.5834 43.8802C89.1071 43.5016 89.4879 42.8746 89.726 41.9991C89.964 41.1 90.0831 39.8341 90.0831 38.2014C90.0831 36.0245 89.7498 34.5102 89.0833 33.6584C88.4168 32.8066 87.3099 32.3807 85.7626 32.3807C84.0249 32.3807 82.4062 32.984 80.9065 34.1908C80.8351 34.2618 80.7518 34.2972 80.6566 34.2972C80.5614 34.2972 80.4781 34.2499 80.4067 34.1553L78.2286 31.2094C78.181 31.1148 78.1572 31.0438 78.1572 30.9965C78.1572 30.8545 78.2167 30.748 78.3357 30.677C79.0736 29.9908 80.0496 29.3993 81.2636 28.9024C82.4776 28.3818 83.9297 28.1216 85.6198 28.1216Z" fill="#222222"/>
<path d="M106.395 48.7427C104.277 48.7427 102.587 48.1511 101.325 46.9681C100.063 45.785 99.4325 44.1287 99.4325 41.9991V28.7604C99.4325 28.5238 99.5515 28.4055 99.7896 28.4055H104.253C104.491 28.4055 104.61 28.5238 104.61 28.7604V40.9343C104.61 42.0938 104.848 42.9692 105.324 43.5608C105.824 44.1287 106.598 44.4126 107.645 44.4126C108.788 44.4126 109.764 43.9985 110.573 43.1704C111.406 42.3185 111.823 41.2893 111.823 40.0825V28.7604C111.823 28.5238 111.942 28.4055 112.18 28.4055H116.643C116.881 28.4055 117 28.5238 117 28.7604V47.9264C117 48.163 116.881 48.2813 116.643 48.2813H113.108C112.918 48.2813 112.787 48.1866 112.715 47.9973L112.073 45.7968H111.93C111.43 46.6486 110.704 47.3585 109.752 47.9264C108.799 48.4706 107.681 48.7427 106.395 48.7427Z" fill="#222222"/>
<path d="M15.7984 157.981C14.9304 157.981 14.2437 157.73 13.7385 157.23C13.2462 156.729 13 156.004 13 155.054V147.218C13 147.089 13.0648 147.025 13.1943 147.025H15.6235C15.7531 147.025 15.8178 147.089 15.8178 147.218V154.534C15.8178 155.009 15.8826 155.33 16.0122 155.497C16.1417 155.664 16.3684 155.747 16.6923 155.747L17.2365 155.728C17.3531 155.728 17.4114 155.792 17.4114 155.921V157.538C17.4114 157.602 17.3984 157.647 17.3725 157.673C17.3595 157.698 17.3272 157.724 17.2753 157.75C16.8089 157.904 16.3166 157.981 15.7984 157.981Z" fill="#222222"/>
<path d="M22.1953 157.981C21.2236 157.981 20.4398 157.698 19.8439 157.134C19.2479 156.569 18.9499 155.85 18.9499 154.977C18.9499 153.937 19.2997 153.116 19.9993 152.513C20.7119 151.909 21.7419 151.595 23.0892 151.569C23.2706 151.556 23.6399 151.55 24.1969 151.55C24.754 151.55 25.1168 151.556 25.2852 151.569C25.363 151.569 25.4018 151.531 25.4018 151.454V150.664C25.4018 150.138 25.2334 149.746 24.8966 149.49C24.5727 149.22 24.0933 149.085 23.4585 149.085C22.9532 149.085 22.5257 149.188 22.1759 149.394C21.839 149.599 21.5151 149.875 21.2042 150.221C21.1653 150.273 21.12 150.305 21.0682 150.318C21.0164 150.318 20.9645 150.298 20.9127 150.26L19.4163 149.105C19.3127 149.028 19.2868 148.944 19.3386 148.854C19.7532 148.264 20.3297 147.789 21.0682 147.43C21.8066 147.057 22.6617 146.871 23.6334 146.871C25.0326 146.871 26.1468 147.199 26.9759 147.853C27.8051 148.495 28.2197 149.374 28.2197 150.491V157.615C28.2197 157.743 28.1549 157.807 28.0253 157.807H25.5767C25.5249 157.807 25.4796 157.788 25.4407 157.75C25.4148 157.711 25.4018 157.666 25.4018 157.615V153.726C25.4018 153.649 25.363 153.61 25.2852 153.61C25.0779 153.597 24.6504 153.591 24.0026 153.591H23.3419C22.7848 153.604 22.3702 153.694 22.0981 153.86C21.839 154.027 21.7095 154.31 21.7095 154.708C21.7095 155.054 21.8196 155.33 22.0398 155.535C22.2601 155.741 22.584 155.844 23.0115 155.844C23.1799 155.844 23.3807 155.824 23.6139 155.786H23.6722C23.75 155.786 23.7953 155.831 23.8083 155.921L24.0026 157.538V157.596C24.0026 157.647 23.9573 157.692 23.8666 157.73C23.3613 157.897 22.8042 157.981 22.1953 157.981Z" fill="#222222"/>
<path d="M27.9256 142C28.0551 142 28.1199 142.064 28.1199 142.193V145.312C28.1199 145.44 28.0551 145.504 27.9256 145.504H18.9862C18.8567 145.504 18.7919 145.44 18.7919 145.312V143.675C18.7919 143.547 18.8567 143.483 18.9862 143.483H23.1061V142.193C23.1061 142.064 23.1709 142 23.3004 142H24.9328C25.0624 142 25.1272 142.064 25.1272 142.193V143.483H26.0988V142.193C26.0988 142.064 26.1636 142 26.2932 142H27.9256Z" fill="#222222"/>
<path d="M34.7462 146.871C36.4175 146.871 37.7066 147.314 38.6135 148.2C39.5333 149.085 39.9932 150.44 39.9932 152.262C39.9932 154.278 39.5851 155.741 38.7689 156.652C37.9527 157.551 36.7414 158 35.1349 158C33.6191 158 32.4725 157.634 31.6952 156.903C30.9308 156.171 30.5486 155.125 30.5486 153.764C30.5486 153.315 30.594 152.763 30.6847 152.108C30.6976 151.993 30.7689 151.935 30.8984 151.935H34.6296C34.7592 151.935 34.824 151.999 34.824 152.128V153.591C34.824 153.719 34.7592 153.783 34.6296 153.783H33.3276V153.88C33.3276 154.496 33.4766 154.958 33.7746 155.266C34.0725 155.561 34.5519 155.709 35.2126 155.709C35.7049 155.709 36.0871 155.613 36.3592 155.42C36.6442 155.215 36.8515 154.874 36.9811 154.4C37.1106 153.912 37.1754 153.225 37.1754 152.339C37.1754 151.158 36.994 150.337 36.6313 149.875C36.2685 149.413 35.6661 149.182 34.824 149.182C33.8782 149.182 32.9972 149.509 32.181 150.164C32.1422 150.202 32.0968 150.221 32.045 150.221C31.9932 150.221 31.9478 150.196 31.909 150.144L30.7235 148.546C30.6976 148.495 30.6847 148.456 30.6847 148.431C30.6847 148.354 30.717 148.296 30.7818 148.258C31.1834 147.885 31.7146 147.564 32.3754 147.295C33.0361 147.012 33.8264 146.871 34.7462 146.871Z" fill="#222222"/>
<path d="M42.4971 157.807C42.3675 157.807 42.3028 157.743 42.3028 157.615V148.469C42.3028 148.367 42.3416 148.29 42.4194 148.238C42.9117 147.866 43.5918 147.545 44.4599 147.276C45.3408 147.006 46.2089 146.871 47.0639 146.871C48.6186 146.871 49.8299 147.205 50.698 147.872C51.566 148.54 52 149.548 52 150.895V157.615C52 157.743 51.9352 157.807 51.8057 157.807H49.3765C49.2469 157.807 49.1822 157.743 49.1822 157.615V151.088C49.1822 150.395 48.9943 149.907 48.6186 149.625C48.2429 149.329 47.6664 149.182 46.889 149.182C46.1376 149.182 45.5481 149.31 45.1206 149.567V157.615C45.1206 157.743 45.0558 157.807 44.9263 157.807H42.4971Z" fill="#222222"/>
<path d="M64.2743 183.761C64.0914 183.761 64 183.673 64 183.496V169.183C64 169.006 64.0914 168.918 64.2743 168.918H66.9903C67.1549 168.918 67.2646 168.989 67.3195 169.13L67.8133 170.72H67.8956C68.2614 170.102 68.8558 169.581 69.6788 169.157C70.5019 168.733 71.4163 168.52 72.4222 168.52C73.9585 168.52 75.1839 168.927 76.0984 169.74C77.0311 170.553 77.4975 171.737 77.4975 173.292V183.496C77.4975 183.673 77.4061 183.761 77.2232 183.761H73.7939C73.611 183.761 73.5196 183.673 73.5196 183.496V174.113C73.5196 172.558 72.7423 171.781 71.1877 171.781C70.3098 171.781 69.5508 172.099 68.9107 172.735C68.2888 173.353 67.9779 174.113 67.9779 175.014V183.496C67.9779 183.673 67.8865 183.761 67.7036 183.761H64.2743Z" fill="#222222"/>
<path d="M77.0867 162C77.2695 162 77.361 162.088 77.361 162.265V166.586C77.361 166.762 77.2695 166.851 77.0867 166.851H64.467C64.2841 166.851 64.1927 166.762 64.1927 166.586V164.333C64.1927 164.156 64.2841 164.067 64.467 164.067H73.6848V162.265C73.6848 162.088 73.7763 162 73.9592 162H77.0867Z" fill="#222222"/>
<path d="M94.6444 172.231C93.7848 172.231 93.0715 172.346 92.5046 172.576C91.9376 172.788 91.2609 173.23 90.4744 173.901C91.9925 173.99 93.1447 174.422 93.9311 175.2C94.7358 175.978 95.1382 177.117 95.1382 178.619V183.496C95.1382 183.673 95.0468 183.761 94.8639 183.761H91.4072C91.334 183.761 91.27 183.735 91.2152 183.682C91.1786 183.629 91.1603 183.567 91.1603 183.496V178.752C91.1603 177.974 90.9591 177.4 90.5567 177.029C90.1727 176.64 89.5783 176.446 88.7735 176.446C88.2614 176.446 87.8225 176.534 87.4567 176.711C87.1092 176.87 86.7251 177.126 86.3045 177.48L85.4815 178.169C85.3534 178.292 85.2711 178.398 85.2345 178.487C85.198 178.575 85.1797 178.734 85.1797 178.964V183.496C85.1797 183.673 85.0882 183.761 84.9053 183.761H81.4487C81.2841 183.761 81.2018 183.673 81.2018 183.496V169.183C81.2018 169.006 81.2841 168.918 81.4487 168.918H84.9053C85.0882 168.918 85.1797 169.006 85.1797 169.183V174.113L88.6912 171.065C89.6789 170.199 90.5933 169.625 91.4346 169.342C92.2759 169.059 93.2087 168.918 94.2329 168.918H94.8639C95.0468 168.918 95.1382 169.006 95.1382 169.183V171.993C95.1382 172.063 95.1108 172.125 95.0559 172.178C95.001 172.214 94.937 172.231 94.8639 172.231H94.6444Z" fill="#222222"/>
<path d="M102.808 184C101.436 184 100.329 183.611 99.488 182.834C98.6467 182.056 98.226 181.067 98.226 179.865C98.226 178.434 98.7198 177.303 99.7075 176.472C100.713 175.642 102.167 175.209 104.069 175.173C104.326 175.156 104.847 175.147 105.633 175.147C106.42 175.147 106.932 175.156 107.17 175.173C107.279 175.173 107.334 175.12 107.334 175.014V173.928C107.334 173.203 107.096 172.664 106.621 172.311C106.164 171.94 105.487 171.754 104.591 171.754C103.877 171.754 103.274 171.896 102.78 172.178C102.305 172.461 101.847 172.841 101.408 173.318C101.354 173.389 101.29 173.433 101.216 173.451C101.143 173.451 101.07 173.424 100.997 173.371L98.8845 171.781C98.7381 171.675 98.7016 171.56 98.7747 171.436C99.36 170.623 100.174 169.969 101.216 169.475C102.259 168.962 103.466 168.706 104.838 168.706C106.813 168.706 108.386 169.157 109.556 170.058C110.727 170.941 111.312 172.152 111.312 173.689V183.496C111.312 183.673 111.221 183.761 111.038 183.761H107.581C107.508 183.761 107.444 183.735 107.389 183.682C107.352 183.629 107.334 183.567 107.334 183.496V178.142C107.334 178.036 107.279 177.983 107.17 177.983C106.877 177.965 106.273 177.957 105.359 177.957H104.426C103.64 177.974 103.054 178.098 102.67 178.328C102.305 178.557 102.122 178.946 102.122 179.494C102.122 179.971 102.277 180.351 102.588 180.634C102.899 180.916 103.356 181.058 103.96 181.058C104.198 181.058 104.481 181.031 104.81 180.978H104.892C105.002 180.978 105.066 181.04 105.085 181.164L105.359 183.39V183.47C105.359 183.541 105.295 183.602 105.167 183.655C104.454 183.885 103.667 184 102.808 184Z" fill="#222222"/>
<path d="M107.849 166.851C106.239 166.851 105.05 166.515 104.282 165.843C103.496 165.172 103.102 164.067 103.102 162.53C103.102 162.353 103.194 162.265 103.377 162.265H106.532C106.733 162.265 106.833 162.353 106.833 162.53C106.833 163.113 106.925 163.511 107.108 163.723C107.291 163.935 107.675 164.041 108.26 164.041H114.323C114.506 164.041 114.597 164.129 114.597 164.306V166.586C114.597 166.762 114.506 166.851 114.323 166.851H107.849Z" fill="#222222"/>
<path d="M120.306 168.759C122.409 168.812 124.046 169.342 125.217 170.349C126.406 171.357 127 172.735 127 174.484V177.506C127 179.45 126.442 180.978 125.327 182.092C124.229 183.205 122.711 183.761 120.772 183.761H117.755C117.59 183.761 117.48 183.691 117.426 183.549L113.557 172.973L113.53 172.867C113.53 172.744 113.612 172.682 113.777 172.682H117.288C117.453 172.682 117.563 172.753 117.618 172.894L120.553 180.952H120.608C121.504 180.952 122.126 180.651 122.473 180.051C122.839 179.45 123.022 178.513 123.022 177.241V174.882C123.022 172.92 122.117 171.896 120.306 171.807C120.123 171.807 120.032 171.719 120.032 171.542V169.024C120.032 168.847 120.123 168.759 120.306 168.759Z" fill="#222222"/>
<path d="M27.5066 168.957C27.6834 168.957 27.7718 169.045 27.7718 169.22V183.396C27.7718 183.571 27.6834 183.659 27.5066 183.659H24.1385C23.9971 183.659 23.8822 183.606 23.7938 183.501L20.3992 178.854L16.8985 183.501C16.8278 183.606 16.7128 183.659 16.5537 183.659H13.2652C13.0884 183.659 13 183.571 13 183.396V172.711C13 171.434 13.3271 170.453 13.9813 169.771C14.6531 169.088 15.5813 168.747 16.7659 168.747C17.6145 168.747 18.3925 168.835 19.0997 169.01C19.2411 169.027 19.3118 169.132 19.3118 169.325V171.556C19.3118 171.714 19.2411 171.792 19.0997 171.792L18.251 171.766C17.7737 171.766 17.4112 171.889 17.1637 172.134C16.9338 172.379 16.8189 172.807 16.8189 173.42V178.828L19.0201 175.625C19.0732 175.555 19.1262 175.512 19.1792 175.494C19.2323 175.477 19.2942 175.468 19.3649 175.468H21.3539C21.46 175.468 21.5307 175.477 21.5661 175.494C21.6191 175.512 21.6633 175.555 21.6987 175.625L23.9264 178.828V169.22C23.9264 169.045 24.0148 168.957 24.1916 168.957H27.5066Z" fill="#222222"/>
<path d="M24.3615 166.909C24.1847 166.909 24.0963 166.822 24.0963 166.647V162.263C24.0963 162.088 24.1847 162 24.3615 162H27.3848C27.5616 162 27.65 162.088 27.65 162.263V166.647C27.65 166.822 27.5616 166.909 27.3848 166.909H24.3615Z" fill="#222222"/>
<path d="M36.6928 168.747C38.9735 168.747 40.7327 169.351 41.9703 170.558C43.2256 171.766 43.8533 173.613 43.8533 176.098C43.8533 178.846 43.2963 180.841 42.1825 182.084C41.0686 183.309 39.4155 183.921 37.2232 183.921C35.1546 183.921 33.5899 183.422 32.5291 182.425C31.486 181.427 30.9644 180.001 30.9644 178.146C30.9644 177.533 31.0263 176.78 31.15 175.888C31.1677 175.73 31.265 175.652 31.4418 175.652H36.5337C36.7105 175.652 36.7989 175.739 36.7989 175.914V177.909C36.7989 178.084 36.7105 178.172 36.5337 178.172H34.7568V178.303C34.7568 179.143 34.9601 179.773 35.3668 180.193C35.7734 180.596 36.4276 180.797 37.3293 180.797C38.0011 180.797 38.5227 180.666 38.894 180.403C39.2829 180.123 39.5658 179.66 39.7426 179.012C39.9194 178.347 40.0078 177.411 40.0078 176.203C40.0078 174.593 39.7603 173.473 39.2653 172.842C38.7702 172.212 37.9481 171.897 36.7989 171.897C35.5082 171.897 34.306 172.344 33.1921 173.236C33.1391 173.289 33.0772 173.315 33.0065 173.315C32.9357 173.315 32.8739 173.28 32.8208 173.21L31.2031 171.031C31.1677 170.961 31.15 170.909 31.15 170.874C31.15 170.768 31.1942 170.69 31.2826 170.637C31.8307 170.13 32.5556 169.692 33.4573 169.325C34.359 168.94 35.4375 168.747 36.6928 168.747Z" fill="#222222"/>
<path d="M52.1235 184C50.5499 184 49.2946 183.562 48.3576 182.687C47.4205 181.812 46.952 180.587 46.952 179.012V169.22C46.952 169.045 47.0404 168.957 47.2172 168.957H50.5322C50.7091 168.957 50.7975 169.045 50.7975 169.22V178.224C50.7975 179.082 50.9743 179.73 51.3279 180.167C51.6991 180.587 52.2738 180.797 53.0517 180.797C53.9003 180.797 54.6252 180.491 55.2263 179.878C55.8451 179.248 56.1546 178.487 56.1546 177.594V169.22C56.1546 169.045 56.243 168.957 56.4198 168.957H59.7348C59.9116 168.957 60 169.045 60 169.22V183.396C60 183.571 59.9116 183.659 59.7348 183.659H57.1093C56.9678 183.659 56.8706 183.589 56.8176 183.449L56.3402 181.821H56.2341C55.8628 182.451 55.3236 182.976 54.6164 183.396C53.9092 183.799 53.0782 184 52.1235 184Z" fill="#222222"/>
<g filter="url(#filter0_b_1921_70470)">
<path d="M121.931 144.831H67.1462C64.6197 144.831 62.582 142.806 62.582 140.322V108.056C62.582 105.567 64.62 103.542 67.1462 103.542H121.936C124.463 103.542 126.501 105.567 126.501 108.056V140.321C126.496 142.806 124.458 144.831 121.931 144.831Z" fill="url(#paint0_linear_1921_70470)" stroke="url(#paint1_linear_1921_70470)"/>
<circle cx="104.851" cy="132.483" r="5.99198" fill="white"/>
<circle cx="114.173" cy="132.483" r="5.99198" fill="white"/>
</g>
<path d="M75.5712 70.5367H69.2322V67.6218C69.2322 65.6206 67.7791 64 65.9846 64C64.1902 64 62.7371 65.6206 62.7371 67.6218V70.5367H31.7051V67.6218C31.7051 65.6206 30.2519 64 28.4575 64C26.6631 64 25.21 65.6206 25.21 67.6218V70.5367H16.8912C14.7359 70.5367 13 72.4836 13 74.8764V127.705C13 130.109 14.7457 132.045 16.8912 132.045H75.5712C77.7265 132.045 79.4624 130.098 79.4624 127.705V74.8764C79.4624 72.4727 77.7168 70.5367 75.5712 70.5367Z" fill="url(#paint2_linear_1921_70470)"/>
<path d="M33.6475 98H23.0771V105.111H33.6475V98Z" fill="white"/>
<path d="M69 86H23V93H69V86Z" fill="white"/>
<path d="M68.9678 98H58.3975V105.111H68.9678V98Z" fill="white"/>
<path d="M51.3428 98H40.7725V105.111H51.3428V98Z" fill="white"/>
<path d="M33.6475 109.954H23.0771V117.064H33.6475V109.954Z" fill="white"/>
<path d="M68.9678 109.954H58.3975V117.064H68.9678V109.954Z" fill="white"/>
<path d="M51.3428 109.954H40.7725V117.064H51.3428V109.954Z" fill="white"/>
<path d="M121.45 86.6283H88.7984C87.8085 86.6283 87 85.822 87 84.8142C87 83.8063 87.8085 83 88.7984 83H121.45C122.44 83 123.249 83.8063 123.249 84.8142C123.249 85.822 122.44 86.6283 121.45 86.6283Z" fill="#00BCB4"/>
<path d="M111.419 93.4998H88.7984C87.8085 93.4998 87 92.6935 87 91.6857C87 90.6778 87.8085 89.8715 88.7984 89.8715H111.419C112.409 89.8715 113.217 90.6778 113.217 91.6857C113.217 92.6767 112.409 93.4998 111.419 93.4998Z" fill="#00BCB4"/>
<defs>
<filter id="filter0_b_1921_70470" x="58.082" y="99.0421" width="72.9189" height="50.2889" filterUnits="userSpaceOnUse" color-interpolation-filters="sRGB">
<feFlood flood-opacity="0" result="BackgroundImageFix"/>
<feGaussianBlur in="BackgroundImageFix" stdDeviation="2"/>
<feComposite in2="SourceAlpha" operator="in" result="effect1_backgroundBlur_1921_70470"/>
<feBlend mode="normal" in="SourceGraphic" in2="effect1_backgroundBlur_1921_70470" result="shape"/>
</filter>
<linearGradient id="paint0_linear_1921_70470" x1="113.223" y1="108.726" x2="113.717" y2="146.178" gradientUnits="userSpaceOnUse">
<stop stop-color="#00BCB4" stop-opacity="0.9"/>
<stop offset="0.04" stop-color="#00BCB4" stop-opacity="0.86"/>
<stop offset="0.28" stop-color="#00BCB4" stop-opacity="0.5"/>
<stop offset="0.65" stop-color="#00BCB4" stop-opacity="0.4"/>
<stop offset="1" stop-color="#00BCB4" stop-opacity="0.3"/>
</linearGradient>
<linearGradient id="paint1_linear_1921_70470" x1="70.2807" y1="105.431" x2="80.8662" y2="167.536" gradientUnits="userSpaceOnUse">
<stop offset="0.286017" stop-color="#00BCB4" stop-opacity="0"/>
<stop offset="0.437062" stop-color="#00BCB4"/>
<stop offset="0.676651" stop-color="#00BCB4" stop-opacity="0"/>
<stop offset="1" stop-color="#00BCB4"/>
</linearGradient>
<linearGradient id="paint2_linear_1921_70470" x1="15.4079" y1="72.6085" x2="76.8386" y2="108.437" gradientUnits="userSpaceOnUse">
<stop stop-color="#FB64F3"/>
<stop offset="0.2026" stop-color="#D464F5"/>
<stop offset="0.4457" stop-color="#AC64F8"/>
<stop offset="0.668" stop-color="#8F64FA"/>
<stop offset="0.8601" stop-color="#7D64FB"/>
<stop offset="1" stop-color="#7764FB"/>
</linearGradient>
</defs>
</svg>
