<svg width="383" height="329" viewBox="0 0 383 329" fill="none" xmlns="http://www.w3.org/2000/svg">
<g opacity="0.8" clip-path="url(#clip0_525_14408)">
<path d="M245.217 188.797L245.217 187.797L245.217 188.797ZM104.5 193.797L103.5 193.797L104.5 193.797ZM109.5 188.797L109.5 189.797L109.5 188.797ZM104.5 323L105.5 323L104.5 323ZM51.4415 278.5L51.4415 277.5L51.4415 278.5ZM14 278.5L14 279.5L14 278.5ZM7.99999 151.741L7.99999 273.5L9.99999 273.5L9.99999 151.741L7.99999 151.741ZM391.541 183.797L391.541 4.00009L389.541 4.00009L389.541 183.797L391.541 183.797ZM14 279.5L51.4415 279.5L51.4415 277.5L14 277.5L14 279.5ZM55.4415 283.5L55.4415 323L57.4415 323L57.4415 283.5L55.4415 283.5ZM61.4415 329L99.5 329L99.5 327L61.4415 327L61.4415 329ZM105.5 323L105.5 193.797L103.5 193.797L103.5 323L105.5 323ZM109.5 189.797L245.217 189.797L245.217 187.797L109.5 187.797L109.5 189.797ZM245.217 189.797L385.541 189.797L385.541 187.797L245.217 187.797L245.217 189.797ZM395.541 8.98523e-05L676 9.04291e-05L676 -1.99991L395.541 -1.99991L395.541 8.98523e-05ZM680 4.00009L680 55.0001L682 55.0001L682 4.00009L680 4.00009ZM686 61.0001L772 61.0001L772 59.0001L686 59.0001L686 61.0001ZM776 65.0001L776 193.805L778 193.805L778 65.0001L776 65.0001ZM772 61.0001C774.209 61.0001 776 62.791 776 65.0001L778 65.0001C778 61.6864 775.314 59.0001 772 59.0001L772 61.0001ZM676 9.04291e-05C678.209 9.04064e-05 680 1.79095 680 4.00009L682 4.00009C682 0.686385 679.314 -1.99991 676 -1.99991L676 9.04291e-05ZM105.5 193.797C105.5 191.588 107.291 189.797 109.5 189.797L109.5 187.797C106.186 187.797 103.5 190.483 103.5 193.797L105.5 193.797ZM99.5 329C102.814 329 105.5 326.314 105.5 323L103.5 323C103.5 325.209 101.709 327 99.5 327L99.5 329ZM51.4415 279.5C53.6507 279.5 55.4415 281.291 55.4415 283.5L57.4415 283.5C57.4415 280.186 54.7552 277.5 51.4415 277.5L51.4415 279.5ZM55.4415 323C55.4415 326.314 58.1278 329 61.4415 329L61.4415 327C59.2324 327 57.4415 325.209 57.4415 323L55.4415 323ZM680 55.0001C680 58.3138 682.686 61.0001 686 61.0001L686 59.0001C683.791 59.0001 682 57.2092 682 55.0001L680 55.0001ZM391.541 4.00009C391.541 1.79095 393.332 8.9875e-05 395.541 8.98523e-05L395.541 -1.99991C392.228 -1.99991 389.541 0.686383 389.541 4.00009L391.541 4.00009ZM389.541 183.797C389.541 186.006 387.751 187.797 385.541 187.797L385.541 189.797C388.855 189.797 391.541 187.111 391.541 183.797L389.541 183.797ZM7.99999 273.5C7.99999 276.814 10.6863 279.5 14 279.5L14 277.5C11.7909 277.5 9.99999 275.709 9.99999 273.5L7.99999 273.5Z" fill="url(#paint0_linear_525_14408)"/>
</g>
<defs>
<linearGradient id="paint0_linear_525_14408" x1="63" y1="216" x2="0.999992" y2="148" gradientUnits="userSpaceOnUse">
<stop stop-color="#FFE600"/>
<stop offset="0.771786" stop-color="#FFE600" stop-opacity="0"/>
</linearGradient>
<clipPath id="clip0_525_14408">
<rect width="383" height="329" fill="white"/>
</clipPath>
</defs>
</svg>
