<svg width="65" height="33" viewBox="0 0 65 33" fill="none" xmlns="http://www.w3.org/2000/svg">
<path fill-rule="evenodd" clip-rule="evenodd" d="M0 11.9826C0 5.3649 5.37269 0 12 0C18.6244 0 23.997 5.3649 24 11.9826C24 14.1845 23.4037 16.248 22.3646 18.0196L13.5793 32.1334C13.2458 32.6551 12.6642 33 12 33C11.3358 33 10.7542 32.6522 10.4207 32.1334L1.63542 18.0196C0.59631 16.245 0 14.1845 0 11.9826ZM41 11.9826C41 5.3649 46.3727 0 53 0C59.6244 0 64.997 5.3649 65 11.9826C65 14.1845 64.4037 16.248 63.3646 18.0196L54.5793 32.1334C54.2458 32.6551 53.6642 33 53 33C52.3358 33 51.7542 32.6522 51.4207 32.1334L42.6354 18.0196C41.5963 16.245 41 14.1845 41 11.9826Z" fill="url(#paint0_linear_544_18879)"/>
<defs>
<linearGradient id="paint0_linear_544_18879" x1="-10" y1="-3.0189e-07" x2="90" y2="46" gradientUnits="userSpaceOnUse">
<stop stop-color="#22F8EB"/>
<stop offset="0.514925" stop-color="#E5FFBB"/>
<stop offset="1" stop-color="#FFE600"/>
</linearGradient>
</defs>
</svg>
