<svg width="65" height="66" viewBox="0 0 65 66" fill="none" xmlns="http://www.w3.org/2000/svg">
<path d="M38.836 0.627519C39.3415 0.732105 39.6727 1.22017 39.5681 1.72567C39.5333 1.89998 39.4635 2.03943 39.3589 2.16144L38.47 3.10271C38.47 3.10271 38.3828 3.15501 38.3305 3.13758C38.2782 3.13758 38.2434 3.08528 38.2259 3.05042L37.7727 1.84768C37.7204 1.69081 37.703 1.53393 37.7379 1.35962C37.8425 0.854121 38.3305 0.522933 38.836 0.627519" fill="#F9BE00"/>
<path d="M35.2976 4.20089C35.9774 4.27061 36.4829 4.8807 36.4131 5.5605C36.3957 5.7871 36.3086 5.99628 36.1865 6.17059L35.1407 7.54763C35.1407 7.54763 35.0361 7.63479 34.9664 7.61735C34.8967 7.61735 34.8444 7.56506 34.8095 7.51277L34.0425 5.96141C33.9554 5.76967 33.9205 5.54307 33.938 5.31647C34.0077 4.63666 34.6178 4.13116 35.2976 4.20089" fill="#F9BE00"/>
<path d="M32.5089 8.99438C33.363 8.99438 34.0602 9.69162 34.0602 10.5457C34.0602 10.8246 33.9905 11.1035 33.8511 11.3301L32.718 13.1604C32.718 13.1604 32.596 13.265 32.5089 13.265C32.4217 13.265 32.352 13.2127 32.2997 13.1604L31.1667 11.3301C31.0272 11.1035 30.9575 10.8421 30.9575 10.5457C30.9575 9.69162 31.6548 8.99438 32.5089 8.99438Z" fill="#F9BE00"/>
<path d="M32.5087 14.7814C33.5371 14.7814 34.3738 15.6181 34.3738 16.6465C34.3738 16.9952 34.2866 17.3089 34.1123 17.5878L32.7527 19.7841C32.7527 19.7841 32.6133 19.9236 32.5087 19.9236C32.4041 19.9236 32.3169 19.8713 32.2646 19.7841L30.905 17.5878C30.7481 17.3089 30.6436 16.9952 30.6436 16.6465C30.6436 15.6181 31.4802 14.7814 32.5087 14.7814" fill="#F9BE00"/>
<path d="M26.164 64.3899C26.6695 64.4945 27.1576 64.1633 27.2622 63.6578C27.297 63.4835 27.2796 63.3266 27.2273 63.1697L26.7741 61.967C26.7741 61.967 26.7218 61.8799 26.6695 61.8799C26.6172 61.8799 26.5649 61.8799 26.5301 61.9321L25.6411 62.8734C25.5365 62.9954 25.4493 63.1349 25.4319 63.3092C25.3273 63.8147 25.6585 64.3028 26.164 64.4073" fill="#F9BE00"/>
<path d="M29.7197 60.7992C30.3995 60.8689 31.0096 60.3634 31.0793 59.6836C31.0967 59.457 31.0793 59.2304 30.9747 59.0386L30.2077 57.4873C30.2077 57.4873 30.1206 57.3827 30.0509 57.3827C29.9811 57.3827 29.9114 57.4001 29.8765 57.4524L28.8307 58.8295C28.7087 59.0038 28.6215 59.2129 28.6041 59.4395C28.5344 60.1193 29.0399 60.7294 29.7197 60.7992Z" fill="#F9BE00"/>
<path d="M32.5089 56.0056C33.363 56.0056 34.0602 55.3084 34.0602 54.4543C34.0602 54.1754 33.9905 53.8965 33.8511 53.6699L32.718 51.8396C32.718 51.8396 32.596 51.7176 32.5089 51.7176C32.4217 51.7176 32.352 51.7699 32.2997 51.8396L31.1667 53.6699C31.0272 53.8965 30.9575 54.1754 30.9575 54.4543C30.9575 55.3084 31.6548 56.0056 32.5089 56.0056Z" fill="#F9BE00"/>
<path d="M32.5087 50.2185C33.5371 50.2185 34.3738 49.3819 34.3738 48.3534C34.3738 48.0048 34.2866 47.6911 34.1123 47.4122L32.7527 45.2159C32.7527 45.2159 32.6133 45.0764 32.5087 45.0764C32.4041 45.0764 32.3169 45.1287 32.2646 45.2159L30.905 47.4122C30.7481 47.6911 30.6436 48.0048 30.6436 48.3534C30.6436 49.3819 31.4802 50.2185 32.5087 50.2185Z" fill="#F9BE00"/>
<path d="M50.5674 5.47337C51.0032 5.75226 51.1078 6.34491 50.8289 6.76326C50.7417 6.9027 50.6023 7.00729 50.4628 7.07701L49.2775 7.61737C49.2775 7.61737 49.1729 7.6348 49.1381 7.61737C49.1032 7.58251 49.0684 7.54765 49.0684 7.49536L49.1032 6.20547C49.1032 6.04859 49.1555 5.89171 49.2601 5.75226C49.539 5.31649 50.1316 5.2119 50.55 5.4908" fill="#F9BE00"/>
<path d="M45.9131 7.42559C46.5232 7.75677 46.7498 8.50631 46.4186 9.11639C46.314 9.30813 46.1571 9.48244 45.9654 9.58703L44.4663 10.4411C44.4663 10.4411 44.3443 10.476 44.2746 10.4411C44.2049 10.4063 44.17 10.354 44.17 10.2843L44.0654 8.5586C44.0654 8.34943 44.1003 8.12282 44.2049 7.93108C44.5361 7.321 45.2856 7.0944 45.8957 7.42559" fill="#F9BE00"/>
<path d="M41.5034 10.7897C42.3052 11.1209 42.6713 12.0273 42.3401 12.8292C42.2355 13.0906 42.0612 13.3172 41.852 13.4741L40.0915 14.7291C40.0915 14.7291 39.9346 14.7814 39.8649 14.7466C39.7778 14.7117 39.7255 14.642 39.7255 14.5723L39.3768 12.4457C39.342 12.1842 39.3768 11.9053 39.4814 11.6439C39.8126 10.842 40.719 10.476 41.5034 10.8072" fill="#F9BE00"/>
<path d="M39.2896 16.1411C40.2483 16.542 40.684 17.6227 40.3006 18.5814C40.1786 18.8952 39.9519 19.1566 39.7079 19.3484L37.5988 20.8474C37.5988 20.8474 37.4245 20.9172 37.3199 20.8823C37.2327 20.8474 37.163 20.7603 37.1456 20.6731L36.7272 18.1282C36.6749 17.8145 36.7272 17.4833 36.8492 17.1695C37.2502 16.2108 38.3309 15.7576 39.2896 16.1585" fill="#F9BE00"/>
<path d="M14.4502 59.5267C14.886 59.8056 15.4612 59.701 15.7401 59.2652C15.8447 59.1258 15.8796 58.9689 15.897 58.812L15.9319 57.5221C15.9319 57.5221 15.9144 57.4175 15.8621 57.4001C15.8098 57.3652 15.7576 57.3652 15.7227 57.4001L14.5374 57.9405C14.3979 58.0102 14.2585 58.1148 14.1713 58.2542C13.8924 58.69 13.997 59.2652 14.4328 59.5441" fill="#F9BE00"/>
<path d="M19.1045 57.5744C19.7146 57.9056 20.4641 57.679 20.7953 57.069C20.8999 56.8598 20.9522 56.6506 20.9347 56.4414L20.8301 54.7158C20.8301 54.7158 20.7953 54.5938 20.7256 54.5589C20.6733 54.524 20.5861 54.524 20.5338 54.5589L19.0348 55.4304C18.8605 55.535 18.7036 55.7093 18.5816 55.9011C18.2504 56.5112 18.4944 57.2607 19.0871 57.5919" fill="#F9BE00"/>
<path d="M23.5146 54.2103C24.299 54.5415 25.2229 54.158 25.5366 53.3736C25.6412 53.1121 25.6761 52.8332 25.6412 52.5718L25.2926 50.4452C25.2926 50.4452 25.2229 50.2883 25.1531 50.2534C25.066 50.2186 24.9963 50.236 24.9265 50.2709L23.166 51.5259C22.9568 51.6828 22.7825 51.9094 22.6779 52.1708C22.3467 52.9727 22.7302 53.8791 23.5146 54.2103Z" fill="#F9BE00"/>
<path d="M25.7278 48.8764C26.6865 49.2773 27.7672 48.8241 28.1681 47.8654C28.3076 47.5516 28.3424 47.2204 28.2901 46.9067L27.8718 44.3443C27.8718 44.2572 27.7847 44.17 27.6975 44.1352C27.6103 44.1003 27.5058 44.1177 27.4186 44.17L25.3095 45.6865C25.048 45.8783 24.8388 46.1397 24.7168 46.4535C24.3159 47.4122 24.7691 48.4929 25.7278 48.8938" fill="#F9BE00"/>
<path d="M59.5267 14.4503C59.8056 14.886 59.7011 15.4613 59.2653 15.7401C59.1258 15.8447 58.969 15.8796 58.8121 15.897L57.5222 15.9493C57.5222 15.9493 57.435 15.9319 57.4002 15.8796C57.3653 15.8447 57.3653 15.7924 57.4002 15.7401L57.9405 14.5548C58.0103 14.4154 58.1148 14.2759 58.2543 14.1888C58.6901 13.9099 59.2653 14.0145 59.5442 14.4503" fill="#F9BE00"/>
<path d="M54.4891 14.4677C54.9248 15.0081 54.8551 15.7751 54.3147 16.2108C54.1404 16.3503 53.9313 16.4374 53.7221 16.4723L52.0139 16.6989C52.0139 16.6989 51.8918 16.6815 51.8396 16.6292C51.8047 16.5769 51.7873 16.5072 51.8047 16.4374L52.3625 14.7989C52.4322 14.6072 52.5542 14.4154 52.746 14.276C53.2689 13.8402 54.0533 13.91 54.4891 14.4503" fill="#F9BE00"/>
<path d="M49.1204 15.8796C49.7305 16.4897 49.7305 17.4658 49.1204 18.0759C48.9112 18.2851 48.6672 18.4071 48.4231 18.4768L46.3314 18.9649C46.3314 18.9649 46.1745 18.9649 46.1048 18.8952C46.0351 18.8429 46.0177 18.7557 46.0351 18.6686L46.5232 16.5769C46.5929 16.3154 46.7323 16.0714 46.9241 15.8796C47.5342 15.2695 48.5103 15.2695 49.1204 15.8796" fill="#F9BE00"/>
<path d="M45.0244 19.9759C45.7565 20.708 45.7565 21.8933 45.0244 22.6079C44.7803 22.852 44.484 23.0088 44.1877 23.096L41.6602 23.6886C41.573 23.7061 41.4684 23.6886 41.3987 23.6189C41.329 23.5492 41.2941 23.4446 41.3116 23.3575L41.9042 20.83C41.9914 20.5162 42.1483 20.2199 42.3923 19.9933C43.1244 19.2612 44.3097 19.2612 45.0244 19.9933" fill="#F9BE00"/>
<path d="M5.47324 50.5672C5.75214 51.003 6.34479 51.1075 6.76314 50.8286C6.90258 50.7241 7.00717 50.602 7.07689 50.4626L7.61725 49.2773C7.61725 49.2773 7.61725 49.1727 7.61725 49.1378C7.58239 49.103 7.54753 49.0681 7.49523 49.0681L6.20534 49.1204C6.04847 49.1204 5.89159 49.1727 5.75214 49.2773C5.31637 49.5562 5.21178 50.1488 5.49068 50.5672" fill="#F9BE00"/>
<path d="M10.5285 50.5497C10.9643 51.0901 11.7487 51.1598 12.2716 50.7241C12.4459 50.5846 12.5679 50.3929 12.6551 50.2011L13.2129 48.5626C13.2129 48.5626 13.2129 48.4406 13.178 48.3709C13.1432 48.3186 13.0734 48.3011 13.0037 48.3011L11.2955 48.5278C11.0863 48.5626 10.8771 48.6498 10.7028 48.7892C10.1799 49.225 10.0928 50.0094 10.5285 50.5323" fill="#F9BE00"/>
<path d="M15.8794 49.1204C16.4895 49.7305 17.4657 49.7305 18.0757 49.1204C18.2849 48.9112 18.4069 48.6672 18.4766 48.4232L18.9647 46.3314C18.9647 46.3314 18.9647 46.1746 18.895 46.1048C18.8253 46.0525 18.7555 46.0177 18.6684 46.0351L16.5767 46.5232C16.3152 46.5929 16.0712 46.7324 15.8794 46.9241C15.2694 47.5342 15.2694 48.5103 15.8794 49.1204" fill="#F9BE00"/>
<path d="M19.976 45.0241C20.7081 45.7562 21.8934 45.7562 22.6081 45.0241C22.8521 44.7801 23.009 44.4838 23.0961 44.1874L23.6888 41.66C23.7062 41.5728 23.6888 41.4682 23.619 41.3985C23.5493 41.3288 23.4447 41.2939 23.3576 41.3288L20.8301 41.9214C20.5163 42.0086 20.22 42.1655 19.9934 42.4095C19.2613 43.1416 19.2613 44.3269 19.9934 45.0416" fill="#F9BE00"/>
<path d="M64.3898 26.1638C64.4944 26.6693 64.1632 27.1574 63.6577 27.262C63.4834 27.2968 63.3265 27.2794 63.1696 27.2271L61.9495 26.7739C61.9495 26.7739 61.8623 26.7216 61.8623 26.6693C61.8623 26.617 61.8623 26.5647 61.8972 26.5299L62.8384 25.6409C62.9605 25.5363 63.0999 25.4666 63.2742 25.4317C63.7797 25.3271 64.2678 25.6583 64.3724 26.1638" fill="#F9BE00"/>
<path d="M59.7188 24.2464C59.9105 24.9088 59.5445 25.6061 58.8821 25.7978C58.6729 25.8675 58.4463 25.8675 58.2371 25.8152L56.5638 25.362C56.5638 25.362 56.4417 25.2923 56.4243 25.24C56.4069 25.1703 56.4243 25.1006 56.4592 25.0657L57.5922 23.7758C57.7316 23.6189 57.9234 23.4969 58.15 23.4272C58.8124 23.2355 59.5096 23.6015 59.7013 24.2639" fill="#F9BE00"/>
<path d="M54.2104 23.5144C54.5415 24.3162 54.1581 25.2226 53.3737 25.5538C53.1122 25.6584 52.8333 25.6932 52.5718 25.6584L50.4453 25.3098C50.4453 25.3098 50.2884 25.24 50.271 25.1703C50.2361 25.0832 50.2535 24.996 50.2884 24.9437L51.5434 23.2006C51.7003 22.9914 51.9269 22.8171 52.1884 22.7125C52.9902 22.3814 53.8966 22.7648 54.2278 23.5492" fill="#F9BE00"/>
<path d="M48.8762 25.7281C49.2771 26.6868 48.8239 27.7675 47.8652 28.1684C47.5514 28.3079 47.2203 28.3427 46.9065 28.2905L44.3616 27.8721C44.2744 27.8721 44.1873 27.785 44.1524 27.6978C44.1176 27.5932 44.135 27.5061 44.1873 27.4189L45.6863 25.3098C45.8781 25.0483 46.1395 24.8391 46.4533 24.7171C47.412 24.3162 48.4927 24.7694 48.8936 25.7281" fill="#F9BE00"/>
<path d="M0.627702 38.8536C0.732288 39.3591 1.22035 39.6902 1.72585 39.5857C1.90016 39.5508 2.03961 39.4811 2.16163 39.3765L3.1029 38.4875C3.1029 38.4875 3.15519 38.4004 3.13776 38.3481C3.13776 38.2958 3.08547 38.2609 3.0506 38.2435L1.84787 37.7903C1.69099 37.738 1.53411 37.7205 1.3598 37.7554C0.854304 37.86 0.523116 38.3481 0.627702 38.8536" fill="#F9BE00"/>
<path d="M5.29924 40.7536C5.49098 41.4159 6.18821 41.782 6.85059 41.5902C7.05976 41.5205 7.2515 41.3985 7.40838 41.2416L8.54139 39.9517C8.54139 39.9517 8.59369 39.8297 8.57625 39.7774C8.55882 39.7077 8.50653 39.6554 8.43681 39.638L6.76344 39.1848C6.55426 39.1325 6.32766 39.1325 6.11849 39.2022C5.45611 39.3939 5.09006 40.0912 5.28181 40.7536" fill="#F9BE00"/>
<path d="M10.7899 41.5031C11.121 42.3049 12.0275 42.671 12.8293 42.3398C13.0907 42.2352 13.3173 42.0609 13.4742 41.8343L14.7293 40.0912C14.7293 40.0912 14.7815 39.9343 14.7467 39.8646C14.7118 39.7775 14.6421 39.7252 14.5724 39.7252L12.4458 39.3765C12.1843 39.3417 11.9054 39.3765 11.644 39.4811C10.8422 39.8123 10.4761 40.7187 10.8073 41.5205" fill="#F9BE00"/>
<path d="M16.1411 39.2893C16.542 40.248 17.6228 40.7012 18.5815 40.3003C18.8952 40.1783 19.1567 39.9691 19.3484 39.7077L20.8475 37.5985C20.8475 37.5985 20.9172 37.4068 20.8824 37.3196C20.8475 37.215 20.7603 37.1628 20.6732 37.1453L18.1108 36.727C17.7971 36.6747 17.4659 36.727 17.1521 36.849C16.1934 37.2499 15.7576 38.3306 16.1411 39.2893" fill="#F9BE00"/>
<path d="M64.3896 38.8536C64.285 39.3591 63.7969 39.6902 63.2914 39.5857C63.1171 39.5508 62.9777 39.4811 62.8557 39.3765L61.9144 38.4875C61.9144 38.4875 61.8621 38.4004 61.8795 38.3481C61.8795 38.2958 61.9318 38.2609 61.9667 38.2435L63.1869 37.7903C63.3437 37.738 63.5006 37.7205 63.6749 37.7554C64.1804 37.86 64.5116 38.3481 64.407 38.8536" fill="#F9BE00"/>
<path d="M60.7991 35.2977C60.7294 35.9775 60.1193 36.483 59.4395 36.4133C59.2129 36.3958 59.0038 36.3087 58.8294 36.1867L57.4524 35.1408C57.4524 35.1408 57.3652 35.0362 57.3827 34.9665C57.3827 34.8968 57.435 34.8445 57.4873 34.8096L59.0386 34.0427C59.2304 33.9555 59.457 33.9206 59.6836 33.9381C60.3634 34.0078 60.8689 34.6179 60.7991 35.2977Z" fill="#F9BE00"/>
<path d="M56.0058 32.5088C56.0058 33.3629 55.3085 34.0601 54.4544 34.0601C54.1755 34.0601 53.8966 33.9904 53.67 33.8509L51.8398 32.7179C51.8398 32.7179 51.7178 32.5959 51.7178 32.5088C51.7178 32.4216 51.7701 32.3519 51.8398 32.2996L53.67 31.1666C53.8966 31.0271 54.1755 30.9574 54.4544 30.9574C55.3085 30.9574 56.0058 31.6546 56.0058 32.5088Z" fill="#F9BE00"/>
<path d="M50.2188 32.5087C50.2188 33.5371 49.3821 34.3738 48.3537 34.3738C48.0051 34.3738 47.6913 34.2867 47.4124 34.1123L45.2161 32.7527C45.2161 32.7527 45.0767 32.6133 45.0767 32.5087C45.0767 32.4041 45.129 32.317 45.2161 32.2647L47.4124 30.9051C47.6913 30.7482 48.0051 30.6436 48.3537 30.6436C49.3821 30.6436 50.2188 31.4803 50.2188 32.5087Z" fill="#F9BE00"/>
<path d="M0.627702 26.1638C0.523116 26.6693 0.854304 27.1574 1.3598 27.262C1.53411 27.2968 1.69099 27.2794 1.84787 27.2271L3.0506 26.7739C3.0506 26.7739 3.13776 26.7216 3.13776 26.6693C3.13776 26.617 3.13776 26.5647 3.1029 26.5299L2.16163 25.6409C2.03961 25.5363 1.90016 25.4666 1.72585 25.4317C1.22035 25.3271 0.732288 25.6583 0.627702 26.1638" fill="#F9BE00"/>
<path d="M4.20077 29.7198C4.13104 30.3996 4.63654 31.0097 5.31635 31.0794C5.54295 31.0968 5.76955 31.062 5.96129 30.9748L7.51265 30.2079C7.51265 30.2079 7.61723 30.1207 7.61723 30.051C7.61723 29.9813 7.5998 29.9115 7.54751 29.8767L6.17046 28.8308C5.99615 28.7088 5.78698 28.6216 5.56038 28.6042C4.88057 28.5345 4.27049 29.04 4.20077 29.7198" fill="#F9BE00"/>
<path d="M8.99463 32.5088C8.99463 33.3629 9.69187 34.0601 10.546 34.0601C10.8249 34.0601 11.1038 33.9904 11.3304 33.8509L13.1606 32.7179C13.1606 32.7179 13.2826 32.5959 13.2826 32.5088C13.2826 32.4216 13.2303 32.3519 13.1606 32.2996L11.3304 31.1666C11.1038 31.0271 10.8249 30.9574 10.546 30.9574C9.69187 30.9574 8.99463 31.6546 8.99463 32.5088Z" fill="#F9BE00"/>
<path d="M14.7812 32.5087C14.7812 33.5371 15.6179 34.3738 16.6464 34.3738C16.995 34.3738 17.3087 34.2867 17.5876 34.1123L19.7839 32.7527C19.7839 32.7527 19.9234 32.6133 19.9234 32.5087C19.9234 32.4041 19.8711 32.317 19.7839 32.2647L17.5876 30.9051C17.3087 30.7482 16.995 30.6436 16.6464 30.6436C15.6179 30.6436 14.7812 31.4803 14.7812 32.5087" fill="#F9BE00"/>
<path d="M59.5268 50.5672C59.2479 51.003 58.6553 51.1075 58.2369 50.8286C58.0975 50.7241 57.9929 50.602 57.9232 50.4626L57.3828 49.2773C57.3828 49.2773 57.3828 49.1727 57.3828 49.1378C57.4177 49.103 57.4525 49.0681 57.5048 49.0681L58.7947 49.1204C58.9516 49.1204 59.1085 49.1727 59.2479 49.2773C59.6837 49.5562 59.7883 50.1488 59.5094 50.5672" fill="#F9BE00"/>
<path d="M57.5748 45.9131C57.2437 46.5232 56.4941 46.7498 55.884 46.4186C55.6749 46.314 55.518 46.1571 55.4134 45.9654L54.5419 44.4663C54.5419 44.4663 54.507 44.3443 54.5419 44.2746C54.5767 44.2049 54.629 44.17 54.6987 44.17L56.4244 44.0654C56.6336 44.0654 56.8602 44.1003 57.0519 44.2049C57.662 44.5361 57.8886 45.2856 57.5574 45.8957" fill="#F9BE00"/>
<path d="M54.21 41.5031C53.8788 42.3049 52.9724 42.671 52.1706 42.3398C51.9091 42.2352 51.6825 42.0609 51.5257 41.8343L50.2706 40.0912C50.2706 40.0912 50.2183 39.9343 50.2532 39.8646C50.2881 39.7775 50.3578 39.7252 50.4275 39.7252L52.5541 39.3765C52.8155 39.3417 53.0944 39.3765 53.3559 39.4811C54.1577 39.8123 54.5238 40.7187 54.1926 41.5205" fill="#F9BE00"/>
<path d="M48.8765 39.2893C48.4756 40.248 47.3948 40.7012 46.4361 40.3003C46.1224 40.1783 45.8609 39.9691 45.6692 39.7077L44.1701 37.5985C44.1701 37.5985 44.1004 37.4068 44.1352 37.3196C44.1701 37.215 44.2573 37.1628 44.3444 37.1453L46.8893 36.727C47.2031 36.6747 47.5343 36.727 47.848 36.849C48.8067 37.2499 49.2425 38.3306 48.859 39.2893" fill="#F9BE00"/>
<path d="M5.4731 14.4503C5.1942 14.886 5.29879 15.4613 5.73456 15.7401C5.87401 15.8447 6.03089 15.8796 6.18777 15.897L7.47766 15.9493C7.47766 15.9493 7.56481 15.9319 7.59967 15.8796C7.63453 15.8447 7.63453 15.7924 7.59967 15.7401L7.05931 14.5548C6.98959 14.4154 6.885 14.2759 6.74556 14.1888C6.30978 13.9099 5.73456 14.0145 5.45567 14.4503" fill="#F9BE00"/>
<path d="M7.42534 19.1043C7.09415 19.7144 7.32076 20.4639 7.93084 20.7951C8.14001 20.8997 8.34918 20.952 8.55836 20.9346L10.284 20.83C10.284 20.83 10.406 20.7951 10.4409 20.7254C10.4758 20.6731 10.4758 20.5859 10.4409 20.5336L9.56935 19.0346C9.46476 18.8603 9.29045 18.7034 9.09871 18.5988C8.48863 18.2676 7.7391 18.4942 7.40791 19.1043" fill="#F9BE00"/>
<path d="M10.7898 23.5144C10.4586 24.3162 10.842 25.2226 11.6264 25.5538C11.8879 25.6584 12.1668 25.6932 12.4283 25.6584L14.5548 25.3098C14.5548 25.3098 14.7117 25.24 14.7291 25.1703C14.764 25.0832 14.7466 24.996 14.7117 24.9437L13.4567 23.2006C13.2998 22.9914 13.0732 22.8171 12.8117 22.7125C12.0099 22.3814 11.1035 22.7648 10.7723 23.5492" fill="#F9BE00"/>
<path d="M16.1411 25.7281C15.7402 26.6868 16.1934 27.7675 17.1521 28.1684C17.4659 28.3079 17.7971 28.3427 18.1108 28.2905L20.6732 27.8721C20.7603 27.8721 20.8475 27.785 20.8823 27.6978C20.9172 27.5932 20.8998 27.5061 20.8475 27.4189L19.3484 25.3098C19.1567 25.0483 18.8952 24.8391 18.5815 24.7171C17.6227 24.3162 16.542 24.7694 16.1411 25.7281" fill="#F9BE00"/>
<path d="M50.5671 59.5267C50.1313 59.8056 49.5561 59.701 49.2772 59.2652C49.1726 59.1258 49.1377 58.9689 49.1203 58.812L49.0854 57.5221C49.0854 57.5221 49.1029 57.4175 49.1552 57.4001C49.2075 57.3652 49.2598 57.3652 49.2946 57.4001L50.4799 57.9405C50.6194 58.0102 50.7588 58.1148 50.846 58.2542C51.1249 58.69 51.0203 59.2652 50.5845 59.5441" fill="#F9BE00"/>
<path d="M50.5324 54.4891C50.0095 54.9249 49.2251 54.8552 48.7893 54.3148C48.6499 54.1405 48.5627 53.9313 48.5279 53.7222L48.3013 52.0139C48.3013 52.0139 48.3187 51.8919 48.371 51.8396C48.4233 51.7873 48.493 51.7873 48.5627 51.8048L50.2012 52.3626C50.393 52.4323 50.5847 52.5543 50.7242 52.746C51.16 53.269 51.0902 54.0534 50.5499 54.4891" fill="#F9BE00"/>
<path d="M49.1204 49.1204C48.5104 49.7305 47.5342 49.7305 46.9241 49.1204C46.715 48.9112 46.593 48.6672 46.5232 48.4232L46.0352 46.3314C46.0352 46.3314 46.0352 46.1746 46.1049 46.1048C46.1746 46.0525 46.2443 46.0177 46.3315 46.0351L48.4232 46.5232C48.6847 46.5929 48.9287 46.7324 49.1204 46.9241C49.7305 47.5342 49.7305 48.5103 49.1204 49.1204" fill="#F9BE00"/>
<path d="M45.0245 45.0241C44.2924 45.7562 43.1071 45.7562 42.3925 45.0241C42.1484 44.7801 41.9915 44.4838 41.9044 44.1874L41.3117 41.66C41.2943 41.5728 41.3117 41.4682 41.3989 41.3985C41.4686 41.3288 41.5732 41.2939 41.6604 41.3288L44.1878 41.9214C44.5016 42.0086 44.7979 42.1655 45.0245 42.4095C45.7566 43.1416 45.7566 44.3269 45.0245 45.0416" fill="#F9BE00"/>
<path d="M14.4504 5.47337C14.0146 5.75226 13.91 6.34491 14.1889 6.76326C14.2761 6.9027 14.4155 7.00729 14.555 7.07701L15.7403 7.61737C15.7403 7.61737 15.8449 7.6348 15.8797 7.61737C15.9146 7.58251 15.9494 7.54765 15.9494 7.49536L15.9146 6.20547C15.9146 6.04859 15.8623 5.89171 15.7577 5.75226C15.4788 5.31649 14.8862 5.2119 14.4678 5.4908" fill="#F9BE00"/>
<path d="M14.4675 10.5283C13.9446 10.9641 13.8574 11.7485 14.2932 12.2714C14.4326 12.4457 14.6244 12.5677 14.8161 12.6549L16.4546 13.2127C16.4546 13.2127 16.5941 13.2127 16.6464 13.1778C16.6986 13.143 16.7161 13.0732 16.7161 13.0035L16.4895 11.2953C16.4546 11.0861 16.3675 10.8769 16.228 10.7026C15.7922 10.1623 15.0078 10.0925 14.4849 10.5283" fill="#F9BE00"/>
<path d="M15.8794 15.8796C15.2694 16.4897 15.2694 17.4658 15.8794 18.0759C16.0886 18.2851 16.3326 18.4071 16.5767 18.4768L18.6684 18.9649C18.6684 18.9649 18.8253 18.9649 18.895 18.8952C18.9647 18.8429 18.9821 18.7557 18.9647 18.6686L18.4766 16.5769C18.4069 16.3154 18.2675 16.0714 18.0757 15.8796C17.4657 15.2695 16.4895 15.2695 15.8794 15.8796" fill="#F9BE00"/>
<path d="M19.9758 19.9759C19.2437 20.708 19.2437 21.8933 19.9758 22.6079C20.2199 22.852 20.5162 23.0088 20.8125 23.096L23.34 23.6886C23.4272 23.7061 23.5317 23.6886 23.6015 23.6189C23.6712 23.5492 23.7061 23.4446 23.6712 23.3575L23.0785 20.83C22.9914 20.5162 22.8345 20.2199 22.5905 19.9933C21.8584 19.2612 20.6731 19.2612 19.9584 19.9933" fill="#F9BE00"/>
<path d="M38.836 64.3899C38.3305 64.4945 37.8425 64.1633 37.7379 63.6578C37.703 63.4835 37.7204 63.3266 37.7727 63.1697L38.2259 61.967C38.2259 61.967 38.2782 61.8799 38.3305 61.8799C38.3828 61.8799 38.4351 61.8799 38.47 61.9321L39.3589 62.8734C39.4635 62.9954 39.5507 63.1349 39.5681 63.3092C39.6727 63.8147 39.3415 64.3028 38.836 64.4073" fill="#F9BE00"/>
<path d="M40.7535 59.7184C40.0911 59.9102 39.3939 59.5441 39.2022 58.8817C39.1324 58.6726 39.1324 58.446 39.1847 58.2368L39.6379 56.5634C39.6379 56.5634 39.7077 56.4414 39.7774 56.424C39.8471 56.4066 39.9168 56.424 39.9517 56.4588L41.2416 57.5919C41.3985 57.7313 41.5205 57.923 41.5902 58.1496C41.7819 58.812 41.4159 59.5093 40.7535 59.701" fill="#F9BE00"/>
<path d="M41.5034 54.2103C40.719 54.5415 39.7952 54.158 39.4814 53.3736C39.3768 53.1121 39.342 52.8332 39.3768 52.5718L39.7255 50.4452C39.7255 50.4452 39.7952 50.2883 39.8649 50.2534C39.9521 50.2186 40.0392 50.236 40.0915 50.2709L41.852 51.5259C42.0612 51.6828 42.2355 51.9094 42.3401 52.1708C42.6713 52.9727 42.2878 53.8791 41.5034 54.2103Z" fill="#F9BE00"/>
<path d="M39.289 48.8764C38.3303 49.2773 37.2496 48.8241 36.8487 47.8654C36.7093 47.5516 36.6744 47.2204 36.7267 46.9067L37.145 44.3443C37.145 44.2572 37.2322 44.17 37.3193 44.1352C37.4239 44.1003 37.5111 44.1177 37.5982 44.17L39.7074 45.6865C39.9689 45.8783 40.178 46.1397 40.3 46.4535C40.701 47.4122 40.2477 48.4929 39.289 48.8938" fill="#F9BE00"/>
<path d="M26.164 0.627519C25.6585 0.732105 25.3273 1.22017 25.4319 1.72567C25.4668 1.89998 25.5365 2.03943 25.6411 2.16144L26.5301 3.10271C26.5301 3.10271 26.6172 3.15501 26.6695 3.13758C26.7218 3.13758 26.7567 3.08528 26.7741 3.05042L27.2273 1.84768C27.2796 1.69081 27.297 1.53393 27.2622 1.35962C27.1576 0.854121 26.6695 0.522933 26.164 0.627519" fill="#F9BE00"/>
<path d="M24.2464 5.29899C23.584 5.49073 23.218 6.18797 23.4097 6.85035C23.4795 7.05952 23.6015 7.25126 23.7584 7.40814L25.0482 8.54115C25.0482 8.54115 25.1703 8.59344 25.2226 8.57601C25.2923 8.55858 25.3446 8.50628 25.362 8.43656L25.8152 6.76319C25.8675 6.55402 25.8675 6.32742 25.7978 6.11825C25.606 5.45587 24.9088 5.08982 24.2464 5.28156" fill="#F9BE00"/>
<path d="M23.5141 10.7897C22.7123 11.1209 22.3462 12.0273 22.6774 12.8292C22.782 13.0906 22.9563 13.3172 23.1655 13.4741L24.926 14.7291C24.926 14.7291 25.0829 14.7814 25.1526 14.7466C25.2398 14.7117 25.2921 14.642 25.2921 14.5723L25.6407 12.4457C25.6755 12.1842 25.6407 11.9053 25.5361 11.6439C25.2049 10.842 24.2985 10.476 23.5141 10.8072" fill="#F9BE00"/>
<path d="M44.9369 2.47519C45.4076 2.66693 45.6342 3.22472 45.4424 3.69536C45.3727 3.85224 45.2681 3.99168 45.1461 4.07884L44.1003 4.82837C44.1003 4.82837 44.0131 4.86323 43.9608 4.82837C43.9085 4.81094 43.8737 4.75865 43.8737 4.72379L43.6645 3.45133C43.6471 3.29445 43.6645 3.12014 43.7342 2.96326C43.926 2.49262 44.4837 2.26602 44.9544 2.45776" fill="#F9BE00"/>
<path d="M40.7535 5.29899C41.4159 5.49073 41.7819 6.18797 41.5902 6.85035C41.5205 7.05952 41.3985 7.25126 41.2416 7.40814L39.9517 8.54115C39.9517 8.54115 39.8297 8.59344 39.7774 8.57601C39.7077 8.55858 39.6554 8.50628 39.6379 8.43656L39.1847 6.76319C39.1324 6.55402 39.1324 6.32742 39.2022 6.11825C39.3939 5.45587 40.0911 5.08982 40.7535 5.28156" fill="#F9BE00"/>
<path d="M37.0931 9.44759C37.9297 9.6219 38.4875 10.4411 38.3132 11.2778C38.2609 11.5567 38.1215 11.8008 37.9472 12.0099L36.4655 13.5787C36.4655 13.5787 36.3261 13.6659 36.2389 13.6484C36.1518 13.6484 36.0821 13.5787 36.0646 13.4916L35.3151 11.4696C35.2279 11.2255 35.2105 10.9466 35.2628 10.6678C35.4371 9.83107 36.2564 9.27328 37.0931 9.44759" fill="#F9BE00"/>
<path d="M20.0631 62.5422C20.5337 62.734 21.0915 62.5074 21.2832 62.0367C21.353 61.8799 21.3704 61.7056 21.353 61.5487L21.1438 60.2762C21.1438 60.2762 21.1089 60.1891 21.0566 60.1716C21.0043 60.1542 20.9521 60.1716 20.9172 60.1716L19.8713 60.9212C19.7493 61.0257 19.6447 61.1478 19.575 61.3046C19.3833 61.7753 19.6099 62.3331 20.0805 62.5248" fill="#F9BE00"/>
<path d="M24.2464 59.7184C24.9088 59.9102 25.606 59.5441 25.7978 58.8817C25.8675 58.6726 25.8675 58.446 25.8152 58.2368L25.362 56.5634C25.362 56.5634 25.2923 56.4414 25.2226 56.424C25.1528 56.4066 25.0831 56.424 25.0482 56.4588L23.7584 57.5919C23.6015 57.7313 23.4795 57.923 23.4097 58.1496C23.218 58.812 23.584 59.5093 24.2464 59.701" fill="#F9BE00"/>
<path d="M27.9245 55.5524C28.7612 55.7267 29.5804 55.1689 29.7547 54.3323C29.807 54.0534 29.7896 53.7745 29.7024 53.5304L28.9529 51.5084C28.9529 51.5084 28.8657 51.369 28.7786 51.3516C28.6914 51.3341 28.6043 51.3516 28.552 51.4213L27.0704 52.9901C26.896 53.1818 26.774 53.4433 26.7043 53.7222C26.53 54.5589 27.0878 55.3781 27.9245 55.5524" fill="#F9BE00"/>
<path d="M55.4829 9.5173C55.849 9.88335 55.849 10.476 55.4829 10.8421C55.3609 10.9641 55.2215 11.0512 55.0646 11.0861L53.8096 11.3824C53.8096 11.3824 53.705 11.3824 53.6701 11.3475C53.6353 11.3127 53.6178 11.2604 53.6353 11.2081L53.9316 9.95307C53.9664 9.7962 54.0536 9.65675 54.1756 9.53473C54.5417 9.16868 55.1343 9.16868 55.5004 9.53473" fill="#F9BE00"/>
<path d="M50.5323 10.5283C51.0552 10.9641 51.1424 11.7485 50.7066 12.2714C50.5671 12.4457 50.3754 12.5677 50.1837 12.6549L48.5452 13.2127C48.5452 13.2127 48.4231 13.2127 48.3534 13.1778C48.3011 13.143 48.2837 13.0732 48.2837 13.0035L48.5103 11.2953C48.5452 11.0861 48.6323 10.8769 48.7718 10.7026C49.2075 10.1623 49.9919 10.0925 50.5149 10.5283" fill="#F9BE00"/>
<path d="M45.5645 12.9686C46.2792 13.4392 46.471 14.4154 46.0003 15.13C45.8434 15.3741 45.6343 15.5484 45.3902 15.6704L43.4205 16.5594C43.4205 16.5594 43.2637 16.5943 43.1939 16.542C43.1242 16.4897 43.0894 16.4199 43.0894 16.3328L43.1591 14.1713C43.1591 13.9099 43.2637 13.631 43.4205 13.4044C43.8912 12.6897 44.8673 12.498 45.582 12.9686" fill="#F9BE00"/>
<path d="M9.51736 55.4827C9.88341 55.8487 10.4761 55.8487 10.8421 55.4827C10.9641 55.3607 11.0513 55.2212 11.0861 55.0643L11.3825 53.8093C11.3825 53.8093 11.3825 53.7047 11.3476 53.6699C11.3127 53.635 11.2605 53.6176 11.2082 53.635L9.95314 53.9313C9.79626 53.9662 9.65681 54.0534 9.53479 54.1754C9.16874 54.5414 9.16874 55.1341 9.53479 55.5001" fill="#F9BE00"/>
<path d="M14.468 54.4891C14.991 54.9249 15.7754 54.8552 16.2111 54.3148C16.3506 54.1405 16.4377 53.9313 16.4726 53.7222L16.6992 52.0139C16.6992 52.0139 16.6818 51.8919 16.6295 51.8396C16.5772 51.7873 16.5075 51.7873 16.4377 51.8048L14.7992 52.3626C14.6075 52.4323 14.4158 52.5543 14.2763 52.746C13.8405 53.269 13.9103 54.0534 14.4506 54.4891" fill="#F9BE00"/>
<path d="M19.4531 52.0488C20.1678 52.5195 21.1265 52.3277 21.6146 51.613C21.7714 51.369 21.8586 51.1076 21.876 50.8461L21.9457 48.6846C21.9457 48.6846 21.9109 48.5278 21.8412 48.4755C21.7714 48.4232 21.6843 48.4232 21.6146 48.458L19.6449 49.347C19.4008 49.469 19.1917 49.6433 19.0348 49.8874C18.5641 50.602 18.7559 51.5608 19.4705 52.0488" fill="#F9BE00"/>
<path d="M62.5424 20.063C62.7342 20.5337 62.5076 21.0914 62.0369 21.2832C61.88 21.3529 61.7057 21.3703 61.5489 21.3529L60.2764 21.1437C60.2764 21.1437 60.1892 21.1089 60.1718 21.0566C60.1544 21.0043 60.1718 20.952 60.1718 20.9171L60.9213 19.8713C61.0085 19.7493 61.1479 19.6447 61.3048 19.575C61.7755 19.3832 62.3332 19.6098 62.525 20.0804" fill="#F9BE00"/>
<path d="M57.5749 19.1043C57.9061 19.7144 57.6795 20.4639 57.0694 20.7951C56.8602 20.8997 56.6511 20.952 56.4419 20.9346L54.7162 20.83C54.7162 20.83 54.5942 20.7951 54.5593 20.7254C54.5245 20.6731 54.5245 20.5859 54.5593 20.5336L55.4135 19.0346C55.5181 18.8603 55.6924 18.7034 55.8841 18.5988C56.4942 18.2676 57.2437 18.4942 57.5749 19.1043Z" fill="#F9BE00"/>
<path d="M52.0492 19.4529C52.5198 20.1676 52.328 21.1263 51.6134 21.6144C51.3693 21.7713 51.1079 21.8584 50.8464 21.8758L48.685 21.9456C48.685 21.9456 48.5281 21.9107 48.4758 21.841C48.4235 21.7713 48.4235 21.6841 48.4584 21.6144L49.3474 19.6447C49.4694 19.4006 49.6437 19.1915 49.8877 19.0346C50.6024 18.564 51.5611 18.7557 52.0492 19.4704" fill="#F9BE00"/>
<path d="M2.47525 44.937C2.66699 45.4076 3.22479 45.6342 3.69542 45.4425C3.8523 45.3728 3.99175 45.2682 4.0789 45.1462L4.82843 44.1003C4.82843 44.1003 4.86329 44.0132 4.82843 43.9609C4.811 43.9086 4.75871 43.8912 4.72385 43.8737L3.45139 43.6646C3.29451 43.6471 3.1202 43.6645 2.96332 43.7343C2.49269 43.926 2.26608 44.4838 2.45782 44.9544" fill="#F9BE00"/>
<path d="M7.42549 45.9131C7.75668 46.5232 8.50621 46.7498 9.11629 46.4186C9.32546 46.314 9.48234 46.1571 9.58693 45.9654L10.4585 44.4663C10.4585 44.4663 10.4933 44.3443 10.4585 44.2746C10.4236 44.2049 10.3713 44.17 10.3016 44.17L8.57593 44.0654C8.36676 44.0654 8.14016 44.1003 7.94842 44.2049C7.33833 44.5361 7.11173 45.2856 7.44292 45.8957" fill="#F9BE00"/>
<path d="M12.9684 45.5645C13.439 46.2792 14.4151 46.4709 15.1298 46.0003C15.3738 45.8434 15.5481 45.6342 15.6702 45.3902L16.5591 43.4205C16.5591 43.4205 16.594 43.2636 16.5417 43.1939C16.4894 43.1242 16.4197 43.0893 16.3325 43.0893L14.1711 43.159C13.9096 43.159 13.6482 43.2636 13.4041 43.4205C12.6895 43.8911 12.4977 44.8673 12.9684 45.5819" fill="#F9BE00"/>
<path d="M65.0002 32.5087C65.0002 33.0317 64.5818 33.4326 64.0589 33.4326C63.8846 33.4326 63.7277 33.3803 63.5883 33.3106L62.4901 32.6308C62.4901 32.6308 62.4204 32.561 62.4204 32.5087C62.4204 32.4564 62.4553 32.4042 62.4901 32.3867L63.5883 31.7069C63.7277 31.6198 63.8846 31.5849 64.0589 31.5849C64.5818 31.5849 65.0002 32.0032 65.0002 32.5262" fill="#F9BE00"/>
<path d="M60.7993 29.7198C60.869 30.3996 60.3635 31.0097 59.6837 31.0794C59.4571 31.0968 59.2305 31.062 59.0387 30.9748L57.4874 30.2079C57.4874 30.2079 57.3828 30.1207 57.3828 30.051C57.3828 29.9813 57.4002 29.9115 57.4525 29.8767L58.8296 28.8308C59.0039 28.7088 59.2131 28.6216 59.4397 28.6042C60.1195 28.5345 60.7296 29.04 60.7993 29.7198Z" fill="#F9BE00"/>
<path d="M55.5524 27.9244C55.7267 28.7611 55.1689 29.5803 54.3322 29.7547C54.0533 29.8069 53.7744 29.7895 53.5304 29.7024L51.5084 28.9528C51.5084 28.9528 51.3689 28.8657 51.3515 28.7785C51.3341 28.6914 51.3515 28.6042 51.4212 28.5519L52.99 27.0703C53.1818 26.896 53.4432 26.774 53.7221 26.7042C54.5588 26.5299 55.378 27.0877 55.5524 27.9244" fill="#F9BE00"/>
<path d="M0 32.5087C0 33.0317 0.418343 33.4326 0.941271 33.4326C1.11558 33.4326 1.27246 33.3803 1.41191 33.3106L2.51006 32.6308C2.51006 32.6308 2.57978 32.561 2.57978 32.5087C2.57978 32.4564 2.54492 32.4042 2.51006 32.3867L1.41191 31.7069C1.27246 31.6198 1.11558 31.5849 0.941271 31.5849C0.435774 31.5849 0 32.0032 0 32.5262" fill="#F9BE00"/>
<path d="M4.20077 35.2977C4.27049 35.9775 4.88057 36.483 5.56038 36.4133C5.78698 36.3958 5.99615 36.3087 6.17046 36.1867L7.54751 35.1408C7.54751 35.1408 7.63466 35.0362 7.61723 34.9665C7.61723 34.8968 7.56494 34.8445 7.51265 34.8096L5.96129 34.0427C5.76955 33.9555 5.54295 33.9206 5.31635 33.9381C4.63654 34.0078 4.13104 34.6179 4.20077 35.2977" fill="#F9BE00"/>
<path d="M9.44795 37.093C9.62226 37.9297 10.4415 38.4875 11.2782 38.3132C11.5571 38.2609 11.8011 38.1215 12.0103 37.9472L13.5791 36.4655C13.5791 36.4655 13.6662 36.3261 13.6488 36.2389C13.6488 36.1518 13.5791 36.082 13.4919 36.0646L11.4699 35.2976C11.2259 35.2105 10.947 35.1931 10.6681 35.2454C9.83143 35.4197 9.27364 36.2389 9.44795 37.0756" fill="#F9BE00"/>
<path d="M62.542 44.937C62.3503 45.4076 61.7925 45.6342 61.3218 45.4425C61.165 45.3728 61.0255 45.2682 60.9384 45.1462L60.1888 44.1003C60.1888 44.1003 60.154 44.0132 60.1888 43.9609C60.2063 43.9086 60.2586 43.8912 60.2934 43.8737L61.5659 43.6646C61.7228 43.6471 61.8971 43.6645 62.054 43.7343C62.5246 43.926 62.7512 44.4838 62.5594 44.9544" fill="#F9BE00"/>
<path d="M59.7186 40.7536C59.5268 41.4159 58.8296 41.782 58.1672 41.5902C57.958 41.5205 57.7663 41.3985 57.6094 41.2416L56.4764 39.9517C56.4764 39.9517 56.4241 39.8297 56.4415 39.7774C56.459 39.7077 56.5113 39.6554 56.581 39.638L58.2544 39.1848C58.4635 39.1325 58.6901 39.1325 58.8993 39.2022C59.5617 39.3939 59.9277 40.0912 59.736 40.7536" fill="#F9BE00"/>
<path d="M55.5528 37.093C55.3785 37.9297 54.5592 38.4875 53.7225 38.3132C53.4436 38.2609 53.1996 38.1215 52.9904 37.9472L51.4216 36.4655C51.4216 36.4655 51.3345 36.3261 51.3519 36.2389C51.3519 36.1518 51.4216 36.082 51.5088 36.0646L53.5308 35.2976C53.7748 35.2105 54.0537 35.1931 54.3326 35.2454C55.1693 35.4197 55.7271 36.2389 55.5528 37.0756" fill="#F9BE00"/>
<path d="M2.4754 20.063C2.28366 20.5337 2.51026 21.0914 2.9809 21.2832C3.13778 21.3529 3.31209 21.3703 3.46897 21.3529L4.74142 21.1437C4.74142 21.1437 4.82858 21.1089 4.84601 21.0566C4.86344 21.0043 4.84601 20.952 4.84601 20.9171L4.09648 19.8713C3.99189 19.7493 3.86988 19.6447 3.713 19.575C3.24236 19.3832 2.68457 19.6098 2.49283 20.0804" fill="#F9BE00"/>
<path d="M5.29889 24.2464C5.10715 24.9088 5.4732 25.6061 6.13558 25.7978C6.34475 25.8675 6.57135 25.8675 6.78052 25.8152L8.4539 25.362C8.4539 25.362 8.57591 25.2923 8.59334 25.24C8.61077 25.1703 8.59334 25.1006 8.55848 25.0657L7.42547 23.7758C7.28602 23.6189 7.09428 23.4969 6.86768 23.4272C6.2053 23.2355 5.50807 23.6015 5.31632 24.2639" fill="#F9BE00"/>
<path d="M9.44795 27.9244C9.27364 28.7611 9.83143 29.5803 10.6681 29.7547C10.947 29.8069 11.2259 29.7895 11.4699 29.7024L13.4919 28.9528C13.4919 28.9528 13.6314 28.8657 13.6488 28.7785C13.6662 28.6914 13.6488 28.6042 13.5791 28.5519L12.0103 27.0703C11.8186 26.896 11.5571 26.774 11.2782 26.7042C10.4415 26.5299 9.62226 27.0877 9.44795 27.9244" fill="#F9BE00"/>
<path d="M55.4828 55.4827C55.1167 55.8487 54.5241 55.8487 54.158 55.4827C54.036 55.3607 53.9489 55.2212 53.914 55.0643L53.6177 53.8093C53.6177 53.8093 53.6177 53.7047 53.6525 53.6699C53.6874 53.635 53.7397 53.6176 53.792 53.635L55.047 53.9313C55.2039 53.9662 55.3433 54.0534 55.4654 54.1754C55.8314 54.5414 55.8314 55.1341 55.4654 55.5001" fill="#F9BE00"/>
<path d="M54.4891 50.5497C54.0533 51.0901 53.2689 51.1598 52.746 50.7241C52.5717 50.5846 52.4496 50.3929 52.3625 50.2011L51.8047 48.5626C51.8047 48.5626 51.8047 48.4406 51.8396 48.3709C51.8744 48.3186 51.9441 48.3011 52.0139 48.3011L53.7221 48.5278C53.9313 48.5626 54.1404 48.6498 54.3147 48.7892C54.8551 49.225 54.9248 50.0094 54.4891 50.5323" fill="#F9BE00"/>
<path d="M52.0489 45.5645C51.5783 46.2792 50.6022 46.4709 49.8875 46.0003C49.6435 45.8434 49.4692 45.6342 49.3471 45.3902L48.4582 43.4205C48.4582 43.4205 48.4233 43.2636 48.4756 43.1939C48.5279 43.1242 48.5976 43.0893 48.6848 43.0893L50.8462 43.159C51.1077 43.159 51.3691 43.2636 51.6132 43.4205C52.3278 43.8911 52.5196 44.8673 52.0489 45.5819" fill="#F9BE00"/>
<path d="M9.51721 9.5173C9.15116 9.88335 9.15116 10.476 9.51721 10.8421C9.63923 10.9641 9.77868 11.0512 9.93556 11.0861L11.1906 11.3824C11.1906 11.3824 11.2952 11.3824 11.33 11.3475C11.3649 11.3127 11.3823 11.2604 11.3649 11.2081L11.0686 9.95307C11.0337 9.7962 10.9466 9.65675 10.8245 9.53473C10.4585 9.16868 9.86583 9.16868 9.49978 9.53473" fill="#F9BE00"/>
<path d="M10.5283 14.4677C10.0925 15.0081 10.1622 15.7751 10.7026 16.2108C10.8769 16.3503 11.086 16.4374 11.2952 16.4723L13.0035 16.6989C13.0035 16.6989 13.1255 16.6815 13.1778 16.6292C13.2301 16.5769 13.2301 16.5072 13.2126 16.4374L12.6548 14.7989C12.5851 14.6072 12.4631 14.4154 12.2714 14.276C11.7484 13.8402 10.964 13.91 10.5283 14.4503" fill="#F9BE00"/>
<path d="M12.9684 19.4529C12.4977 20.1676 12.6895 21.1263 13.4041 21.6144C13.6482 21.7713 13.9096 21.8584 14.1711 21.8758L16.3325 21.9456C16.3325 21.9456 16.4894 21.9107 16.5417 21.841C16.594 21.7713 16.594 21.6841 16.5591 21.6144L15.6702 19.6447C15.5481 19.4006 15.3738 19.1915 15.1298 19.0346C14.4151 18.564 13.4564 18.7557 12.9684 19.4704" fill="#F9BE00"/>
<path d="M44.9368 62.5422C44.4662 62.734 43.9084 62.5074 43.7166 62.0367C43.6469 61.8799 43.6295 61.7056 43.6469 61.5487L43.8561 60.2762C43.8561 60.2762 43.8909 60.1891 43.9432 60.1716C43.9955 60.1542 44.0478 60.1716 44.0827 60.1716L45.1285 60.9212C45.2506 61.0257 45.3551 61.1478 45.4249 61.3046C45.6166 61.7753 45.39 62.3331 44.9194 62.5248" fill="#F9BE00"/>
<path d="M45.9131 57.5744C45.3031 57.9056 44.5535 57.679 44.2223 57.069C44.1178 56.8598 44.0655 56.6506 44.0829 56.4414L44.1875 54.7158C44.1875 54.7158 44.2223 54.5938 44.2921 54.5589C44.3444 54.524 44.4315 54.524 44.4838 54.5589L45.9829 55.4304C46.1572 55.535 46.3141 55.7093 46.4361 55.9011C46.7673 56.5112 46.5232 57.2607 45.9306 57.5919" fill="#F9BE00"/>
<path d="M45.5644 52.0488C44.8497 52.5195 43.891 52.3277 43.403 51.613C43.2461 51.369 43.1589 51.1076 43.1415 50.8461L43.0718 48.6846C43.0718 48.6846 43.1066 48.5278 43.1764 48.4755C43.2461 48.4232 43.3332 48.4232 43.403 48.458L45.3727 49.347C45.6167 49.469 45.8259 49.6433 45.9827 49.8874C46.4534 50.602 46.2616 51.5608 45.547 52.0488" fill="#F9BE00"/>
<path d="M20.0629 2.47519C19.5923 2.66693 19.3657 3.22472 19.5574 3.69536C19.6272 3.85224 19.7317 3.99168 19.8538 4.07884L20.8996 4.82837C20.8996 4.82837 20.9868 4.86323 21.0391 4.82837C21.0914 4.81094 21.1088 4.75865 21.1262 4.72379L21.3354 3.45133C21.3528 3.29445 21.3354 3.12014 21.2657 2.96326C21.0739 2.49262 20.5161 2.26602 20.0455 2.45776" fill="#F9BE00"/>
<path d="M19.1047 7.42559C18.4946 7.75677 18.268 8.50631 18.5992 9.11639C18.7038 9.30813 18.8606 9.48244 19.0524 9.58703L20.5514 10.4411C20.5514 10.4411 20.6735 10.476 20.7432 10.4411C20.8129 10.4063 20.8478 10.354 20.8478 10.2843L20.9523 8.5586C20.9523 8.34943 20.9175 8.12282 20.8129 7.93108C20.4817 7.321 19.7322 7.0944 19.1221 7.42559" fill="#F9BE00"/>
<path d="M19.453 12.9686C18.7383 13.4392 18.5466 14.4154 19.0172 15.13C19.1741 15.3741 19.3832 15.5484 19.6273 15.6704L21.597 16.5594C21.597 16.5594 21.7539 16.5943 21.8236 16.542C21.8933 16.4897 21.9282 16.4199 21.9282 16.3328L21.8584 14.1713C21.8584 13.9099 21.7539 13.631 21.597 13.4044C21.1263 12.6897 20.1502 12.498 19.4355 12.9686" fill="#F9BE00"/>
<path d="M32.5087 65.0174C31.9857 65.0174 31.5674 64.5991 31.5674 64.0936C31.5674 63.9193 31.6197 63.7624 31.6894 63.6229L32.3692 62.5248C32.3692 62.5248 32.4389 62.4551 32.4912 62.4551C32.5435 62.4551 32.5958 62.4899 32.6132 62.5248L33.293 63.6229C33.3802 63.7624 33.4151 63.9193 33.4151 64.0936C33.4151 64.5991 32.9967 65.0174 32.4738 65.0174" fill="#F9BE00"/>
<path d="M35.2976 60.7992C34.6178 60.8689 34.0077 60.3634 33.938 59.6836C33.9206 59.457 33.938 59.2304 34.0426 59.0386L34.8096 57.4873C34.8096 57.4873 34.8967 57.3827 34.9664 57.3827C35.0362 57.3827 35.1059 57.4001 35.1408 57.4524L36.1866 58.8295C36.3086 59.0038 36.3958 59.2129 36.4132 59.4395C36.4829 60.1193 35.9774 60.7294 35.2976 60.7992Z" fill="#F9BE00"/>
<path d="M37.0931 55.5524C36.2564 55.7267 35.4371 55.1689 35.2628 54.3323C35.2105 54.0534 35.2279 53.7745 35.3151 53.5304L36.0646 51.5084C36.0646 51.5084 36.1518 51.369 36.2389 51.3516C36.3261 51.3341 36.4133 51.3516 36.4655 51.4213L37.9472 52.9901C38.1215 53.1818 38.2435 53.4433 38.3132 53.7222C38.4875 54.5589 37.9297 55.3781 37.0931 55.5524" fill="#F9BE00"/>
<path d="M32.5087 0C31.9857 0 31.5674 0.418343 31.5674 0.941271C31.5674 1.11558 31.6197 1.27246 31.6894 1.41191L32.3692 2.51006C32.3692 2.51006 32.4389 2.57978 32.4912 2.57978C32.5435 2.57978 32.5958 2.54492 32.6132 2.51006L33.293 1.41191C33.3802 1.27246 33.4151 1.11558 33.4151 0.941271C33.4151 0.418343 32.9967 0 32.4738 0" fill="#F9BE00"/>
<path d="M29.7197 4.20089C29.0399 4.27061 28.5344 4.8807 28.6041 5.5605C28.6215 5.7871 28.7087 5.99628 28.8307 6.17059L29.8765 7.54763C29.8765 7.54763 29.9811 7.63479 30.0509 7.61735C30.1206 7.61735 30.1729 7.56506 30.2077 7.51277L30.9747 5.96141C31.0619 5.76967 31.0967 5.54307 31.0793 5.31647C31.0096 4.63666 30.3995 4.13116 29.7197 4.20089" fill="#F9BE00"/>
<path d="M27.9245 9.44759C27.0878 9.6219 26.53 10.4411 26.7043 11.2778C26.7566 11.5567 26.896 11.8008 27.0704 12.0099L28.552 13.5787C28.552 13.5787 28.6914 13.6659 28.7786 13.6484C28.8657 13.6484 28.9355 13.5787 28.9529 13.4916L29.7024 11.4696C29.7896 11.2255 29.807 10.9466 29.7547 10.6678C29.5804 9.83107 28.7612 9.27328 27.9245 9.44759" fill="#F9BE00"/>
<path d="M25.7278 16.1411C24.7691 16.542 24.3159 17.6227 24.7168 18.5814C24.8388 18.8952 25.0654 19.1566 25.3095 19.3484L27.4186 20.8474C27.4186 20.8474 27.6103 20.9172 27.6975 20.8823C27.7847 20.8474 27.8544 20.7603 27.8718 20.6731L28.2901 18.1282C28.3424 17.8145 28.2901 17.4833 28.1681 17.1695C27.7672 16.2108 26.6865 15.7576 25.7278 16.1585" fill="#F9BE00"/>
</svg>
