<svg width="404" height="329" viewBox="0 0 404 329" fill="none" xmlns="http://www.w3.org/2000/svg">
<g opacity="0.8" clip-path="url(#clip0_525_14410)">
<path d="M-143.783 190.797L-143.783 189.797L-143.783 190.797ZM-293.5 195.797L-294.5 195.797L-293.5 195.797ZM-288.5 190.797L-288.5 191.797L-288.5 190.797ZM-293.5 325L-292.5 325L-293.5 325ZM-343.558 282.5L-343.558 283.5L-343.558 282.5ZM-383 282.5L-383 281.5L-383 282.5ZM-389 153.741L-389 277.5L-387 277.5L-387 153.741L-389 153.741ZM2.5414 185.797L2.54141 6.00003L0.541412 6.00003L0.541404 185.797L2.5414 185.797ZM-383 283.5L-343.558 283.5L-343.558 281.5L-383 281.5L-383 283.5ZM-339.558 287.5L-339.558 325L-337.558 325L-337.558 287.5L-339.558 287.5ZM-333.558 331L-298.5 331L-298.5 329L-333.558 329L-333.558 331ZM-292.5 325L-292.5 195.797L-294.5 195.797L-294.5 325L-292.5 325ZM-288.5 191.797L-143.783 191.797L-143.783 189.797L-288.5 189.797L-288.5 191.797ZM-143.783 191.797L-3.4586 191.797L-3.4586 189.797L-143.783 189.797L-143.783 191.797ZM6.54141 2.00003L282 2.00003L282 2.94654e-05L6.54141 2.89285e-05L6.54141 2.00003ZM286 6.00003L286 56L288 56L288 6.00003L286 6.00003ZM292 62L377 62L377 60L292 60L292 62ZM381 66L381 195.805L383 195.805L383 66L381 66ZM377 62C379.209 62 381 63.7909 381 66L383 66C383 62.6863 380.314 60 377 60L377 62ZM282 2.00003C284.209 2.00003 286 3.79089 286 6.00003L288 6.00003C288 2.68632 285.314 2.94911e-05 282 2.94654e-05L282 2.00003ZM-292.5 195.797C-292.5 193.588 -290.709 191.797 -288.5 191.797L-288.5 189.797C-291.814 189.797 -294.5 192.483 -294.5 195.797L-292.5 195.797ZM-298.5 331C-295.186 331 -292.5 328.314 -292.5 325L-294.5 325C-294.5 327.209 -296.291 329 -298.5 329L-298.5 331ZM-343.558 283.5C-341.349 283.5 -339.558 285.291 -339.558 287.5L-337.558 287.5C-337.558 284.186 -340.245 281.5 -343.558 281.5L-343.558 283.5ZM-339.558 325C-339.558 328.314 -336.872 331 -333.558 331L-333.558 329C-335.768 329 -337.558 327.209 -337.558 325L-339.558 325ZM286 56C286 59.3137 288.686 62 292 62L292 60C289.791 60 288 58.2092 288 56L286 56ZM2.54141 6.00003C2.54141 3.79089 4.33228 2.00003 6.54141 2.00003L6.54141 2.89285e-05C3.22769 2.89624e-05 0.541412 2.68632 0.541412 6.00003L2.54141 6.00003ZM0.541404 185.797C0.541404 188.006 -1.24946 189.797 -3.4586 189.797L-3.4586 191.797C-0.144875 191.797 2.5414 189.111 2.5414 185.797L0.541404 185.797ZM-389 277.5C-389 280.814 -386.314 283.5 -383 283.5L-383 281.5C-385.209 281.5 -387 279.709 -387 277.5L-389 277.5Z" fill="url(#paint0_linear_525_14410)"/>
</g>
<defs>
<linearGradient id="paint0_linear_525_14410" x1="351" y1="0.99994" x2="354" y2="181" gradientUnits="userSpaceOnUse">
<stop stop-color="#FFE600"/>
<stop offset="1" stop-color="#FFE600" stop-opacity="0"/>
</linearGradient>
<clipPath id="clip0_525_14410">
<rect width="404" height="329" fill="white"/>
</clipPath>
</defs>
</svg>
