<svg width="64" height="65" viewBox="0 0 64 65" fill="none" xmlns="http://www.w3.org/2000/svg">
<path d="M38.2388 1.11996C38.7365 1.22294 39.0626 1.70349 38.9596 2.20121C38.9253 2.37284 38.8566 2.51014 38.7536 2.63028L37.8783 3.55707C37.8783 3.55707 37.7925 3.60856 37.741 3.5914C37.6896 3.5914 37.6552 3.53991 37.6381 3.50558L37.1918 2.32135C37.1403 2.16689 37.1232 2.01242 37.1575 1.8408C37.2605 1.34307 37.741 1.01698 38.2388 1.11996Z" fill="white"/>
<path d="M34.7546 4.63835C35.424 4.707 35.9217 5.3077 35.853 5.97705C35.8359 6.20016 35.75 6.40612 35.6299 6.57775L34.6001 7.9336C34.6001 7.9336 34.4972 8.01942 34.4285 8.00226C34.3599 8.00226 34.3084 7.95077 34.2741 7.89928L33.5189 6.37179C33.4331 6.183 33.3987 5.95988 33.4159 5.73677C33.4846 5.06742 34.0853 4.5697 34.7546 4.63835Z" fill="white"/>
<path d="M32.0084 9.35809C32.8494 9.35809 33.5359 10.0446 33.5359 10.8856C33.5359 11.1602 33.4673 11.4348 33.33 11.6579L32.2144 13.46C32.2144 13.46 32.0943 13.563 32.0084 13.563C31.9226 13.563 31.854 13.5115 31.8025 13.46L30.6869 11.6579C30.5496 11.4348 30.481 11.1773 30.481 10.8856C30.481 10.0446 31.1675 9.35809 32.0084 9.35809Z" fill="white"/>
<path d="M32.0088 15.0562C33.0214 15.0562 33.8452 15.88 33.8452 16.8926C33.8452 17.2358 33.7594 17.5448 33.5878 17.8194L32.2491 19.9819C32.2491 19.9819 32.1118 20.1192 32.0088 20.1192C31.9058 20.1192 31.82 20.0677 31.7685 19.9819L30.4298 17.8194C30.2753 17.5448 30.1724 17.2358 30.1724 16.8926C30.1724 15.88 30.9962 15.0562 32.0088 15.0562Z" fill="white"/>
<path d="M25.7613 63.9014C26.259 64.0044 26.7396 63.6783 26.8426 63.1805C26.8769 63.0089 26.8597 62.8544 26.8083 62.7L26.362 61.5157C26.362 61.5157 26.3105 61.4299 26.2591 61.4299C26.2076 61.4299 26.1561 61.4299 26.1217 61.4814L25.2464 62.4082C25.1435 62.5283 25.0577 62.6657 25.0405 62.8373C24.9375 63.335 25.2636 63.8156 25.7613 63.9185" fill="white"/>
<path d="M29.2625 60.3659C29.9318 60.4346 30.5325 59.9368 30.6012 59.2675C30.6183 59.0444 30.6012 58.8213 30.4982 58.6325L29.743 57.105C29.743 57.105 29.6572 57.002 29.5886 57.002C29.5199 57.002 29.4513 57.0192 29.4169 57.0707L28.3872 58.4265C28.267 58.5981 28.1812 58.8041 28.164 59.0272C28.0954 59.6966 28.5931 60.2973 29.2625 60.3659Z" fill="white"/>
<path d="M32.0084 55.6461C32.8494 55.6461 33.5359 54.9595 33.5359 54.1186C33.5359 53.844 33.4673 53.5694 33.33 53.3462L32.2144 51.5442C32.2144 51.5442 32.0943 51.424 32.0084 51.424C31.9226 51.424 31.854 51.4755 31.8025 51.5442L30.6869 53.3462C30.5496 53.5694 30.481 53.844 30.481 54.1186C30.481 54.9595 31.1675 55.6461 32.0084 55.6461Z" fill="white"/>
<path d="M32.0088 49.948C33.0214 49.948 33.8452 49.1242 33.8452 48.1116C33.8452 47.7684 33.7594 47.4594 33.5878 47.1848L32.2491 45.0223C32.2491 45.0223 32.1118 44.885 32.0088 44.885C31.9058 44.885 31.82 44.9365 31.7685 45.0223L30.4298 47.1848C30.2753 47.4594 30.1724 47.7684 30.1724 48.1116C30.1724 49.1242 30.9962 49.948 32.0088 49.948Z" fill="white"/>
<path d="M49.7895 5.89124C50.2185 6.16584 50.3215 6.74938 50.0469 7.16128C49.9611 7.29859 49.8238 7.40156 49.6865 7.47021L48.5194 8.00226C48.5194 8.00226 48.4165 8.01942 48.3821 8.00226C48.3478 7.96793 48.3135 7.93361 48.3135 7.88212L48.3478 6.61207C48.3478 6.45761 48.3993 6.30314 48.5023 6.16584C48.7769 5.73677 49.3604 5.6338 49.7723 5.9084" fill="white"/>
<path d="M45.2069 7.81344C45.8076 8.13953 46.0308 8.87753 45.7047 9.47823C45.6017 9.66702 45.4472 9.83865 45.2584 9.94163L43.7824 10.7826C43.7824 10.7826 43.6623 10.8169 43.5937 10.7826C43.525 10.7483 43.4907 10.6968 43.4907 10.6281L43.3877 8.92902C43.3877 8.72307 43.422 8.49995 43.525 8.31116C43.8511 7.71046 44.5891 7.48735 45.1898 7.81344" fill="white"/>
<path d="M40.8645 11.1258C41.654 11.4519 42.0145 12.3444 41.6884 13.1339C41.5854 13.3913 41.4138 13.6144 41.2078 13.7689L39.4744 15.0046C39.4744 15.0046 39.3199 15.0561 39.2512 15.0218C39.1654 14.9875 39.1139 14.9188 39.1139 14.8502L38.7707 12.7563C38.7364 12.4989 38.7707 12.2243 38.8737 11.9668C39.1998 11.1773 40.0922 10.8169 40.8645 11.143" fill="white"/>
<path d="M38.6849 16.3948C39.6289 16.7896 40.0579 17.8537 39.6803 18.7976C39.5602 19.1066 39.3371 19.364 39.0968 19.5528L37.0201 21.0288C37.0201 21.0288 36.8485 21.0974 36.7455 21.0631C36.6597 21.0288 36.591 20.943 36.5739 20.8572L36.162 18.3514C36.1105 18.0425 36.162 17.7164 36.2821 17.4074C36.6769 16.4635 37.7409 16.0173 38.6849 16.412" fill="white"/>
<path d="M14.2277 59.113C14.6568 59.3876 15.2232 59.2846 15.4978 58.8556C15.6008 58.7183 15.6351 58.5638 15.6523 58.4093L15.6866 57.1393C15.6866 57.1393 15.6694 57.0363 15.6179 57.0192C15.5664 56.9848 15.515 56.9848 15.4806 57.0192L14.3136 57.5512C14.1763 57.6199 14.039 57.7228 13.9531 57.8601C13.6785 58.2892 13.7815 58.8556 14.2106 59.1302" fill="white"/>
<path d="M18.8105 57.1907C19.4112 57.5168 20.1492 57.2937 20.4752 56.693C20.5782 56.487 20.6297 56.2811 20.6125 56.0751L20.5096 54.376C20.5096 54.376 20.4752 54.2559 20.4066 54.2215C20.3551 54.1872 20.2693 54.1872 20.2178 54.2215L18.7418 55.0797C18.5702 55.1827 18.4157 55.3543 18.2956 55.5431C17.9695 56.1438 18.2098 56.8818 18.7933 57.2079" fill="white"/>
<path d="M23.1527 53.8783C23.9251 54.2044 24.8347 53.8269 25.1436 53.0545C25.2466 52.7971 25.2809 52.5225 25.2466 52.265L24.9033 50.1712C24.9033 50.1712 24.8347 50.0167 24.766 49.9824C24.6802 49.9481 24.6116 49.9652 24.5429 49.9996L22.8095 51.2353C22.6035 51.3897 22.4319 51.6129 22.3289 51.8703C22.0028 52.6598 22.3804 53.5523 23.1527 53.8783Z" fill="white"/>
<path d="M25.3321 48.6265C26.276 49.0212 27.3401 48.575 27.7349 47.6311C27.8722 47.3221 27.9065 46.996 27.855 46.6871L27.4431 44.1642C27.4431 44.0784 27.3573 43.9926 27.2715 43.9582C27.1857 43.9239 27.0827 43.9411 26.9969 43.9926L24.9202 45.4857C24.6627 45.6745 24.4568 45.9319 24.3366 46.2409C23.9419 47.1848 24.3881 48.2489 25.3321 48.6437" fill="white"/>
<path d="M58.6108 14.7301C58.8854 15.1591 58.7824 15.7255 58.3534 16.0001C58.2161 16.1031 58.0616 16.1374 57.9071 16.1546L56.6371 16.206C56.6371 16.206 56.5513 16.1889 56.517 16.1374C56.4826 16.1031 56.4826 16.0516 56.517 16.0001L57.049 14.833C57.1177 14.6957 57.2206 14.5584 57.3579 14.4726C57.787 14.198 58.3534 14.301 58.628 14.7301" fill="white"/>
<path d="M53.6508 14.7472C54.0798 15.2793 54.0112 16.0344 53.4791 16.4635C53.3075 16.6008 53.1016 16.6866 52.8956 16.7209L51.2137 16.9441C51.2137 16.9441 51.0935 16.9269 51.042 16.8754C51.0077 16.8239 50.9905 16.7553 51.0077 16.6866L51.5569 15.0733C51.6256 14.8845 51.7457 14.6957 51.9345 14.5584C52.4494 14.1294 53.2217 14.198 53.6508 14.7301" fill="white"/>
<path d="M48.3648 16.1374C48.9655 16.738 48.9655 17.6992 48.3648 18.2999C48.1588 18.5058 47.9186 18.626 47.6783 18.6946L45.6188 19.1752C45.6188 19.1752 45.4643 19.1752 45.3956 19.1065C45.327 19.055 45.3098 18.9692 45.327 18.8834L45.8076 16.8239C45.8762 16.5664 46.0135 16.3261 46.2023 16.1374C46.803 15.5367 47.7641 15.5367 48.3648 16.1374Z" fill="white"/>
<path d="M44.3319 20.1706C45.0528 20.8915 45.0528 22.0585 44.3319 22.7622C44.0916 23.0025 43.7999 23.1569 43.5081 23.2428L41.0195 23.8263C40.9337 23.8435 40.8307 23.8263 40.7621 23.7576C40.6934 23.689 40.6591 23.586 40.6762 23.5002L41.2598 21.0116C41.3456 20.7027 41.5001 20.4109 41.7403 20.1878C42.4612 19.4669 43.6282 19.4669 44.3319 20.1878" fill="white"/>
<path d="M5.3891 50.2912C5.6637 50.7203 6.24724 50.8233 6.65915 50.5487C6.79645 50.4457 6.89942 50.3256 6.96808 50.1883L7.50012 49.0212C7.50012 49.0212 7.50012 48.9182 7.50012 48.8839C7.4658 48.8496 7.43147 48.8152 7.37998 48.8152L6.10994 48.8667C5.95547 48.8667 5.80101 48.9182 5.6637 49.0212C5.23463 49.2958 5.13166 49.8793 5.40626 50.2912" fill="white"/>
<path d="M10.3665 50.2741C10.7956 50.8062 11.5679 50.8748 12.0828 50.4458C12.2544 50.3084 12.3746 50.1197 12.4604 49.9309L13.0096 48.3176C13.0096 48.3176 13.0096 48.1974 12.9753 48.1288C12.9409 48.0773 12.8723 48.0601 12.8036 48.0601L11.1217 48.2832C10.9157 48.3176 10.7098 48.4034 10.5381 48.5407C10.0233 48.9698 9.93745 49.7421 10.3665 50.257" fill="white"/>
<path d="M15.6351 48.8669C16.2358 49.4676 17.1969 49.4676 17.7976 48.8669C18.0036 48.6609 18.1237 48.4206 18.1923 48.1803L18.6729 46.1208C18.6729 46.1208 18.6729 45.9664 18.6043 45.8977C18.5356 45.8462 18.467 45.8119 18.3811 45.829L16.3216 46.3096C16.0642 46.3783 15.8239 46.5156 15.6351 46.7044C15.0344 47.3051 15.0344 48.2662 15.6351 48.8669Z" fill="white"/>
<path d="M19.6685 44.8336C20.3893 45.5544 21.5564 45.5544 22.2601 44.8336C22.5003 44.5933 22.6548 44.3015 22.7406 44.0097L23.3242 41.5211C23.3413 41.4353 23.3242 41.3323 23.2555 41.2637C23.1869 41.195 23.0839 41.1607 22.9981 41.195L20.5095 41.7786C20.2005 41.8644 19.9088 42.0189 19.6856 42.2591C18.9648 42.98 18.9648 44.147 19.6856 44.8507" fill="white"/>
<path d="M63.3992 26.2634C63.5022 26.7611 63.1761 27.2417 62.6784 27.3447C62.5068 27.379 62.3523 27.3618 62.1979 27.3103L60.9965 26.8641C60.9965 26.8641 60.9106 26.8126 60.9106 26.7611C60.9106 26.7096 60.9106 26.6581 60.945 26.6238L61.8718 25.7485C61.9919 25.6455 62.1292 25.5769 62.3008 25.5426C62.7985 25.4396 63.2791 25.7657 63.3821 26.2634" fill="white"/>
<path d="M58.7998 24.3755C58.9886 25.0277 58.6282 25.7142 57.976 25.903C57.77 25.9717 57.5469 25.9717 57.341 25.9202L55.6934 25.4739C55.6934 25.4739 55.5732 25.4053 55.556 25.3538C55.5389 25.2851 55.5561 25.2165 55.5904 25.1822L56.706 23.9121C56.8433 23.7577 57.0321 23.6375 57.2552 23.5689C57.9074 23.3801 58.5939 23.7405 58.7827 24.3927" fill="white"/>
<path d="M53.3765 23.6547C53.7026 24.4442 53.325 25.3366 52.5527 25.6627C52.2952 25.7657 52.0206 25.8 51.7632 25.7657L49.6693 25.4224C49.6693 25.4224 49.5149 25.3538 49.4977 25.2851C49.4634 25.1993 49.4806 25.1135 49.5149 25.062L50.7506 23.3457C50.9051 23.1398 51.1282 22.9682 51.3856 22.8652C52.1751 22.5391 53.0676 22.9167 53.3937 23.689" fill="white"/>
<path d="M48.1241 25.8344C48.5188 26.7783 48.0726 27.8424 47.1286 28.2372C46.8197 28.3745 46.4936 28.4088 46.1847 28.3573L43.6789 27.9454C43.5931 27.9454 43.5073 27.8596 43.4729 27.7738C43.4386 27.6708 43.4558 27.585 43.5073 27.4992L44.9833 25.4225C45.172 25.165 45.4295 24.9591 45.7384 24.8389C46.6824 24.4442 47.7465 24.8904 48.1412 25.8344" fill="white"/>
<path d="M0.618128 38.7579C0.721104 39.2556 1.20166 39.5817 1.69938 39.4788C1.87101 39.4444 2.00831 39.3758 2.12845 39.2728L3.05524 38.3975C3.05524 38.3975 3.10673 38.3117 3.08957 38.2602C3.08957 38.2087 3.03808 38.1744 3.00375 38.1572L1.81952 37.711C1.66506 37.6595 1.51059 37.6423 1.33896 37.6767C0.841244 37.7796 0.515151 38.2602 0.618128 38.7579Z" fill="white"/>
<path d="M5.21762 40.6287C5.40641 41.2808 6.09292 41.6413 6.74511 41.4525C6.95106 41.3838 7.13985 41.2637 7.29432 41.1092L8.4099 39.8392C8.4099 39.8392 8.46138 39.719 8.44422 39.6675C8.42706 39.5989 8.37557 39.5474 8.30692 39.5302L6.65929 39.084C6.45334 39.0325 6.23022 39.0325 6.02427 39.1012C5.37208 39.29 5.01167 39.9765 5.20046 40.6287" fill="white"/>
<path d="M10.6237 41.3666C10.9498 42.1561 11.8423 42.5165 12.6318 42.1904C12.8892 42.0875 13.1123 41.9158 13.2668 41.6927L14.5025 39.9764C14.5025 39.9764 14.554 39.822 14.5197 39.7533C14.4853 39.6675 14.4167 39.616 14.348 39.616L12.2542 39.2728C11.9967 39.2384 11.7221 39.2728 11.4647 39.3757C10.6752 39.7018 10.3148 40.5943 10.6409 41.3838" fill="white"/>
<path d="M15.8929 39.187C16.2876 40.1309 17.3517 40.5772 18.2957 40.1824C18.6046 40.0623 18.8621 39.8563 19.0509 39.5989L20.5269 37.5222C20.5269 37.5222 20.5955 37.3334 20.5612 37.2476C20.5269 37.1446 20.441 37.0931 20.3552 37.076L17.8323 36.664C17.5234 36.6126 17.1973 36.664 16.8883 36.7842C15.9444 37.1789 15.5153 38.243 15.8929 39.187Z" fill="white"/>
<path d="M63.3993 38.7579C63.2963 39.2556 62.8157 39.5817 62.318 39.4788C62.1464 39.4444 62.0091 39.3758 61.8889 39.2728L60.9621 38.3975C60.9621 38.3975 60.9107 38.3117 60.9278 38.2602C60.9278 38.2087 60.9793 38.1744 61.0136 38.1572L62.215 37.711C62.3695 37.6595 62.524 37.6423 62.6956 37.6767C63.1933 37.7796 63.5194 38.2602 63.4164 38.7579" fill="white"/>
<path d="M59.8637 35.2567C59.7951 35.9261 59.1944 36.4238 58.525 36.3552C58.3019 36.338 58.096 36.2522 57.9243 36.132L56.5685 35.1023C56.5685 35.1023 56.4827 34.9993 56.4998 34.9307C56.4998 34.862 56.5513 34.8105 56.6028 34.7762L58.1303 34.021C58.3191 33.9352 58.5422 33.9009 58.7653 33.918C59.4347 33.9867 59.9324 34.5874 59.8637 35.2567Z" fill="white"/>
<path d="M55.1439 32.5106C55.1439 33.3516 54.4574 34.0381 53.6164 34.0381C53.3418 34.0381 53.0672 33.9695 52.8441 33.8322L51.042 32.7166C51.042 32.7166 50.9219 32.5965 50.9219 32.5106C50.9219 32.4248 50.9734 32.3562 51.042 32.3047L52.8441 31.1891C53.0672 31.0518 53.3418 30.9832 53.6164 30.9832C54.4574 30.9832 55.1439 31.6697 55.1439 32.5106Z" fill="white"/>
<path d="M49.4463 32.5107C49.4463 33.5233 48.6225 34.3471 47.6099 34.3471C47.2666 34.3471 46.9577 34.2613 46.6831 34.0896L44.5206 32.751C44.5206 32.751 44.3833 32.6137 44.3833 32.5107C44.3833 32.4077 44.4348 32.3219 44.5206 32.2704L46.6831 30.9317C46.9577 30.7772 47.2666 30.6743 47.6099 30.6743C48.6225 30.6743 49.4463 31.4981 49.4463 32.5107Z" fill="white"/>
<path d="M0.618128 26.2634C0.515151 26.7611 0.841244 27.2417 1.33896 27.3447C1.51059 27.379 1.66506 27.3618 1.81952 27.3103L3.00375 26.8641C3.00375 26.8641 3.08957 26.8126 3.08957 26.7611C3.08957 26.7096 3.08957 26.6581 3.05524 26.6238L2.12845 25.7485C2.00831 25.6455 1.87101 25.5769 1.69938 25.5426C1.20166 25.4396 0.721104 25.7657 0.618128 26.2634Z" fill="white"/>
<path d="M4.13621 29.7646C4.06756 30.434 4.56528 31.0346 5.23463 31.1033C5.45775 31.1205 5.68087 31.0861 5.86966 31.0003L7.39714 30.2452C7.39714 30.2452 7.50012 30.1593 7.50012 30.0907C7.50012 30.022 7.48296 29.9534 7.43147 29.9191L6.07561 28.8893C5.90398 28.7692 5.69803 28.6833 5.47491 28.6662C4.80556 28.5975 4.20487 29.0953 4.13621 29.7646Z" fill="white"/>
<path d="M8.85596 32.5106C8.85596 33.3516 9.54247 34.0381 10.3834 34.0381C10.658 34.0381 10.9327 33.9695 11.1558 33.8322L12.9579 32.7166C12.9579 32.7166 13.078 32.5965 13.078 32.5106C13.078 32.4248 13.0265 32.3562 12.9579 32.3047L11.1558 31.1891C10.9327 31.0518 10.658 30.9832 10.3834 30.9832C9.54247 30.9832 8.85596 31.6697 8.85596 32.5106Z" fill="white"/>
<path d="M14.5537 32.5107C14.5537 33.5233 15.3775 34.3471 16.3901 34.3471C16.7334 34.3471 17.0423 34.2613 17.3169 34.0896L19.4794 32.751C19.4794 32.751 19.6167 32.6137 19.6167 32.5107C19.6167 32.4077 19.5652 32.3219 19.4794 32.2704L17.3169 30.9317C17.0423 30.7772 16.7334 30.6743 16.3901 30.6743C15.3775 30.6743 14.5537 31.4981 14.5537 32.5107Z" fill="white"/>
<path d="M58.611 50.2912C58.3364 50.7203 57.7529 50.8233 57.341 50.5487C57.2037 50.4457 57.1007 50.3256 57.032 50.1883L56.5 49.0212C56.5 49.0212 56.5 48.9182 56.5 48.8839C56.5343 48.8496 56.5687 48.8152 56.6201 48.8152L57.8902 48.8667C58.0446 48.8667 58.1991 48.9182 58.3364 49.0212C58.7655 49.2958 58.8685 49.8793 58.5939 50.2912" fill="white"/>
<path d="M56.6891 45.7088C56.363 46.3095 55.625 46.5327 55.0243 46.2066C54.8183 46.1036 54.6639 45.9491 54.5609 45.7603L53.7028 44.2843C53.7028 44.2843 53.6684 44.1642 53.7028 44.0955C53.7371 44.0269 53.7886 43.9926 53.8572 43.9926L55.5563 43.8896C55.7623 43.8896 55.9854 43.9239 56.1742 44.0269C56.7749 44.353 56.998 45.091 56.6719 45.6917" fill="white"/>
<path d="M53.376 41.3666C53.0499 42.1561 52.1575 42.5165 51.368 42.1904C51.1105 42.0875 50.8874 41.9158 50.7329 41.6927L49.4972 39.9764C49.4972 39.9764 49.4457 39.822 49.4801 39.7533C49.5144 39.6675 49.583 39.616 49.6517 39.616L51.7455 39.2728C52.003 39.2384 52.2776 39.2728 52.535 39.3757C53.3245 39.7018 53.6849 40.5943 53.3588 41.3838" fill="white"/>
<path d="M48.1247 39.187C47.7299 40.1309 46.6658 40.5772 45.7219 40.1824C45.4129 40.0623 45.1555 39.8563 44.9667 39.5989L43.4907 37.5222C43.4907 37.5222 43.4221 37.3334 43.4564 37.2476C43.4907 37.1446 43.5765 37.0931 43.6623 37.076L46.1681 36.664C46.477 36.6126 46.8031 36.664 47.1121 36.7842C48.056 37.1789 48.4851 38.243 48.1075 39.187" fill="white"/>
<path d="M5.38868 14.7301C5.11408 15.1591 5.21706 15.7255 5.64613 16.0001C5.78343 16.1031 5.93789 16.1374 6.09236 16.1546L7.36241 16.206C7.36241 16.206 7.44822 16.1889 7.48254 16.1374C7.51687 16.1031 7.51687 16.0516 7.48254 16.0001L6.9505 14.833C6.88185 14.6957 6.77887 14.5584 6.64157 14.4726C6.2125 14.198 5.64613 14.301 5.37152 14.7301" fill="white"/>
<path d="M7.31118 19.3125C6.98509 19.9132 7.2082 20.6512 7.8089 20.9773C8.01486 21.0803 8.22081 21.1318 8.42676 21.1146L10.1259 21.0116C10.1259 21.0116 10.246 20.9773 10.2803 20.9086C10.3147 20.8572 10.3147 20.7713 10.2803 20.7199L9.4222 19.2439C9.31923 19.0722 9.1476 18.9178 8.95881 18.8148C8.35811 18.4887 7.62011 18.7118 7.29402 19.3125" fill="white"/>
<path d="M10.6239 23.6547C10.2978 24.4442 10.6753 25.3366 11.4477 25.6627C11.7051 25.7657 11.9797 25.8 12.2372 25.7657L14.331 25.4224C14.331 25.4224 14.4855 25.3538 14.5026 25.2851C14.537 25.1993 14.5198 25.1135 14.4855 25.062L13.2498 23.3457C13.0953 23.1398 12.8722 22.9682 12.6147 22.8652C11.8252 22.5391 10.9328 22.9167 10.6067 23.689" fill="white"/>
<path d="M15.8928 25.8344C15.498 26.7783 15.9443 27.8424 16.8882 28.2372C17.1972 28.3745 17.5232 28.4088 17.8322 28.3573L20.3551 27.9454C20.4409 27.9454 20.5267 27.8596 20.5611 27.7738C20.5954 27.6708 20.5782 27.585 20.5267 27.4992L19.0507 25.4225C18.8619 25.165 18.6045 24.9591 18.2956 24.8389C17.3516 24.4442 16.2875 24.8904 15.8928 25.8344Z" fill="white"/>
<path d="M49.7889 59.113C49.3598 59.3876 48.7935 59.2846 48.5189 58.8556C48.4159 58.7183 48.3816 58.5638 48.3644 58.4093L48.3301 57.1393C48.3301 57.1393 48.3472 57.0363 48.3987 57.0192C48.4502 56.9848 48.5017 56.9848 48.536 57.0192L49.7031 57.5512C49.8404 57.6199 49.9777 57.7228 50.0635 57.8601C50.3381 58.2892 50.2351 58.8556 49.8061 59.1302" fill="white"/>
<path d="M49.7549 54.153C49.2401 54.582 48.4677 54.5134 48.0387 53.9813C47.9014 53.8097 47.8155 53.6038 47.7812 53.3978L47.5581 51.7158C47.5581 51.7158 47.5753 51.5957 47.6268 51.5442C47.6782 51.4927 47.7469 51.4927 47.8155 51.5099L49.4288 52.0591C49.6176 52.1278 49.8064 52.2479 49.9437 52.4367C50.3728 52.9516 50.3042 53.7239 49.7721 54.153" fill="white"/>
<path d="M48.365 48.8669C47.7643 49.4676 46.8032 49.4676 46.2025 48.8669C45.9965 48.6609 45.8764 48.4206 45.8077 48.1803L45.3271 46.1208C45.3271 46.1208 45.3272 45.9664 45.3958 45.8977C45.4645 45.8462 45.5331 45.8119 45.6189 45.829L47.6784 46.3096C47.9359 46.3783 48.1762 46.5156 48.365 46.7044C48.9657 47.3051 48.9657 48.2662 48.365 48.8669Z" fill="white"/>
<path d="M44.3316 44.8336C43.6107 45.5544 42.4437 45.5544 41.74 44.8336C41.4997 44.5933 41.3453 44.3015 41.2594 44.0097L40.6759 41.5211C40.6587 41.4353 40.6759 41.3323 40.7617 41.2637C40.8304 41.195 40.9333 41.1607 41.0192 41.195L43.5078 41.7786C43.8167 41.8644 44.1085 42.0189 44.3316 42.2591C45.0524 42.98 45.0524 44.147 44.3316 44.8507" fill="white"/>
<path d="M14.2282 5.89124C13.7991 6.16584 13.6961 6.74938 13.9707 7.16128C14.0565 7.29859 14.1938 7.40156 14.3311 7.47021L15.4982 8.00226C15.4982 8.00226 15.6012 8.01942 15.6355 8.00226C15.6698 7.96793 15.7042 7.93361 15.7042 7.88212L15.6698 6.61207C15.6698 6.45761 15.6183 6.30314 15.5154 6.16584C15.2408 5.73677 14.6572 5.6338 14.2453 5.9084" fill="white"/>
<path d="M14.2452 10.8684C13.7303 11.2975 13.6445 12.0698 14.0736 12.5847C14.2109 12.7563 14.3996 12.8765 14.5884 12.9623L16.2017 13.5115C16.2017 13.5115 16.339 13.5115 16.3905 13.4772C16.442 13.4428 16.4592 13.3742 16.4592 13.3055L16.2361 11.6236C16.2017 11.4176 16.1159 11.2117 15.9786 11.0401C15.5496 10.508 14.7772 10.4394 14.2623 10.8684" fill="white"/>
<path d="M15.6351 16.1374C15.0344 16.738 15.0344 17.6992 15.6351 18.2999C15.841 18.5058 16.0813 18.626 16.3216 18.6946L18.3811 19.1752C18.3811 19.1752 18.5356 19.1752 18.6043 19.1065C18.6729 19.055 18.6901 18.9692 18.6729 18.8834L18.1923 16.8239C18.1237 16.5664 17.9864 16.3261 17.7976 16.1374C17.1969 15.5367 16.2358 15.5367 15.6351 16.1374Z" fill="white"/>
<path d="M19.6686 20.1706C18.9477 20.8915 18.9477 22.0585 19.6686 22.7622C19.9088 23.0025 20.2006 23.1569 20.4924 23.2428L22.981 23.8263C23.0668 23.8435 23.1698 23.8263 23.2384 23.7576C23.3071 23.689 23.3414 23.586 23.3071 23.5002L22.7235 21.0116C22.6377 20.7027 22.4833 20.4109 22.243 20.1878C21.5221 19.4669 20.3551 19.4669 19.6514 20.1878" fill="white"/>
<path d="M38.2388 63.9014C37.741 64.0044 37.2605 63.6783 37.1575 63.1805C37.1232 63.0089 37.1403 62.8544 37.1918 62.7L37.6381 61.5157C37.6381 61.5157 37.6896 61.4299 37.741 61.4299C37.7925 61.4299 37.844 61.4299 37.8783 61.4814L38.7536 62.4082C38.8566 62.5283 38.9424 62.6657 38.9596 62.8373C39.0626 63.335 38.7365 63.8156 38.2388 63.9185" fill="white"/>
<path d="M40.1268 59.3018C39.4746 59.4906 38.7881 59.1301 38.5993 58.478C38.5306 58.272 38.5306 58.0489 38.5821 57.8429L39.0283 56.1953C39.0283 56.1953 39.097 56.0752 39.1656 56.058C39.2343 56.0408 39.3029 56.058 39.3373 56.0923L40.6073 57.2079C40.7618 57.3452 40.8819 57.534 40.9506 57.7571C41.1394 58.4093 40.7789 59.0958 40.1268 59.2846" fill="white"/>
<path d="M40.8645 53.8783C40.0922 54.2044 39.1826 53.8269 38.8737 53.0545C38.7707 52.7971 38.7364 52.5225 38.7707 52.265L39.1139 50.1712C39.1139 50.1712 39.1826 50.0167 39.2512 49.9824C39.3371 49.9481 39.4229 49.9652 39.4744 49.9996L41.2078 51.2353C41.4138 51.3897 41.5854 51.6129 41.6884 51.8703C42.0145 52.6598 41.6369 53.5523 40.8645 53.8783Z" fill="white"/>
<path d="M38.6848 48.6265C37.7409 49.0212 36.6768 48.575 36.282 47.6311C36.1447 47.3221 36.1104 46.996 36.1619 46.6871L36.5738 44.1642C36.5738 44.0784 36.6596 43.9926 36.7454 43.9582C36.8484 43.9239 36.9342 43.9411 37.02 43.9926L39.0967 45.4857C39.3542 45.6745 39.5601 45.9319 39.6803 46.2409C40.075 47.1848 39.6288 48.2489 38.6848 48.6437" fill="white"/>
<path d="M25.7613 1.11996C25.2636 1.22294 24.9375 1.70349 25.0405 2.20121C25.0748 2.37284 25.1435 2.51014 25.2464 2.63028L26.1217 3.55707C26.1217 3.55707 26.2076 3.60856 26.2591 3.5914C26.3105 3.5914 26.3449 3.53991 26.362 3.50558L26.8083 2.32135C26.8597 2.16689 26.8769 2.01242 26.8426 1.8408C26.7396 1.34307 26.259 1.01698 25.7613 1.11996Z" fill="white"/>
<path d="M23.8734 5.71957C23.2212 5.90836 22.8608 6.59487 23.0496 7.24706C23.1182 7.45301 23.2384 7.6418 23.3928 7.79627L24.6629 8.91185C24.6629 8.91185 24.783 8.96334 24.8345 8.94617C24.9032 8.92901 24.9546 8.87752 24.9718 8.80887L25.418 7.16125C25.4695 6.95529 25.4695 6.73218 25.4009 6.52622C25.2121 5.87404 24.5256 5.51362 23.8734 5.70241" fill="white"/>
<path d="M23.1527 11.1258C22.3632 11.4519 22.0028 12.3444 22.3289 13.1339C22.4318 13.3913 22.6035 13.6144 22.8094 13.7689L24.5429 15.0046C24.5429 15.0046 24.6973 15.0561 24.766 15.0218C24.8518 14.9875 24.9033 14.9188 24.9033 14.8502L25.2465 12.7563C25.2809 12.4989 25.2465 12.2243 25.1436 11.9668C24.8175 11.1773 23.925 10.8169 23.1527 11.143" fill="white"/>
<path d="M44.2454 2.93921C44.7088 3.128 44.9319 3.67721 44.7431 4.1406C44.6745 4.29507 44.5715 4.43237 44.4514 4.51818L43.4216 5.25618C43.4216 5.25618 43.3358 5.29051 43.2843 5.25618C43.2328 5.23902 43.1985 5.18753 43.1985 5.15321L42.9925 3.90032C42.9754 3.74586 42.9925 3.57423 43.0612 3.41977C43.25 2.95637 43.7992 2.73326 44.2626 2.92205" fill="white"/>
<path d="M40.1268 5.71957C40.7789 5.90836 41.1394 6.59487 40.9506 7.24706C40.8819 7.45301 40.7618 7.6418 40.6073 7.79627L39.3373 8.91185C39.3373 8.91185 39.2171 8.96334 39.1656 8.94617C39.097 8.92901 39.0455 8.87752 39.0283 8.80887L38.5821 7.16125C38.5306 6.95529 38.5306 6.73218 38.5993 6.52622C38.7881 5.87404 39.4746 5.51362 40.1268 5.70241" fill="white"/>
<path d="M36.5225 9.80427C37.3463 9.9759 37.8955 10.7825 37.7239 11.6064C37.6724 11.881 37.5351 12.1212 37.3634 12.3272L35.9046 13.8719C35.9046 13.8719 35.7673 13.9577 35.6815 13.9405C35.5957 13.9405 35.527 13.8719 35.5099 13.786L34.7719 11.7952C34.686 11.5549 34.6689 11.2803 34.7204 11.0057C34.892 10.1819 35.6986 9.63265 36.5225 9.80427Z" fill="white"/>
<path d="M19.7547 62.0821C20.2181 62.2709 20.7673 62.0478 20.9561 61.5844C21.0248 61.4299 21.0419 61.2583 21.0248 61.1038L20.8188 59.851C20.8188 59.851 20.7845 59.7651 20.733 59.748C20.6815 59.7308 20.63 59.748 20.5957 59.748L19.5659 60.486C19.4458 60.589 19.3428 60.7091 19.2742 60.8636C19.0854 61.327 19.3085 61.8762 19.7719 62.065" fill="white"/>
<path d="M23.8734 59.3018C24.5256 59.4906 25.2121 59.1301 25.4009 58.478C25.4695 58.272 25.4695 58.0489 25.418 57.8429L24.9718 56.1953C24.9718 56.1953 24.9032 56.0752 24.8345 56.058C24.7659 56.0408 24.6972 56.058 24.6629 56.0923L23.3928 57.2079C23.2384 57.3452 23.1182 57.534 23.0496 57.7571C22.8608 58.4093 23.2212 59.0958 23.8734 59.2846" fill="white"/>
<path d="M27.495 55.1999C28.3189 55.3715 29.1255 54.8223 29.2971 53.9985C29.3486 53.7239 29.3315 53.4493 29.2457 53.209L28.5077 51.2182C28.5077 51.2182 28.4218 51.0808 28.336 51.0637C28.2502 51.0465 28.1644 51.0637 28.1129 51.1323L26.6541 52.677C26.4824 52.8658 26.3623 53.1232 26.2937 53.3978C26.122 54.2216 26.6712 55.0283 27.495 55.1999Z" fill="white"/>
<path d="M54.6292 9.87296C54.9896 10.2334 54.9896 10.8169 54.6292 11.1773C54.5091 11.2975 54.3718 11.3833 54.2173 11.4176L52.9816 11.7094C52.9816 11.7094 52.8786 11.7094 52.8443 11.6751C52.81 11.6407 52.7928 11.5892 52.81 11.5378L53.1017 10.302C53.1361 10.1476 53.2219 10.0103 53.342 9.89013C53.7024 9.52971 54.286 9.52971 54.6464 9.89013" fill="white"/>
<path d="M49.7545 10.8684C50.2694 11.2975 50.3552 12.0698 49.9262 12.5847C49.7889 12.7563 49.6001 12.8765 49.4113 12.9623L47.798 13.5115C47.798 13.5115 47.6778 13.5115 47.6092 13.4772C47.5577 13.4428 47.5405 13.3742 47.5405 13.3055L47.7636 11.6236C47.798 11.4176 47.8838 11.2117 48.0211 11.0401C48.4502 10.508 49.2225 10.4394 49.7374 10.8684" fill="white"/>
<path d="M44.8639 13.2712C45.5675 13.7346 45.7563 14.6957 45.2929 15.3994C45.1385 15.6397 44.9325 15.8113 44.6922 15.9315L42.7528 16.8068C42.7528 16.8068 42.5984 16.8411 42.5297 16.7896C42.4611 16.7381 42.4268 16.6695 42.4268 16.5836L42.4954 14.4555C42.4954 14.198 42.5984 13.9234 42.7528 13.7003C43.2162 12.9966 44.1774 12.8078 44.881 13.2712" fill="white"/>
<path d="M9.37083 55.1312C9.73125 55.4916 10.3148 55.4916 10.6752 55.1312C10.7953 55.0111 10.8812 54.8738 10.9155 54.7193L11.2072 53.4836C11.2072 53.4836 11.2072 53.3806 11.1729 53.3463C11.1386 53.312 11.0871 53.2948 11.0356 53.312L9.7999 53.6037C9.64543 53.6381 9.50813 53.7239 9.38799 53.844C9.02757 54.2044 9.02757 54.788 9.38799 55.1484" fill="white"/>
<path d="M14.2454 54.153C14.7603 54.582 15.5326 54.5134 15.9617 53.9813C16.099 53.8097 16.1848 53.6038 16.2191 53.3978L16.4422 51.7158C16.4422 51.7158 16.4251 51.5957 16.3736 51.5442C16.3221 51.4927 16.2534 51.4927 16.1848 51.5099L14.5715 52.0591C14.3827 52.1278 14.1939 52.2479 14.0566 52.4367C13.6275 52.9516 13.6962 53.7239 14.2282 54.153" fill="white"/>
<path d="M19.1541 51.7501C19.8578 52.2135 20.8018 52.0247 21.2823 51.3211C21.4368 51.0808 21.5226 50.8233 21.5398 50.5659L21.6084 48.4377C21.6084 48.4377 21.5741 48.2832 21.5054 48.2318C21.4368 48.1803 21.351 48.1803 21.2823 48.2146L19.3429 49.0899C19.1027 49.21 18.8967 49.3817 18.7422 49.6219C18.2788 50.3256 18.4676 51.2696 19.1713 51.7501" fill="white"/>
<path d="M61.5805 20.2565C61.7693 20.7199 61.5462 21.2691 61.0828 21.4579C60.9283 21.5265 60.7567 21.5437 60.6023 21.5265L59.3494 21.3206C59.3494 21.3206 59.2636 21.2862 59.2464 21.2348C59.2292 21.1833 59.2464 21.1318 59.2464 21.0975L59.9844 20.0677C60.0702 19.9476 60.2075 19.8446 60.362 19.7759C60.8254 19.5871 61.3746 19.8103 61.5634 20.2736" fill="white"/>
<path d="M56.6892 19.3125C57.0153 19.9132 56.7922 20.6512 56.1915 20.9773C55.9856 21.0803 55.7796 21.1318 55.5737 21.1146L53.8745 21.0116C53.8745 21.0116 53.7544 20.9773 53.7201 20.9086C53.6858 20.8572 53.6858 20.7713 53.7201 20.7199L54.5611 19.2439C54.664 19.0722 54.8357 18.9178 55.0245 18.8148C55.6252 18.4887 56.3631 18.7118 56.6892 19.3125Z" fill="white"/>
<path d="M51.2484 19.6557C51.7118 20.3594 51.523 21.3034 50.8194 21.7839C50.5791 21.9384 50.3216 22.0242 50.0642 22.0414L47.936 22.11C47.936 22.11 47.7815 22.0757 47.7301 22.007C47.6786 21.9384 47.6786 21.8526 47.7129 21.7839L48.5882 19.8445C48.7083 19.6042 48.88 19.3983 49.1202 19.2438C49.8239 18.7804 50.7679 18.9692 51.2484 19.6729" fill="white"/>
<path d="M2.43732 44.7478C2.62611 45.2112 3.17532 45.4343 3.63871 45.2455C3.79318 45.1768 3.93048 45.0739 4.01629 44.9537L4.75429 43.924C4.75429 43.924 4.78862 43.8382 4.75429 43.7867C4.73713 43.7352 4.68564 43.718 4.65131 43.7009L3.39843 43.4949C3.24397 43.4777 3.07234 43.4949 2.91787 43.5635C2.45448 43.7523 2.23136 44.3015 2.42015 44.7649" fill="white"/>
<path d="M7.31111 45.7088C7.6372 46.3095 8.3752 46.5327 8.9759 46.2066C9.18185 46.1036 9.33632 45.9491 9.43929 45.7603L10.2974 44.2843C10.2974 44.2843 10.3318 44.1642 10.2974 44.0955C10.2631 44.0269 10.2116 43.9926 10.143 43.9926L8.44385 43.8896C8.2379 43.8896 8.01478 43.9239 7.82599 44.0269C7.22529 44.353 7.00218 45.091 7.32827 45.6917" fill="white"/>
<path d="M12.7691 45.3656C13.2325 46.0693 14.1936 46.258 14.8973 45.7946C15.1376 45.6402 15.3092 45.4342 15.4293 45.194L16.3046 43.2546C16.3046 43.2546 16.339 43.1001 16.2875 43.0314C16.236 42.9628 16.1673 42.9285 16.0815 42.9285L13.9533 42.9971C13.6959 42.9971 13.4384 43.1001 13.1982 43.2546C12.4945 43.718 12.3057 44.6791 12.7691 45.3827" fill="white"/>
<path d="M64.0001 32.5107C64.0001 33.0256 63.5881 33.4203 63.0733 33.4203C62.9016 33.4203 62.7472 33.3688 62.6099 33.3002L61.5286 32.6308C61.5286 32.6308 61.46 32.5622 61.46 32.5107C61.46 32.4592 61.4943 32.4077 61.5286 32.3906L62.6099 31.7212C62.7472 31.6354 62.9016 31.6011 63.0733 31.6011C63.5881 31.6011 64.0001 32.013 64.0001 32.5279" fill="white"/>
<path d="M59.8639 29.7646C59.9326 30.434 59.4348 31.0346 58.7655 31.1033C58.5424 31.1205 58.3192 31.0861 58.1305 31.0003L56.603 30.2452C56.603 30.2452 56.5 30.1593 56.5 30.0907C56.5 30.022 56.5172 29.9534 56.5686 29.9191L57.9245 28.8893C58.0961 28.7692 58.3021 28.6833 58.5252 28.6662C59.1946 28.5975 59.7953 29.0953 59.8639 29.7646Z" fill="white"/>
<path d="M54.6976 27.9969C54.8692 28.8207 54.32 29.6273 53.4962 29.799C53.2216 29.8505 52.947 29.8333 52.7067 29.7475L50.7158 29.0095C50.7158 29.0095 50.5785 28.9237 50.5614 28.8379C50.5442 28.752 50.5614 28.6662 50.63 28.6147L52.1747 27.1559C52.3635 26.9843 52.6209 26.8641 52.8955 26.7955C53.7193 26.6239 54.526 27.1731 54.6976 27.9969Z" fill="white"/>
<path d="M0 32.5107C0 33.0256 0.411907 33.4203 0.92679 33.4203C1.09842 33.4203 1.25288 33.3688 1.39018 33.3002L2.47144 32.6308C2.47144 32.6308 2.54009 32.5622 2.54009 32.5107C2.54009 32.4592 2.50577 32.4077 2.47144 32.3906L1.39018 31.7212C1.25288 31.6354 1.09842 31.6011 0.92679 31.6011C0.429069 31.6011 0 32.013 0 32.5279" fill="white"/>
<path d="M4.13621 35.2567C4.20487 35.9261 4.80556 36.4238 5.47491 36.3552C5.69803 36.338 5.90398 36.2522 6.07561 36.132L7.43147 35.1023C7.43147 35.1023 7.51728 34.9993 7.50012 34.9307C7.50012 34.862 7.44863 34.8105 7.39714 34.7762L5.86966 34.021C5.68087 33.9352 5.45775 33.9009 5.23463 33.918C4.56528 33.9867 4.06756 34.5874 4.13621 35.2567Z" fill="white"/>
<path d="M9.30244 37.0245C9.47407 37.8483 10.2807 38.3975 11.1045 38.2259C11.3791 38.1744 11.6194 38.0371 11.8254 37.8655L13.37 36.4066C13.37 36.4066 13.4558 36.2693 13.4387 36.1835C13.4387 36.0977 13.37 36.029 13.2842 36.0119L11.2933 35.2567C11.053 35.1709 10.7784 35.1537 10.5038 35.2052C9.68002 35.3769 9.13081 36.1835 9.30244 37.0073" fill="white"/>
<path d="M61.5798 44.7478C61.391 45.2112 60.8418 45.4343 60.3784 45.2455C60.2239 45.1768 60.0866 45.0739 60.0008 44.9537L59.2628 43.924C59.2628 43.924 59.2285 43.8382 59.2628 43.7867C59.28 43.7352 59.3315 43.718 59.3658 43.7009L60.6187 43.4949C60.7731 43.4777 60.9448 43.4949 61.0992 43.5635C61.5626 43.7523 61.7857 44.3015 61.597 44.7649" fill="white"/>
<path d="M58.7999 40.6287C58.6111 41.2808 57.9246 41.6413 57.2724 41.4525C57.0665 41.3838 56.8777 41.2637 56.7232 41.1092L55.6077 39.8392C55.6077 39.8392 55.5562 39.719 55.5733 39.6675C55.5905 39.5989 55.642 39.5474 55.7106 39.5302L57.3583 39.084C57.5642 39.0325 57.7873 39.0325 57.9933 39.1012C58.6455 39.29 59.0059 39.9765 58.8171 40.6287" fill="white"/>
<path d="M54.6981 37.0245C54.5264 37.8483 53.7198 38.3975 52.896 38.2259C52.6214 38.1744 52.3811 38.0371 52.1751 37.8655L50.6305 36.4066C50.6305 36.4066 50.5447 36.2693 50.5618 36.1835C50.5618 36.0977 50.6305 36.029 50.7163 36.0119L52.7072 35.2567C52.9475 35.1709 53.2221 35.1537 53.4967 35.2052C54.3205 35.3769 54.8697 36.1835 54.6981 37.0073" fill="white"/>
<path d="M2.43724 20.2565C2.24845 20.7199 2.47157 21.2691 2.93496 21.4579C3.08943 21.5265 3.26106 21.5437 3.41552 21.5265L4.6684 21.3206C4.6684 21.3206 4.75422 21.2862 4.77138 21.2348C4.78854 21.1833 4.77138 21.1318 4.77138 21.0975L4.03338 20.0677C3.9304 19.9476 3.81027 19.8446 3.6558 19.7759C3.19241 19.5871 2.6432 19.8103 2.45441 20.2736" fill="white"/>
<path d="M5.21755 24.3755C5.02876 25.0277 5.38917 25.7142 6.04136 25.903C6.24731 25.9717 6.47043 25.9717 6.67638 25.9202L8.32401 25.4739C8.32401 25.4739 8.44415 25.4053 8.46131 25.3538C8.47847 25.2851 8.46131 25.2165 8.42699 25.1822L7.3114 23.9121C7.1741 23.7577 6.98531 23.6375 6.7622 23.5689C6.11001 23.3801 5.4235 23.7405 5.23471 24.3927" fill="white"/>
<path d="M9.30244 27.9969C9.13081 28.8207 9.68002 29.6273 10.5038 29.799C10.7784 29.8505 11.053 29.8333 11.2933 29.7475L13.2842 29.0095C13.2842 29.0095 13.4215 28.9237 13.4387 28.8379C13.4558 28.752 13.4387 28.6662 13.37 28.6147L11.8254 27.1559C11.6366 26.9843 11.3791 26.8641 11.1045 26.7955C10.2807 26.6239 9.47407 27.1731 9.30244 27.9969Z" fill="white"/>
<path d="M54.6289 55.1312C54.2685 55.4916 53.6849 55.4916 53.3245 55.1312C53.2044 55.0111 53.1186 54.8738 53.0842 54.7193L52.7925 53.4836C52.7925 53.4836 52.7925 53.3806 52.8268 53.3463C52.8611 53.312 52.9126 53.2948 52.9641 53.312L54.1998 53.6037C54.3543 53.6381 54.4916 53.7239 54.6117 53.844C54.9721 54.2044 54.9721 54.788 54.6117 55.1484" fill="white"/>
<path d="M53.6509 50.2741C53.2218 50.8062 52.4495 50.8748 51.9346 50.4458C51.763 50.3084 51.6428 50.1197 51.557 49.9309L51.0078 48.3176C51.0078 48.3176 51.0078 48.1974 51.0421 48.1288C51.0765 48.0773 51.1451 48.0601 51.2138 48.0601L52.8957 48.2832C53.1017 48.3176 53.3076 48.4034 53.4793 48.5407C54.0113 48.9698 54.08 49.7421 53.6509 50.257" fill="white"/>
<path d="M51.2484 45.3656C50.785 46.0693 49.8239 46.258 49.1202 45.7946C48.8799 45.6402 48.7083 45.4342 48.5882 45.194L47.7129 43.2546C47.7129 43.2546 47.6785 43.1001 47.73 43.0314C47.7815 42.9628 47.8502 42.9285 47.936 42.9285L50.0642 42.9971C50.3216 42.9971 50.5791 43.1001 50.8193 43.2546C51.523 43.718 51.7118 44.6791 51.2484 45.3827" fill="white"/>
<path d="M9.3709 9.87296C9.01048 10.2334 9.01048 10.8169 9.3709 11.1773C9.49104 11.2975 9.62834 11.3833 9.78281 11.4176L11.0185 11.7094C11.0185 11.7094 11.1215 11.7094 11.1558 11.6751C11.1902 11.6407 11.2073 11.5892 11.1902 11.5378L10.8984 10.302C10.8641 10.1476 10.7782 10.0103 10.6581 9.89013C10.2977 9.52971 9.71415 9.52971 9.35374 9.89013" fill="white"/>
<path d="M10.3667 14.7472C9.93758 15.2793 10.0062 16.0344 10.5383 16.4635C10.7099 16.6008 10.9159 16.6866 11.1218 16.7209L12.8038 16.9441C12.8038 16.9441 12.9239 16.9269 12.9754 16.8754C13.0269 16.8239 13.0269 16.7553 13.0097 16.6866L12.4605 15.0733C12.3919 14.8845 12.2717 14.6957 12.0829 14.5584C11.568 14.1294 10.7957 14.198 10.3667 14.7301" fill="white"/>
<path d="M12.7691 19.6557C12.3057 20.3594 12.4945 21.3034 13.1982 21.7839C13.4384 21.9384 13.6959 22.0242 13.9533 22.0414L16.0815 22.11C16.0815 22.11 16.236 22.0757 16.2875 22.007C16.339 21.9384 16.339 21.8526 16.3046 21.7839L15.4293 19.8445C15.3092 19.6042 15.1376 19.3983 14.8973 19.2438C14.1936 18.7804 13.2497 18.9692 12.7691 19.6729" fill="white"/>
<path d="M44.2455 62.0821C43.7821 62.2709 43.2329 62.0478 43.0441 61.5844C42.9754 61.4299 42.9583 61.2583 42.9754 61.1038L43.1814 59.851C43.1814 59.851 43.2157 59.7651 43.2672 59.748C43.3187 59.7308 43.3702 59.748 43.4045 59.748L44.4343 60.486C44.5544 60.589 44.6574 60.7091 44.726 60.8636C44.9148 61.327 44.6917 61.8762 44.2283 62.065" fill="white"/>
<path d="M45.2067 57.1907C44.606 57.5168 43.868 57.2937 43.5419 56.693C43.4389 56.487 43.3875 56.2811 43.4046 56.0751L43.5076 54.376C43.5076 54.376 43.5419 54.2559 43.6106 54.2215C43.6621 54.1872 43.7479 54.1872 43.7994 54.2215L45.2754 55.0797C45.447 55.1827 45.6015 55.3543 45.7216 55.5431C46.0477 56.1438 45.8074 56.8818 45.2239 57.2079" fill="white"/>
<path d="M44.8635 51.7501C44.1598 52.2135 43.2158 52.0247 42.7353 51.3211C42.5808 51.0808 42.495 50.8233 42.4778 50.5659L42.4092 48.4377C42.4092 48.4377 42.4435 48.2832 42.5122 48.2318C42.5808 48.1803 42.6666 48.1803 42.7353 48.2146L44.6747 49.0899C44.9149 49.21 45.1209 49.3817 45.2754 49.6219C45.7388 50.3256 45.55 51.2696 44.8463 51.7501" fill="white"/>
<path d="M19.7543 2.93921C19.2909 3.128 19.0678 3.67721 19.2566 4.1406C19.3252 4.29507 19.4282 4.43237 19.5483 4.51818L20.5781 5.25618C20.5781 5.25618 20.6639 5.29051 20.7154 5.25618C20.7669 5.23902 20.7841 5.18753 20.8012 5.15321L21.0072 3.90032C21.0243 3.74586 21.0072 3.57423 20.9385 3.41977C20.7497 2.95637 20.2005 2.73326 19.7371 2.92205" fill="white"/>
<path d="M18.8104 7.81344C18.2097 8.13953 17.9866 8.87753 18.3126 9.47823C18.4156 9.66702 18.5701 9.83865 18.7589 9.94163L20.2349 10.7826C20.2349 10.7826 20.355 10.8169 20.4237 10.7826C20.4923 10.7483 20.5266 10.6968 20.5266 10.6281L20.6296 8.92902C20.6296 8.72307 20.5953 8.49995 20.4923 8.31116C20.1662 7.71046 19.4282 7.48735 18.8275 7.81344" fill="white"/>
<path d="M19.1537 13.2712C18.4501 13.7346 18.2613 14.6957 18.7247 15.3994C18.8791 15.6397 19.0851 15.8113 19.3254 15.9315L21.2648 16.8068C21.2648 16.8068 21.4192 16.8411 21.4879 16.7896C21.5565 16.7381 21.5908 16.6695 21.5908 16.5836L21.5222 14.4555C21.5222 14.198 21.4192 13.9234 21.2648 13.7003C20.8014 12.9966 19.8402 12.8078 19.1366 13.2712" fill="white"/>
<path d="M32.0088 64.5193C31.4939 64.5193 31.082 64.1074 31.082 63.6096C31.082 63.438 31.1335 63.2835 31.2022 63.1462L31.8715 62.065C31.8715 62.065 31.9402 61.9963 31.9917 61.9963C32.0431 61.9963 32.0946 62.0307 32.1118 62.065L32.7811 63.1462C32.867 63.2835 32.9013 63.438 32.9013 63.6096C32.9013 64.1074 32.4894 64.5193 31.9745 64.5193" fill="white"/>
<path d="M34.7546 60.3659C34.0853 60.4346 33.4846 59.9368 33.416 59.2675C33.3988 59.0444 33.416 58.8213 33.5189 58.6325L34.2741 57.105C34.2741 57.105 34.3599 57.002 34.4286 57.002C34.4972 57.002 34.5659 57.0192 34.6002 57.0707L35.63 58.4265C35.7501 58.5981 35.8359 58.8041 35.8531 59.0272C35.9217 59.6966 35.424 60.2973 34.7546 60.3659Z" fill="white"/>
<path d="M36.5225 55.1999C35.6986 55.3715 34.892 54.8223 34.7204 53.9985C34.6689 53.7239 34.686 53.4493 34.7719 53.209L35.5099 51.2182C35.5099 51.2182 35.5957 51.0808 35.6815 51.0637C35.7673 51.0465 35.8531 51.0637 35.9046 51.1323L37.3634 52.677C37.5351 52.8658 37.6552 53.1232 37.7239 53.3978C37.8955 54.2216 37.3463 55.0283 36.5225 55.1999Z" fill="white"/>
<path d="M32.0088 0.502075C31.4939 0.502075 31.082 0.913982 31.082 1.42887C31.082 1.60049 31.1335 1.75496 31.2022 1.89226L31.8715 2.97352C31.8715 2.97352 31.9402 3.04217 31.9917 3.04217C32.0431 3.04217 32.0946 3.00784 32.1118 2.97352L32.7811 1.89226C32.867 1.75496 32.9013 1.60049 32.9013 1.42887C32.9013 0.913982 32.4894 0.502075 31.9745 0.502075" fill="white"/>
<path d="M29.2625 4.63835C28.5931 4.707 28.0954 5.3077 28.164 5.97705C28.1812 6.20016 28.267 6.40612 28.3872 6.57775L29.4169 7.9336C29.4169 7.9336 29.5199 8.01942 29.5886 8.00226C29.6572 8.00226 29.7087 7.95077 29.743 7.89928L30.4982 6.37179C30.584 6.183 30.6183 5.95988 30.6012 5.73677C30.5325 5.06742 29.9318 4.5697 29.2625 4.63835Z" fill="white"/>
<path d="M27.495 9.80427C26.6712 9.9759 26.122 10.7825 26.2937 11.6064C26.3451 11.881 26.4824 12.1212 26.6541 12.3272L28.1129 13.8719C28.1129 13.8719 28.2502 13.9577 28.336 13.9405C28.4218 13.9405 28.4905 13.8719 28.5077 13.786L29.2457 11.7952C29.3315 11.5549 29.3486 11.2803 29.2971 11.0057C29.1255 10.1819 28.3189 9.63265 27.495 9.80427Z" fill="white"/>
<path d="M25.3321 16.3948C24.3881 16.7896 23.9419 17.8537 24.3366 18.7976C24.4568 19.1066 24.6799 19.364 24.9202 19.5528L26.9969 21.0288C26.9969 21.0288 27.1857 21.0974 27.2715 21.0631C27.3573 21.0288 27.4259 20.943 27.4431 20.8572L27.855 18.3514C27.9065 18.0425 27.855 17.7164 27.7349 17.4074C27.3401 16.4635 26.276 16.0173 25.3321 16.412" fill="white"/>
</svg>
