<svg width="133" height="133" viewBox="0 0 133 133" fill="none" xmlns="http://www.w3.org/2000/svg">
<path d="M66.4999 46.0357C68.5356 46.0357 70.2142 47.7143 70.2142 49.75C70.2142 50.4286 70.0356 51.0714 69.7142 51.6071L66.9999 56C66.9999 56 66.7142 56.2857 66.4999 56.2857C66.2856 56.2857 66.1071 56.1786 65.9999 56L63.2856 51.6071C62.9642 51.0714 62.7856 50.4286 62.7856 49.75C62.7856 47.7143 64.4642 46.0357 66.4999 46.0357Z" fill="white"/>
<path d="M66.4999 26.8214C69.3213 26.8214 71.607 29.1071 71.607 31.9286C71.607 32.8571 71.357 33.75 70.8927 34.5L67.1427 40.5357C66.9999 40.75 66.7499 40.8928 66.4641 40.8928C66.1784 40.8928 65.9284 40.75 65.7856 40.5357L62.0356 34.5C61.607 33.75 61.3213 32.8571 61.3213 31.9286C61.3213 29.1071 63.607 26.8214 66.4284 26.8214" fill="white"/>
<path d="M66.5002 0C70.6074 0 73.9288 3.32143 73.9288 7.42857C73.9288 8.78571 73.5716 10.0714 72.9288 11.1786L67.5002 19.9286C67.2859 20.25 66.9288 20.4643 66.5359 20.4643C66.1431 20.4643 65.7502 20.25 65.5716 19.9286L60.1431 11.1786C59.5002 10.0714 59.1431 8.82143 59.1431 7.42857C59.1431 3.32143 62.4645 0 66.5716 0" fill="white"/>
<path d="M66.4999 86.9643C64.4642 86.9643 62.7856 85.2857 62.7856 83.25C62.7856 82.5714 62.9642 81.9286 63.2856 81.3929L65.9999 77C65.9999 77 66.2856 76.7143 66.4999 76.7143C66.7142 76.7143 66.8928 76.8214 66.9999 77L69.7142 81.3929C70.0356 81.9286 70.2142 82.5714 70.2142 83.25C70.2142 85.2857 68.5356 86.9643 66.4999 86.9643Z" fill="white"/>
<path d="M66.5002 106.179C63.6788 106.179 61.3931 103.893 61.3931 101.071C61.3931 100.143 61.6431 99.25 62.1073 98.5L65.8574 92.4643C66.0002 92.25 66.2502 92.1071 66.5359 92.1071C66.8216 92.1071 67.0716 92.25 67.2145 92.4643L70.9645 98.5C71.3931 99.25 71.6788 100.143 71.6788 101.071C71.6788 103.893 69.3931 106.179 66.5716 106.179" fill="white"/>
<path d="M66.4999 133C62.3927 133 59.0713 129.679 59.0713 125.571C59.0713 124.214 59.4284 122.929 60.0713 121.821L65.4999 113.071C65.7141 112.75 66.0713 112.536 66.4641 112.536C66.857 112.536 67.2499 112.75 67.4284 113.071L72.857 121.821C73.4999 122.929 73.857 124.179 73.857 125.571C73.857 129.679 70.5356 133 66.4284 133" fill="white"/>
<path d="M86.9643 66.5C86.9643 68.5357 85.2857 70.2143 83.25 70.2143C82.5714 70.2143 81.9286 70.0357 81.3929 69.7143L77 67C77 67 76.75 66.7143 76.75 66.5C76.75 66.2857 76.8571 66.1071 77 66L81.3929 63.2857C81.9286 62.9643 82.5714 62.7857 83.25 62.7857C85.2857 62.7857 86.9643 64.4643 86.9643 66.5Z" fill="white"/>
<path d="M106.178 66.5C106.178 69.3214 103.893 71.6071 101.071 71.6071C100.143 71.6071 99.2498 71.3571 98.4998 70.9286L92.4641 67.1786C92.2498 67.0357 92.1069 66.7857 92.1069 66.5C92.1069 66.2143 92.2498 65.9643 92.4641 65.8214L98.4998 62.0714C99.2498 61.6429 100.143 61.3571 101.071 61.3571C103.893 61.3571 106.178 63.6429 106.178 66.4643" fill="white"/>
<path d="M133 66.5C133 70.6071 129.678 73.9286 125.571 73.9286C124.214 73.9286 122.929 73.5714 121.821 72.9286L113.071 67.5C112.75 67.2857 112.536 66.9286 112.536 66.5357C112.536 66.1429 112.75 65.75 113.071 65.5714L121.821 60.1429C122.929 59.5 124.214 59.1429 125.571 59.1429C129.678 59.1429 133 62.4643 133 66.5714" fill="white"/>
<path d="M46.0356 66.5C46.0356 64.4643 47.7142 62.7857 49.7499 62.7857C50.4285 62.7857 51.0714 62.9643 51.6071 63.2857L55.9999 66C55.9999 66 56.2856 66.2857 56.2856 66.5C56.2856 66.7143 56.1785 66.8928 55.9999 67L51.6071 69.7143C51.0714 70.0357 50.4285 70.2143 49.7499 70.2143C47.7142 70.2143 46.0356 68.5357 46.0356 66.5Z" fill="white"/>
<path d="M26.8213 66.5C26.8213 63.6786 29.107 61.3929 31.9284 61.3929C32.857 61.3929 33.7499 61.6428 34.4999 62.0714L40.5356 65.8214C40.7499 65.9643 40.8927 66.2143 40.8927 66.5C40.8927 66.7857 40.7499 67.0357 40.5356 67.1786L34.4999 70.9286C33.7499 71.3571 32.857 71.6428 31.9284 71.6428C29.107 71.6428 26.8213 69.3571 26.8213 66.5357" fill="white"/>
<path d="M0 66.5C0 62.3929 3.32143 59.0714 7.42857 59.0714C8.78571 59.0714 10.0714 59.4286 11.1786 60.0714L19.9286 65.5C20.25 65.7143 20.4643 66.0714 20.4643 66.4643C20.4643 66.8572 20.25 67.25 19.9286 67.4286L11.1786 72.8572C10.0714 73.5 8.82143 73.8572 7.42857 73.8572C3.32143 73.8572 0 70.5357 0 66.4286" fill="white"/>
<path d="M52.0356 52.0357C53.4999 50.5714 55.8571 50.5714 57.2856 52.0357C57.7499 52.5 58.0714 53.1071 58.2499 53.7143L59.4285 58.7143C59.4642 58.8929 59.4285 59.1071 59.2856 59.25C59.1428 59.3929 58.9285 59.4286 58.7499 59.3929L53.7499 58.2143C53.1428 58.0714 52.5356 57.7143 52.0714 57.25C50.6071 55.7857 50.6071 53.4286 52.0714 52" fill="white"/>
<path d="M38.4644 38.4643C40.4644 36.4643 43.7144 36.4643 45.7144 38.4643C46.3929 39.1429 46.8215 39.9286 47.0358 40.7857L48.6429 47.6786C48.7144 47.9286 48.6429 48.2143 48.4286 48.4286C48.2144 48.6429 47.9644 48.6786 47.6786 48.6429L40.7858 47.0357C39.9286 46.8214 39.1429 46.3572 38.4644 45.7143C36.4644 43.7143 36.4644 40.4643 38.4644 38.4643Z" fill="white"/>
<path d="M19.4641 19.4643C22.3569 16.5714 27.0712 16.5714 29.9641 19.4643C30.9284 20.4285 31.5712 21.6071 31.8926 22.8214L34.2498 32.8571C34.3212 33.2143 34.2498 33.6428 33.9284 33.9285C33.6426 34.2143 33.2141 34.3214 32.8569 34.25L22.8212 31.8928C21.5712 31.5714 20.4284 30.9285 19.4641 29.9643C16.5712 27.0714 16.5712 22.3571 19.4641 19.4643Z" fill="white"/>
<path d="M80.9643 80.9643C79.5 82.4286 77.1786 82.4286 75.7143 80.9643C75.2143 80.5 74.8929 79.8929 74.75 79.2857L73.5715 74.2857C73.5358 74.1071 73.5715 73.8929 73.7143 73.75C73.8572 73.6071 74.0715 73.5714 74.25 73.6072L79.25 74.7857C79.8572 74.9286 80.4643 75.25 80.9286 75.75C82.3929 77.2143 82.3929 79.5714 80.9286 81" fill="white"/>
<path d="M94.5359 94.5357C92.5359 96.5357 89.2859 96.5357 87.2859 94.5357C86.6074 93.8572 86.1788 93.0714 85.9645 92.2143L84.3574 85.3214C84.2859 85.0714 84.3574 84.7857 84.5716 84.5714C84.7859 84.3572 85.0359 84.3214 85.3216 84.3572L92.2145 85.9643C93.0716 86.1786 93.8573 86.6429 94.5359 87.2857C96.5359 89.2857 96.5359 92.5357 94.5359 94.5357Z" fill="white"/>
<path d="M113.536 113.536C110.643 116.429 105.928 116.429 103.036 113.536C102.071 112.571 101.428 111.393 101.107 110.179L98.7499 100.143C98.6785 99.7857 98.7499 99.3571 99.0713 99.0714C99.3571 98.7857 99.7499 98.6786 100.143 98.75L110.178 101.107C111.428 101.429 112.571 102.071 113.536 103.036C116.428 105.929 116.428 110.643 113.536 113.536Z" fill="white"/>
<path d="M80.9643 52.0357C82.4285 53.5 82.4285 55.8214 80.9643 57.2857C80.4643 57.75 79.8928 58.1071 79.2857 58.25L74.2857 59.4286C74.1071 59.4643 73.8928 59.4286 73.75 59.2857C73.6071 59.1428 73.5714 58.9286 73.6071 58.75L74.7857 53.75C74.9643 53.1428 75.2857 52.5357 75.75 52.0714C77.2143 50.6071 79.5714 50.6071 81 52.0714" fill="white"/>
<path d="M94.5355 38.4643C96.5355 40.4643 96.5355 43.7143 94.5355 45.7143C93.8569 46.3929 93.0712 46.8214 92.2141 47.0357L85.2855 48.6429C85.0355 48.7143 84.7498 48.6429 84.5355 48.4286C84.3212 48.2143 84.2498 47.9643 84.3212 47.6786L85.9284 40.7857C86.1426 39.9286 86.6069 39.1429 87.2498 38.4643C89.2498 36.4643 92.4998 36.4643 94.4998 38.4643" fill="white"/>
<path d="M113.536 19.4643C116.429 22.3571 116.429 27.0714 113.536 29.9643C112.571 30.9285 111.393 31.5714 110.179 31.8928L100.143 34.25C99.7499 34.3214 99.3571 34.25 99.0714 33.9285C98.7857 33.6428 98.6785 33.2143 98.7499 32.8571L101.107 22.8214C101.429 21.5714 102.071 20.4285 103.036 19.4643C105.929 16.5714 110.643 16.5714 113.536 19.4643Z" fill="white"/>
<path d="M52.0357 80.9643C50.5714 79.5 50.5714 77.1428 52.0357 75.7143C52.5357 75.25 53.1071 74.9286 53.7143 74.75L58.7143 73.5714C58.8929 73.5357 59.1071 73.5714 59.25 73.7143C59.3929 73.8571 59.4286 74.0714 59.3929 74.25L58.2143 79.25C58.0357 79.8571 57.7143 80.4643 57.25 80.9286C55.7857 82.3928 53.4286 82.3928 52 80.9286" fill="white"/>
<path d="M38.4644 94.5357C36.4644 92.5357 36.4644 89.2857 38.4644 87.2857C39.1429 86.6071 39.9286 86.1786 40.7858 85.9643L47.6786 84.3571C47.9286 84.2857 48.2144 84.3571 48.4286 84.5714C48.6429 84.7857 48.6786 85.0714 48.6429 85.3214L47.0358 92.2143C46.8215 93.0714 46.3572 93.8571 45.7144 94.5357C43.7144 96.5357 40.4644 96.5357 38.4644 94.5357Z" fill="white"/>
<path d="M19.4641 113.536C16.5712 110.643 16.5712 105.929 19.4641 103.036C20.4284 102.071 21.6069 101.429 22.8212 101.107L32.8569 98.75C33.2498 98.6786 33.6426 98.75 33.9284 99.0714C34.2141 99.3571 34.3212 99.7857 34.2498 100.143L31.8926 110.179C31.5712 111.429 30.9284 112.571 29.9641 113.536C27.0712 116.429 22.3569 116.429 19.4641 113.536Z" fill="white"/>
<path d="M91.9644 5.0714C95.7502 6.64283 97.5716 11 96.0001 14.7857C95.4644 16.0357 94.643 17.0714 93.643 17.8571L85.2502 23.8571C84.9287 24.0714 84.5359 24.1428 84.143 23.9643C83.7501 23.8214 83.5002 23.4643 83.4287 23.1071L81.7501 12.9285C81.5716 11.6785 81.7502 10.3571 82.2502 9.0714C83.8216 5.28569 88.1787 3.46426 91.9644 5.03569" fill="white"/>
<path d="M41.0358 127.929C37.2501 126.357 35.4287 122 37.0001 118.214C37.5358 116.964 38.3573 115.929 39.3573 115.143L47.7501 109.143C48.0715 108.929 48.4644 108.857 48.8573 109.036C49.2501 109.179 49.5001 109.536 49.5715 109.893L51.2501 120.071C51.4287 121.321 51.2501 122.643 50.7501 123.929C49.1787 127.714 44.8215 129.536 41.0358 127.964" fill="white"/>
<path d="M127.929 91.9643C126.357 95.75 122 97.5714 118.214 96C116.964 95.4643 115.929 94.6429 115.143 93.6429L109.143 85.25C108.929 84.9286 108.857 84.5357 109.036 84.1429C109.179 83.75 109.536 83.5 109.893 83.4286L120.071 81.75C121.321 81.5714 122.643 81.75 123.929 82.25C127.714 83.8214 129.536 88.1786 127.964 91.9643" fill="white"/>
<path d="M5.07146 41.0357C6.64289 37.25 11 35.4286 14.7858 37C16.0358 37.5357 17.0715 38.3571 17.8572 39.3571L23.8572 47.75C24.0715 48.0714 24.1429 48.4643 23.9643 48.8571C23.8215 49.25 23.4643 49.5 23.1072 49.5357L12.9286 51.2143C11.6786 51.3928 10.3572 51.2143 9.07146 50.7143C5.28575 49.1428 3.46432 44.7857 5.03575 41" fill="white"/>
<path d="M41.0357 5.07143C44.8215 3.5 49.1786 5.28572 50.75 9.10714C51.2858 10.3571 51.4286 11.6786 51.25 12.9643L49.5715 23.1429C49.5 23.5 49.25 23.8571 48.8929 24C48.5 24.1429 48.1072 24.1071 47.7858 23.8929L39.3929 17.8929C38.3929 17.1071 37.5358 16.0714 37.0357 14.8214C35.4643 11.0357 37.2858 6.67857 41.0715 5.10714" fill="white"/>
<path d="M91.9645 127.929C88.1788 129.5 83.8216 127.714 82.2502 123.893C81.7145 122.643 81.5716 121.321 81.7502 120.036L83.4288 109.857C83.5002 109.464 83.7502 109.143 84.143 109C84.5359 108.857 84.9288 108.893 85.2502 109.107L93.643 115.107C94.643 115.893 95.5002 116.929 96.0002 118.179C97.5716 121.964 95.7502 126.321 91.9645 127.893" fill="white"/>
<path d="M127.928 41.0357C129.5 44.8214 127.714 49.1786 123.893 50.75C122.643 51.2857 121.321 51.4286 120.035 51.25L109.857 49.5714C109.5 49.5 109.143 49.25 109 48.8571C108.857 48.4643 108.893 48.0714 109.107 47.75L115.107 39.3571C115.893 38.3571 116.928 37.5 118.178 37C121.964 35.4286 126.321 37.25 127.893 41.0357" fill="white"/>
<path d="M5.07137 91.9643C3.49994 88.1786 5.28565 83.8214 9.10708 82.25C10.3571 81.7143 11.6785 81.5714 12.9642 81.75L23.1428 83.4286C23.5357 83.5 23.8571 83.75 23.9999 84.1071C24.1428 84.5 24.1071 84.8929 23.8928 85.2143L17.8928 93.6071C17.1071 94.6071 16.0714 95.4643 14.8214 95.9643C11.0357 97.5357 6.67851 95.7143 5.10708 91.9286" fill="white"/>
</svg>
