<svg width="220" height="120" viewBox="0 0 220 120" fill="none" xmlns="http://www.w3.org/2000/svg">
<g opacity="0.15">
<path d="M105.29 2.73051C107.49 3.18573 108.932 5.31012 108.477 7.51038C108.325 8.26909 108.021 8.87606 107.566 9.40716L103.697 13.5042C103.697 13.5042 103.317 13.7318 103.09 13.6559C102.862 13.6559 102.71 13.4283 102.634 13.2766L100.662 8.04148C100.434 7.35864 100.358 6.6758 100.51 5.91709C100.965 3.71683 103.09 2.27528 105.29 2.73051Z" fill="white"/>
<path d="M89.8886 18.2853C92.8475 18.5888 95.0478 21.2443 94.7443 24.2033C94.6684 25.1896 94.2891 26.1 93.758 26.8587L89.2057 32.8526C89.2057 32.8526 88.7505 33.2319 88.447 33.156C88.1435 33.156 87.9159 32.9284 87.7642 32.7008L84.4259 25.9483C84.0465 25.1137 83.8948 24.1274 83.9706 23.1411C84.2741 20.1821 86.9296 17.9818 89.8886 18.2853Z" fill="white"/>
<path d="M77.7486 39.1497C81.4663 39.1497 84.5011 42.1845 84.5011 45.9022C84.5011 47.1161 84.1976 48.3301 83.5907 49.3164L78.6591 57.2828C78.6591 57.2828 78.128 57.7381 77.7486 57.7381C77.3693 57.7381 77.0658 57.5104 76.8382 57.2828L71.9066 49.3164C71.2996 48.3301 70.9961 47.192 70.9961 45.9022C70.9961 42.1845 74.0309 39.1497 77.7486 39.1497Z" fill="white"/>
<path d="M77.7496 64.3384C82.2259 64.3384 85.8678 67.9802 85.8678 72.4566C85.8678 73.974 85.4884 75.3397 84.7297 76.5536L78.8117 86.1134C78.8117 86.1134 78.2048 86.7203 77.7496 86.7203C77.2943 86.7203 76.915 86.4927 76.6874 86.1134L70.7694 76.5536C70.0866 75.3397 69.6313 73.974 69.6313 72.4566C69.6313 67.9802 73.2732 64.3384 77.7496 64.3384Z" fill="white"/>
<path d="M156.351 23.8227C158.248 25.0367 158.703 27.6163 157.489 29.4372C157.11 30.0442 156.503 30.4994 155.896 30.8029L150.737 33.1549C150.737 33.1549 150.281 33.2308 150.13 33.1549C149.978 33.0031 149.826 32.8514 149.826 32.6238L149.978 27.0093C149.978 26.3265 150.206 25.6436 150.661 25.0367C151.875 23.1399 154.454 22.6847 156.275 23.8986" fill="white"/>
<path d="M136.094 32.3208C138.749 33.7623 139.735 37.0248 138.294 39.6803C137.839 40.5149 137.156 41.2736 136.321 41.7288L129.796 45.4465C129.796 45.4465 129.265 45.5982 128.962 45.4465C128.658 45.2947 128.506 45.0671 128.506 44.7636L128.051 37.2524C128.051 36.342 128.203 35.3556 128.658 34.521C130.1 31.8656 133.362 30.8792 136.018 32.3208" fill="white"/>
<path d="M116.899 46.9638C120.389 48.4054 121.982 52.3507 120.54 55.8407C120.085 56.9788 119.326 57.9651 118.416 58.6479L110.753 64.1107C110.753 64.1107 110.07 64.3383 109.767 64.1865C109.387 64.0348 109.16 63.7313 109.16 63.4278L107.642 54.1716C107.491 53.0335 107.642 51.8196 108.098 50.6815C109.539 47.1914 113.484 45.5981 116.899 47.0397" fill="white"/>
<path d="M107.262 70.2562C111.435 72.0012 113.332 76.7052 111.663 80.8781C111.132 82.2438 110.146 83.3818 109.083 84.2164L99.9029 90.7413C99.9029 90.7413 99.1442 91.0448 98.689 90.8931C98.3096 90.7413 98.0062 90.362 97.9303 89.9826L96.1094 78.9055C95.8818 77.5398 96.1094 76.0982 96.6405 74.7326C98.3855 70.5596 103.09 68.587 107.262 70.332" fill="white"/>
<path d="M195.349 62.8965C196.563 64.7933 196.107 67.2971 194.211 68.511C193.604 68.9662 192.921 69.118 192.238 69.1938L186.623 69.4215C186.623 69.4215 186.244 69.3456 186.092 69.118C185.941 68.9662 185.941 68.7386 186.092 68.511L188.444 63.3518C188.748 62.7448 189.203 62.1378 189.81 61.7585C191.707 60.5445 194.211 60.9998 195.424 62.8965" fill="white"/>
<path d="M173.423 62.974C175.32 65.326 175.016 68.6643 172.664 70.5611C171.905 71.1681 170.995 71.5474 170.085 71.6992L162.649 72.6855C162.649 72.6855 162.118 72.6096 161.89 72.382C161.739 72.1544 161.663 71.8509 161.739 71.5474L164.167 64.4156C164.47 63.581 165.001 62.7464 165.836 62.1394C168.112 60.2427 171.526 60.5461 173.423 62.8981" fill="white"/>
<path d="M150.054 69.1193C152.709 71.7748 152.709 76.0236 150.054 78.679C149.143 79.5895 148.081 80.1206 147.019 80.4241L137.914 82.5485C137.914 82.5485 137.232 82.5485 136.928 82.245C136.625 82.0174 136.549 81.638 136.625 81.2587L138.749 72.1541C139.052 71.0161 139.659 69.9539 140.494 69.1193C143.149 66.4638 147.398 66.4638 150.054 69.1193Z" fill="white"/>
<path d="M132.225 86.9476C135.411 90.1342 135.411 95.2934 132.225 98.4041C131.163 99.4663 129.873 100.149 128.583 100.529L117.582 103.108C117.202 103.184 116.747 103.108 116.444 102.805C116.14 102.501 115.988 102.046 116.064 101.667L118.644 90.6653C119.023 89.2996 119.706 88.0098 120.768 87.0235C123.955 83.8369 129.114 83.8369 132.225 87.0235" fill="white"/>
<path d="M216.517 113.881C216.973 116.081 215.531 118.206 213.331 118.661C212.572 118.813 211.889 118.737 211.206 118.509L205.895 116.536C205.895 116.536 205.516 116.309 205.516 116.081C205.516 115.854 205.516 115.626 205.668 115.474L209.765 111.605C210.296 111.15 210.903 110.846 211.662 110.694C213.862 110.239 215.986 111.681 216.442 113.881" fill="white"/>
<path d="M196.183 105.537C197.018 108.42 195.425 111.455 192.542 112.29C191.631 112.593 190.645 112.593 189.734 112.366L182.451 110.393C182.451 110.393 181.92 110.09 181.844 109.862C181.768 109.558 181.844 109.255 181.995 109.103L186.927 103.489C187.534 102.806 188.369 102.275 189.355 101.971C192.238 101.137 195.273 102.73 196.107 105.613" fill="white"/>
<path d="M172.208 102.351C173.65 105.841 171.98 109.787 168.566 111.228C167.428 111.683 166.214 111.835 165.076 111.683L155.82 110.166C155.82 110.166 155.137 109.863 155.061 109.559C154.909 109.18 154.985 108.8 155.137 108.573L160.6 100.986C161.283 100.075 162.269 99.3165 163.407 98.8613C166.897 97.4197 170.842 99.0889 172.284 102.503" fill="white"/>
<path d="M148.992 111.986C150.737 116.159 148.764 120.863 144.591 122.608C143.225 123.215 141.784 123.367 140.418 123.14L129.341 121.319C128.962 121.319 128.582 120.939 128.431 120.56C128.279 120.105 128.355 119.725 128.582 119.346L135.107 110.166C135.942 109.027 137.08 108.117 138.445 107.586C142.618 105.841 147.322 107.814 149.067 111.986" fill="white"/>
<path d="M-16.7862 102.351C-18.2278 105.841 -16.5586 109.787 -13.1444 111.228C-12.0063 111.683 -10.7924 111.835 -9.65432 111.683L-0.398067 110.166C-0.398067 110.166 0.284775 109.863 0.360645 109.559C0.512388 109.18 0.436516 108.8 0.284773 108.573L-5.17794 100.986C-5.86078 100.075 -6.8471 99.3165 -7.98517 98.8613C-11.4752 97.4197 -15.4205 99.0889 -16.8621 102.503" fill="white"/>
<path d="M6.50611 111.986C4.76107 116.159 6.73372 120.863 10.9066 122.608C12.2723 123.215 13.7139 123.367 15.0795 123.14L26.2326 121.319C26.6119 121.319 26.9913 120.939 27.143 120.56C27.2948 120.105 27.2189 119.725 26.9913 119.346L20.4664 110.166C19.6318 109.027 18.4937 108.117 17.128 107.586C12.9551 105.841 8.25114 107.814 6.50611 111.986Z" fill="white"/>
<path d="M-0.853451 23.8227C-2.75023 25.0367 -3.20546 27.6163 -1.99152 29.4372C-1.61217 30.0442 -1.0052 30.4994 -0.398229 30.8029L4.761 33.1549C4.761 33.1549 5.21623 33.2308 5.36797 33.1549C5.51971 33.0031 5.67145 32.8514 5.67145 32.6238L5.51971 27.0093C5.51971 26.3265 5.2921 25.6436 4.83687 25.0367C3.62294 23.1399 1.04332 22.6847 -0.777586 23.8986" fill="white"/>
<path d="M-0.777805 45.8267C-3.05394 47.7235 -3.43329 51.1377 -1.53651 53.4138C-0.929543 54.1725 -0.0949605 54.7036 0.739621 55.0829L7.87149 57.5108C7.87149 57.5108 8.47846 57.5108 8.70607 57.3591C8.93368 57.2073 9.00955 56.9039 9.00955 56.6004L8.02324 49.165C7.8715 48.2546 7.49214 47.3441 6.88517 46.5854C4.98839 44.2334 1.5742 43.9299 -0.701933 45.8267" fill="white"/>
<path d="M5.36759 69.1193C2.71211 71.7748 2.71211 76.0236 5.36759 78.679C6.27804 79.5895 7.34023 80.1206 8.40243 80.4241L17.507 82.5485C17.507 82.5485 18.1898 82.5485 18.4933 82.245C18.7968 82.0174 18.8726 81.638 18.7968 81.2587L16.6724 72.1541C16.3689 71.0161 15.7619 69.9539 14.9273 69.1193C12.2719 66.4638 8.02308 66.4638 5.36759 69.1193Z" fill="white"/>
<path d="M23.198 86.9476C20.0115 90.1342 20.0115 95.2934 23.198 98.4041C24.2602 99.4663 25.55 100.149 26.8398 100.529L37.8412 103.108C38.2205 103.184 38.6757 103.108 38.9792 102.805C39.2827 102.501 39.4344 102.046 39.2827 101.667L36.7031 90.6653C36.3237 89.2996 35.6409 88.0098 34.5787 87.0235C31.3921 83.8369 26.2329 83.8369 23.1222 87.0235" fill="white"/>
<path d="M50.1319 2.73051C47.9317 3.18573 46.4901 5.31012 46.9453 7.51038C47.0971 8.26909 47.4006 8.87606 47.8558 9.40716L51.7252 13.5042C51.7252 13.5042 52.1046 13.7318 52.3322 13.6559C52.5598 13.6559 52.7116 13.4283 52.7874 13.2766L54.7601 8.04148C54.9877 7.35864 55.0636 6.6758 54.9118 5.91709C54.4566 3.71683 52.3322 2.27528 50.1319 2.73051Z" fill="white"/>
<path d="M41.7855 23.066C38.9024 23.9006 37.3091 26.9354 38.1437 29.8185C38.4472 30.729 38.9783 31.5635 39.6611 32.2464L45.2756 37.178C45.2756 37.178 45.8067 37.4056 46.0343 37.3297C46.3378 37.2539 46.5654 37.0263 46.6412 36.7228L48.6139 29.4392C48.8415 28.5287 48.8415 27.5424 48.538 26.6319C47.7034 23.7488 44.6686 22.1555 41.7855 22.9901" fill="white"/>
<path d="M38.599 46.9638C35.1089 48.4054 33.5156 52.3507 34.9572 55.8407C35.4124 56.9788 36.1711 57.9651 37.0816 58.6479L44.7445 64.1107C44.7445 64.1107 45.4274 64.3383 45.7309 64.1865C46.1102 64.0348 46.3378 63.7313 46.3378 63.4278L47.8552 54.1716C48.007 53.0335 47.8552 51.8196 47.4 50.6815C45.9585 47.1914 42.0132 45.5981 38.599 47.0397" fill="white"/>
<path d="M131.845 10.7737C133.893 11.6083 134.88 14.0362 134.045 16.0847C133.742 16.7675 133.286 17.3745 132.755 17.7539L128.203 21.0163C128.203 21.0163 127.824 21.1681 127.596 21.0163C127.368 20.9404 127.217 20.7128 127.217 20.5611L126.306 15.0225C126.23 14.3397 126.306 13.581 126.61 12.8981C127.444 10.8496 129.872 9.86328 131.921 10.6979" fill="white"/>
<path d="M113.636 23.066C116.519 23.9006 118.112 26.9354 117.277 29.8185C116.974 30.729 116.443 31.5635 115.76 32.2464L110.146 37.178C110.146 37.178 109.614 37.4056 109.387 37.3297C109.083 37.2539 108.856 37.0263 108.78 36.7228L106.807 29.4392C106.58 28.5287 106.58 27.5424 106.883 26.6319C107.718 23.7488 110.753 22.1555 113.636 22.9901" fill="white"/>
<path d="M97.7029 41.1229C101.345 41.8816 103.773 45.4475 103.014 49.0893C102.786 50.3033 102.179 51.3655 101.421 52.2759L94.9715 59.1043C94.9715 59.1043 94.3646 59.4837 93.9852 59.4078C93.6059 59.4078 93.3024 59.1043 93.2265 58.725L89.964 49.9239C89.5847 48.8617 89.5088 47.6478 89.7364 46.4339C90.4951 42.7921 94.0611 40.3642 97.7029 41.1229Z" fill="white"/>
<path d="M177.747 41.4255C179.34 43.0188 179.34 45.5984 177.747 47.1917C177.216 47.7228 176.609 48.1021 175.926 48.2539L170.463 49.5437C170.463 49.5437 170.008 49.5437 169.856 49.3919C169.705 49.2402 169.629 49.0126 169.705 48.785L170.994 43.3223C171.146 42.6394 171.525 42.0325 172.057 41.5014C173.65 39.9081 176.229 39.9081 177.823 41.5014" fill="white"/>
<path d="M156.199 45.8267C158.476 47.7235 158.855 51.1377 156.958 53.4138C156.351 54.1725 155.517 54.7036 154.682 55.0829L147.55 57.5108C147.55 57.5108 147.019 57.5108 146.716 57.3591C146.488 57.2073 146.412 56.9039 146.412 56.6004L147.398 49.165C147.55 48.2546 147.93 47.3441 148.536 46.5854C150.433 44.2334 153.847 43.9299 156.124 45.8267" fill="white"/>
<path d="M134.576 56.4479C137.687 58.4964 138.521 62.7452 136.473 65.8559C135.79 66.9181 134.879 67.6768 133.817 68.2079L125.244 72.0773C125.244 72.0773 124.561 72.2291 124.257 72.0015C123.954 71.7739 123.802 71.4704 123.802 71.091L124.106 61.683C124.106 60.5449 124.561 59.331 125.244 58.3447C127.292 55.234 131.541 54.3994 134.652 56.4479" fill="white"/>
<path d="M208.475 87.3276C209.309 89.3761 208.323 91.804 206.274 92.6386C205.592 92.9421 204.833 93.0179 204.15 92.9421L198.612 92.0316C198.612 92.0316 198.232 91.8799 198.156 91.6523C198.08 91.4246 198.156 91.197 198.156 91.0453L201.419 86.493C201.798 85.9619 202.405 85.5067 203.088 85.2032C205.136 84.3687 207.564 85.355 208.399 87.4035" fill="white"/>
<path d="M186.852 83.1546C188.293 85.8101 187.307 89.0725 184.652 90.5141C183.741 90.9693 182.831 91.1969 181.92 91.121L174.409 90.6658C174.409 90.6658 173.878 90.5141 173.726 90.2106C173.574 89.983 173.574 89.6036 173.726 89.376L177.444 82.8511C177.899 82.0924 178.658 81.4096 179.492 80.9543C182.148 79.5128 185.41 80.4991 186.852 83.1546Z" fill="white"/>
<path d="M162.8 84.6714C164.849 87.7821 164.014 91.955 160.903 94.0794C159.841 94.7623 158.703 95.1416 157.565 95.2175L148.157 95.521C148.157 95.521 147.474 95.3692 147.247 95.0657C147.019 94.7622 147.019 94.3829 147.171 94.0794L151.04 85.506C151.571 84.4438 152.33 83.5333 153.392 82.8505C156.503 80.802 160.676 81.6366 162.8 84.7473" fill="white"/>
<path d="M178.05 121.546C178.809 125.188 176.381 128.754 172.739 129.512C171.525 129.74 170.311 129.664 169.249 129.285L160.448 126.022C160.448 126.022 159.841 125.643 159.765 125.264C159.689 124.884 159.765 124.505 160.069 124.277L166.897 117.828C167.732 117.07 168.87 116.538 170.084 116.235C173.725 115.476 177.291 117.904 178.05 121.546Z" fill="white"/>
<path d="M-7.30234 84.6714C-9.35086 87.7821 -8.51628 91.955 -5.40556 94.0794C-4.34337 94.7623 -3.2053 95.1416 -2.06723 95.2175L7.34077 95.521C7.34077 95.521 8.02361 95.3692 8.25122 95.0657C8.47884 94.7622 8.47884 94.3829 8.3271 94.0794L4.45767 85.506C3.92657 84.4438 3.16786 83.5333 2.10567 82.8505C-1.00505 80.802 -5.17795 81.6366 -7.30234 84.7473" fill="white"/>
<path d="M23.5766 10.7737C21.5281 11.6083 20.5418 14.0362 21.3763 16.0847C21.6798 16.7675 22.135 17.3745 22.6661 17.7539L27.2184 21.0163C27.2184 21.0163 27.5977 21.1681 27.8254 21.0163C28.053 20.9404 28.1289 20.7128 28.2047 20.5611L29.1152 15.0225C29.191 14.3397 29.1152 13.581 28.8117 12.8981C27.9771 10.8496 25.5492 9.86328 23.5007 10.6979" fill="white"/>
<path d="M19.4036 32.3208C16.7481 33.7623 15.7618 37.0248 17.2034 39.6803C17.6586 40.5149 18.3414 41.2736 19.176 41.7288L25.7009 45.4465C25.7009 45.4465 26.232 45.5982 26.5355 45.4465C26.839 45.2947 26.9907 45.0671 26.9907 44.7636L27.4459 37.2524C27.4459 36.342 27.2942 35.3556 26.839 34.521C25.3974 31.8656 22.135 30.8792 19.4795 32.3208" fill="white"/>
<path d="M20.9221 56.4479C17.8114 58.4964 16.9768 62.7452 19.0253 65.8559C19.7081 66.9181 20.6186 67.6768 21.6808 68.2079L30.2542 72.0773C30.2542 72.0773 30.937 72.2291 31.2405 72.0015C31.544 71.7739 31.6958 71.4704 31.6958 71.091L31.3923 61.683C31.3923 60.5449 30.9371 59.331 30.2542 58.3447C28.2057 55.234 23.9569 54.3994 20.8462 56.4479" fill="white"/>
<path d="M77.7489 0C75.4728 0 73.6519 1.8209 73.6519 4.09703C73.6519 4.85574 73.8795 5.53858 74.183 6.14555L77.1419 10.9254C77.1419 10.9254 77.4454 11.2289 77.673 11.2289C77.9006 11.2289 78.1282 11.0772 78.2041 10.9254L81.1631 6.14555C81.5424 5.53858 81.6942 4.85574 81.6942 4.09703C81.6942 1.8209 79.8733 0 77.5972 0" fill="white"/>
<path d="M65.6093 18.2853C62.6504 18.5888 60.4501 21.2443 60.7536 24.2033C60.8294 25.1896 61.2088 26.1 61.7399 26.8587L66.2922 32.8526C66.2922 32.8526 66.7474 33.2319 67.0509 33.156C67.3544 33.156 67.582 32.9284 67.7337 32.7008L71.072 25.9483C71.4514 25.1137 71.6031 24.1274 71.5273 23.1411C71.2238 20.1821 68.5683 17.9818 65.6093 18.2853Z" fill="white"/>
<path d="M57.7947 41.1229C54.1529 41.8816 51.725 45.4475 52.4837 49.0893C52.7114 50.3033 53.3183 51.3655 54.077 52.2759L60.5261 59.1043C60.5261 59.1043 61.133 59.4837 61.5124 59.4078C61.8917 59.4078 62.1952 59.1043 62.2711 58.725L65.5336 49.9239C65.9129 48.8617 65.9888 47.6478 65.7612 46.4339C65.0025 42.7921 61.4365 40.3642 57.7947 41.1229Z" fill="white"/>
<path d="M48.2347 70.2562C44.0618 72.0012 42.0892 76.7052 43.8342 80.8781C44.3653 82.2438 45.3517 83.3818 46.4138 84.2164L55.5942 90.7413C55.5942 90.7413 56.4288 91.0448 56.8082 90.8931C57.1875 90.7413 57.491 90.362 57.5669 89.9826L59.3878 78.9055C59.6154 77.5398 59.3878 76.0982 58.8567 74.7326C57.1117 70.5596 52.4077 68.587 48.2347 70.332" fill="white"/>
</g>
</svg>
