<svg width="291" height="278" viewBox="0 0 291 278" fill="none" xmlns="http://www.w3.org/2000/svg">
<g opacity="0.4">
<path d="M108.766 1.7567C110.182 2.04961 111.11 3.41652 110.817 4.83224C110.719 5.32042 110.524 5.71097 110.231 6.0527L107.741 8.68888C107.741 8.68888 107.497 8.83533 107.351 8.78651C107.204 8.78651 107.107 8.64006 107.058 8.54242L105.789 5.17397C105.642 4.7346 105.593 4.29524 105.691 3.80706C105.984 2.39134 107.351 1.46379 108.766 1.7567Z" fill="white"/>
<path d="M98.8566 11.765C100.761 11.9602 102.176 13.6689 101.981 15.5728C101.932 16.2074 101.688 16.7932 101.346 17.2814L98.4173 21.138C98.4173 21.138 98.1244 21.3821 97.9291 21.3333C97.7338 21.3333 97.5874 21.1869 97.4897 21.0404L95.3417 16.6956C95.0976 16.1586 95 15.524 95.0488 14.8893C95.2441 12.9854 96.9527 11.5697 98.8566 11.765Z" fill="white"/>
<path d="M91.0455 25.1897C93.4376 25.1897 95.3903 27.1424 95.3903 29.5345C95.3903 30.3156 95.195 31.0967 94.8045 31.7313L91.6313 36.8572C91.6313 36.8572 91.2896 37.1501 91.0455 37.1501C90.8014 37.1501 90.6061 37.0037 90.4597 36.8572L87.2865 31.7313C86.896 31.0967 86.7007 30.3644 86.7007 29.5345C86.7007 27.1424 88.6534 25.1897 91.0455 25.1897Z" fill="white"/>
<path d="M91.0463 41.3975C93.9266 41.3975 96.2698 43.7407 96.2698 46.621C96.2698 47.5974 96.0257 48.4761 95.5376 49.2572L91.7298 55.4083C91.7298 55.4083 91.3392 55.7988 91.0463 55.7988C90.7534 55.7988 90.5093 55.6524 90.3628 55.4083L86.555 49.2572C86.1157 48.4761 85.8228 47.5974 85.8228 46.621C85.8228 43.7407 88.166 41.3975 91.0463 41.3975Z" fill="white"/>
<path d="M73.2758 180.334C74.6915 180.627 76.0585 179.699 76.3514 178.284C76.449 177.795 76.4002 177.356 76.2537 176.917L74.9844 173.548C74.9844 173.548 74.838 173.304 74.6915 173.304C74.5451 173.304 74.3986 173.304 74.301 173.451L71.8113 176.087C71.5184 176.429 71.2743 176.819 71.2254 177.307C70.9325 178.723 71.8601 180.09 73.2758 180.383" fill="white"/>
<path d="M83.2347 170.278C85.1386 170.473 86.8472 169.058 87.0425 167.154C87.0913 166.519 87.0425 165.884 86.7496 165.347L84.6016 161.003C84.6016 161.003 84.3575 160.71 84.1622 160.71C83.9669 160.71 83.7717 160.759 83.674 160.905L80.7449 164.762C80.4032 165.25 80.1591 165.836 80.1103 166.47C79.915 168.374 81.3308 170.083 83.2347 170.278Z" fill="white"/>
<path d="M91.0455 156.853C93.4376 156.853 95.3903 154.9 95.3903 152.508C95.3903 151.727 95.195 150.946 94.8045 150.311L91.6313 145.185C91.6313 145.185 91.2896 144.844 91.0455 144.844C90.8014 144.844 90.6061 144.99 90.4597 145.185L87.2865 150.311C86.896 150.946 86.7007 151.727 86.7007 152.508C86.7007 154.9 88.6534 156.853 91.0455 156.853Z" fill="white"/>
<path d="M91.0463 140.645C93.9266 140.645 96.2698 138.302 96.2698 135.421C96.2698 134.445 96.0257 133.566 95.5376 132.785L91.7298 126.634C91.7298 126.634 91.3392 126.244 91.0463 126.244C90.7534 126.244 90.5093 126.39 90.3628 126.634L86.555 132.785C86.1157 133.566 85.8228 134.445 85.8228 135.421C85.8228 138.302 88.166 140.645 91.0463 140.645Z" fill="white"/>
<path d="M141.622 15.329C142.842 16.1101 143.135 17.7699 142.354 18.9416C142.11 19.3321 141.719 19.625 141.329 19.8203L138.009 21.3336C138.009 21.3336 137.716 21.3825 137.619 21.3336C137.521 21.236 137.423 21.1384 137.423 20.9919L137.521 17.3794C137.521 16.94 137.667 16.5006 137.96 16.1101C138.741 14.8896 140.401 14.5967 141.573 15.3778" fill="white"/>
<path d="M128.587 20.7966C130.296 21.7241 130.931 23.8233 130.003 25.5319C129.71 26.0689 129.271 26.5571 128.734 26.85L124.535 29.2421C124.535 29.2421 124.194 29.3397 123.998 29.2421C123.803 29.1445 123.706 28.998 123.706 28.8027L123.413 23.9697C123.413 23.3839 123.51 22.7493 123.803 22.2123C124.731 20.5036 126.83 19.869 128.539 20.7966" fill="white"/>
<path d="M116.236 30.2187C118.482 31.1462 119.507 33.6848 118.579 35.9304C118.286 36.6627 117.798 37.2973 117.212 37.7367L112.282 41.2516C112.282 41.2516 111.842 41.398 111.647 41.3004C111.403 41.2027 111.257 41.0075 111.257 40.8122L110.28 34.8564C110.183 34.1241 110.28 33.343 110.573 32.6108C111.501 30.3651 114.039 29.3399 116.236 30.2675" fill="white"/>
<path d="M110.037 45.2054C112.722 46.3282 113.942 49.355 112.868 52.04C112.526 52.9187 111.892 53.651 111.208 54.188L105.301 58.3863C105.301 58.3863 104.813 58.5816 104.52 58.484C104.276 58.3863 104.081 58.1422 104.032 57.8981L102.86 50.7707C102.714 49.892 102.86 48.9644 103.202 48.0857C104.325 45.4007 107.352 44.1314 110.037 45.2542" fill="white"/>
<path d="M40.4703 166.714C41.6908 167.495 43.3018 167.203 44.0829 165.982C44.3758 165.592 44.4734 165.152 44.5222 164.713L44.6199 161.1C44.6199 161.1 44.571 160.807 44.4246 160.759C44.2781 160.661 44.1317 160.661 44.034 160.759L40.7144 162.272C40.3239 162.467 39.9333 162.76 39.6892 163.151C38.9081 164.371 39.201 165.982 40.4215 166.763" fill="white"/>
<path d="M53.5047 161.247C55.2134 162.174 57.3125 161.54 58.2401 159.831C58.533 159.245 58.6794 158.659 58.6306 158.074L58.3377 153.24C58.3377 153.24 58.2401 152.899 58.0448 152.801C57.8984 152.703 57.6543 152.703 57.5078 152.801L53.3094 155.242C52.8213 155.535 52.3819 156.023 52.0402 156.56C51.1126 158.269 51.7961 160.368 53.4559 161.295" fill="white"/>
<path d="M65.8557 151.824C68.0525 152.752 70.6399 151.678 71.5186 149.481C71.8116 148.749 71.9092 147.968 71.8116 147.235L70.8352 141.279C70.8352 141.279 70.6399 140.84 70.4446 140.742C70.2005 140.645 70.0053 140.694 69.81 140.791L64.8794 144.306C64.2936 144.746 63.8054 145.38 63.5125 146.112C62.5849 148.358 63.6589 150.897 65.8557 151.824Z" fill="white"/>
<path d="M72.0558 136.886C74.7408 138.009 77.7675 136.74 78.8903 134.055C79.2809 133.176 79.3785 132.249 79.2321 131.37L78.0604 124.194C78.0604 123.95 77.8163 123.705 77.5722 123.608C77.3281 123.51 77.0352 123.559 76.7912 123.705L70.8842 127.953C70.1519 128.49 69.5661 129.222 69.2243 130.101C68.1015 132.786 69.3708 135.812 72.0558 136.935" fill="white"/>
<path d="M166.714 40.4705C167.495 41.6909 167.202 43.3019 165.982 44.083C165.591 44.3759 165.152 44.4735 164.713 44.5224L161.1 44.6688C161.1 44.6688 160.856 44.62 160.758 44.4735C160.661 44.3759 160.661 44.2294 160.758 44.083L162.272 40.7634C162.467 40.3728 162.76 39.9823 163.15 39.7382C164.371 38.9571 165.982 39.25 166.763 40.4705" fill="white"/>
<path d="M152.606 40.5188C153.826 42.0321 153.631 44.1801 152.117 45.4006C151.629 45.7911 151.043 46.0352 150.457 46.1329L145.673 46.7675C145.673 46.7675 145.332 46.7187 145.185 46.5722C145.088 46.4258 145.039 46.2305 145.088 46.0352L146.65 41.4463C146.845 40.9093 147.187 40.3723 147.724 39.9818C149.188 38.7613 151.385 38.9566 152.606 40.47" fill="white"/>
<path d="M137.569 44.4729C139.278 46.1815 139.278 48.9153 137.569 50.624C136.983 51.2098 136.3 51.5515 135.616 51.7468L129.758 53.1137C129.758 53.1137 129.319 53.1137 129.124 52.9184C128.928 52.772 128.879 52.5279 128.928 52.2838L130.295 46.4256C130.49 45.6933 130.881 45.0099 131.418 44.4729C133.127 42.7642 135.86 42.7642 137.569 44.4729Z" fill="white"/>
<path d="M126.097 55.946C128.147 57.9963 128.147 61.316 126.097 63.3175C125.413 64.001 124.583 64.4403 123.753 64.6844L116.675 66.3442C116.431 66.3931 116.138 66.3442 115.943 66.149C115.747 65.9537 115.65 65.6608 115.698 65.4167L117.358 58.3381C117.602 57.4593 118.042 56.6294 118.725 55.9948C120.776 53.9444 124.095 53.9444 126.097 55.9948" fill="white"/>
<path d="M15.3289 141.622C16.11 142.842 17.7698 143.135 18.9414 142.354C19.332 142.061 19.6249 141.719 19.8202 141.329L21.3335 138.009C21.3335 138.009 21.3335 137.716 21.3335 137.619C21.2359 137.521 21.1382 137.423 20.9918 137.423L17.3792 137.57C16.9399 137.57 16.5005 137.716 16.11 138.009C14.8895 138.79 14.5966 140.45 15.3777 141.622" fill="white"/>
<path d="M29.486 141.573C30.7065 143.086 32.9033 143.281 34.3678 142.061C34.856 141.67 35.1977 141.133 35.4418 140.596L37.004 136.007C37.004 136.007 37.004 135.666 36.9064 135.47C36.8087 135.324 36.6135 135.275 36.4182 135.275L31.634 135.91C31.0482 136.007 30.4624 136.252 29.9742 136.642C28.5097 137.863 28.2656 140.059 29.486 141.524" fill="white"/>
<path d="M44.4734 137.569C46.182 139.278 48.9158 139.278 50.6245 137.569C51.2103 136.984 51.552 136.3 51.7473 135.617L53.1142 129.759C53.1142 129.759 53.1142 129.319 52.9189 129.124C52.7236 128.977 52.5284 128.88 52.2843 128.929L46.4261 130.296C45.6938 130.491 45.0104 130.881 44.4734 131.418C42.7647 133.127 42.7647 135.861 44.4734 137.569Z" fill="white"/>
<path d="M55.945 126.097C57.9954 128.147 61.315 128.147 63.3165 126.097C64 125.413 64.4394 124.583 64.6834 123.754L66.3433 116.675C66.3921 116.431 66.3433 116.138 66.148 115.943C65.9527 115.747 65.6598 115.65 65.4157 115.747L58.3371 117.407C57.4584 117.651 56.6285 118.091 55.9938 118.774C53.9435 120.824 53.9435 124.144 55.9938 126.146" fill="white"/>
<path d="M180.334 73.2763C180.627 74.692 179.699 76.0589 178.284 76.3518C177.795 76.4495 177.356 76.4007 176.917 76.2542L173.499 74.9849C173.499 74.9849 173.255 74.8385 173.255 74.692C173.255 74.5456 173.255 74.3991 173.353 74.3015L175.989 71.8118C176.331 71.5189 176.721 71.3236 177.21 71.2259C178.625 70.933 179.992 71.8606 180.285 73.2763" fill="white"/>
<path d="M167.251 67.9061C167.788 69.7612 166.763 71.7139 164.908 72.2509C164.322 72.4462 163.687 72.4462 163.102 72.2997L158.415 71.0305C158.415 71.0305 158.073 70.8352 158.025 70.6887C157.976 70.4935 158.025 70.2982 158.122 70.2006L161.295 66.588C161.686 66.1486 162.223 65.8069 162.858 65.6116C164.713 65.0746 166.665 66.0998 167.202 67.9549" fill="white"/>
<path d="M151.824 65.8557C152.751 68.1014 151.677 70.6399 149.481 71.5675C148.748 71.8604 147.967 71.958 147.235 71.8604L141.279 70.884C141.279 70.884 140.84 70.6887 140.791 70.4935C140.693 70.2494 140.742 70.0053 140.84 69.8588L144.355 64.977C144.794 64.3912 145.429 63.903 146.161 63.6101C148.407 62.6826 150.945 63.7566 151.873 65.9534" fill="white"/>
<path d="M136.886 72.0554C138.009 74.7404 136.74 77.7671 134.055 78.89C133.176 79.2805 132.248 79.3781 131.37 79.2317L124.242 78.06C123.998 78.06 123.754 77.816 123.656 77.5719C123.559 77.279 123.607 77.0349 123.754 76.7908L127.952 70.8838C128.489 70.1515 129.222 69.5657 130.1 69.224C132.785 68.1012 135.812 69.3704 136.935 72.0554" fill="white"/>
<path d="M1.7567 108.816C2.04961 110.231 3.41652 111.159 4.83224 110.866C5.32042 110.768 5.71097 110.573 6.0527 110.28L8.68888 107.79C8.68888 107.79 8.83533 107.546 8.78651 107.4C8.78651 107.253 8.64006 107.156 8.54242 107.107L5.17397 105.838C4.7346 105.691 4.29524 105.642 3.80706 105.74C2.39134 106.033 1.46379 107.4 1.7567 108.816Z" fill="white"/>
<path d="M14.8402 114.136C15.3772 115.992 17.3299 117.017 19.185 116.48C19.7708 116.284 20.3078 115.943 20.7471 115.503L23.9203 111.891C23.9203 111.891 24.0668 111.549 24.018 111.403C23.9691 111.207 23.8227 111.061 23.6274 111.012L18.9409 109.743C18.3551 109.596 17.7204 109.596 17.1346 109.792C15.2795 110.329 14.2543 112.281 14.7913 114.136" fill="white"/>
<path d="M30.2189 116.236C31.1465 118.481 33.685 119.506 35.9306 118.579C36.6629 118.286 37.2975 117.798 37.7369 117.163L41.2518 112.281C41.2518 112.281 41.3983 111.842 41.3006 111.647C41.203 111.403 41.0077 111.256 40.8124 111.256L34.8566 110.28C34.1244 110.182 33.3433 110.28 32.611 110.573C30.3654 111.5 29.3402 114.039 30.2677 116.284" fill="white"/>
<path d="M45.2053 110.036C46.3281 112.721 49.3549 113.991 52.0399 112.868C52.9186 112.526 53.6509 111.94 54.1879 111.208L58.3862 105.301C58.3862 105.301 58.5815 104.764 58.4839 104.52C58.3862 104.227 58.1421 104.08 57.898 104.032L50.7218 102.86C49.843 102.714 48.9155 102.86 48.0368 103.202C45.3518 104.325 44.1313 107.351 45.2053 110.036Z" fill="white"/>
<path d="M180.335 108.816C180.042 110.231 178.675 111.159 177.259 110.866C176.771 110.768 176.38 110.573 176.039 110.28L173.403 107.79C173.403 107.79 173.256 107.546 173.305 107.4C173.305 107.253 173.451 107.156 173.549 107.107L176.966 105.838C177.406 105.691 177.845 105.642 178.333 105.74C179.749 106.033 180.676 107.4 180.384 108.816" fill="white"/>
<path d="M170.277 98.8564C170.082 100.76 168.374 102.176 166.47 101.981C165.835 101.932 165.249 101.688 164.761 101.346L160.904 98.417C160.904 98.417 160.66 98.1241 160.709 97.9289C160.709 97.7336 160.856 97.5871 161.002 97.4895L165.347 95.3415C165.884 95.0974 166.518 94.9998 167.153 95.0486C169.057 95.2439 170.473 96.9525 170.277 98.8564Z" fill="white"/>
<path d="M156.853 91.0464C156.853 93.4384 154.9 95.3912 152.508 95.3912C151.727 95.3912 150.946 95.1959 150.311 94.8053L145.185 91.6322C145.185 91.6322 144.844 91.2904 144.844 91.0464C144.844 90.8023 144.99 90.607 145.185 90.4605L150.311 87.2874C150.946 86.8968 151.727 86.7015 152.508 86.7015C154.9 86.7015 156.853 88.6543 156.853 91.0464Z" fill="white"/>
<path d="M140.645 91.0456C140.645 93.9258 138.302 96.2691 135.421 96.2691C134.445 96.2691 133.566 96.025 132.785 95.5368L126.634 91.729C126.634 91.729 126.244 91.3385 126.244 91.0456C126.244 90.7527 126.39 90.5086 126.634 90.3621L132.785 86.5543C133.566 86.1149 134.445 85.822 135.421 85.822C138.302 85.822 140.645 88.1653 140.645 91.0456Z" fill="white"/>
<path d="M1.7567 73.2763C1.46379 74.692 2.39134 76.0589 3.80706 76.3518C4.29524 76.4495 4.73461 76.4007 5.17397 76.2542L8.54242 74.9849C8.54242 74.9849 8.78651 74.8385 8.78651 74.692C8.78651 74.5456 8.78651 74.3991 8.68888 74.3015L6.0527 71.8118C5.71097 71.5189 5.32042 71.3236 4.83224 71.2259C3.41652 70.933 2.04961 71.8606 1.7567 73.2763Z" fill="white"/>
<path d="M11.7651 83.2349C11.5698 85.1388 12.9855 86.8474 14.8894 87.0427C15.5241 87.0915 16.1587 86.9939 16.6957 86.7498L21.0405 84.6018C21.0405 84.6018 21.3334 84.3577 21.3334 84.1624C21.3334 83.9672 21.2846 83.7719 21.1382 83.6743L17.2815 80.7452C16.7933 80.4035 16.2075 80.1594 15.5729 80.1105C13.669 79.9153 11.9604 81.331 11.7651 83.2349Z" fill="white"/>
<path d="M25.1904 91.0464C25.1904 93.4384 27.1432 95.3912 29.5352 95.3912C30.3163 95.3912 31.0974 95.1959 31.7321 94.8053L36.858 91.6322C36.858 91.6322 37.1997 91.2904 37.1997 91.0464C37.1997 90.8023 37.0532 90.607 36.858 90.4605L31.7321 87.2874C31.0974 86.8968 30.3163 86.7015 29.5352 86.7015C27.1432 86.7015 25.1904 88.6543 25.1904 91.0464Z" fill="white"/>
<path d="M41.3979 91.0456C41.3979 93.9258 43.7412 96.2691 46.6215 96.2691C47.5979 96.2691 48.4766 96.025 49.2577 95.5368L55.4088 91.729C55.4088 91.729 55.7993 91.3385 55.7993 91.0456C55.7993 90.7527 55.6528 90.5086 55.4088 90.3621L49.2577 86.5543C48.4766 86.1149 47.5979 85.822 46.6215 85.822C43.7412 85.822 41.3979 88.1653 41.3979 91.0456Z" fill="white"/>
<path d="M166.714 141.622C165.933 142.842 164.273 143.135 163.101 142.354C162.711 142.061 162.418 141.719 162.222 141.329L160.709 138.009C160.709 138.009 160.709 137.716 160.709 137.619C160.807 137.521 160.904 137.423 161.051 137.423L164.663 137.57C165.103 137.57 165.542 137.716 165.933 138.009C167.153 138.79 167.446 140.45 166.665 141.622" fill="white"/>
<path d="M161.246 128.586C160.319 130.295 158.22 130.93 156.511 130.002C155.925 129.709 155.486 129.27 155.193 128.733L152.752 124.535C152.752 124.535 152.654 124.193 152.752 123.998C152.85 123.802 152.996 123.705 153.191 123.705L158.024 123.412C158.61 123.412 159.245 123.509 159.782 123.802C161.49 124.73 162.125 126.829 161.197 128.538" fill="white"/>
<path d="M151.824 116.236C150.897 118.481 148.358 119.506 146.113 118.579C145.38 118.286 144.746 117.798 144.306 117.163L140.791 112.281C140.791 112.281 140.645 111.842 140.743 111.647C140.84 111.403 141.035 111.256 141.231 111.256L147.187 110.28C147.919 110.182 148.7 110.28 149.432 110.573C151.678 111.5 152.703 114.039 151.775 116.284" fill="white"/>
<path d="M136.886 110.036C135.764 112.721 132.737 113.991 130.052 112.868C129.173 112.526 128.441 111.94 127.904 111.208L123.706 105.301C123.706 105.301 123.51 104.764 123.608 104.52C123.706 104.227 123.95 104.08 124.194 104.032L131.321 102.86C132.2 102.714 133.127 102.86 134.006 103.202C136.691 104.325 137.912 107.351 136.838 110.036" fill="white"/>
<path d="M15.3289 40.4705C14.5478 41.6909 14.8407 43.3019 16.0611 44.083C16.4517 44.3759 16.8911 44.4735 17.3304 44.5224L20.943 44.6688C20.943 44.6688 21.1871 44.62 21.2847 44.4735C21.3823 44.3759 21.3823 44.2294 21.2847 44.083L19.7713 40.7634C19.5761 40.3728 19.2831 39.9823 18.8926 39.7382C17.6721 38.9571 16.0611 39.25 15.2801 40.4705" fill="white"/>
<path d="M20.7959 53.5046C19.8684 55.2133 20.503 57.3125 22.2117 58.24C22.7975 58.5329 23.3833 58.6794 23.9691 58.6305L28.8021 58.3376C28.8021 58.3376 29.1438 58.24 29.2415 58.0447C29.3391 57.8983 29.3391 57.6542 29.2415 57.5077L26.8006 53.3094C26.5077 52.8212 26.0195 52.3818 25.4825 52.0889C23.7738 51.1614 21.6747 51.796 20.7471 53.5046" fill="white"/>
<path d="M30.219 65.8557C29.2915 68.1014 30.3655 70.6399 32.5623 71.5675C33.2946 71.8604 34.0756 71.958 34.8079 71.8604L40.7637 70.884C40.7637 70.884 41.2031 70.6887 41.2519 70.4935C41.3495 70.2494 41.3007 70.0053 41.2031 69.8588L37.6882 64.977C37.2488 64.3912 36.6142 63.903 35.8819 63.6101C33.6363 62.6826 31.0977 63.7566 30.1702 65.9534" fill="white"/>
<path d="M45.2058 72.0554C44.083 74.7404 45.3522 77.7671 48.0372 78.89C48.916 79.2805 49.8435 79.3781 50.7222 79.2317L57.8985 78.06C58.1426 78.06 58.3867 77.816 58.4843 77.5719C58.582 77.279 58.5331 77.0349 58.3867 76.7908L54.1883 70.8838C53.6513 70.1515 52.919 69.5657 52.0403 69.224C49.3553 68.1012 46.3286 69.3704 45.2058 72.0554Z" fill="white"/>
<path d="M141.622 166.714C140.401 167.495 138.79 167.203 138.009 165.982C137.716 165.592 137.619 165.152 137.57 164.713L137.472 161.1C137.472 161.1 137.521 160.807 137.667 160.759C137.814 160.661 137.96 160.661 138.058 160.759L141.378 162.272C141.768 162.467 142.159 162.76 142.403 163.151C143.184 164.371 142.891 165.982 141.671 166.763" fill="white"/>
<path d="M141.524 152.606C140.059 153.826 137.862 153.631 136.642 152.117C136.251 151.629 136.007 151.043 135.91 150.458L135.275 145.673C135.275 145.673 135.324 145.332 135.47 145.185C135.617 145.039 135.812 145.039 136.007 145.088L140.596 146.65C141.133 146.845 141.67 147.187 142.061 147.724C143.281 149.188 143.086 151.385 141.572 152.606" fill="white"/>
<path d="M137.569 137.569C135.86 139.278 133.127 139.278 131.418 137.569C130.832 136.984 130.49 136.3 130.295 135.617L128.928 129.759C128.928 129.759 128.928 129.319 129.123 129.124C129.319 128.977 129.514 128.88 129.758 128.929L135.616 130.296C136.349 130.491 137.032 130.881 137.569 131.418C139.278 133.127 139.278 135.861 137.569 137.569Z" fill="white"/>
<path d="M126.097 126.097C124.047 128.147 120.727 128.147 118.726 126.097C118.042 125.413 117.603 124.583 117.359 123.754L115.699 116.675C115.65 116.431 115.699 116.138 115.943 115.943C116.139 115.747 116.431 115.65 116.676 115.747L123.754 117.407C124.633 117.651 125.463 118.091 126.097 118.774C128.148 120.824 128.148 124.144 126.097 126.146" fill="white"/>
<path d="M40.4703 15.329C39.2499 16.1101 38.957 17.7699 39.7381 18.9416C39.9821 19.3321 40.3727 19.625 40.7632 19.8203L44.0829 21.3336C44.0829 21.3336 44.3758 21.3825 44.4734 21.3336C44.5711 21.236 44.6687 21.1384 44.6687 20.9919L44.5711 17.3794C44.5711 16.94 44.4246 16.5006 44.1317 16.1101C43.3506 14.8896 41.6908 14.5967 40.5191 15.3778" fill="white"/>
<path d="M40.5191 29.4861C39.0546 30.7065 38.8105 32.9033 40.0309 34.3679C40.4215 34.856 40.9585 35.1978 41.4955 35.4419L46.0844 37.004C46.0844 37.004 46.4749 37.004 46.6214 36.9064C46.7678 36.8088 46.8167 36.6135 46.8167 36.4182L46.182 31.634C46.0844 31.0482 45.8403 30.4624 45.4498 29.9742C44.2293 28.4609 42.0325 28.2656 40.5679 29.4861" fill="white"/>
<path d="M44.4734 44.4729C42.7647 46.1815 42.7647 48.9153 44.4734 50.624C45.0592 51.2098 45.7426 51.5515 46.4261 51.7468L52.2843 53.1137C52.2843 53.1137 52.7236 53.1137 52.9189 52.9184C53.1142 52.772 53.163 52.5279 53.1142 52.2838L51.7473 46.4256C51.552 45.6933 51.1615 45.0099 50.6245 44.4729C48.9158 42.7642 46.182 42.7642 44.4734 44.4729Z" fill="white"/>
<path d="M55.9455 55.946C53.8951 57.9963 53.8951 61.316 55.9455 63.3175C56.6289 64.001 57.4588 64.4403 58.2888 64.6844L65.3674 66.3442C65.6115 66.3931 65.9044 66.3442 66.0997 66.149C66.2949 65.9537 66.3926 65.6608 66.2949 65.4167L64.6351 58.3381C64.391 57.4593 63.9517 56.6294 63.2682 55.9948C61.2178 53.9444 57.8982 53.9444 55.8967 55.9948" fill="white"/>
<path d="M108.766 180.334C107.351 180.627 105.984 179.699 105.691 178.284C105.593 177.795 105.642 177.356 105.789 176.917L107.058 173.548C107.058 173.548 107.204 173.304 107.351 173.304C107.497 173.304 107.644 173.304 107.741 173.451L110.231 176.087C110.524 176.429 110.768 176.819 110.817 177.307C111.11 178.723 110.182 180.09 108.766 180.383" fill="white"/>
<path d="M114.137 167.251C112.282 167.788 110.329 166.762 109.792 164.907C109.597 164.322 109.597 163.687 109.744 163.101L111.013 158.415C111.013 158.415 111.208 158.073 111.403 158.024C111.599 157.975 111.794 158.024 111.892 158.122L115.504 161.295C115.943 161.685 116.285 162.222 116.48 162.857C117.017 164.712 115.992 166.665 114.137 167.202" fill="white"/>
<path d="M116.236 151.824C114.039 152.752 111.452 151.678 110.573 149.481C110.28 148.749 110.183 147.968 110.28 147.235L111.257 141.279C111.257 141.279 111.452 140.84 111.647 140.742C111.891 140.645 112.135 140.694 112.282 140.791L117.212 144.306C117.798 144.746 118.286 145.38 118.579 146.112C119.507 148.358 118.433 150.897 116.236 151.824Z" fill="white"/>
<path d="M110.036 136.886C107.351 138.009 104.325 136.74 103.202 134.055C102.811 133.176 102.714 132.249 102.86 131.37L104.032 124.194C104.032 123.95 104.276 123.705 104.52 123.608C104.813 123.51 105.057 123.559 105.301 123.705L111.208 127.953C111.94 128.49 112.526 129.222 112.868 130.101C113.991 132.786 112.721 135.812 110.036 136.935" fill="white"/>
<path d="M73.2758 1.7567C71.8601 2.04961 70.9325 3.41652 71.2254 4.83224C71.3231 5.32042 71.5184 5.71097 71.8113 6.0527L74.301 8.68888C74.301 8.68888 74.5451 8.83533 74.6915 8.78651C74.838 8.78651 74.9356 8.64006 74.9844 8.54242L76.2537 5.17397C76.4002 4.7346 76.449 4.29524 76.3514 3.80706C76.0585 2.39134 74.6915 1.46379 73.2758 1.7567Z" fill="white"/>
<path d="M67.9061 14.8409C66.051 15.3779 65.0258 17.3306 65.5628 19.1857C65.7581 19.7715 66.0998 20.3085 66.5392 20.7479L70.1517 23.9211C70.1517 23.9211 70.4935 24.0675 70.6399 24.0187C70.8352 23.9699 70.9816 23.8234 71.0305 23.6281L72.2997 18.9416C72.4462 18.3558 72.4462 17.7212 72.2509 17.1353C71.7139 15.2802 69.7612 14.2551 67.9061 14.7921" fill="white"/>
<path d="M65.8556 30.2187C63.61 31.1462 62.5848 33.6848 63.5124 35.9304C63.8053 36.6627 64.2934 37.2973 64.8793 37.7367L69.8099 41.2516C69.8099 41.2516 70.2493 41.398 70.4445 41.3004C70.6886 41.2027 70.8351 41.0075 70.8351 40.8122L71.8114 34.8564C71.9091 34.1241 71.8114 33.343 71.5185 32.6108C70.591 30.3651 68.0524 29.3399 65.8556 30.2675" fill="white"/>
<path d="M125.853 6.93201C127.171 7.46901 127.806 9.03119 127.269 10.3493C127.073 10.7886 126.78 11.1792 126.439 11.4233L123.51 13.5225C123.51 13.5225 123.265 13.6201 123.119 13.5225C122.973 13.4736 122.875 13.3272 122.875 13.2296L122.289 9.66583C122.24 9.22646 122.289 8.73828 122.484 8.29892C123.021 6.98083 124.584 6.3462 125.902 6.8832" fill="white"/>
<path d="M114.137 14.8409C115.992 15.3779 117.017 17.3306 116.48 19.1857C116.285 19.7715 115.943 20.3085 115.504 20.7479L111.892 23.9211C111.892 23.9211 111.55 24.0675 111.403 24.0187C111.208 23.9699 111.062 23.8234 111.013 23.6281L109.744 18.9416C109.597 18.3558 109.597 17.7212 109.792 17.1353C110.329 15.2802 112.282 14.2551 114.137 14.7921" fill="white"/>
<path d="M103.885 26.4592C106.228 26.9474 107.79 29.2418 107.302 31.5851C107.156 32.3662 106.765 33.0496 106.277 33.6355L102.128 38.0291C102.128 38.0291 101.737 38.2732 101.493 38.2244C101.249 38.2244 101.054 38.0291 101.005 37.785L98.9056 32.1221C98.6615 31.4386 98.6127 30.6576 98.7591 29.8765C99.2473 27.5332 101.542 25.971 103.885 26.4592Z" fill="white"/>
<path d="M56.1897 175.159C57.5078 175.696 59.0699 175.061 59.6069 173.743C59.8022 173.304 59.851 172.816 59.8022 172.376L59.2164 168.813C59.2164 168.813 59.1188 168.569 58.9723 168.52C58.8259 168.471 58.6794 168.52 58.5818 168.52L55.6527 170.619C55.311 170.912 55.018 171.254 54.8228 171.693C54.2858 173.011 54.9204 174.573 56.2385 175.11" fill="white"/>
<path d="M67.9061 167.251C69.7612 167.788 71.7139 166.762 72.2509 164.907C72.4462 164.322 72.4462 163.687 72.2997 163.101L71.0305 158.415C71.0305 158.415 70.8352 158.073 70.6399 158.024C70.4446 157.975 70.2494 158.024 70.1517 158.122L66.5392 161.295C66.0998 161.685 65.7581 162.222 65.5628 162.857C65.0258 164.712 66.051 166.665 67.9061 167.202" fill="white"/>
<path d="M78.2069 155.583C80.5502 156.071 82.8446 154.509 83.3328 152.166C83.4793 151.385 83.4305 150.604 83.1864 149.92L81.0872 144.257C81.0872 144.257 80.8431 143.867 80.599 143.818C80.3549 143.769 80.1108 143.818 79.9644 144.013L75.8148 148.407C75.3266 148.944 74.9849 149.676 74.7896 150.457C74.3015 152.8 75.8636 155.095 78.2069 155.583Z" fill="white"/>
<path d="M155.388 26.6548C156.413 27.6799 156.413 29.3398 155.388 30.3649C155.046 30.7067 154.656 30.9508 154.217 31.0484L150.702 31.8783C150.702 31.8783 150.409 31.8783 150.311 31.7807C150.213 31.683 150.165 31.5366 150.213 31.3901L151.043 27.8752C151.141 27.4359 151.385 27.0453 151.727 26.7036C152.752 25.6784 154.412 25.6784 155.437 26.7036" fill="white"/>
<path d="M141.524 29.4861C142.988 30.7065 143.232 32.9033 142.012 34.3679C141.621 34.856 141.084 35.1978 140.547 35.4419L135.958 37.004C135.958 37.004 135.617 37.004 135.421 36.9064C135.275 36.8088 135.226 36.6135 135.226 36.4182L135.861 31.634C135.958 31.0482 136.202 30.4624 136.593 29.9742C137.813 28.4609 140.01 28.2656 141.475 29.4861" fill="white"/>
<path d="M127.611 36.3207C129.612 37.6388 130.149 40.3726 128.831 42.3742C128.392 43.0576 127.806 43.5458 127.123 43.8875L121.606 46.3772C121.606 46.3772 121.167 46.4749 120.972 46.3284C120.776 46.182 120.679 45.9867 120.679 45.7426L120.874 39.6892C120.874 38.9569 121.167 38.1758 121.606 37.5412C122.924 35.5396 125.658 35.0026 127.66 36.3207" fill="white"/>
<path d="M26.6546 155.388C27.6798 156.414 29.3396 156.414 30.3648 155.388C30.7065 155.047 30.9506 154.656 31.0483 154.217L31.8782 150.702C31.8782 150.702 31.8782 150.409 31.7805 150.311C31.6829 150.214 31.5365 150.165 31.39 150.214L27.8751 151.044C27.4357 151.141 27.0452 151.385 26.7035 151.727C25.6783 152.752 25.6783 154.412 26.7035 155.437" fill="white"/>
<path d="M40.5191 152.606C41.9837 153.826 44.1805 153.631 45.401 152.117C45.7915 151.629 46.0356 151.043 46.1332 150.458L46.7679 145.673C46.7679 145.673 46.719 145.332 46.5726 145.185C46.4261 145.039 46.2309 145.039 46.0356 145.088L41.4467 146.65C40.9097 146.845 40.3727 147.187 39.9821 147.724C38.7617 149.188 38.957 151.385 40.4703 152.606" fill="white"/>
<path d="M54.481 145.771C56.4825 147.089 59.1675 146.552 60.5344 144.55C60.9738 143.867 61.2179 143.135 61.2667 142.403L61.462 136.349C61.462 136.349 61.3644 135.91 61.1691 135.763C60.9738 135.617 60.7297 135.617 60.5344 135.714L55.018 138.204C54.3345 138.546 53.7487 139.034 53.3094 139.717C51.9913 141.719 52.5283 144.404 54.5298 145.771" fill="white"/>
<path d="M175.159 56.1896C175.696 57.5076 175.061 59.0698 173.743 59.6068C173.304 59.8021 172.816 59.8509 172.376 59.8021L168.813 59.2163C168.813 59.2163 168.569 59.1186 168.52 58.9722C168.471 58.8257 168.52 58.6793 168.52 58.5816L170.619 55.6526C170.863 55.3108 171.254 55.0179 171.693 54.8226C173.011 54.2857 174.573 54.9203 175.11 56.2384" fill="white"/>
<path d="M161.247 53.5046C162.174 55.2133 161.54 57.3125 159.831 58.24C159.245 58.5329 158.659 58.6794 158.074 58.6305L153.241 58.3376C153.241 58.3376 152.899 58.24 152.801 58.0447C152.704 57.8983 152.704 57.6542 152.801 57.5077L155.193 53.3094C155.486 52.8212 155.974 52.3818 156.511 52.0889C158.22 51.1614 160.319 51.796 161.247 53.5046Z" fill="white"/>
<path d="M145.772 54.4812C147.09 56.4828 146.553 59.1678 144.551 60.5347C143.868 60.9741 143.135 61.2181 142.403 61.267L136.35 61.4622C136.35 61.4622 135.91 61.3646 135.764 61.1693C135.617 60.9741 135.617 60.73 135.715 60.5347L138.205 55.0182C138.546 54.3348 139.035 53.749 139.718 53.3096C141.72 51.9915 144.405 52.5285 145.772 54.5301" fill="white"/>
<path d="M6.93213 125.853C7.46913 127.171 9.03132 127.806 10.3494 127.269C10.7888 127.074 11.1793 126.781 11.4234 126.439L13.5226 123.51C13.5226 123.51 13.6202 123.266 13.5226 123.119C13.4738 122.973 13.3273 122.924 13.2297 122.875L9.66595 122.289C9.22659 122.241 8.73841 122.289 8.29904 122.485C6.98095 123.022 6.34632 124.584 6.88332 125.902" fill="white"/>
<path d="M20.7964 128.586C21.724 130.295 23.8232 130.93 25.5318 130.002C26.1176 129.709 26.557 129.27 26.8499 128.733L29.2908 124.535C29.2908 124.535 29.3884 124.193 29.2908 123.998C29.1932 123.802 29.0467 123.705 28.8514 123.705L24.0184 123.412C23.4326 123.412 22.798 123.509 22.261 123.802C20.5523 124.73 19.9177 126.829 20.8453 128.538" fill="white"/>
<path d="M36.3201 127.611C37.6382 129.612 40.372 130.149 42.3735 128.831C43.057 128.392 43.5452 127.806 43.8869 127.123L46.3766 121.606C46.3766 121.606 46.4743 121.167 46.3278 120.972C46.1814 120.776 45.9861 120.679 45.742 120.679L39.6886 120.874C38.9563 120.874 38.224 121.167 37.5406 121.606C35.539 122.924 35.002 125.658 36.3201 127.66" fill="white"/>
<path d="M182.043 91.0461C182.043 92.5106 180.871 93.6335 179.407 93.6335C178.919 93.6335 178.479 93.487 178.089 93.2917L175.013 91.3878C175.013 91.3878 174.818 91.1926 174.818 91.0461C174.818 90.8997 174.916 90.7532 175.013 90.7044L178.089 88.8005C178.479 88.5564 178.919 88.4587 179.407 88.4587C180.871 88.4587 182.043 89.6304 182.043 91.0949" fill="white"/>
<path d="M170.277 83.2349C170.473 85.1388 169.057 86.8474 167.153 87.0427C166.518 87.0915 165.884 86.9939 165.347 86.7498L161.002 84.6018C161.002 84.6018 160.709 84.3577 160.709 84.1624C160.709 83.9672 160.758 83.7719 160.904 83.6743L164.761 80.7452C165.249 80.4035 165.835 80.1594 166.47 80.1105C168.373 79.9153 170.082 81.331 170.277 83.2349Z" fill="white"/>
<path d="M155.584 78.2065C156.072 80.5498 154.51 82.8443 152.166 83.3324C151.385 83.4789 150.604 83.4301 149.921 83.186L144.258 81.0868C144.258 81.0868 143.867 80.8427 143.818 80.5986C143.77 80.3545 143.818 80.1105 144.014 79.964L148.407 75.8145C148.944 75.3263 149.677 74.9845 150.458 74.7893C152.801 74.3011 155.095 75.8633 155.584 78.2065Z" fill="white"/>
<path d="M0 91.0461C0 92.5106 1.17164 93.6335 2.63618 93.6335C3.12436 93.6335 3.56372 93.487 3.95427 93.2917L7.02981 91.3878C7.02981 91.3878 7.22508 91.1926 7.22508 91.0461C7.22508 90.8997 7.12745 90.7532 7.02981 90.7044L3.95427 88.8005C3.56372 88.5564 3.12436 88.4587 2.63618 88.4587C1.22045 88.4587 0 89.6304 0 91.0949" fill="white"/>
<path d="M11.7651 98.8564C11.9604 100.76 13.669 102.176 15.5729 101.981C16.2075 101.932 16.7933 101.688 17.2815 101.346L21.1382 98.417C21.1382 98.417 21.3823 98.1241 21.3334 97.9289C21.3334 97.7336 21.187 97.5871 21.0405 97.4895L16.6957 95.3415C16.1587 95.0974 15.5241 94.9998 14.8894 95.0486C12.9855 95.2439 11.5698 96.9525 11.7651 98.8564Z" fill="white"/>
<path d="M26.4591 103.885C26.9473 106.228 29.2417 107.79 31.585 107.302C32.3661 107.155 33.0495 106.765 33.6353 106.277L38.029 102.127C38.029 102.127 38.2731 101.737 38.2242 101.493C38.2242 101.248 38.029 101.053 37.7849 101.004L32.122 98.8564C31.4385 98.6123 30.6574 98.5635 29.8763 98.7099C27.5331 99.1981 25.9709 101.493 26.4591 103.836" fill="white"/>
<path d="M175.159 125.853C174.622 127.171 173.06 127.806 171.742 127.269C171.303 127.074 170.912 126.781 170.668 126.439L168.569 123.51C168.569 123.51 168.471 123.266 168.569 123.119C168.618 122.973 168.764 122.924 168.862 122.875L172.425 122.289C172.865 122.241 173.353 122.289 173.792 122.485C175.11 123.022 175.745 124.584 175.208 125.902" fill="white"/>
<path d="M167.251 114.136C166.714 115.992 164.762 117.017 162.906 116.48C162.321 116.284 161.784 115.943 161.344 115.503L158.171 111.891C158.171 111.891 158.025 111.549 158.073 111.403C158.122 111.207 158.269 111.061 158.464 111.012L163.151 109.743C163.736 109.596 164.371 109.596 164.957 109.792C166.812 110.329 167.837 112.281 167.3 114.136" fill="white"/>
<path d="M155.584 103.885C155.095 106.228 152.801 107.79 150.458 107.302C149.677 107.155 148.993 106.765 148.407 106.277L144.014 102.127C144.014 102.127 143.77 101.737 143.818 101.493C143.818 101.248 144.014 101.053 144.258 101.004L149.921 98.8564C150.604 98.6123 151.385 98.5635 152.166 98.7099C154.51 99.1981 156.072 101.493 155.584 103.836" fill="white"/>
<path d="M6.93263 56.1896C6.39563 57.5076 7.03027 59.0698 8.34836 59.6068C8.78772 59.8021 9.27591 59.8509 9.71527 59.8021L13.279 59.2163C13.279 59.2163 13.5231 59.1186 13.5719 58.9722C13.6207 58.8257 13.5719 58.6793 13.5719 58.5816L11.4727 55.6526C11.1798 55.3108 10.8381 55.0179 10.3987 54.8226C9.08063 54.2857 7.51845 54.9203 6.98145 56.2384" fill="white"/>
<path d="M14.8411 67.9061C14.3041 69.7612 15.3293 71.7139 17.1844 72.2509C17.7702 72.4462 18.4049 72.4462 18.9907 72.2997L23.6772 71.0305C23.6772 71.0305 24.0189 70.8352 24.0678 70.6887C24.1166 70.4935 24.0678 70.2982 23.9701 70.2006L20.7969 66.588C20.4064 66.1486 19.8694 65.8069 19.2348 65.6116C17.3797 65.0746 15.427 66.0998 14.89 67.9549" fill="white"/>
<path d="M26.4591 78.2065C25.9709 80.5498 27.5331 82.8443 29.8763 83.3324C30.6574 83.4789 31.4385 83.4301 32.122 83.186L37.7849 81.0868C37.7849 81.0868 38.1754 80.8427 38.2242 80.5986C38.2731 80.3545 38.2242 80.1105 38.029 79.964L33.6353 75.8145C33.0983 75.3263 32.3661 74.9845 31.585 74.7893C29.2417 74.3011 26.9473 75.8633 26.4591 78.2065Z" fill="white"/>
<path d="M155.389 155.388C154.363 156.414 152.704 156.414 151.678 155.388C151.337 155.047 151.093 154.656 150.995 154.217L150.165 150.702C150.165 150.702 150.165 150.409 150.263 150.311C150.36 150.214 150.507 150.165 150.653 150.214L154.168 151.044C154.607 151.141 154.998 151.385 155.34 151.727C156.365 152.752 156.365 154.412 155.34 155.437" fill="white"/>
<path d="M152.606 141.573C151.385 143.086 149.189 143.281 147.724 142.061C147.236 141.67 146.894 141.133 146.65 140.596L145.088 136.007C145.088 136.007 145.088 135.666 145.186 135.47C145.283 135.324 145.478 135.275 145.674 135.275L150.458 135.91C151.044 136.007 151.63 136.252 152.118 136.642C153.631 137.863 153.826 140.059 152.606 141.524" fill="white"/>
<path d="M145.771 127.611C144.453 129.612 141.719 130.149 139.718 128.831C139.034 128.392 138.546 127.806 138.204 127.123L135.714 121.606C135.714 121.606 135.617 121.167 135.763 120.972C135.91 120.776 136.105 120.679 136.349 120.679L142.403 120.874C143.135 120.874 143.867 121.167 144.551 121.606C146.552 122.924 147.089 125.658 145.771 127.66" fill="white"/>
<path d="M26.6551 26.6548C25.6299 27.6799 25.6299 29.3398 26.6551 30.3649C26.9968 30.7067 27.3874 30.9508 27.8268 31.0484L31.3417 31.8783C31.3417 31.8783 31.6346 31.8783 31.7322 31.7807C31.8298 31.683 31.8787 31.5366 31.8298 31.3901L30.9999 27.8752C30.9023 27.4359 30.6582 27.0453 30.3165 26.7036C29.2913 25.6784 27.6315 25.6784 26.6063 26.7036" fill="white"/>
<path d="M29.4861 40.5188C28.2656 42.0321 28.4609 44.1801 29.9742 45.4006C30.4624 45.7911 31.0482 46.0352 31.634 46.1329L36.4182 46.7675C36.4182 46.7675 36.76 46.7187 36.9064 46.5722C37.0529 46.4258 37.0529 46.2305 37.004 46.0352L35.4419 41.4463C35.2466 40.9093 34.9049 40.3723 34.3679 39.9818C32.9033 38.7613 30.7065 38.9566 29.4861 40.47" fill="white"/>
<path d="M36.3201 54.4812C35.002 56.4828 35.539 59.1678 37.5406 60.5347C38.224 60.9741 38.9563 61.2181 39.6886 61.267L45.742 61.4622C45.742 61.4622 46.1814 61.3646 46.3278 61.1693C46.4743 60.9741 46.4743 60.73 46.3766 60.5347L43.8869 55.0182C43.5452 54.3348 43.057 53.749 42.3735 53.3096C40.372 51.9915 37.687 52.5285 36.3201 54.5301" fill="white"/>
<path d="M125.853 175.159C124.535 175.696 122.973 175.061 122.436 173.743C122.241 173.304 122.192 172.816 122.241 172.376L122.827 168.813C122.827 168.813 122.924 168.569 123.071 168.52C123.217 168.471 123.364 168.52 123.461 168.52L126.39 170.619C126.732 170.912 127.025 171.254 127.22 171.693C127.757 173.011 127.123 174.573 125.804 175.11" fill="white"/>
<path d="M128.587 161.247C126.879 162.174 124.779 161.54 123.852 159.831C123.559 159.245 123.413 158.659 123.461 158.074L123.754 153.24C123.754 153.24 123.852 152.899 124.047 152.801C124.194 152.703 124.438 152.703 124.584 152.801L128.783 155.242C129.271 155.535 129.71 156.023 130.052 156.56C130.979 158.269 130.296 160.368 128.636 161.295" fill="white"/>
<path d="M127.61 145.771C125.609 147.089 122.924 146.552 121.557 144.55C121.118 143.867 120.873 143.135 120.825 142.403L120.629 136.349C120.629 136.349 120.727 135.91 120.922 135.763C121.118 135.617 121.362 135.617 121.557 135.714L127.073 138.204C127.757 138.546 128.343 139.034 128.782 139.717C130.1 141.719 129.563 144.404 127.562 145.771" fill="white"/>
<path d="M56.1897 6.93201C54.8716 7.46901 54.2369 9.03119 54.7739 10.3493C54.9692 10.7886 55.2621 11.1792 55.6039 11.4233L58.5329 13.5225C58.5329 13.5225 58.777 13.6201 58.9235 13.5225C59.0699 13.4736 59.1188 13.3272 59.1676 13.2296L59.7534 9.66583C59.8022 9.22646 59.7534 8.73828 59.5581 8.29892C59.0211 6.98083 57.4589 6.3462 56.1408 6.8832" fill="white"/>
<path d="M53.5046 20.7966C51.796 21.7241 51.1614 23.8233 52.0889 25.5319C52.3818 26.0689 52.8212 26.5571 53.3582 26.85L57.5565 29.2421C57.5565 29.2421 57.8983 29.3397 58.0935 29.2421C58.2888 29.1445 58.3865 28.998 58.3865 28.8027L58.6794 23.9697C58.6794 23.3839 58.5817 22.7493 58.2888 22.2123C57.3613 20.5036 55.2621 19.869 53.5535 20.7966" fill="white"/>
<path d="M54.4815 36.3207C52.4799 37.6388 51.9429 40.3726 53.261 42.3742C53.7004 43.0576 54.2862 43.5458 54.9697 43.8875L60.4861 46.3772C60.4861 46.3772 60.9255 46.4749 61.1207 46.3284C61.316 46.182 61.4136 45.9867 61.4136 45.7426L61.2184 39.6892C61.2184 38.9569 60.9255 38.1758 60.4861 37.5412C59.168 35.5396 56.4342 35.0026 54.4327 36.3207" fill="white"/>
<path d="M91.0454 182.092C89.5808 182.092 88.4092 180.92 88.4092 179.504C88.4092 179.016 88.5556 178.577 88.7509 178.186L90.6548 175.111C90.6548 175.111 90.8501 174.916 90.9965 174.916C91.143 174.916 91.2895 175.013 91.3383 175.111L93.2422 178.186C93.4863 178.577 93.5839 179.016 93.5839 179.504C93.5839 180.92 92.4123 182.092 90.9477 182.092" fill="white"/>
<path d="M98.857 170.278C96.9531 170.473 95.2445 169.058 95.0492 167.154C95.0004 166.519 95.0492 165.884 95.3421 165.347L97.4901 161.003C97.4901 161.003 97.7342 160.71 97.9295 160.71C98.1248 160.71 98.32 160.759 98.4177 160.905L101.347 164.762C101.688 165.25 101.933 165.836 101.981 166.47C102.177 168.374 100.761 170.083 98.857 170.278Z" fill="white"/>
<path d="M103.885 155.583C101.542 156.071 99.2473 154.509 98.7591 152.166C98.6127 151.385 98.6615 150.604 98.9056 149.92L101.005 144.257C101.005 144.257 101.249 143.867 101.493 143.818C101.737 143.769 101.981 143.818 102.128 144.013L106.277 148.407C106.765 148.944 107.107 149.676 107.302 150.457C107.79 152.8 106.228 155.095 103.885 155.583Z" fill="white"/>
<path d="M91.0454 0C89.5808 0 88.4092 1.17164 88.4092 2.63618C88.4092 3.12436 88.5556 3.56372 88.7509 3.95427L90.6548 7.02981C90.6548 7.02981 90.8501 7.22508 90.9965 7.22508C91.143 7.22508 91.2895 7.12745 91.3383 7.02981L93.2422 3.95427C93.4863 3.56372 93.5839 3.12436 93.5839 2.63618C93.5839 1.17164 92.4123 0 90.9477 0" fill="white"/>
<path d="M83.2347 11.765C81.3308 11.9602 79.915 13.6689 80.1103 15.5728C80.1591 16.2074 80.4032 16.7932 80.7449 17.2814L83.674 21.138C83.674 21.138 83.9669 21.3821 84.1622 21.3333C84.3575 21.3333 84.5039 21.1869 84.6016 21.0404L86.7496 16.6956C86.9937 16.1586 87.0913 15.524 87.0425 14.8893C86.8472 12.9854 85.1386 11.5697 83.2347 11.765Z" fill="white"/>
<path d="M78.2069 26.4592C75.8636 26.9474 74.3015 29.2418 74.7896 31.5851C74.9361 32.3662 75.3266 33.0496 75.8148 33.6355L79.9644 38.0291C79.9644 38.0291 80.3549 38.2732 80.599 38.2244C80.8431 38.2244 81.0384 38.0291 81.0872 37.785L83.1864 32.1221C83.4305 31.4386 83.4793 30.6576 83.3328 29.8765C82.8446 27.5332 80.5502 25.971 78.2069 26.4592Z" fill="white"/>
<path d="M72.0558 45.2054C69.3708 46.3282 68.1015 49.355 69.2243 52.04C69.5661 52.9187 70.2007 53.651 70.8842 54.188L76.7912 58.3863C76.7912 58.3863 77.3281 58.5816 77.5722 58.484C77.8163 58.3863 78.0116 58.1422 78.0604 57.8981L79.2321 50.7707C79.3785 49.892 79.2321 48.9644 78.8903 48.0857C77.7675 45.4007 74.7408 44.1314 72.0558 45.2542" fill="white"/>
</g>
<g opacity="0.4">
<path d="M253.228 185.892C253.946 186.041 254.417 186.735 254.269 187.454C254.219 187.702 254.12 187.9 253.971 188.074L252.707 189.412C252.707 189.412 252.583 189.487 252.509 189.462C252.434 189.462 252.385 189.387 252.36 189.338L251.716 187.628C251.641 187.404 251.616 187.181 251.666 186.933C251.815 186.215 252.509 185.744 253.228 185.892Z" fill="white"/>
<path d="M248.196 190.973C249.162 191.072 249.881 191.94 249.782 192.906C249.757 193.229 249.633 193.526 249.46 193.774L247.972 195.732C247.972 195.732 247.824 195.856 247.725 195.831C247.625 195.831 247.551 195.757 247.501 195.683L246.411 193.477C246.287 193.204 246.237 192.882 246.262 192.559C246.361 191.593 247.229 190.874 248.196 190.973Z" fill="white"/>
<path d="M244.23 197.79C245.444 197.79 246.436 198.782 246.436 199.996C246.436 200.393 246.337 200.789 246.138 201.112L244.527 203.714C244.527 203.714 244.353 203.863 244.23 203.863C244.106 203.863 244.006 203.789 243.932 203.714L242.321 201.112C242.123 200.789 242.023 200.418 242.023 199.996C242.023 198.782 243.015 197.79 244.23 197.79Z" fill="white"/>
<path d="M244.229 206.019C245.691 206.019 246.881 207.209 246.881 208.672C246.881 209.167 246.757 209.614 246.509 210.01L244.576 213.133C244.576 213.133 244.378 213.332 244.229 213.332C244.08 213.332 243.956 213.257 243.882 213.133L241.948 210.01C241.725 209.614 241.577 209.167 241.577 208.672C241.577 207.209 242.766 206.019 244.229 206.019Z" fill="white"/>
<path d="M235.207 276.567C235.926 276.715 236.62 276.244 236.768 275.525C236.818 275.278 236.793 275.055 236.719 274.831L236.074 273.121C236.074 273.121 236 272.997 235.926 272.997C235.851 272.997 235.777 272.997 235.727 273.071L234.463 274.41C234.314 274.584 234.19 274.782 234.166 275.03C234.017 275.749 234.488 276.443 235.207 276.591" fill="white"/>
<path d="M240.263 271.46C241.23 271.559 242.097 270.84 242.196 269.874C242.221 269.551 242.196 269.229 242.048 268.957L240.957 266.75C240.957 266.75 240.833 266.602 240.734 266.602C240.635 266.602 240.536 266.627 240.486 266.701L238.999 268.659C238.825 268.907 238.701 269.204 238.677 269.527C238.577 270.493 239.296 271.361 240.263 271.46Z" fill="white"/>
<path d="M244.23 264.644C245.444 264.644 246.436 263.652 246.436 262.437C246.436 262.041 246.337 261.644 246.138 261.322L244.527 258.719C244.527 258.719 244.353 258.546 244.23 258.546C244.106 258.546 244.006 258.62 243.932 258.719L242.321 261.322C242.123 261.644 242.023 262.041 242.023 262.437C242.023 263.652 243.015 264.644 244.23 264.644Z" fill="white"/>
<path d="M244.229 256.413C245.691 256.413 246.881 255.223 246.881 253.761C246.881 253.265 246.757 252.819 246.509 252.422L244.576 249.299C244.576 249.299 244.378 249.1 244.229 249.1C244.08 249.1 243.956 249.175 243.882 249.299L241.948 252.422C241.725 252.819 241.577 253.265 241.577 253.761C241.577 255.223 242.766 256.413 244.229 256.413Z" fill="white"/>
<path d="M269.91 192.783C270.529 193.18 270.678 194.023 270.281 194.618C270.157 194.816 269.959 194.965 269.761 195.064L268.075 195.832C268.075 195.832 267.927 195.857 267.877 195.832C267.827 195.783 267.778 195.733 267.778 195.659L267.827 193.824C267.827 193.601 267.902 193.378 268.05 193.18C268.447 192.56 269.29 192.412 269.885 192.808" fill="white"/>
<path d="M263.291 195.56C264.158 196.031 264.48 197.097 264.009 197.964C263.861 198.237 263.638 198.485 263.365 198.633L261.233 199.848C261.233 199.848 261.06 199.898 260.961 199.848C260.861 199.799 260.812 199.724 260.812 199.625L260.663 197.171C260.663 196.874 260.713 196.551 260.861 196.279C261.332 195.411 262.398 195.089 263.266 195.56" fill="white"/>
<path d="M257.02 200.344C258.16 200.815 258.681 202.104 258.21 203.244C258.061 203.616 257.813 203.938 257.516 204.161L255.012 205.946C255.012 205.946 254.789 206.02 254.69 205.97C254.566 205.921 254.491 205.822 254.491 205.723L253.996 202.698C253.946 202.327 253.996 201.93 254.144 201.558C254.615 200.418 255.904 199.897 257.02 200.368" fill="white"/>
<path d="M253.872 207.954C255.235 208.524 255.855 210.061 255.309 211.424C255.136 211.87 254.814 212.242 254.467 212.515L251.467 214.646C251.467 214.646 251.219 214.746 251.071 214.696C250.947 214.646 250.848 214.523 250.823 214.399L250.228 210.78C250.154 210.333 250.228 209.862 250.401 209.416C250.972 208.053 252.508 207.408 253.872 207.979" fill="white"/>
<path d="M218.549 269.65C219.169 270.047 219.987 269.898 220.384 269.278C220.532 269.08 220.582 268.857 220.607 268.634L220.656 266.8C220.656 266.8 220.631 266.651 220.557 266.626C220.483 266.576 220.408 266.576 220.359 266.626L218.673 267.394C218.475 267.494 218.277 267.642 218.153 267.841C217.756 268.46 217.905 269.278 218.524 269.675" fill="white"/>
<path d="M225.168 266.874C226.035 267.345 227.101 267.023 227.572 266.156C227.721 265.858 227.795 265.561 227.771 265.263L227.622 262.809C227.622 262.809 227.572 262.636 227.473 262.586C227.399 262.537 227.275 262.537 227.2 262.586L225.069 263.826C224.821 263.974 224.598 264.222 224.424 264.495C223.953 265.362 224.3 266.428 225.143 266.899" fill="white"/>
<path d="M231.439 262.09C232.555 262.561 233.868 262.016 234.315 260.9C234.463 260.528 234.513 260.132 234.463 259.76L233.967 256.736C233.967 256.736 233.868 256.513 233.769 256.463C233.645 256.414 233.546 256.438 233.447 256.488L230.943 258.273C230.646 258.496 230.398 258.818 230.249 259.19C229.778 260.33 230.324 261.619 231.439 262.09Z" fill="white"/>
<path d="M234.587 254.505C235.95 255.075 237.487 254.431 238.057 253.068C238.255 252.621 238.305 252.15 238.231 251.704L237.636 248.06C237.636 247.936 237.512 247.812 237.388 247.763C237.264 247.713 237.115 247.738 236.991 247.812L233.992 249.969C233.62 250.242 233.323 250.614 233.149 251.06C232.579 252.423 233.223 253.96 234.587 254.53" fill="white"/>
<path d="M282.651 205.55C283.047 206.169 282.899 206.987 282.279 207.384C282.081 207.533 281.857 207.582 281.634 207.607L279.8 207.681C279.8 207.681 279.676 207.657 279.627 207.582C279.577 207.533 279.577 207.458 279.627 207.384L280.395 205.698C280.494 205.5 280.643 205.302 280.841 205.178C281.461 204.781 282.279 204.93 282.675 205.55" fill="white"/>
<path d="M275.487 205.573C276.106 206.342 276.007 207.432 275.239 208.052C274.991 208.25 274.694 208.374 274.396 208.424L271.967 208.746C271.967 208.746 271.793 208.721 271.719 208.647C271.669 208.573 271.645 208.474 271.669 208.374L272.463 206.044C272.562 205.772 272.735 205.499 273.008 205.301C273.752 204.681 274.867 204.78 275.487 205.549" fill="white"/>
<path d="M267.852 207.581C268.72 208.449 268.72 209.837 267.852 210.705C267.555 211.002 267.208 211.176 266.861 211.275L263.886 211.969C263.886 211.969 263.663 211.969 263.564 211.87C263.465 211.795 263.44 211.671 263.465 211.547L264.159 208.573C264.258 208.201 264.457 207.854 264.729 207.581C265.597 206.714 266.985 206.714 267.852 207.581Z" fill="white"/>
<path d="M262.027 213.408C263.068 214.449 263.068 216.134 262.027 217.151C261.68 217.498 261.259 217.721 260.838 217.845L257.243 218.687C257.119 218.712 256.971 218.687 256.871 218.588C256.772 218.489 256.723 218.34 256.748 218.216L257.59 214.622C257.714 214.176 257.937 213.755 258.284 213.432C259.325 212.391 261.011 212.391 262.027 213.432" fill="white"/>
<path d="M205.783 256.91C206.18 257.529 207.023 257.678 207.617 257.281C207.816 257.133 207.964 256.959 208.064 256.761L208.832 255.075C208.832 255.075 208.832 254.927 208.832 254.877C208.782 254.827 208.733 254.778 208.659 254.778L206.824 254.852C206.601 254.852 206.378 254.927 206.18 255.075C205.56 255.472 205.411 256.315 205.808 256.91" fill="white"/>
<path d="M212.971 256.886C213.591 257.654 214.707 257.753 215.45 257.133C215.698 256.935 215.872 256.662 215.996 256.39L216.789 254.06C216.789 254.06 216.789 253.886 216.739 253.787C216.69 253.713 216.591 253.688 216.491 253.688L214.062 254.01C213.765 254.06 213.467 254.184 213.219 254.382C212.476 255.002 212.352 256.117 212.971 256.861" fill="white"/>
<path d="M220.581 254.852C221.449 255.72 222.837 255.72 223.705 254.852C224.002 254.555 224.176 254.207 224.275 253.86L224.969 250.886C224.969 250.886 224.969 250.663 224.87 250.564C224.77 250.489 224.671 250.44 224.547 250.465L221.573 251.159C221.201 251.258 220.854 251.456 220.581 251.729C219.714 252.596 219.714 253.984 220.581 254.852Z" fill="white"/>
<path d="M226.406 249.027C227.448 250.068 229.133 250.068 230.149 249.027C230.496 248.68 230.719 248.258 230.843 247.837L231.686 244.243C231.711 244.119 231.686 243.97 231.587 243.871C231.488 243.772 231.339 243.722 231.215 243.772L227.621 244.615C227.175 244.739 226.753 244.962 226.431 245.309C225.39 246.35 225.39 248.035 226.431 249.052" fill="white"/>
<path d="M289.566 222.207C289.715 222.926 289.244 223.62 288.525 223.769C288.277 223.818 288.054 223.793 287.831 223.719L286.096 223.075C286.096 223.075 285.972 223 285.972 222.926C285.972 222.852 285.972 222.777 286.022 222.728L287.36 221.463C287.534 221.315 287.732 221.216 287.98 221.166C288.699 221.017 289.393 221.488 289.542 222.207" fill="white"/>
<path d="M282.923 219.479C283.195 220.421 282.675 221.413 281.733 221.685C281.435 221.784 281.113 221.784 280.816 221.71L278.436 221.066C278.436 221.066 278.263 220.966 278.238 220.892C278.213 220.793 278.238 220.694 278.287 220.644L279.899 218.81C280.097 218.587 280.37 218.413 280.692 218.314C281.634 218.042 282.625 218.562 282.898 219.504" fill="white"/>
<path d="M275.09 218.44C275.561 219.58 275.016 220.869 273.9 221.34C273.528 221.488 273.132 221.538 272.76 221.488L269.736 220.993C269.736 220.993 269.513 220.894 269.488 220.794C269.438 220.67 269.463 220.546 269.513 220.472L271.297 217.993C271.521 217.696 271.843 217.448 272.215 217.299C273.355 216.828 274.644 217.374 275.115 218.489" fill="white"/>
<path d="M267.506 221.587C268.076 222.95 267.431 224.487 266.068 225.057C265.622 225.256 265.151 225.305 264.704 225.231L261.085 224.636C260.962 224.636 260.838 224.512 260.788 224.388C260.738 224.239 260.763 224.115 260.838 223.991L262.969 220.992C263.242 220.62 263.614 220.323 264.06 220.149C265.423 219.579 266.96 220.224 267.53 221.587" fill="white"/>
<path d="M198.893 240.252C199.041 240.971 199.735 241.442 200.454 241.293C200.702 241.244 200.9 241.144 201.074 240.996L202.413 239.731C202.413 239.731 202.487 239.608 202.462 239.533C202.462 239.459 202.388 239.409 202.338 239.384L200.628 238.74C200.405 238.666 200.182 238.641 199.934 238.69C199.215 238.839 198.744 239.533 198.893 240.252Z" fill="white"/>
<path d="M205.536 242.954C205.808 243.895 206.8 244.416 207.742 244.143C208.039 244.044 208.312 243.871 208.535 243.648L210.146 241.813C210.146 241.813 210.22 241.64 210.196 241.565C210.171 241.466 210.097 241.392 209.997 241.367L207.618 240.723C207.32 240.648 206.998 240.648 206.701 240.747C205.759 241.02 205.238 242.012 205.511 242.954" fill="white"/>
<path d="M213.344 244.019C213.815 245.159 215.104 245.68 216.244 245.209C216.616 245.06 216.938 244.812 217.161 244.49L218.946 242.011C218.946 242.011 219.021 241.788 218.971 241.689C218.921 241.565 218.822 241.491 218.723 241.491L215.699 240.995C215.327 240.945 214.931 240.995 214.559 241.144C213.419 241.615 212.898 242.904 213.369 244.044" fill="white"/>
<path d="M220.953 240.871C221.523 242.235 223.06 242.879 224.423 242.309C224.87 242.135 225.241 241.838 225.514 241.466L227.646 238.467C227.646 238.467 227.745 238.194 227.695 238.07C227.646 237.921 227.522 237.847 227.398 237.822L223.754 237.227C223.308 237.153 222.837 237.227 222.391 237.401C221.027 237.971 220.408 239.508 220.953 240.871Z" fill="white"/>
<path d="M289.566 240.252C289.417 240.971 288.723 241.442 288.005 241.293C287.757 241.244 287.558 241.144 287.385 240.996L286.046 239.731C286.046 239.731 285.972 239.608 285.997 239.533C285.997 239.459 286.071 239.409 286.121 239.384L287.856 238.74C288.079 238.666 288.302 238.641 288.55 238.69C289.269 238.839 289.74 239.533 289.591 240.252" fill="white"/>
<path d="M284.46 235.196C284.361 236.162 283.494 236.881 282.527 236.782C282.205 236.757 281.907 236.633 281.659 236.46L279.701 234.972C279.701 234.972 279.577 234.824 279.602 234.725C279.602 234.625 279.676 234.551 279.751 234.502L281.957 233.411C282.229 233.287 282.552 233.237 282.874 233.262C283.841 233.361 284.559 234.229 284.46 235.196Z" fill="white"/>
<path d="M277.643 231.229C277.643 232.444 276.652 233.435 275.437 233.435C275.04 233.435 274.644 233.336 274.322 233.138L271.719 231.527C271.719 231.527 271.545 231.353 271.545 231.229C271.545 231.105 271.62 231.006 271.719 230.932L274.322 229.321C274.644 229.122 275.04 229.023 275.437 229.023C276.652 229.023 277.643 230.015 277.643 231.229Z" fill="white"/>
<path d="M269.414 231.229C269.414 232.692 268.224 233.881 266.762 233.881C266.266 233.881 265.82 233.757 265.423 233.51L262.3 231.576C262.3 231.576 262.102 231.378 262.102 231.229C262.102 231.08 262.176 230.956 262.3 230.882L265.423 228.949C265.82 228.726 266.266 228.577 266.762 228.577C268.224 228.577 269.414 229.767 269.414 231.229Z" fill="white"/>
<path d="M198.893 222.207C198.744 222.926 199.215 223.62 199.934 223.769C200.182 223.818 200.405 223.793 200.628 223.719L202.338 223.075C202.338 223.075 202.462 223 202.462 222.926C202.462 222.852 202.462 222.777 202.413 222.728L201.074 221.463C200.9 221.315 200.702 221.216 200.454 221.166C199.735 221.017 199.041 221.488 198.893 222.207Z" fill="white"/>
<path d="M203.974 227.263C203.875 228.23 204.594 229.097 205.56 229.196C205.883 229.221 206.205 229.172 206.478 229.048L208.684 227.957C208.684 227.957 208.832 227.833 208.832 227.734C208.832 227.635 208.808 227.536 208.733 227.486L206.775 225.999C206.527 225.825 206.23 225.701 205.907 225.676C204.941 225.577 204.073 226.296 203.974 227.263Z" fill="white"/>
<path d="M210.791 231.229C210.791 232.444 211.783 233.435 212.997 233.435C213.394 233.435 213.79 233.336 214.113 233.138L216.715 231.527C216.715 231.527 216.889 231.353 216.889 231.229C216.889 231.105 216.814 231.006 216.715 230.932L214.113 229.321C213.79 229.122 213.394 229.023 212.997 229.023C211.783 229.023 210.791 230.015 210.791 231.229Z" fill="white"/>
<path d="M219.021 231.229C219.021 232.692 220.21 233.881 221.673 233.881C222.169 233.881 222.615 233.757 223.011 233.51L226.135 231.576C226.135 231.576 226.333 231.378 226.333 231.229C226.333 231.08 226.259 230.956 226.135 230.882L223.011 228.949C222.615 228.726 222.169 228.577 221.673 228.577C220.21 228.577 219.021 229.767 219.021 231.229Z" fill="white"/>
<path d="M282.65 256.91C282.254 257.529 281.411 257.678 280.816 257.281C280.618 257.133 280.469 256.959 280.37 256.761L279.602 255.075C279.602 255.075 279.602 254.927 279.602 254.877C279.651 254.827 279.701 254.778 279.775 254.778L281.609 254.852C281.832 254.852 282.056 254.927 282.254 255.075C282.874 255.472 283.022 256.315 282.626 256.91" fill="white"/>
<path d="M279.874 250.291C279.403 251.159 278.337 251.481 277.47 251.01C277.172 250.861 276.949 250.638 276.8 250.365L275.561 248.234C275.561 248.234 275.512 248.06 275.561 247.961C275.611 247.862 275.685 247.812 275.784 247.812L278.238 247.664C278.536 247.664 278.858 247.713 279.131 247.862C279.998 248.333 280.32 249.399 279.849 250.266" fill="white"/>
<path d="M275.09 244.019C274.619 245.159 273.33 245.68 272.19 245.209C271.818 245.06 271.496 244.812 271.273 244.49L269.488 242.011C269.488 242.011 269.414 241.788 269.463 241.689C269.513 241.565 269.612 241.491 269.711 241.491L272.735 240.995C273.107 240.945 273.504 240.995 273.876 241.144C275.016 241.615 275.536 242.904 275.065 244.044" fill="white"/>
<path d="M267.505 240.871C266.935 242.235 265.398 242.879 264.034 242.309C263.588 242.135 263.216 241.838 262.944 241.466L260.812 238.467C260.812 238.467 260.713 238.194 260.762 238.07C260.812 237.921 260.936 237.847 261.06 237.822L264.679 237.227C265.125 237.153 265.596 237.227 266.042 237.401C267.406 237.971 268.025 239.508 267.48 240.871" fill="white"/>
<path d="M205.783 205.55C205.386 206.169 205.535 206.987 206.155 207.384C206.353 207.533 206.576 207.582 206.799 207.607L208.634 207.681C208.634 207.681 208.758 207.657 208.807 207.582C208.857 207.533 208.857 207.458 208.807 207.384L208.039 205.698C207.94 205.5 207.791 205.302 207.593 205.178C206.973 204.781 206.155 204.93 205.758 205.55" fill="white"/>
<path d="M208.56 212.167C208.089 213.035 208.411 214.1 209.279 214.571C209.576 214.72 209.874 214.794 210.171 214.77L212.625 214.621C212.625 214.621 212.799 214.571 212.848 214.472C212.898 214.398 212.898 214.274 212.848 214.2L211.609 212.068C211.46 211.82 211.212 211.597 210.94 211.448C210.072 210.977 209.006 211.299 208.535 212.167" fill="white"/>
<path d="M213.344 218.44C212.873 219.58 213.418 220.869 214.533 221.34C214.905 221.488 215.302 221.538 215.674 221.488L218.698 220.993C218.698 220.993 218.921 220.894 218.946 220.794C218.995 220.67 218.97 220.546 218.921 220.472L217.136 217.993C216.913 217.696 216.591 217.448 216.219 217.299C215.079 216.828 213.79 217.374 213.319 218.489" fill="white"/>
<path d="M220.954 221.587C220.384 222.95 221.028 224.487 222.391 225.057C222.838 225.256 223.309 225.305 223.755 225.231L227.399 224.636C227.522 224.636 227.646 224.512 227.696 224.388C227.746 224.239 227.721 224.115 227.646 223.991L225.515 220.992C225.242 220.62 224.87 220.323 224.424 220.149C223.061 219.579 221.524 220.224 220.954 221.587Z" fill="white"/>
<path d="M269.909 269.65C269.29 270.047 268.472 269.898 268.075 269.278C267.926 269.08 267.877 268.857 267.852 268.634L267.802 266.8C267.802 266.8 267.827 266.651 267.901 266.626C267.976 266.576 268.05 266.576 268.1 266.626L269.785 267.394C269.984 267.494 270.182 267.642 270.306 267.841C270.702 268.46 270.554 269.278 269.934 269.675" fill="white"/>
<path d="M269.86 262.487C269.117 263.106 268.001 263.007 267.382 262.239C267.183 261.991 267.059 261.693 267.01 261.396L266.688 258.967C266.688 258.967 266.712 258.793 266.787 258.719C266.861 258.645 266.96 258.645 267.059 258.669L269.389 259.463C269.662 259.562 269.935 259.735 270.133 260.008C270.753 260.751 270.654 261.867 269.885 262.487" fill="white"/>
<path d="M267.852 254.852C266.984 255.72 265.596 255.72 264.729 254.852C264.431 254.555 264.258 254.207 264.158 253.86L263.464 250.886C263.464 250.886 263.464 250.663 263.564 250.564C263.663 250.489 263.762 250.44 263.886 250.465L266.86 251.159C267.232 251.258 267.579 251.456 267.852 251.729C268.719 252.596 268.719 253.984 267.852 254.852Z" fill="white"/>
<path d="M262.027 249.027C260.986 250.068 259.3 250.068 258.284 249.027C257.937 248.68 257.714 248.258 257.59 247.837L256.747 244.243C256.722 244.119 256.747 243.97 256.871 243.871C256.97 243.772 257.119 243.722 257.243 243.772L260.837 244.615C261.283 244.739 261.704 244.962 262.027 245.309C263.068 246.35 263.068 248.035 262.027 249.052" fill="white"/>
<path d="M218.549 192.783C217.929 193.18 217.78 194.023 218.177 194.618C218.301 194.816 218.499 194.965 218.698 195.064L220.383 195.832C220.383 195.832 220.532 195.857 220.581 195.832C220.631 195.783 220.681 195.733 220.681 195.659L220.631 193.824C220.631 193.601 220.557 193.378 220.408 193.18C220.011 192.56 219.169 192.412 218.574 192.808" fill="white"/>
<path d="M218.574 199.971C217.83 200.591 217.706 201.706 218.326 202.45C218.524 202.698 218.797 202.871 219.07 202.995L221.4 203.789C221.4 203.789 221.598 203.789 221.672 203.739C221.747 203.689 221.771 203.59 221.771 203.491L221.449 201.062C221.4 200.764 221.276 200.467 221.077 200.219C220.458 199.451 219.342 199.351 218.599 199.971" fill="white"/>
<path d="M220.581 207.581C219.714 208.449 219.714 209.837 220.581 210.705C220.879 211.002 221.226 211.176 221.573 211.275L224.547 211.969C224.547 211.969 224.77 211.969 224.87 211.87C224.969 211.795 224.994 211.671 224.969 211.547L224.275 208.573C224.176 208.201 223.977 207.854 223.705 207.581C222.837 206.714 221.449 206.714 220.581 207.581Z" fill="white"/>
<path d="M226.407 213.408C225.366 214.449 225.366 216.134 226.407 217.151C226.754 217.498 227.175 217.721 227.597 217.845L231.191 218.687C231.315 218.712 231.464 218.687 231.563 218.588C231.662 218.489 231.711 218.34 231.662 218.216L230.819 214.622C230.695 214.176 230.472 213.755 230.125 213.432C229.084 212.391 227.398 212.391 226.382 213.432" fill="white"/>
<path d="M253.228 276.567C252.509 276.715 251.815 276.244 251.666 275.525C251.616 275.278 251.641 275.055 251.716 274.831L252.36 273.121C252.36 273.121 252.434 272.997 252.509 272.997C252.583 272.997 252.657 272.997 252.707 273.071L253.971 274.41C254.12 274.584 254.244 274.782 254.269 275.03C254.417 275.749 253.946 276.443 253.228 276.591" fill="white"/>
<path d="M255.954 269.923C255.012 270.196 254.02 269.675 253.748 268.733C253.649 268.436 253.649 268.114 253.723 267.816L254.367 265.437C254.367 265.437 254.467 265.263 254.566 265.238C254.665 265.214 254.764 265.238 254.814 265.288L256.648 266.899C256.871 267.097 257.044 267.37 257.144 267.692C257.416 268.634 256.896 269.626 255.954 269.898" fill="white"/>
<path d="M257.02 262.09C255.904 262.561 254.591 262.016 254.144 260.9C253.996 260.528 253.946 260.132 253.996 259.76L254.491 256.736C254.491 256.736 254.591 256.513 254.69 256.463C254.814 256.414 254.938 256.438 255.012 256.488L257.516 258.273C257.813 258.496 258.061 258.818 258.21 259.19C258.681 260.33 258.135 261.619 257.02 262.09Z" fill="white"/>
<path d="M253.871 254.505C252.508 255.075 250.971 254.431 250.401 253.068C250.203 252.621 250.153 252.15 250.228 251.704L250.823 248.06C250.823 247.936 250.946 247.812 251.07 247.763C251.219 247.713 251.343 247.738 251.467 247.812L254.466 249.969C254.838 250.242 255.136 250.614 255.309 251.06C255.879 252.423 255.235 253.96 253.871 254.53" fill="white"/>
<path d="M235.207 185.892C234.488 186.041 234.017 186.735 234.166 187.454C234.215 187.702 234.314 187.9 234.463 188.074L235.727 189.412C235.727 189.412 235.851 189.487 235.926 189.462C236 189.462 236.05 189.387 236.074 189.338L236.719 187.628C236.793 187.404 236.818 187.181 236.768 186.933C236.62 186.215 235.926 185.744 235.207 185.892Z" fill="white"/>
<path d="M232.48 192.536C231.538 192.808 231.017 193.8 231.29 194.742C231.389 195.039 231.563 195.312 231.786 195.535L233.62 197.146C233.62 197.146 233.794 197.22 233.868 197.196C233.967 197.171 234.042 197.096 234.066 196.997L234.711 194.618C234.785 194.32 234.785 193.998 234.686 193.701C234.413 192.759 233.422 192.238 232.48 192.511" fill="white"/>
<path d="M231.439 200.344C230.299 200.815 229.778 202.104 230.249 203.244C230.398 203.616 230.646 203.938 230.943 204.161L233.447 205.946C233.447 205.946 233.67 206.02 233.769 205.97C233.893 205.921 233.967 205.822 233.967 205.723L234.463 202.698C234.513 202.327 234.463 201.93 234.315 201.558C233.844 200.418 232.555 199.897 231.439 200.368" fill="white"/>
<path d="M261.903 188.52C262.572 188.792 262.894 189.586 262.622 190.255C262.523 190.478 262.374 190.676 262.2 190.8L260.713 191.866C260.713 191.866 260.589 191.916 260.515 191.866C260.44 191.841 260.391 191.767 260.391 191.717L260.093 189.908C260.069 189.685 260.093 189.437 260.193 189.214C260.465 188.545 261.258 188.222 261.928 188.495" fill="white"/>
<path d="M255.954 192.536C256.896 192.808 257.416 193.8 257.144 194.742C257.044 195.039 256.871 195.312 256.648 195.535L254.814 197.146C254.814 197.146 254.64 197.22 254.566 197.196C254.467 197.171 254.392 197.096 254.367 196.997L253.723 194.618C253.649 194.32 253.649 193.998 253.748 193.701C254.02 192.759 255.012 192.238 255.954 192.511" fill="white"/>
<path d="M250.749 198.435C251.938 198.683 252.732 199.848 252.484 201.037C252.409 201.434 252.211 201.781 251.963 202.078L249.856 204.309C249.856 204.309 249.658 204.433 249.534 204.409C249.41 204.409 249.311 204.309 249.286 204.185L248.22 201.31C248.096 200.963 248.071 200.566 248.146 200.17C248.394 198.98 249.559 198.187 250.749 198.435Z" fill="white"/>
<path d="M226.531 273.938C227.201 274.211 227.994 273.889 228.266 273.22C228.366 272.996 228.39 272.749 228.366 272.525L228.068 270.716C228.068 270.716 228.019 270.592 227.944 270.567C227.87 270.542 227.795 270.567 227.746 270.567L226.259 271.633C226.085 271.782 225.936 271.955 225.837 272.178C225.565 272.848 225.887 273.641 226.556 273.914" fill="white"/>
<path d="M232.48 269.923C233.422 270.196 234.413 269.675 234.686 268.733C234.785 268.436 234.785 268.114 234.711 267.816L234.066 265.437C234.066 265.437 233.967 265.263 233.868 265.238C233.769 265.214 233.67 265.238 233.62 265.288L231.786 266.899C231.563 267.097 231.389 267.37 231.29 267.692C231.017 268.634 231.538 269.626 232.48 269.898" fill="white"/>
<path d="M237.71 263.999C238.9 264.246 240.065 263.453 240.312 262.263C240.387 261.867 240.362 261.47 240.238 261.123L239.172 258.248C239.172 258.248 239.048 258.05 238.924 258.025C238.8 258 238.676 258.025 238.602 258.124L236.495 260.355C236.247 260.627 236.074 260.999 235.975 261.396C235.727 262.586 236.52 263.751 237.71 263.999Z" fill="white"/>
<path d="M276.9 198.534C277.42 199.055 277.42 199.897 276.9 200.418C276.726 200.592 276.528 200.715 276.305 200.765L274.52 201.186C274.52 201.186 274.372 201.186 274.322 201.137C274.272 201.087 274.248 201.013 274.272 200.939L274.694 199.154C274.743 198.931 274.867 198.732 275.041 198.559C275.561 198.038 276.404 198.038 276.925 198.559" fill="white"/>
<path d="M269.86 199.971C270.603 200.591 270.727 201.706 270.108 202.45C269.909 202.698 269.637 202.871 269.364 202.995L267.034 203.789C267.034 203.789 266.86 203.789 266.761 203.739C266.687 203.689 266.662 203.59 266.662 203.491L266.984 201.062C267.034 200.764 267.158 200.467 267.356 200.219C267.976 199.451 269.091 199.351 269.835 199.971" fill="white"/>
<path d="M262.795 203.442C263.812 204.112 264.084 205.5 263.415 206.516C263.192 206.863 262.894 207.111 262.547 207.285L259.746 208.549C259.746 208.549 259.523 208.598 259.424 208.524C259.325 208.45 259.275 208.35 259.275 208.226L259.375 205.153C259.375 204.781 259.523 204.384 259.746 204.062C260.416 203.046 261.804 202.773 262.82 203.442" fill="white"/>
<path d="M211.535 263.9C212.055 264.42 212.898 264.42 213.418 263.9C213.592 263.726 213.716 263.528 213.765 263.305L214.187 261.52C214.187 261.52 214.187 261.371 214.137 261.322C214.088 261.272 214.013 261.247 213.939 261.272L212.154 261.694C211.931 261.743 211.733 261.867 211.559 262.041C211.039 262.561 211.039 263.404 211.559 263.924" fill="white"/>
<path d="M218.574 262.487C219.318 263.106 220.433 263.007 221.053 262.239C221.251 261.991 221.375 261.693 221.425 261.396L221.747 258.967C221.747 258.967 221.722 258.793 221.648 258.719C221.574 258.645 221.475 258.645 221.375 258.669L219.045 259.463C218.773 259.562 218.5 259.735 218.302 260.008C217.682 260.751 217.781 261.867 218.55 262.487" fill="white"/>
<path d="M225.663 259.016C226.679 259.685 228.043 259.413 228.737 258.396C228.96 258.049 229.084 257.678 229.109 257.306L229.208 254.232C229.208 254.232 229.158 254.009 229.059 253.935C228.96 253.86 228.836 253.86 228.737 253.91L225.936 255.174C225.589 255.348 225.291 255.595 225.068 255.942C224.399 256.959 224.672 258.322 225.688 259.016" fill="white"/>
<path d="M286.939 213.531C287.211 214.2 286.889 214.993 286.22 215.266C285.997 215.365 285.749 215.39 285.526 215.365L283.716 215.068C283.716 215.068 283.592 215.018 283.568 214.944C283.543 214.869 283.568 214.795 283.568 214.746L284.634 213.258C284.757 213.085 284.956 212.936 285.179 212.837C285.848 212.564 286.641 212.886 286.914 213.556" fill="white"/>
<path d="M279.874 212.167C280.345 213.035 280.023 214.1 279.155 214.571C278.858 214.72 278.561 214.794 278.263 214.77L275.809 214.621C275.809 214.621 275.636 214.571 275.586 214.472C275.536 214.398 275.536 214.274 275.586 214.2L276.801 212.068C276.949 211.82 277.197 211.597 277.47 211.448C278.337 210.977 279.403 211.299 279.874 212.167Z" fill="white"/>
<path d="M272.016 212.663C272.686 213.679 272.413 215.042 271.397 215.737C271.05 215.96 270.678 216.084 270.306 216.108L267.232 216.207C267.232 216.207 267.009 216.158 266.935 216.059C266.86 215.96 266.86 215.836 266.91 215.737L268.174 212.936C268.348 212.588 268.596 212.291 268.943 212.068C269.959 211.399 271.322 211.671 272.016 212.688" fill="white"/>
<path d="M201.52 248.903C201.792 249.573 202.586 249.895 203.255 249.622C203.478 249.523 203.676 249.374 203.8 249.201L204.866 247.713C204.866 247.713 204.916 247.589 204.866 247.515C204.841 247.441 204.767 247.416 204.717 247.391L202.908 247.094C202.685 247.069 202.437 247.094 202.214 247.193C201.544 247.466 201.222 248.259 201.495 248.928" fill="white"/>
<path d="M208.56 250.291C209.031 251.159 210.096 251.481 210.964 251.01C211.261 250.861 211.485 250.638 211.633 250.365L212.873 248.234C212.873 248.234 212.922 248.06 212.873 247.961C212.823 247.862 212.749 247.812 212.65 247.812L210.196 247.664C209.898 247.664 209.576 247.713 209.303 247.862C208.436 248.333 208.113 249.399 208.584 250.266" fill="white"/>
<path d="M216.442 249.796C217.111 250.812 218.499 251.085 219.515 250.416C219.862 250.193 220.11 249.895 220.284 249.548L221.548 246.747C221.548 246.747 221.598 246.524 221.523 246.425C221.449 246.326 221.35 246.276 221.226 246.276L218.152 246.375C217.78 246.375 217.408 246.524 217.061 246.747C216.045 247.416 215.772 248.804 216.442 249.821" fill="white"/>
<path d="M290.434 231.23C290.434 231.973 289.839 232.544 289.096 232.544C288.848 232.544 288.625 232.469 288.426 232.37L286.865 231.403C286.865 231.403 286.766 231.304 286.766 231.23C286.766 231.155 286.815 231.081 286.865 231.056L288.426 230.09C288.625 229.966 288.848 229.916 289.096 229.916C289.839 229.916 290.434 230.511 290.434 231.255" fill="white"/>
<path d="M284.46 227.263C284.559 228.23 283.84 229.097 282.874 229.196C282.551 229.221 282.229 229.172 281.956 229.048L279.75 227.957C279.75 227.957 279.602 227.833 279.602 227.734C279.602 227.635 279.626 227.536 279.701 227.486L281.659 225.999C281.907 225.825 282.204 225.701 282.527 225.676C283.493 225.577 284.361 226.296 284.46 227.263Z" fill="white"/>
<path d="M276.999 224.71C277.247 225.9 276.454 227.065 275.264 227.313C274.867 227.387 274.471 227.362 274.124 227.239L271.248 226.173C271.248 226.173 271.05 226.049 271.025 225.925C271 225.801 271.025 225.677 271.124 225.603L273.355 223.496C273.628 223.248 274 223.074 274.396 222.975C275.586 222.727 276.751 223.52 276.999 224.71Z" fill="white"/>
<path d="M198 231.23C198 231.973 198.595 232.544 199.339 232.544C199.586 232.544 199.81 232.469 200.008 232.37L201.569 231.403C201.569 231.403 201.669 231.304 201.669 231.23C201.669 231.155 201.619 231.081 201.569 231.056L200.008 230.09C199.81 229.966 199.586 229.916 199.339 229.916C198.62 229.916 198 230.511 198 231.255" fill="white"/>
<path d="M203.974 235.196C204.073 236.162 204.941 236.881 205.907 236.782C206.23 236.757 206.527 236.633 206.775 236.46L208.733 234.972C208.733 234.972 208.857 234.824 208.832 234.725C208.832 234.625 208.758 234.551 208.684 234.502L206.478 233.411C206.205 233.287 205.883 233.237 205.56 233.262C204.594 233.361 203.875 234.229 203.974 235.196Z" fill="white"/>
<path d="M211.436 237.749C211.683 238.938 212.848 239.732 214.038 239.484C214.435 239.409 214.782 239.211 215.079 238.963L217.31 236.856C217.31 236.856 217.434 236.658 217.409 236.534C217.409 236.41 217.31 236.311 217.186 236.286L214.311 235.195C213.964 235.072 213.567 235.047 213.171 235.121C211.981 235.369 211.188 236.534 211.436 237.724" fill="white"/>
<path d="M286.939 248.903C286.666 249.573 285.873 249.895 285.204 249.622C284.98 249.523 284.782 249.374 284.658 249.201L283.592 247.713C283.592 247.713 283.543 247.589 283.592 247.515C283.617 247.441 283.692 247.416 283.741 247.391L285.551 247.094C285.774 247.069 286.022 247.094 286.245 247.193C286.914 247.466 287.236 248.259 286.963 248.928" fill="white"/>
<path d="M282.923 242.954C282.65 243.895 281.659 244.416 280.717 244.143C280.419 244.044 280.147 243.871 279.924 243.648L278.312 241.813C278.312 241.813 278.238 241.64 278.263 241.565C278.288 241.466 278.362 241.392 278.461 241.367L280.841 240.723C281.138 240.648 281.461 240.648 281.758 240.747C282.7 241.02 283.22 242.012 282.948 242.954" fill="white"/>
<path d="M276.999 237.749C276.751 238.938 275.586 239.732 274.396 239.484C274 239.409 273.653 239.211 273.355 238.963L271.124 236.856C271.124 236.856 271 236.658 271.025 236.534C271.025 236.41 271.124 236.311 271.248 236.286L274.124 235.195C274.471 235.072 274.867 235.047 275.264 235.121C276.454 235.369 277.247 236.534 276.999 237.724" fill="white"/>
<path d="M201.52 213.531C201.248 214.2 201.57 214.993 202.239 215.266C202.462 215.365 202.71 215.39 202.933 215.365L204.743 215.068C204.743 215.068 204.867 215.018 204.891 214.944C204.916 214.869 204.891 214.795 204.891 214.746L203.826 213.258C203.677 213.085 203.503 212.936 203.28 212.837C202.611 212.564 201.818 212.886 201.545 213.556" fill="white"/>
<path d="M205.535 219.479C205.263 220.421 205.783 221.413 206.725 221.685C207.022 221.784 207.345 221.784 207.642 221.71L210.022 221.066C210.022 221.066 210.195 220.966 210.22 220.892C210.245 220.793 210.22 220.694 210.171 220.644L208.559 218.81C208.361 218.587 208.088 218.413 207.766 218.314C206.824 218.042 205.833 218.562 205.56 219.504" fill="white"/>
<path d="M211.436 224.71C211.188 225.9 211.981 227.065 213.171 227.313C213.567 227.387 213.964 227.362 214.311 227.239L217.186 226.173C217.186 226.173 217.385 226.049 217.409 225.925C217.434 225.801 217.409 225.677 217.31 225.603L215.079 223.496C214.807 223.248 214.435 223.074 214.038 222.975C212.848 222.727 211.683 223.52 211.436 224.71Z" fill="white"/>
<path d="M276.899 263.9C276.379 264.42 275.536 264.42 275.015 263.9C274.842 263.726 274.718 263.528 274.668 263.305L274.247 261.52C274.247 261.52 274.247 261.371 274.297 261.322C274.346 261.272 274.421 261.247 274.495 261.272L276.28 261.694C276.503 261.743 276.701 261.867 276.875 262.041C277.395 262.561 277.395 263.404 276.875 263.924" fill="white"/>
<path d="M275.487 256.886C274.867 257.654 273.752 257.753 273.008 257.133C272.76 256.935 272.587 256.662 272.463 256.39L271.669 254.06C271.669 254.06 271.669 253.886 271.719 253.787C271.769 253.713 271.868 253.688 271.967 253.688L274.396 254.01C274.694 254.06 274.991 254.184 275.239 254.382C276.007 255.002 276.106 256.117 275.487 256.861" fill="white"/>
<path d="M272.017 249.796C271.347 250.812 269.959 251.085 268.943 250.416C268.596 250.193 268.348 249.895 268.174 249.548L266.91 246.747C266.91 246.747 266.861 246.524 266.935 246.425C267.009 246.326 267.109 246.276 267.232 246.276L270.306 246.375C270.678 246.375 271.05 246.524 271.397 246.747C272.413 247.416 272.686 248.804 272.017 249.821" fill="white"/>
<path d="M211.534 198.534C211.013 199.055 211.013 199.897 211.534 200.418C211.707 200.592 211.906 200.715 212.129 200.765L213.914 201.186C213.914 201.186 214.062 201.186 214.112 201.137C214.161 201.087 214.186 201.013 214.161 200.939L213.74 199.154C213.691 198.931 213.567 198.732 213.393 198.559C212.873 198.038 212.03 198.038 211.509 198.559" fill="white"/>
<path d="M212.972 205.573C212.352 206.342 212.452 207.432 213.22 208.052C213.468 208.25 213.765 208.374 214.063 208.424L216.492 208.746C216.492 208.746 216.665 208.721 216.74 208.647C216.814 208.573 216.814 208.474 216.789 208.374L215.996 206.044C215.897 205.772 215.724 205.499 215.451 205.301C214.707 204.681 213.592 204.78 212.972 205.549" fill="white"/>
<path d="M216.442 212.663C215.772 213.679 216.045 215.042 217.061 215.737C217.408 215.96 217.78 216.084 218.152 216.108L221.226 216.207C221.226 216.207 221.449 216.158 221.523 216.059C221.598 215.96 221.598 215.836 221.548 215.737L220.284 212.936C220.11 212.588 219.862 212.291 219.515 212.068C218.499 211.399 217.136 211.671 216.442 212.688" fill="white"/>
<path d="M261.903 273.938C261.234 274.211 260.441 273.889 260.168 273.22C260.069 272.996 260.044 272.749 260.069 272.525L260.366 270.716C260.366 270.716 260.416 270.592 260.49 270.567C260.565 270.542 260.639 270.567 260.689 270.567L262.176 271.633C262.349 271.782 262.498 271.955 262.597 272.178C262.87 272.848 262.548 273.641 261.879 273.914" fill="white"/>
<path d="M263.291 266.874C262.423 267.345 261.358 267.023 260.887 266.156C260.738 265.858 260.664 265.561 260.688 265.263L260.837 262.809C260.837 262.809 260.887 262.636 260.986 262.586C261.06 262.537 261.184 262.537 261.258 262.586L263.39 263.826C263.638 263.974 263.861 264.222 264.035 264.495C264.506 265.362 264.159 266.428 263.316 266.899" fill="white"/>
<path d="M262.796 259.016C261.779 259.685 260.416 259.413 259.722 258.396C259.499 258.049 259.375 257.678 259.35 257.306L259.251 254.232C259.251 254.232 259.301 254.009 259.4 253.935C259.499 253.86 259.623 253.86 259.722 253.91L262.523 255.174C262.87 255.348 263.167 255.595 263.391 255.942C264.06 256.959 263.787 258.322 262.771 259.016" fill="white"/>
<path d="M226.531 188.52C225.861 188.792 225.539 189.586 225.812 190.255C225.911 190.478 226.06 190.676 226.233 190.8L227.72 191.866C227.72 191.866 227.844 191.916 227.919 191.866C227.993 191.841 228.018 191.767 228.043 191.717L228.34 189.908C228.365 189.685 228.34 189.437 228.241 189.214C227.968 188.545 227.175 188.222 226.506 188.495" fill="white"/>
<path d="M225.167 195.56C224.3 196.031 223.978 197.097 224.449 197.964C224.597 198.237 224.82 198.485 225.093 198.633L227.225 199.848C227.225 199.848 227.398 199.898 227.498 199.848C227.597 199.799 227.646 199.724 227.646 199.625L227.795 197.171C227.795 196.874 227.745 196.551 227.597 196.279C227.126 195.411 226.06 195.089 225.192 195.56" fill="white"/>
<path d="M225.664 203.442C224.647 204.112 224.375 205.5 225.044 206.516C225.267 206.863 225.564 207.111 225.911 207.285L228.712 208.549C228.712 208.549 228.936 208.598 229.035 208.524C229.134 208.45 229.183 208.35 229.183 208.226L229.084 205.153C229.084 204.781 228.936 204.384 228.712 204.062C228.043 203.046 226.655 202.773 225.639 203.442" fill="white"/>
<path d="M244.229 277.458C243.486 277.458 242.891 276.863 242.891 276.145C242.891 275.897 242.965 275.674 243.064 275.475L244.031 273.914C244.031 273.914 244.13 273.815 244.204 273.815C244.279 273.815 244.353 273.864 244.378 273.914L245.345 275.475C245.469 275.674 245.518 275.897 245.518 276.145C245.518 276.863 244.923 277.458 244.18 277.458" fill="white"/>
<path d="M248.195 271.46C247.229 271.559 246.361 270.84 246.262 269.874C246.237 269.551 246.262 269.229 246.411 268.957L247.501 266.75C247.501 266.75 247.625 266.602 247.724 266.602C247.823 266.602 247.923 266.627 247.972 266.701L249.459 268.659C249.633 268.907 249.757 269.204 249.782 269.527C249.881 270.493 249.162 271.361 248.195 271.46Z" fill="white"/>
<path d="M250.749 263.999C249.559 264.246 248.394 263.453 248.146 262.263C248.071 261.867 248.096 261.47 248.22 261.123L249.286 258.248C249.286 258.248 249.41 258.05 249.534 258.025C249.658 258 249.782 258.025 249.856 258.124L251.963 260.355C252.211 260.627 252.385 260.999 252.484 261.396C252.732 262.586 251.938 263.751 250.749 263.999Z" fill="white"/>
<path d="M244.229 185C243.486 185 242.891 185.595 242.891 186.338C242.891 186.586 242.965 186.809 243.064 187.008L244.031 188.569C244.031 188.569 244.13 188.669 244.204 188.669C244.279 188.669 244.353 188.619 244.378 188.569L245.345 187.008C245.469 186.809 245.518 186.586 245.518 186.338C245.518 185.595 244.923 185 244.18 185" fill="white"/>
<path d="M240.263 190.973C239.296 191.072 238.577 191.94 238.677 192.906C238.701 193.229 238.825 193.526 238.999 193.774L240.486 195.732C240.486 195.732 240.635 195.856 240.734 195.831C240.833 195.831 240.908 195.757 240.957 195.683L242.048 193.477C242.172 193.204 242.221 192.882 242.196 192.559C242.097 191.593 241.23 190.874 240.263 190.973Z" fill="white"/>
<path d="M237.71 198.435C236.52 198.683 235.727 199.848 235.975 201.037C236.049 201.434 236.247 201.781 236.495 202.078L238.602 204.309C238.602 204.309 238.8 204.433 238.924 204.409C239.048 204.409 239.147 204.309 239.172 204.185L240.238 201.31C240.362 200.963 240.387 200.566 240.312 200.17C240.065 198.98 238.9 198.187 237.71 198.435Z" fill="white"/>
<path d="M234.587 207.954C233.223 208.524 232.579 210.061 233.149 211.424C233.323 211.87 233.645 212.242 233.992 212.515L236.991 214.646C236.991 214.646 237.264 214.746 237.388 214.696C237.512 214.646 237.611 214.523 237.636 214.399L238.231 210.78C238.305 210.333 238.231 209.862 238.057 209.416C237.487 208.053 235.95 207.408 234.587 207.979" fill="white"/>
</g>
</svg>
