<svg width="327" height="313" viewBox="0 0 327 313" fill="none" xmlns="http://www.w3.org/2000/svg">
<g opacity="0.4">
<path d="M103.962 1.67825C105.315 1.95814 106.201 3.2643 105.921 4.61712C105.828 5.0836 105.641 5.45679 105.361 5.78334L102.982 8.30237C102.982 8.30237 102.748 8.44231 102.608 8.39566C102.468 8.39566 102.375 8.25572 102.328 8.16242L101.115 4.94366C100.975 4.52382 100.929 4.10398 101.022 3.63749C101.302 2.28468 102.608 1.39835 103.962 1.67825Z" fill="white"/>
<path d="M94.4889 11.2423C96.3087 11.4289 97.6619 13.0616 97.4752 14.8809C97.4285 15.4873 97.1952 16.0471 96.8686 16.5136L94.0689 20.1989C94.0689 20.1989 93.789 20.4321 93.6023 20.3855C93.4157 20.3855 93.2757 20.2455 93.1824 20.1056L91.1293 15.9538C90.896 15.4407 90.8027 14.8343 90.8493 14.2278C91.036 12.4085 92.6691 11.0557 94.4889 11.2423Z" fill="white"/>
<path d="M87.0235 24.0706C89.3099 24.0706 91.1763 25.9365 91.1763 28.2223C91.1763 28.9687 90.9897 29.7151 90.6164 30.3215L87.5834 35.2196C87.5834 35.2196 87.2568 35.4995 87.0235 35.4995C86.7902 35.4995 86.6035 35.3595 86.4635 35.2196L83.4305 30.3215C83.0573 29.7151 82.8706 29.0153 82.8706 28.2223C82.8706 25.9365 84.7371 24.0706 87.0235 24.0706Z" fill="white"/>
<path d="M87.023 39.5577C89.776 39.5577 92.0158 41.7969 92.0158 44.5492C92.0158 45.4821 91.7825 46.3218 91.3159 47.0682L87.6763 52.9459C87.6763 52.9459 87.303 53.3191 87.023 53.3191C86.7431 53.3191 86.5098 53.1792 86.3698 52.9459L82.7302 47.0682C82.3102 46.3218 82.0303 45.4821 82.0303 44.5492C82.0303 41.7969 84.27 39.5577 87.023 39.5577Z" fill="white"/>
<path d="M70.0385 172.321C71.3917 172.601 72.6982 171.714 72.9782 170.361C73.0715 169.895 73.0249 169.475 72.8849 169.055L71.6717 165.837C71.6717 165.837 71.5317 165.603 71.3917 165.603C71.2517 165.603 71.1118 165.603 71.0184 165.743L68.6387 168.262C68.3587 168.589 68.1254 168.962 68.0788 169.428C67.7988 170.781 68.6854 172.087 70.0385 172.367" fill="white"/>
<path d="M79.5575 162.711C81.3773 162.897 83.0104 161.545 83.1971 159.725C83.2437 159.119 83.1971 158.512 82.9171 157.999L80.864 153.848C80.864 153.848 80.6307 153.568 80.4441 153.568C80.2574 153.568 80.0708 153.614 79.9774 153.754L77.1778 157.439C76.8511 157.906 76.6178 158.466 76.5712 159.072C76.3845 160.891 77.7377 162.524 79.5575 162.711Z" fill="white"/>
<path d="M87.0235 149.883C89.3099 149.883 91.1763 148.017 91.1763 145.731C91.1763 144.985 90.9897 144.239 90.6164 143.632L87.5834 138.734C87.5834 138.734 87.2568 138.407 87.0235 138.407C86.7902 138.407 86.6035 138.547 86.4635 138.734L83.4305 143.632C83.0573 144.239 82.8706 144.985 82.8706 145.731C82.8706 148.017 84.7371 149.883 87.0235 149.883Z" fill="white"/>
<path d="M87.023 134.394C89.776 134.394 92.0158 132.155 92.0158 129.403C92.0158 128.47 91.7825 127.63 91.3159 126.884L87.6763 121.006C87.6763 121.006 87.303 120.633 87.023 120.633C86.7431 120.633 86.5098 120.773 86.3698 121.006L82.7302 126.884C82.3102 127.63 82.0303 128.47 82.0303 129.403C82.0303 132.155 84.27 134.394 87.023 134.394Z" fill="white"/>
<path d="M135.364 14.6477C136.53 15.3941 136.81 16.9802 136.064 18.0997C135.831 18.4729 135.457 18.7528 135.084 18.9394L131.911 20.3855C131.911 20.3855 131.631 20.4322 131.538 20.3855C131.444 20.2922 131.351 20.1989 131.351 20.059L131.444 16.607C131.444 16.1871 131.584 15.7673 131.864 15.3941C132.611 14.2279 134.197 13.948 135.317 14.6944" fill="white"/>
<path d="M122.906 19.8723C124.539 20.7586 125.145 22.7645 124.259 24.3972C123.979 24.9104 123.559 25.3769 123.046 25.6568L119.033 27.9425C119.033 27.9425 118.706 28.0358 118.519 27.9425C118.333 27.8492 118.239 27.7093 118.239 27.5227L117.959 22.9045C117.959 22.3447 118.053 21.7383 118.333 21.2251C119.219 19.5924 121.226 18.986 122.859 19.8723" fill="white"/>
<path d="M111.101 28.8758C113.247 29.7622 114.227 32.1879 113.34 34.3337C113.06 35.0335 112.594 35.6399 112.034 36.0597L107.321 39.4185C107.321 39.4185 106.901 39.5584 106.715 39.4651C106.481 39.3718 106.341 39.1852 106.341 38.9986L105.408 33.3075C105.315 32.6077 105.408 31.8614 105.688 31.1616C106.575 29.0158 109.001 28.0362 111.101 28.9225" fill="white"/>
<path d="M105.175 43.1966C107.741 44.2695 108.908 47.1618 107.881 49.7274C107.554 50.5671 106.948 51.2669 106.295 51.78L100.649 55.7918C100.649 55.7918 100.182 55.9784 99.902 55.8851C99.6687 55.7918 99.4821 55.5585 99.4354 55.3253L98.3155 48.5146C98.1755 47.6749 98.3155 46.7886 98.6422 45.9489C99.7154 43.3832 102.608 42.1704 105.175 43.2433" fill="white"/>
<path d="M38.6823 159.306C39.8488 160.052 41.3886 159.772 42.1352 158.606C42.4152 158.233 42.5085 157.813 42.5552 157.393L42.6485 153.941C42.6485 153.941 42.6018 153.661 42.4618 153.615C42.3219 153.521 42.1819 153.521 42.0886 153.615L38.9156 155.061C38.5423 155.247 38.169 155.527 37.9357 155.9C37.1891 157.067 37.4691 158.606 38.6356 159.352" fill="white"/>
<path d="M51.1413 154.081C52.7745 154.967 54.7809 154.361 55.6675 152.728C55.9474 152.168 56.0874 151.609 56.0407 151.049L55.7608 146.43C55.7608 146.43 55.6675 146.104 55.4808 146.011C55.3408 145.917 55.1075 145.917 54.9675 146.011L50.9547 148.343C50.4881 148.623 50.0681 149.089 49.7415 149.603C48.8549 151.235 49.5082 153.241 51.0947 154.128" fill="white"/>
<path d="M62.9464 145.077C65.0462 145.964 67.5192 144.938 68.3591 142.838C68.6391 142.139 68.7324 141.392 68.6391 140.693L67.7059 135.001C67.7059 135.001 67.5192 134.582 67.3326 134.488C67.0993 134.395 66.9126 134.442 66.726 134.535L62.0132 137.894C61.4533 138.313 60.9866 138.92 60.7067 139.62C59.8201 141.765 60.8467 144.191 62.9464 145.077Z" fill="white"/>
<path d="M68.8718 130.803C71.4382 131.876 74.3312 130.663 75.4044 128.098C75.7777 127.258 75.871 126.372 75.7311 125.532L74.6112 118.675C74.6112 118.441 74.3779 118.208 74.1446 118.115C73.9113 118.022 73.6313 118.068 73.398 118.208L67.752 122.267C67.0521 122.78 66.4921 123.479 66.1655 124.319C65.0923 126.885 66.3055 129.777 68.8718 130.85" fill="white"/>
<path d="M159.348 38.6722C160.095 39.8384 159.815 41.3778 158.648 42.1242C158.275 42.4041 157.855 42.4974 157.435 42.544L153.982 42.684C153.982 42.684 153.749 42.6373 153.655 42.4974C153.562 42.4041 153.562 42.2641 153.655 42.1242L155.102 38.9521C155.289 38.5789 155.569 38.2057 155.942 37.9725C157.108 37.2261 158.648 37.506 159.395 38.6722" fill="white"/>
<path d="M145.863 38.7183C147.03 40.1644 146.843 42.2169 145.397 43.3832C144.93 43.7563 144.37 43.9896 143.81 44.0829L139.237 44.6893C139.237 44.6893 138.911 44.6427 138.771 44.5027C138.677 44.3628 138.631 44.1762 138.677 43.9896L140.171 39.6046C140.357 39.0915 140.684 38.5783 141.197 38.2051C142.597 37.0389 144.697 37.2255 145.863 38.6716" fill="white"/>
<path d="M131.491 42.4969C133.124 44.1296 133.124 46.7419 131.491 48.3746C130.931 48.9344 130.278 49.2609 129.625 49.4475L124.025 50.7537C124.025 50.7537 123.605 50.7537 123.419 50.5671C123.232 50.4272 123.185 50.1939 123.232 49.9607L124.539 44.3628C124.725 43.6631 125.099 43.01 125.612 42.4969C127.245 40.8642 129.858 40.8642 131.491 42.4969Z" fill="white"/>
<path d="M120.525 53.4597C122.485 55.4189 122.485 58.591 120.525 60.5036C119.872 61.1567 119.079 61.5765 118.286 61.8098L111.52 63.3958C111.287 63.4425 111.007 63.3958 110.82 63.2092C110.633 63.0226 110.54 62.7427 110.587 62.5095L112.173 55.7454C112.406 54.9058 112.826 54.1127 113.48 53.5063C115.439 51.5471 118.612 51.5471 120.525 53.5063" fill="white"/>
<path d="M14.6517 135.329C15.3983 136.495 16.9848 136.775 18.1047 136.028C18.478 135.749 18.7579 135.422 18.9446 135.049L20.3911 131.877C20.3911 131.877 20.3911 131.597 20.3911 131.503C20.2978 131.41 20.2044 131.317 20.0644 131.317L16.6115 131.457C16.1916 131.457 15.7716 131.597 15.3983 131.877C14.2318 132.623 13.9518 134.209 14.6984 135.329" fill="white"/>
<path d="M28.1832 135.282C29.3497 136.728 31.4495 136.914 32.8493 135.748C33.3159 135.375 33.6425 134.862 33.8759 134.349L35.369 129.964C35.369 129.964 35.369 129.637 35.2757 129.451C35.1824 129.311 34.9957 129.264 34.8091 129.264L30.2363 129.87C29.6763 129.964 29.1164 130.197 28.6498 130.57C27.25 131.736 27.0167 133.836 28.1832 135.235" fill="white"/>
<path d="M42.5083 131.456C44.1414 133.089 46.7545 133.089 48.3876 131.456C48.9476 130.896 49.2742 130.243 49.4608 129.59L50.7673 123.992C50.7673 123.992 50.7673 123.572 50.5807 123.386C50.3941 123.246 50.2074 123.152 49.9741 123.199L44.3748 124.505C43.6748 124.692 43.0216 125.065 42.5083 125.578C40.8752 127.211 40.8752 129.823 42.5083 131.456Z" fill="white"/>
<path d="M53.4739 120.494C55.4337 122.453 58.6067 122.453 60.5198 120.494C61.1731 119.84 61.593 119.047 61.8263 118.254L63.4128 111.49C63.4595 111.257 63.4128 110.977 63.2262 110.791C63.0395 110.604 62.7595 110.511 62.5262 110.604L55.7603 112.19C54.9204 112.423 54.1272 112.843 53.5206 113.496C51.5608 115.455 51.5608 118.628 53.5206 120.54" fill="white"/>
<path d="M172.367 70.0201C172.647 71.3729 171.76 72.679 170.407 72.9589C169.941 73.0522 169.521 73.0056 169.101 72.8656L165.834 71.6528C165.834 71.6528 165.601 71.5128 165.601 71.3729C165.601 71.2329 165.601 71.093 165.694 70.9997L168.214 68.6206C168.541 68.3407 168.914 68.1541 169.381 68.0608C170.734 67.7809 172.04 68.6672 172.32 70.0201" fill="white"/>
<path d="M159.861 64.8879C160.375 66.6605 159.395 68.5265 157.622 69.0396C157.062 69.2262 156.455 69.2262 155.895 69.0863L151.416 67.8734C151.416 67.8734 151.089 67.6868 151.042 67.5469C150.996 67.3603 151.042 67.1737 151.136 67.0804L154.169 63.6284C154.542 63.2085 155.055 62.882 155.662 62.6954C157.435 62.1823 159.302 63.1619 159.815 64.9345" fill="white"/>
<path d="M145.116 62.9298C146.003 65.0757 144.976 67.5014 142.876 68.3877C142.176 68.6676 141.43 68.7609 140.73 68.6676L135.037 67.7346C135.037 67.7346 134.617 67.548 134.571 67.3615C134.477 67.1282 134.524 66.895 134.617 66.755L137.977 62.0902C138.397 61.5304 139.003 61.0639 139.703 60.784C141.85 59.8977 144.276 60.9239 145.163 63.0231" fill="white"/>
<path d="M130.838 68.8534C131.911 71.4191 130.698 74.3113 128.132 75.3843C127.292 75.7574 126.405 75.8508 125.565 75.7108L118.753 74.5912C118.519 74.5912 118.286 74.358 118.193 74.1247C118.1 73.8449 118.146 73.6116 118.286 73.3784L122.299 67.7339C122.812 67.0341 123.512 66.4744 124.352 66.1478C126.918 65.0749 129.811 66.2878 130.885 68.8534" fill="white"/>
<path d="M1.67936 103.98C1.95933 105.333 3.26584 106.219 4.61902 105.939C5.08563 105.846 5.45892 105.659 5.78555 105.379L8.30526 103C8.30526 103 8.44524 102.767 8.39858 102.627C8.39858 102.487 8.25859 102.394 8.16527 102.347L4.94565 101.134C4.52569 100.994 4.10574 100.948 3.63913 101.041C2.28596 101.321 1.39939 102.627 1.67936 103.98Z" fill="white"/>
<path d="M14.1845 109.064C14.6978 110.837 16.5642 111.817 18.3373 111.303C18.8973 111.117 19.4105 110.79 19.8305 110.37L22.8635 106.918C22.8635 106.918 23.0035 106.592 22.9568 106.452C22.9101 106.265 22.7702 106.125 22.5835 106.079L18.104 104.866C17.5441 104.726 16.9375 104.726 16.3776 104.913C14.6044 105.426 13.6246 107.292 14.1378 109.064" fill="white"/>
<path d="M28.8835 111.07C29.7701 113.216 32.1964 114.196 34.3429 113.31C35.0428 113.03 35.6494 112.563 36.0693 111.957L39.4289 107.292C39.4289 107.292 39.5689 106.872 39.4756 106.685C39.3823 106.452 39.1956 106.312 39.009 106.312L33.3163 105.379C32.6164 105.286 31.8698 105.379 31.1699 105.659C29.0235 106.545 28.0436 108.971 28.9302 111.117" fill="white"/>
<path d="M43.2084 105.146C44.2816 107.712 47.1746 108.925 49.741 107.852C50.5809 107.525 51.2808 106.966 51.7941 106.266L55.807 100.621C55.807 100.621 55.9936 100.108 55.9003 99.875C55.807 99.5951 55.5737 99.4551 55.3403 99.4085L48.4811 98.2889C47.6412 98.149 46.7547 98.2889 45.9148 98.6154C43.3484 99.6884 42.1819 102.581 43.2084 105.146Z" fill="white"/>
<path d="M172.367 103.98C172.087 105.333 170.78 106.219 169.427 105.939C168.96 105.846 168.587 105.659 168.26 105.379L165.741 103C165.741 103 165.601 102.767 165.647 102.627C165.647 102.487 165.787 102.394 165.881 102.347L169.147 101.134C169.567 100.994 169.987 100.948 170.454 101.041C171.807 101.321 172.693 102.627 172.413 103.98" fill="white"/>
<path d="M162.755 94.4637C162.568 96.283 160.935 97.6359 159.115 97.4493C158.508 97.4026 157.948 97.1694 157.482 96.8428L153.796 94.0439C153.796 94.0439 153.562 93.764 153.609 93.5774C153.609 93.3908 153.749 93.2509 153.889 93.1576L158.042 91.105C158.555 90.8718 159.162 90.7785 159.768 90.8251C161.588 91.0117 162.941 92.6444 162.755 94.4637Z" fill="white"/>
<path d="M149.923 87.0006C149.923 89.2864 148.057 91.1524 145.77 91.1524C145.024 91.1524 144.277 90.9658 143.67 90.5926L138.771 87.5604C138.771 87.5604 138.444 87.2339 138.444 87.0006C138.444 86.7674 138.584 86.5808 138.771 86.4408L143.67 83.4087C144.277 83.0355 145.024 82.8489 145.77 82.8489C148.057 82.8489 149.923 84.7148 149.923 87.0006Z" fill="white"/>
<path d="M134.431 86.9997C134.431 89.752 132.191 91.9911 129.438 91.9911C128.505 91.9911 127.665 91.7579 126.919 91.2914L121.039 87.6528C121.039 87.6528 120.666 87.2796 120.666 86.9997C120.666 86.7198 120.806 86.4866 121.039 86.3466L126.919 82.708C127.665 82.2882 128.505 82.0083 129.438 82.0083C132.191 82.0083 134.431 84.2474 134.431 86.9997Z" fill="white"/>
<path d="M1.67936 70.0201C1.39939 71.3729 2.28596 72.679 3.63913 72.9589C4.10574 73.0522 4.52569 73.0056 4.94565 72.8656L8.16527 71.6528C8.16527 71.6528 8.39858 71.5128 8.39858 71.3729C8.39858 71.2329 8.39858 71.093 8.30526 70.9997L5.78555 68.6206C5.45892 68.3407 5.08563 68.1541 4.61902 68.0608C3.26584 67.7809 1.95933 68.6672 1.67936 70.0201Z" fill="white"/>
<path d="M11.2455 79.5357C11.0588 81.355 12.412 82.9877 14.2318 83.1743C14.8384 83.2209 15.445 83.1276 15.9583 82.8944L20.1111 80.8419C20.1111 80.8419 20.3911 80.6086 20.3911 80.422C20.3911 80.2354 20.3444 80.0488 20.2044 79.9555L16.5182 77.1566C16.0516 76.8301 15.4917 76.5968 14.8851 76.5502C13.0653 76.3636 11.4321 77.7164 11.2455 79.5357Z" fill="white"/>
<path d="M24.0767 87.0006C24.0767 89.2864 25.9431 91.1524 28.2295 91.1524C28.9761 91.1524 29.7227 90.9658 30.3293 90.5926L35.2287 87.5604C35.2287 87.5604 35.5553 87.2339 35.5553 87.0006C35.5553 86.7674 35.4153 86.5808 35.2287 86.4408L30.3293 83.4087C29.7227 83.0355 28.9761 82.8489 28.2295 82.8489C25.9431 82.8489 24.0767 84.7148 24.0767 87.0006Z" fill="white"/>
<path d="M39.5688 86.9997C39.5688 89.752 41.8086 91.9911 44.5616 91.9911C45.4948 91.9911 46.3347 91.7579 47.0813 91.2914L52.9606 87.6528C52.9606 87.6528 53.3339 87.2796 53.3339 86.9997C53.3339 86.7198 53.1939 86.4866 52.9606 86.3466L47.0813 82.708C46.3347 82.2882 45.4948 82.0083 44.5616 82.0083C41.8086 82.0083 39.5688 84.2474 39.5688 86.9997Z" fill="white"/>
<path d="M159.348 135.329C158.602 136.495 157.015 136.775 155.895 136.028C155.522 135.749 155.242 135.422 155.055 135.049L153.609 131.877C153.609 131.877 153.609 131.597 153.609 131.503C153.702 131.41 153.796 131.317 153.936 131.317L157.388 131.457C157.808 131.457 158.228 131.597 158.602 131.877C159.768 132.623 160.048 134.209 159.302 135.329" fill="white"/>
<path d="M154.122 122.872C153.235 124.505 151.229 125.112 149.596 124.225C149.036 123.945 148.616 123.526 148.336 123.012L146.003 119.001C146.003 119.001 145.91 118.674 146.003 118.488C146.096 118.301 146.236 118.208 146.423 118.208L151.042 117.928C151.602 117.928 152.209 118.021 152.722 118.301C154.355 119.187 154.962 121.193 154.075 122.826" fill="white"/>
<path d="M145.116 111.07C144.23 113.216 141.803 114.196 139.657 113.31C138.957 113.03 138.35 112.563 137.931 111.957L134.571 107.292C134.571 107.292 134.431 106.872 134.524 106.685C134.618 106.452 134.804 106.312 134.991 106.312L140.684 105.379C141.383 105.286 142.13 105.379 142.83 105.659C144.976 106.545 145.956 108.971 145.07 111.117" fill="white"/>
<path d="M130.838 105.146C129.765 107.712 126.872 108.925 124.305 107.852C123.465 107.525 122.765 106.966 122.252 106.266L118.239 100.621C118.239 100.621 118.053 100.108 118.146 99.875C118.239 99.5951 118.473 99.4551 118.706 99.4085L125.518 98.2889C126.358 98.149 127.245 98.2889 128.085 98.6154C130.651 99.6884 131.818 102.581 130.791 105.146" fill="white"/>
<path d="M14.6518 38.6722C13.9052 39.8384 14.1852 41.3778 15.3517 42.1242C15.725 42.4041 16.1449 42.4974 16.5649 42.544L20.0178 42.684C20.0178 42.684 20.2511 42.6373 20.3444 42.4974C20.4378 42.4041 20.4378 42.2641 20.3444 42.1242L18.8979 38.9521C18.7113 38.5789 18.4313 38.2057 18.058 37.9725C16.8915 37.2261 15.3517 37.506 14.6051 38.6722" fill="white"/>
<path d="M19.8774 51.1264C18.9909 52.7591 19.5975 54.765 21.2306 55.6513C21.7905 55.9312 22.3505 56.0711 22.9104 56.0245L27.5299 55.7446C27.5299 55.7446 27.8565 55.6513 27.9498 55.4647C28.0431 55.3248 28.0431 55.0915 27.9498 54.9516L25.6168 50.9398C25.3368 50.4733 24.8702 50.0534 24.3569 49.7736C22.7238 48.8872 20.7173 49.4937 19.8308 51.1264" fill="white"/>
<path d="M28.8837 62.9298C27.9971 65.0757 29.0237 67.5014 31.1234 68.3877C31.8233 68.6676 32.5699 68.7609 33.2698 68.6676L38.9625 67.7346C38.9625 67.7346 39.3825 67.548 39.4291 67.3615C39.5224 67.1282 39.4758 66.895 39.3825 66.755L36.0229 62.0902C35.6029 61.5304 34.9963 61.0639 34.2964 60.784C32.15 59.8977 29.7236 60.9239 28.837 63.0231" fill="white"/>
<path d="M43.2085 68.8534C42.1353 71.4191 43.3484 74.3113 45.9148 75.3843C46.7547 75.7574 47.6413 75.8508 48.4812 75.7108L55.3404 74.5912C55.5737 74.5912 55.807 74.358 55.9003 74.1247C55.9937 73.8449 55.947 73.6116 55.807 73.3784L51.7941 67.7339C51.2809 67.0341 50.5809 66.4744 49.741 66.1478C47.1747 65.0749 44.2817 66.2878 43.2085 68.8534Z" fill="white"/>
<path d="M135.364 159.306C134.198 160.052 132.658 159.772 131.911 158.606C131.632 158.233 131.538 157.813 131.492 157.393L131.398 153.941C131.398 153.941 131.445 153.661 131.585 153.615C131.725 153.521 131.865 153.521 131.958 153.615L135.131 155.061C135.504 155.247 135.878 155.527 136.111 155.9C136.858 157.067 136.578 158.606 135.411 159.352" fill="white"/>
<path d="M135.271 145.824C133.872 146.99 131.772 146.803 130.605 145.357C130.232 144.891 129.999 144.331 129.905 143.771L129.299 139.2C129.299 139.2 129.345 138.873 129.485 138.733C129.625 138.593 129.812 138.593 129.999 138.64L134.385 140.133C134.898 140.319 135.411 140.646 135.785 141.159C136.951 142.558 136.765 144.658 135.318 145.824" fill="white"/>
<path d="M131.491 131.456C129.858 133.089 127.245 133.089 125.612 131.456C125.052 130.896 124.725 130.243 124.539 129.59L123.232 123.992C123.232 123.992 123.232 123.572 123.419 123.386C123.605 123.246 123.792 123.152 124.025 123.199L129.625 124.505C130.325 124.692 130.978 125.065 131.491 125.578C133.124 127.211 133.124 129.823 131.491 131.456Z" fill="white"/>
<path d="M120.526 120.494C118.566 122.453 115.393 122.453 113.48 120.494C112.827 119.84 112.407 119.047 112.173 118.254L110.587 111.49C110.54 111.257 110.587 110.977 110.82 110.791C111.007 110.604 111.287 110.511 111.52 110.604L118.286 112.19C119.126 112.423 119.919 112.843 120.526 113.496C122.485 115.455 122.485 118.628 120.526 120.54" fill="white"/>
<path d="M38.6823 14.6477C37.5157 15.3941 37.2358 16.9802 37.9823 18.0997C38.2156 18.4729 38.5889 18.7528 38.9622 18.9394L42.1352 20.3855C42.1352 20.3855 42.4152 20.4322 42.5085 20.3855C42.6018 20.2922 42.6951 20.1989 42.6951 20.059L42.6018 16.607C42.6018 16.1871 42.4618 15.7673 42.1818 15.3941C41.4353 14.2279 39.8488 13.948 38.7289 14.6944" fill="white"/>
<path d="M38.7289 28.1752C37.3291 29.3415 37.0958 31.4406 38.2623 32.8401C38.6356 33.3066 39.1489 33.6331 39.6621 33.8664L44.0483 35.3591C44.0483 35.3591 44.4216 35.3591 44.5616 35.2658C44.7015 35.1725 44.7482 34.986 44.7482 34.7994L44.1416 30.2278C44.0483 29.668 43.815 29.1082 43.4417 28.6417C42.2752 27.1956 40.1754 27.009 38.7756 28.1752" fill="white"/>
<path d="M42.5083 42.4969C40.8752 44.1296 40.8752 46.7419 42.5083 48.3746C43.0682 48.9344 43.7215 49.2609 44.3748 49.4475L49.9741 50.7537C49.9741 50.7537 50.3941 50.7537 50.5807 50.5671C50.7673 50.4272 50.814 50.1939 50.7673 49.9607L49.4608 44.3628C49.2742 43.6631 48.9009 43.01 48.3876 42.4969C46.7545 40.8642 44.1414 40.8642 42.5083 42.4969Z" fill="white"/>
<path d="M53.4737 53.4597C51.514 55.4189 51.514 58.591 53.4737 60.5036C54.127 61.1567 54.9202 61.5765 55.7135 61.8098L62.4794 63.3958C62.7127 63.4425 62.9926 63.3958 63.1793 63.2092C63.3659 63.0226 63.4592 62.7427 63.3659 62.5095L61.7794 55.7454C61.5461 54.9058 61.1262 54.1127 60.4729 53.5063C58.5132 51.5471 55.3402 51.5471 53.4271 53.5063" fill="white"/>
<path d="M103.962 172.321C102.608 172.601 101.302 171.714 101.022 170.361C100.929 169.895 100.975 169.475 101.115 169.055L102.328 165.837C102.328 165.837 102.468 165.603 102.608 165.603C102.748 165.603 102.888 165.603 102.982 165.743L105.361 168.262C105.641 168.589 105.875 168.962 105.921 169.428C106.201 170.781 105.315 172.087 103.962 172.367" fill="white"/>
<path d="M109.094 159.818C107.321 160.332 105.454 159.352 104.941 157.579C104.754 157.02 104.754 156.413 104.894 155.853L106.108 151.375C106.108 151.375 106.294 151.048 106.481 151.002C106.668 150.955 106.854 151.002 106.948 151.095L110.4 154.127C110.82 154.5 111.147 155.014 111.334 155.62C111.847 157.393 110.867 159.259 109.094 159.772" fill="white"/>
<path d="M111.101 145.077C109.001 145.964 106.528 144.938 105.688 142.838C105.408 142.139 105.315 141.392 105.408 140.693L106.341 135.001C106.341 135.001 106.528 134.582 106.715 134.488C106.948 134.395 107.181 134.442 107.321 134.535L112.034 137.894C112.594 138.313 113.06 138.92 113.34 139.62C114.227 141.765 113.2 144.191 111.101 145.077Z" fill="white"/>
<path d="M105.175 130.803C102.608 131.876 99.7153 130.663 98.6421 128.098C98.2688 127.258 98.1755 126.372 98.3154 125.532L99.4353 118.675C99.4353 118.441 99.6686 118.208 99.9019 118.115C100.182 118.022 100.415 118.068 100.649 118.208L106.295 122.267C106.994 122.78 107.554 123.479 107.881 124.319C108.954 126.885 107.741 129.777 105.175 130.85" fill="white"/>
<path d="M70.0385 1.67825C68.6854 1.95814 67.7988 3.2643 68.0788 4.61712C68.1721 5.0836 68.3587 5.45679 68.6387 5.78334L71.0184 8.30237C71.0184 8.30237 71.2517 8.44231 71.3917 8.39566C71.5317 8.39566 71.625 8.25572 71.6717 8.16242L72.8849 4.94366C73.0249 4.52382 73.0715 4.10398 72.9782 3.63749C72.6982 2.28468 71.3917 1.39835 70.0385 1.67825Z" fill="white"/>
<path d="M64.9061 14.181C63.133 14.6942 62.1531 16.5601 62.6664 18.3328C62.853 18.8925 63.1797 19.4057 63.5996 19.8255L67.0525 22.8577C67.0525 22.8577 67.3792 22.9976 67.5192 22.951C67.7058 22.9043 67.8458 22.7644 67.8925 22.5778L69.1056 18.0995C69.2456 17.5397 69.2456 16.9333 69.059 16.3735C68.5457 14.6009 66.6793 13.6212 64.9061 14.1344" fill="white"/>
<path d="M62.9463 28.8758C60.7998 29.7622 59.82 32.1879 60.7065 34.3337C60.9865 35.0335 61.4531 35.6399 62.013 36.0597L66.7258 39.4185C66.7258 39.4185 67.1458 39.5584 67.3324 39.4651C67.5657 39.3718 67.7057 39.1852 67.7057 38.9986L68.6389 33.3075C68.7323 32.6077 68.6389 31.8614 68.359 31.1616C67.4724 29.0158 65.046 28.0362 62.9463 28.9225" fill="white"/>
<path d="M120.292 6.624C121.552 7.13713 122.159 8.62989 121.646 9.88941C121.459 10.3092 121.179 10.6824 120.852 10.9157L118.053 12.9216C118.053 12.9216 117.819 13.0149 117.679 12.9216C117.539 12.8749 117.446 12.735 117.446 12.6417L116.886 9.23632C116.84 8.81648 116.886 8.35 117.073 7.93016C117.586 6.67064 119.079 6.06421 120.339 6.57735" fill="white"/>
<path d="M109.094 14.181C110.867 14.6942 111.847 16.5601 111.334 18.3328C111.147 18.8925 110.82 19.4057 110.4 19.8255L106.948 22.8577C106.948 22.8577 106.621 22.9976 106.481 22.951C106.294 22.9043 106.154 22.7644 106.108 22.5778L104.894 18.0995C104.754 17.5397 104.754 16.9333 104.941 16.3735C105.454 14.6009 107.321 13.6212 109.094 14.1344" fill="white"/>
<path d="M99.2956 25.2837C101.535 25.7502 103.028 27.9427 102.562 30.1818C102.422 30.9282 102.049 31.5813 101.582 32.1411L97.6157 36.3395C97.6157 36.3395 97.2425 36.5727 97.0092 36.5261C96.7758 36.5261 96.5892 36.3395 96.5425 36.1062L94.5361 30.695C94.3028 30.0419 94.2561 29.2955 94.3961 28.5491C94.8627 26.31 97.0558 24.8172 99.2956 25.2837Z" fill="white"/>
<path d="M53.7068 167.375C54.9666 167.888 56.4598 167.282 56.9731 166.022C57.1597 165.603 57.2064 165.136 57.1597 164.716L56.5998 161.311C56.5998 161.311 56.5065 161.078 56.3665 161.031C56.2265 160.984 56.0865 161.031 55.9932 161.031L53.1935 163.037C52.8669 163.317 52.5869 163.643 52.4003 164.063C51.887 165.323 52.4936 166.815 53.7534 167.329" fill="white"/>
<path d="M64.9061 159.818C66.6793 160.332 68.5457 159.352 69.059 157.579C69.2456 157.02 69.2456 156.413 69.1056 155.853L67.8925 151.375C67.8925 151.375 67.7058 151.048 67.5192 151.002C67.3325 150.955 67.1459 151.002 67.0525 151.095L63.5996 154.127C63.1797 154.5 62.853 155.014 62.6664 155.62C62.1531 157.393 63.133 159.259 64.9061 159.772" fill="white"/>
<path d="M74.7512 148.669C76.9909 149.136 79.184 147.643 79.6506 145.404C79.7906 144.658 79.744 143.911 79.5106 143.258L77.5042 137.847C77.5042 137.847 77.2709 137.474 77.0376 137.427C76.8043 137.38 76.571 137.427 76.431 137.614L72.4648 141.812C71.9982 142.325 71.6716 143.025 71.4849 143.771C71.0183 146.01 72.5115 148.203 74.7512 148.669Z" fill="white"/>
<path d="M148.523 25.4705C149.503 26.4502 149.503 28.0362 148.523 29.0158C148.196 29.3424 147.823 29.5756 147.403 29.6689L144.043 30.462C144.043 30.462 143.763 30.462 143.67 30.3687C143.577 30.2754 143.53 30.1354 143.577 29.9955L144.37 26.6368C144.463 26.2169 144.697 25.8437 145.023 25.5172C146.003 24.5376 147.59 24.5376 148.569 25.5172" fill="white"/>
<path d="M135.271 28.1752C136.671 29.3415 136.904 31.4406 135.738 32.8401C135.364 33.3066 134.851 33.6331 134.338 33.8664L129.952 35.3591C129.952 35.3591 129.625 35.3591 129.438 35.2658C129.298 35.1725 129.252 34.986 129.252 34.7994L129.858 30.2278C129.952 29.668 130.185 29.1082 130.558 28.6417C131.725 27.1956 133.825 27.009 135.224 28.1752" fill="white"/>
<path d="M121.973 34.707C123.886 35.9665 124.399 38.5788 123.139 40.4914C122.719 41.1445 122.159 41.611 121.506 41.9376L116.233 44.3166C116.233 44.3166 115.813 44.4099 115.627 44.27C115.44 44.13 115.347 43.9435 115.347 43.7102L115.533 37.9258C115.533 37.226 115.813 36.4797 116.233 35.8732C117.493 33.9606 120.106 33.4475 122.019 34.707" fill="white"/>
<path d="M25.4773 148.483C26.4572 149.462 28.0437 149.462 29.0236 148.483C29.3502 148.156 29.5835 147.783 29.6768 147.363L30.4701 144.004C30.4701 144.004 30.4701 143.725 30.3767 143.631C30.2834 143.538 30.1434 143.491 30.0035 143.538L26.6439 144.331C26.2239 144.424 25.8506 144.658 25.524 144.984C24.5441 145.964 24.5441 147.55 25.524 148.529" fill="white"/>
<path d="M38.729 145.824C40.1288 146.99 42.2286 146.803 43.3951 145.357C43.7684 144.891 44.0017 144.331 44.095 143.771L44.7016 139.2C44.7016 139.2 44.655 138.873 44.515 138.733C44.375 138.593 44.1884 138.593 44.0017 138.64L39.6156 140.133C39.1023 140.319 38.589 140.646 38.2157 141.159C37.0492 142.558 37.2358 144.658 38.6823 145.824" fill="white"/>
<path d="M52.0741 139.293C53.9872 140.553 56.5536 140.039 57.8601 138.127C58.2801 137.474 58.5134 136.774 58.56 136.074L58.7467 130.29C58.7467 130.29 58.6534 129.87 58.4667 129.73C58.2801 129.59 58.0468 129.59 57.8601 129.683L52.5874 132.063C51.9341 132.389 51.3742 132.856 50.9543 133.509C49.6944 135.421 50.2077 137.987 52.1208 139.293" fill="white"/>
<path d="M167.421 53.6927C167.934 54.9522 167.328 56.445 166.068 56.9581C165.648 57.1447 165.181 57.1914 164.761 57.1447L161.355 56.5849C161.355 56.5849 161.122 56.4916 161.075 56.3517C161.028 56.2117 161.075 56.0718 161.075 55.9785L163.081 53.1796C163.315 52.853 163.688 52.5731 164.108 52.3866C165.368 51.8734 166.861 52.4798 167.374 53.7394" fill="white"/>
<path d="M154.122 51.1264C155.009 52.7591 154.402 54.765 152.769 55.6513C152.209 55.9312 151.649 56.0711 151.089 56.0245L146.47 55.7446C146.47 55.7446 146.143 55.6513 146.05 55.4647C145.956 55.3248 145.956 55.0915 146.05 54.9516L148.336 50.9398C148.616 50.4733 149.083 50.0534 149.596 49.7736C151.229 48.8872 153.236 49.4937 154.122 51.1264Z" fill="white"/>
<path d="M139.331 52.0606C140.59 53.9732 140.077 56.5389 138.164 57.845C137.511 58.2649 136.811 58.4981 136.111 58.5448L130.325 58.7314C130.325 58.7314 129.905 58.6381 129.765 58.4515C129.625 58.2649 129.625 58.0316 129.718 57.845L132.098 52.5737C132.425 51.9206 132.891 51.3609 133.545 50.941C135.458 49.6815 138.024 50.1946 139.331 52.1072" fill="white"/>
<path d="M6.6254 120.261C7.13867 121.52 8.63183 122.127 9.89169 121.613C10.3116 121.427 10.6849 121.147 10.9182 120.82L12.9247 118.021C12.9247 118.021 13.018 117.788 12.9247 117.648C12.878 117.508 12.738 117.462 12.6447 117.415L9.23843 116.855C8.81848 116.809 8.35187 116.855 7.93192 117.042C6.67206 117.555 6.06547 119.048 6.57874 120.307" fill="white"/>
<path d="M19.8776 122.872C20.7642 124.505 22.7706 125.112 24.4038 124.225C24.9637 123.945 25.3837 123.526 25.6636 123.012L27.9967 119.001C27.9967 119.001 28.09 118.674 27.9967 118.488C27.9034 118.301 27.7634 118.208 27.5767 118.208L22.9573 117.928C22.3974 117.928 21.7908 118.021 21.2775 118.301C19.6443 119.187 19.0377 121.193 19.9243 122.826" fill="white"/>
<path d="M34.716 121.939C35.9758 123.852 38.5889 124.365 40.502 123.106C41.1552 122.686 41.6218 122.126 41.9485 121.473L44.3282 116.202C44.3282 116.202 44.4215 115.782 44.2815 115.595C44.1416 115.409 43.9549 115.315 43.7216 115.315L37.9356 115.502C37.2357 115.502 36.5358 115.782 35.8825 116.202C33.9694 117.461 33.4561 120.073 34.716 121.986" fill="white"/>
<path d="M174 87.0001C174 88.3996 172.88 89.4725 171.48 89.4725C171.014 89.4725 170.594 89.3325 170.22 89.1459L167.281 87.3266C167.281 87.3266 167.094 87.14 167.094 87.0001C167.094 86.8601 167.187 86.7202 167.281 86.6735L170.22 84.8542C170.594 84.621 171.014 84.5277 171.48 84.5277C172.88 84.5277 174 85.6473 174 87.0467" fill="white"/>
<path d="M162.754 79.5357C162.941 81.355 161.588 82.9877 159.768 83.1743C159.162 83.2209 158.555 83.1276 158.042 82.8944L153.889 80.8419C153.889 80.8419 153.609 80.6086 153.609 80.422C153.609 80.2354 153.656 80.0488 153.796 79.9555L157.482 77.1566C157.948 76.8301 158.508 76.5968 159.115 76.5502C160.935 76.3636 162.568 77.7164 162.754 79.5357Z" fill="white"/>
<path d="M148.709 74.7308C149.176 76.9699 147.683 79.1624 145.443 79.6289C144.697 79.7688 143.95 79.7222 143.297 79.4889L137.884 77.483C137.884 77.483 137.511 77.2498 137.464 77.0166C137.417 76.7833 137.464 76.5501 137.651 76.4101L141.85 72.445C142.364 71.9785 143.063 71.6519 143.81 71.4654C146.05 70.9989 148.243 72.4916 148.709 74.7308Z" fill="white"/>
<path d="M0 87.0001C0 88.3996 1.11987 89.4725 2.51971 89.4725C2.98632 89.4725 3.40627 89.3325 3.77956 89.1459L6.71922 87.3266C6.71922 87.3266 6.90586 87.14 6.90586 87.0001C6.90586 86.8601 6.81254 86.7202 6.71922 86.6735L3.77956 84.8542C3.40627 84.621 2.98632 84.5277 2.51971 84.5277C1.16653 84.5277 0 85.6473 0 87.0467" fill="white"/>
<path d="M11.2455 94.4637C11.4321 96.283 13.0653 97.6359 14.8851 97.4493C15.4917 97.4026 16.0516 97.1694 16.5182 96.8428L20.2044 94.0439C20.2044 94.0439 20.4378 93.764 20.3911 93.5774C20.3911 93.3908 20.2511 93.2509 20.1111 93.1576L15.9583 91.105C15.445 90.8718 14.8384 90.7785 14.2318 90.8251C12.412 91.0117 11.0588 92.6444 11.2455 94.4637Z" fill="white"/>
<path d="M25.2903 99.2679C25.7569 101.507 27.95 103 30.1898 102.533C30.9363 102.393 31.5896 102.02 32.1495 101.554L36.349 97.5885C36.349 97.5885 36.5823 97.2153 36.5357 96.9821C36.5357 96.7488 36.349 96.5622 36.1157 96.5156L30.703 94.463C30.0498 94.2298 29.3032 94.1832 28.5566 94.3231C26.3169 94.7896 24.8237 96.9821 25.2903 99.2212" fill="white"/>
<path d="M167.421 120.261C166.907 121.52 165.414 122.127 164.154 121.613C163.734 121.427 163.361 121.147 163.128 120.82L161.121 118.021C161.121 118.021 161.028 117.788 161.121 117.648C161.168 117.508 161.308 117.462 161.401 117.415L164.808 116.855C165.228 116.809 165.694 116.855 166.114 117.042C167.374 117.555 167.981 119.048 167.467 120.307" fill="white"/>
<path d="M159.861 109.064C159.348 110.837 157.482 111.817 155.709 111.303C155.149 111.117 154.635 110.79 154.215 110.37L151.182 106.918C151.182 106.918 151.042 106.592 151.089 106.452C151.136 106.265 151.276 106.125 151.462 106.079L155.942 104.866C156.502 104.726 157.108 104.726 157.668 104.913C159.441 105.426 160.421 107.292 159.908 109.064" fill="white"/>
<path d="M148.71 99.2679C148.243 101.507 146.05 103 143.81 102.533C143.064 102.393 142.41 102.02 141.85 101.554L137.651 97.5885C137.651 97.5885 137.418 97.2153 137.464 96.9821C137.464 96.7488 137.651 96.5622 137.884 96.5156L143.297 94.463C143.95 94.2298 144.697 94.1832 145.443 94.3231C147.683 94.7896 149.176 96.9821 148.71 99.2212" fill="white"/>
<path d="M6.62561 53.6927C6.11234 54.9522 6.71894 56.445 7.97879 56.9581C8.39874 57.1447 8.86535 57.1914 9.28531 57.1447L12.6916 56.5849C12.6916 56.5849 12.9249 56.4916 12.9715 56.3517C13.0182 56.2117 12.9715 56.0718 12.9715 55.9785L10.9651 53.1796C10.6851 52.853 10.3585 52.5731 9.93857 52.3866C8.67871 51.8734 7.18555 52.4798 6.67228 53.7394" fill="white"/>
<path d="M14.1849 64.8879C13.6717 66.6605 14.6516 68.5265 16.4247 69.0396C16.9846 69.2262 17.5912 69.2262 18.1511 69.0863L22.6306 67.8734C22.6306 67.8734 22.9573 67.6868 23.0039 67.5469C23.0506 67.3603 23.0039 67.1737 22.9106 67.0804L19.8776 63.6284C19.5043 63.2085 18.9911 62.882 18.3845 62.6954C16.6113 62.1823 14.7449 63.1619 14.2316 64.9345" fill="white"/>
<path d="M25.2903 74.7308C24.8237 76.9699 26.3169 79.1624 28.5566 79.6289C29.3032 79.7688 30.0498 79.7222 30.703 79.4889L36.1157 77.483C36.1157 77.483 36.489 77.2498 36.5357 77.0166C36.5823 76.7833 36.5357 76.5501 36.349 76.4101L32.1495 72.445C31.6363 71.9785 30.9363 71.6519 30.1898 71.4654C27.95 70.9989 25.7569 72.4916 25.2903 74.7308Z" fill="white"/>
<path d="M148.523 148.483C147.543 149.462 145.956 149.462 144.976 148.483C144.65 148.156 144.416 147.783 144.323 147.363L143.53 144.004C143.53 144.004 143.53 143.725 143.623 143.631C143.716 143.538 143.856 143.491 143.996 143.538L147.356 144.331C147.776 144.424 148.149 144.658 148.476 144.984C149.456 145.964 149.456 147.55 148.476 148.529" fill="white"/>
<path d="M145.864 135.282C144.697 136.728 142.597 136.914 141.197 135.748C140.731 135.375 140.404 134.862 140.171 134.349L138.678 129.964C138.678 129.964 138.678 129.637 138.771 129.451C138.864 129.311 139.051 129.264 139.238 129.264L143.81 129.87C144.37 129.964 144.93 130.197 145.397 130.57C146.843 131.736 147.03 133.836 145.864 135.235" fill="white"/>
<path d="M139.33 121.939C138.071 123.852 135.458 124.365 133.544 123.106C132.891 122.686 132.425 122.126 132.098 121.473L129.718 116.202C129.718 116.202 129.625 115.782 129.765 115.595C129.905 115.409 130.092 115.315 130.325 115.315L136.111 115.502C136.811 115.502 137.511 115.782 138.164 116.202C140.077 117.461 140.59 120.073 139.33 121.986" fill="white"/>
<path d="M25.4771 25.4705C24.4972 26.4502 24.4972 28.0362 25.4771 29.0158C25.8037 29.3424 26.177 29.5756 26.597 29.6689L29.9566 30.462C29.9566 30.462 30.2365 30.462 30.3299 30.3687C30.4232 30.2754 30.4699 30.1354 30.4232 29.9955L29.63 26.6368C29.5366 26.2169 29.3033 25.8437 28.9767 25.5172C27.9968 24.5376 26.4103 24.5376 25.4304 25.5172" fill="white"/>
<path d="M28.1833 38.7183C27.0167 40.1644 27.2034 42.2169 28.6499 43.3832C29.1165 43.7563 29.6764 43.9896 30.2363 44.0829L34.8092 44.6893C34.8092 44.6893 35.1358 44.6427 35.2758 44.5027C35.4157 44.3628 35.4157 44.1762 35.3691 43.9896L33.8759 39.6046C33.6893 39.0915 33.3627 38.5783 32.8494 38.2051C31.4495 37.0389 29.3498 37.2255 28.1833 38.6716" fill="white"/>
<path d="M34.716 52.0606C33.4561 53.9732 33.9694 56.5389 35.8825 57.845C36.5358 58.2649 37.2357 58.4981 37.9356 58.5448L43.7216 58.7314C43.7216 58.7314 44.1416 58.6381 44.2815 58.4515C44.4215 58.2649 44.4215 58.0316 44.3282 57.845L41.9485 52.5737C41.6218 51.9206 41.1552 51.3609 40.502 50.941C38.5889 49.6815 36.0225 50.1946 34.716 52.1072" fill="white"/>
<path d="M120.293 167.375C119.033 167.888 117.54 167.282 117.027 166.022C116.84 165.603 116.793 165.136 116.84 164.716L117.4 161.311C117.4 161.311 117.493 161.078 117.633 161.031C117.773 160.984 117.913 161.031 118.007 161.031L120.806 163.037C121.133 163.317 121.413 163.643 121.6 164.063C122.113 165.323 121.506 166.815 120.246 167.329" fill="white"/>
<path d="M122.906 154.081C121.273 154.967 119.267 154.361 118.38 152.728C118.1 152.168 117.96 151.609 118.007 151.049L118.287 146.43C118.287 146.43 118.38 146.104 118.567 146.011C118.707 145.917 118.94 145.917 119.08 146.011L123.093 148.343C123.56 148.623 123.98 149.089 124.306 149.603C125.193 151.235 124.539 153.241 122.953 154.128" fill="white"/>
<path d="M121.972 139.293C120.059 140.553 117.493 140.039 116.186 138.127C115.766 137.474 115.533 136.774 115.486 136.074L115.3 130.29C115.3 130.29 115.393 129.87 115.58 129.73C115.766 129.59 116 129.59 116.186 129.683L121.459 132.063C122.112 132.389 122.672 132.856 123.092 133.509C124.352 135.421 123.839 137.987 121.926 139.293" fill="white"/>
<path d="M53.7073 6.624C52.4474 7.13713 51.8409 8.62989 52.3541 9.88941C52.5408 10.3092 52.8207 10.6824 53.1474 10.9157L55.947 12.9216C55.947 12.9216 56.1803 13.0149 56.3203 12.9216C56.4603 12.8749 56.507 12.735 56.5536 12.6417L57.1136 9.23632C57.1602 8.81648 57.1136 8.35 56.9269 7.93016C56.4137 6.67064 54.9205 6.06421 53.6606 6.57735" fill="white"/>
<path d="M51.1403 19.8723C49.5071 20.7586 48.9005 22.7645 49.7871 24.3972C50.0671 24.9104 50.487 25.3769 51.0003 25.6568L55.0132 27.9425C55.0132 27.9425 55.3398 28.0358 55.5264 27.9425C55.7131 27.8492 55.8064 27.7093 55.8064 27.5227L56.0864 22.9045C56.0864 22.3447 55.993 21.7383 55.7131 21.2251C54.8265 19.5924 52.8201 18.986 51.1869 19.8723" fill="white"/>
<path d="M52.0742 34.707C50.161 35.9665 49.6478 38.5788 50.9076 40.4914C51.3276 41.1445 51.8875 41.611 52.5408 41.9376L57.8135 44.3166C57.8135 44.3166 58.2334 44.4099 58.4201 44.27C58.6067 44.13 58.7001 43.9435 58.7001 43.7102L58.5134 37.9258C58.5134 37.226 58.2335 36.4797 57.8135 35.8732C56.5536 33.9606 53.9406 33.4475 52.0275 34.707" fill="white"/>
<path d="M87.0231 174C85.6233 174 84.5034 172.88 84.5034 171.528C84.5034 171.061 84.6434 170.641 84.83 170.268L86.6498 167.329C86.6498 167.329 86.8365 167.143 86.9765 167.143C87.1165 167.143 87.2564 167.236 87.3031 167.329L89.1229 170.268C89.3562 170.641 89.4495 171.061 89.4495 171.528C89.4495 172.88 88.3296 174 86.9298 174" fill="white"/>
<path d="M94.4888 162.711C92.669 162.897 91.0359 161.545 90.8493 159.725C90.8026 159.119 90.8493 158.512 91.1292 157.999L93.1823 153.848C93.1823 153.848 93.4156 153.568 93.6023 153.568C93.7889 153.568 93.9756 153.614 94.0689 153.754L96.8686 157.439C97.1952 157.906 97.4285 158.466 97.4752 159.072C97.6618 160.891 96.3086 162.524 94.4888 162.711Z" fill="white"/>
<path d="M99.2956 148.669C97.0558 149.136 94.8627 147.643 94.3961 145.404C94.2561 144.658 94.3028 143.911 94.5361 143.258L96.5425 137.847C96.5425 137.847 96.7758 137.474 97.0092 137.427C97.2425 137.38 97.4758 137.427 97.6157 137.614L101.582 141.812C102.049 142.325 102.375 143.025 102.562 143.771C103.028 146.01 101.535 148.203 99.2956 148.669Z" fill="white"/>
<path d="M87.0231 0C85.6233 0 84.5034 1.11957 84.5034 2.51903C84.5034 2.98552 84.6434 3.40536 84.83 3.77855L86.6498 6.71742C86.6498 6.71742 86.8365 6.90401 86.9765 6.90401C87.1165 6.90401 87.2564 6.81071 87.3031 6.71742L89.1229 3.77855C89.3562 3.40536 89.4495 2.98552 89.4495 2.51903C89.4495 1.11957 88.3296 0 86.9298 0" fill="white"/>
<path d="M79.5575 11.2423C77.7377 11.4289 76.3845 13.0616 76.5712 14.8809C76.6178 15.4873 76.8511 16.0471 77.1778 16.5136L79.9774 20.1989C79.9774 20.1989 80.2574 20.4321 80.4441 20.3855C80.6307 20.3855 80.7707 20.2455 80.864 20.1056L82.9171 15.9538C83.1504 15.4407 83.2437 14.8343 83.1971 14.2278C83.0104 12.4085 81.3773 11.0557 79.5575 11.2423Z" fill="white"/>
<path d="M74.7512 25.2837C72.5115 25.7502 71.0183 27.9427 71.4849 30.1818C71.6249 30.9282 71.9982 31.5813 72.4648 32.1411L76.431 36.3395C76.431 36.3395 76.8043 36.5727 77.0376 36.5261C77.2709 36.5261 77.4576 36.3395 77.5042 36.1062L79.5106 30.695C79.744 30.0419 79.7906 29.2955 79.6506 28.5491C79.184 26.31 76.9909 24.8172 74.7512 25.2837Z" fill="white"/>
<path d="M68.8718 43.1966C66.3055 44.2695 65.0923 47.1618 66.1655 49.7274C66.4921 50.5671 67.0987 51.2669 67.752 51.78L73.398 55.7918C73.398 55.7918 73.9113 55.9784 74.1446 55.8851C74.3779 55.7918 74.5645 55.5585 74.6112 55.3253L75.7311 48.5146C75.871 47.6749 75.7311 46.7886 75.4044 45.9489C74.3312 43.3832 71.4382 42.1704 68.8718 43.2433" fill="white"/>
</g>
<g opacity="0.4">
<path d="M287.663 217.927C288.409 218.081 288.899 218.802 288.744 219.548C288.693 219.806 288.59 220.011 288.435 220.192L287.122 221.581C287.122 221.581 286.993 221.659 286.916 221.633C286.839 221.633 286.788 221.556 286.762 221.504L286.092 219.728C286.015 219.497 285.989 219.265 286.041 219.008C286.195 218.261 286.916 217.772 287.663 217.927Z" fill="white"/>
<path d="M282.437 223.202C283.441 223.305 284.188 224.206 284.085 225.209C284.059 225.544 283.93 225.853 283.75 226.11L282.206 228.143C282.206 228.143 282.051 228.272 281.948 228.246C281.845 228.246 281.768 228.169 281.716 228.092L280.584 225.801C280.455 225.518 280.404 225.184 280.429 224.849C280.532 223.845 281.433 223.099 282.437 223.202Z" fill="white"/>
<path d="M278.318 230.28C279.58 230.28 280.609 231.31 280.609 232.571C280.609 232.983 280.506 233.395 280.3 233.729L278.627 236.432C278.627 236.432 278.447 236.586 278.318 236.586C278.189 236.586 278.086 236.509 278.009 236.432L276.336 233.729C276.13 233.395 276.027 233.009 276.027 232.571C276.027 231.31 277.057 230.28 278.318 230.28Z" fill="white"/>
<path d="M278.318 238.825C279.837 238.825 281.073 240.061 281.073 241.579C281.073 242.094 280.944 242.557 280.687 242.969L278.679 246.212C278.679 246.212 278.473 246.418 278.318 246.418C278.164 246.418 278.035 246.341 277.958 246.212L275.95 242.969C275.718 242.557 275.563 242.094 275.563 241.579C275.563 240.061 276.799 238.825 278.318 238.825Z" fill="white"/>
<path d="M268.947 312.074C269.694 312.229 270.415 311.74 270.569 310.993C270.621 310.736 270.595 310.504 270.518 310.273L269.848 308.497C269.848 308.497 269.771 308.368 269.694 308.368C269.617 308.368 269.539 308.368 269.488 308.445L268.175 309.835C268.02 310.015 267.892 310.221 267.866 310.479C267.711 311.225 268.201 311.946 268.947 312.1" fill="white"/>
<path d="M274.199 306.772C275.203 306.875 276.104 306.128 276.207 305.125C276.233 304.79 276.207 304.455 276.053 304.172L274.92 301.882C274.92 301.882 274.791 301.727 274.688 301.727C274.585 301.727 274.482 301.753 274.431 301.83L272.886 303.863C272.706 304.121 272.577 304.43 272.551 304.764C272.449 305.768 273.195 306.669 274.199 306.772Z" fill="white"/>
<path d="M278.318 299.694C279.58 299.694 280.609 298.665 280.609 297.404C280.609 296.992 280.506 296.58 280.3 296.246L278.627 293.543C278.627 293.543 278.447 293.363 278.318 293.363C278.189 293.363 278.086 293.44 278.009 293.543L276.336 296.246C276.13 296.58 276.027 296.992 276.027 297.404C276.027 298.665 277.057 299.694 278.318 299.694Z" fill="white"/>
<path d="M278.318 291.149C279.837 291.149 281.073 289.913 281.073 288.395C281.073 287.88 280.944 287.417 280.687 287.005L278.679 283.762C278.679 283.762 278.473 283.556 278.318 283.556C278.164 283.556 278.035 283.633 277.958 283.762L275.95 287.005C275.718 287.417 275.563 287.88 275.563 288.395C275.563 289.913 276.799 291.149 278.318 291.149Z" fill="white"/>
<path d="M304.989 225.081C305.633 225.493 305.787 226.368 305.375 226.985C305.246 227.191 305.04 227.346 304.834 227.449L303.084 228.247C303.084 228.247 302.929 228.272 302.878 228.247C302.826 228.195 302.775 228.144 302.775 228.066L302.826 226.162C302.826 225.93 302.904 225.699 303.058 225.493C303.47 224.849 304.345 224.695 304.963 225.107" fill="white"/>
<path d="M298.115 227.965C299.016 228.454 299.351 229.56 298.862 230.461C298.707 230.744 298.476 231.002 298.192 231.156L295.978 232.417C295.978 232.417 295.798 232.469 295.695 232.417C295.592 232.366 295.541 232.289 295.541 232.186L295.386 229.638C295.386 229.329 295.438 228.994 295.592 228.711C296.081 227.81 297.188 227.476 298.089 227.965" fill="white"/>
<path d="M291.602 232.931C292.786 233.42 293.327 234.758 292.838 235.942C292.683 236.328 292.426 236.663 292.117 236.894L289.517 238.748C289.517 238.748 289.285 238.825 289.182 238.773C289.053 238.722 288.976 238.619 288.976 238.516L288.461 235.376C288.41 234.99 288.461 234.578 288.616 234.192C289.105 233.008 290.444 232.468 291.602 232.957" fill="white"/>
<path d="M288.333 240.833C289.749 241.425 290.392 243.02 289.826 244.436C289.646 244.899 289.311 245.285 288.951 245.568L285.836 247.782C285.836 247.782 285.578 247.885 285.424 247.833C285.295 247.782 285.192 247.653 285.166 247.524L284.548 243.767C284.471 243.303 284.548 242.814 284.729 242.351C285.321 240.936 286.917 240.266 288.333 240.858" fill="white"/>
<path d="M251.647 304.893C252.29 305.305 253.14 305.15 253.552 304.507C253.706 304.301 253.758 304.069 253.784 303.838L253.835 301.933C253.835 301.933 253.809 301.779 253.732 301.753C253.655 301.701 253.578 301.701 253.526 301.753L251.776 302.551C251.57 302.654 251.364 302.808 251.235 303.014C250.823 303.657 250.977 304.507 251.621 304.919" fill="white"/>
<path d="M258.521 302.011C259.422 302.5 260.529 302.165 261.018 301.264C261.172 300.956 261.249 300.647 261.224 300.338L261.069 297.79C261.069 297.79 261.018 297.61 260.915 297.558C260.838 297.507 260.709 297.507 260.632 297.558L258.418 298.845C258.16 299 257.929 299.257 257.748 299.54C257.259 300.441 257.62 301.548 258.495 302.037" fill="white"/>
<path d="M265.034 297.043C266.193 297.532 267.557 296.966 268.02 295.808C268.175 295.422 268.226 295.01 268.175 294.624L267.66 291.484C267.66 291.484 267.557 291.252 267.454 291.201C267.325 291.149 267.222 291.175 267.119 291.227L264.519 293.08C264.21 293.311 263.953 293.646 263.798 294.032C263.309 295.216 263.876 296.554 265.034 297.043Z" fill="white"/>
<path d="M268.304 289.167C269.72 289.759 271.316 289.09 271.908 287.674C272.114 287.211 272.166 286.722 272.088 286.259L271.471 282.476C271.471 282.347 271.342 282.218 271.213 282.167C271.084 282.115 270.93 282.141 270.801 282.218L267.686 284.457C267.3 284.74 266.991 285.126 266.811 285.59C266.219 287.005 266.888 288.601 268.304 289.193" fill="white"/>
<path d="M318.221 238.337C318.633 238.98 318.479 239.83 317.835 240.242C317.629 240.396 317.398 240.447 317.166 240.473L315.261 240.55C315.261 240.55 315.132 240.525 315.081 240.447C315.029 240.396 315.029 240.319 315.081 240.242L315.879 238.491C315.982 238.285 316.136 238.08 316.342 237.951C316.986 237.539 317.835 237.694 318.247 238.337" fill="white"/>
<path d="M310.781 238.362C311.425 239.16 311.322 240.292 310.524 240.936C310.266 241.141 309.958 241.27 309.649 241.322L307.126 241.656C307.126 241.656 306.945 241.63 306.868 241.553C306.817 241.476 306.791 241.373 306.817 241.27L307.641 238.851C307.744 238.568 307.924 238.285 308.207 238.079C308.979 237.435 310.138 237.538 310.781 238.336" fill="white"/>
<path d="M302.852 240.446C303.753 241.347 303.753 242.788 302.852 243.689C302.543 243.998 302.183 244.178 301.822 244.281L298.733 245.002C298.733 245.002 298.501 245.002 298.398 244.899C298.295 244.822 298.27 244.693 298.295 244.564L299.016 241.476C299.119 241.09 299.325 240.729 299.608 240.446C300.509 239.546 301.951 239.546 302.852 240.446Z" fill="white"/>
<path d="M296.803 246.495C297.884 247.576 297.884 249.326 296.803 250.382C296.442 250.742 296.004 250.973 295.567 251.102L291.834 251.977C291.705 252.003 291.551 251.977 291.448 251.874C291.345 251.771 291.293 251.617 291.319 251.488L292.194 247.756C292.323 247.293 292.555 246.856 292.915 246.521C293.996 245.44 295.747 245.44 296.803 246.521" fill="white"/>
<path d="M238.389 291.665C238.801 292.308 239.676 292.463 240.294 292.051C240.5 291.896 240.654 291.716 240.757 291.51L241.555 289.76C241.555 289.76 241.555 289.606 241.555 289.554C241.504 289.503 241.452 289.451 241.375 289.451L239.47 289.529C239.238 289.529 239.007 289.606 238.801 289.76C238.157 290.172 238.003 291.047 238.415 291.665" fill="white"/>
<path d="M245.854 291.64C246.498 292.438 247.656 292.541 248.428 291.897C248.686 291.691 248.866 291.408 248.995 291.125L249.819 288.706C249.819 288.706 249.819 288.526 249.767 288.423C249.716 288.346 249.613 288.32 249.51 288.32L246.987 288.654C246.678 288.706 246.369 288.835 246.111 289.04C245.339 289.684 245.21 290.842 245.854 291.614" fill="white"/>
<path d="M253.758 289.528C254.659 290.429 256.101 290.429 257.002 289.528C257.311 289.219 257.491 288.859 257.594 288.499L258.315 285.41C258.315 285.41 258.315 285.179 258.212 285.076C258.109 284.998 258.006 284.947 257.877 284.973L254.788 285.693C254.401 285.796 254.041 286.002 253.758 286.285C252.857 287.186 252.857 288.627 253.758 289.528Z" fill="white"/>
<path d="M259.808 283.48C260.889 284.561 262.64 284.561 263.696 283.48C264.056 283.12 264.288 282.682 264.416 282.245L265.292 278.513C265.317 278.384 265.292 278.23 265.189 278.127C265.086 278.024 264.931 277.972 264.803 278.024L261.07 278.899C260.606 279.027 260.169 279.259 259.834 279.619C258.753 280.7 258.753 282.45 259.834 283.506" fill="white"/>
<path d="M325.404 255.632C325.559 256.378 325.07 257.099 324.323 257.253C324.066 257.305 323.834 257.279 323.602 257.202L321.8 256.533C321.8 256.533 321.671 256.456 321.671 256.378C321.671 256.301 321.671 256.224 321.723 256.172L323.113 254.86C323.293 254.705 323.499 254.602 323.757 254.551C324.503 254.397 325.224 254.886 325.379 255.632" fill="white"/>
<path d="M318.505 252.8C318.788 253.778 318.247 254.808 317.269 255.091C316.96 255.194 316.625 255.194 316.316 255.117L313.845 254.448C313.845 254.448 313.665 254.345 313.639 254.267C313.613 254.164 313.639 254.061 313.69 254.01L315.364 252.105C315.57 251.874 315.853 251.694 316.188 251.591C317.166 251.308 318.196 251.848 318.479 252.826" fill="white"/>
<path d="M310.37 251.721C310.859 252.905 310.292 254.243 309.134 254.732C308.748 254.887 308.336 254.938 307.95 254.887L304.809 254.372C304.809 254.372 304.577 254.269 304.552 254.166C304.5 254.037 304.526 253.909 304.577 253.831L306.431 251.258C306.663 250.949 306.997 250.691 307.383 250.537C308.568 250.048 309.906 250.614 310.395 251.772" fill="white"/>
<path d="M302.492 254.989C303.084 256.404 302.414 258 300.999 258.592C300.535 258.798 300.046 258.849 299.583 258.772L295.824 258.154C295.695 258.154 295.567 258.026 295.515 257.897C295.464 257.743 295.489 257.614 295.567 257.485L297.781 254.371C298.064 253.985 298.45 253.676 298.913 253.496C300.329 252.904 301.925 253.573 302.517 254.989" fill="white"/>
<path d="M231.232 274.369C231.386 275.115 232.107 275.604 232.854 275.45C233.111 275.398 233.317 275.295 233.497 275.141L234.887 273.828C234.887 273.828 234.965 273.7 234.939 273.622C234.939 273.545 234.862 273.494 234.81 273.468L233.034 272.799C232.802 272.722 232.57 272.696 232.313 272.747C231.566 272.902 231.077 273.622 231.232 274.369Z" fill="white"/>
<path d="M238.131 277.174C238.414 278.152 239.444 278.693 240.422 278.41C240.731 278.307 241.014 278.126 241.246 277.895L242.92 275.99C242.92 275.99 242.997 275.81 242.971 275.733C242.945 275.63 242.868 275.553 242.765 275.527L240.294 274.858C239.985 274.781 239.65 274.781 239.341 274.884C238.363 275.167 237.822 276.196 238.105 277.174" fill="white"/>
<path d="M246.241 278.28C246.73 279.464 248.069 280.005 249.253 279.516C249.639 279.361 249.974 279.104 250.206 278.769L252.059 276.196C252.059 276.196 252.136 275.964 252.085 275.861C252.033 275.732 251.93 275.655 251.827 275.655L248.687 275.14C248.301 275.089 247.889 275.14 247.502 275.295C246.318 275.784 245.778 277.122 246.267 278.306" fill="white"/>
<path d="M254.144 275.012C254.736 276.428 256.333 277.097 257.748 276.505C258.212 276.325 258.598 276.016 258.881 275.63L261.095 272.516C261.095 272.516 261.198 272.232 261.147 272.104C261.095 271.949 260.966 271.872 260.838 271.846L257.053 271.229C256.59 271.151 256.101 271.229 255.637 271.409C254.222 272.001 253.578 273.597 254.144 275.012Z" fill="white"/>
<path d="M325.404 274.369C325.25 275.115 324.529 275.604 323.782 275.45C323.525 275.398 323.319 275.295 323.139 275.141L321.749 273.828C321.749 273.828 321.671 273.7 321.697 273.622C321.697 273.545 321.774 273.494 321.826 273.468L323.628 272.799C323.86 272.722 324.091 272.696 324.349 272.747C325.095 272.902 325.585 273.622 325.43 274.369" fill="white"/>
<path d="M320.101 269.118C319.998 270.122 319.097 270.869 318.093 270.766C317.758 270.74 317.449 270.611 317.192 270.431L315.158 268.887C315.158 268.887 315.029 268.732 315.055 268.629C315.055 268.526 315.132 268.449 315.21 268.398L317.501 267.265C317.784 267.137 318.119 267.085 318.453 267.111C319.457 267.214 320.204 268.115 320.101 269.118Z" fill="white"/>
<path d="M313.022 265.001C313.022 266.262 311.992 267.291 310.73 267.291C310.318 267.291 309.906 267.189 309.572 266.983L306.869 265.31C306.869 265.31 306.688 265.13 306.688 265.001C306.688 264.872 306.766 264.769 306.869 264.692L309.572 263.019C309.906 262.813 310.318 262.71 310.73 262.71C311.992 262.71 313.022 263.74 313.022 265.001Z" fill="white"/>
<path d="M304.474 265C304.474 266.519 303.238 267.754 301.719 267.754C301.204 267.754 300.741 267.626 300.329 267.368L297.085 265.361C297.085 265.361 296.879 265.155 296.879 265C296.879 264.846 296.957 264.717 297.085 264.64L300.329 262.633C300.741 262.401 301.204 262.246 301.719 262.246C303.238 262.246 304.474 263.482 304.474 265Z" fill="white"/>
<path d="M231.232 255.632C231.077 256.378 231.566 257.099 232.313 257.253C232.57 257.305 232.802 257.279 233.034 257.202L234.81 256.533C234.81 256.533 234.939 256.456 234.939 256.378C234.939 256.301 234.939 256.224 234.887 256.172L233.497 254.86C233.317 254.705 233.111 254.602 232.854 254.551C232.107 254.397 231.386 254.886 231.232 255.632Z" fill="white"/>
<path d="M236.509 260.882C236.406 261.886 237.153 262.787 238.157 262.89C238.491 262.916 238.826 262.864 239.109 262.735L241.4 261.603C241.4 261.603 241.555 261.474 241.555 261.371C241.555 261.268 241.529 261.166 241.452 261.114L239.418 259.57C239.161 259.39 238.852 259.261 238.517 259.235C237.513 259.132 236.612 259.879 236.509 260.882Z" fill="white"/>
<path d="M243.589 265.001C243.589 266.262 244.619 267.291 245.88 267.291C246.292 267.291 246.704 267.189 247.039 266.983L249.742 265.31C249.742 265.31 249.922 265.13 249.922 265.001C249.922 264.872 249.845 264.769 249.742 264.692L247.039 263.019C246.704 262.813 246.292 262.71 245.88 262.71C244.619 262.71 243.589 263.74 243.589 265.001Z" fill="white"/>
<path d="M252.136 265C252.136 266.519 253.372 267.754 254.891 267.754C255.406 267.754 255.869 267.626 256.281 267.368L259.525 265.361C259.525 265.361 259.731 265.155 259.731 265C259.731 264.846 259.654 264.717 259.525 264.64L256.281 262.633C255.869 262.401 255.406 262.246 254.891 262.246C253.372 262.246 252.136 263.482 252.136 265Z" fill="white"/>
<path d="M318.222 291.665C317.81 292.308 316.934 292.463 316.317 292.051C316.111 291.896 315.956 291.716 315.853 291.51L315.055 289.76C315.055 289.76 315.055 289.606 315.055 289.554C315.107 289.503 315.158 289.451 315.235 289.451L317.14 289.529C317.372 289.529 317.604 289.606 317.81 289.76C318.453 290.172 318.608 291.047 318.196 291.665" fill="white"/>
<path d="M315.338 284.792C314.849 285.693 313.742 286.027 312.841 285.538C312.532 285.384 312.3 285.152 312.146 284.869L310.859 282.656C310.859 282.656 310.807 282.476 310.859 282.373C310.91 282.27 310.988 282.218 311.091 282.218L313.639 282.064C313.948 282.064 314.283 282.115 314.566 282.27C315.467 282.759 315.802 283.865 315.313 284.766" fill="white"/>
<path d="M310.369 278.28C309.88 279.464 308.542 280.005 307.357 279.516C306.971 279.361 306.637 279.104 306.405 278.769L304.551 276.196C304.551 276.196 304.474 275.964 304.526 275.861C304.577 275.732 304.68 275.655 304.783 275.655L307.924 275.14C308.31 275.089 308.722 275.14 309.108 275.295C310.292 275.784 310.833 277.122 310.344 278.306" fill="white"/>
<path d="M302.492 275.012C301.9 276.428 300.304 277.097 298.888 276.505C298.424 276.325 298.038 276.016 297.755 275.63L295.541 272.516C295.541 272.516 295.438 272.232 295.49 272.104C295.541 271.949 295.67 271.872 295.798 271.846L299.557 271.229C300.02 271.151 300.51 271.229 300.973 271.409C302.389 272.001 303.033 273.597 302.466 275.012" fill="white"/>
<path d="M238.389 238.337C237.977 238.98 238.131 239.83 238.775 240.242C238.981 240.396 239.213 240.447 239.444 240.473L241.349 240.55C241.349 240.55 241.478 240.525 241.529 240.447C241.581 240.396 241.581 240.319 241.529 240.242L240.731 238.491C240.628 238.285 240.474 238.08 240.268 237.951C239.624 237.539 238.775 237.694 238.363 238.337" fill="white"/>
<path d="M241.272 245.208C240.783 246.108 241.117 247.215 242.019 247.704C242.327 247.859 242.636 247.936 242.945 247.91L245.494 247.756C245.494 247.756 245.674 247.704 245.726 247.601C245.777 247.524 245.777 247.395 245.726 247.318L244.438 245.105C244.284 244.847 244.027 244.616 243.743 244.461C242.842 243.972 241.735 244.307 241.246 245.208" fill="white"/>
<path d="M246.241 251.721C245.752 252.905 246.318 254.243 247.476 254.732C247.863 254.887 248.275 254.938 248.661 254.887L251.801 254.372C251.801 254.372 252.033 254.269 252.059 254.166C252.11 254.037 252.085 253.909 252.033 253.831L250.18 251.258C249.948 250.949 249.613 250.691 249.227 250.537C248.043 250.048 246.704 250.614 246.215 251.772" fill="white"/>
<path d="M254.144 254.989C253.552 256.404 254.222 258 255.638 258.592C256.101 258.798 256.59 258.849 257.053 258.772L260.838 258.154C260.967 258.154 261.095 258.026 261.147 257.897C261.198 257.743 261.173 257.614 261.095 257.485L258.881 254.371C258.598 253.985 258.212 253.676 257.749 253.496C256.333 252.904 254.736 253.573 254.144 254.989Z" fill="white"/>
<path d="M304.989 304.893C304.345 305.305 303.496 305.15 303.084 304.507C302.93 304.301 302.878 304.069 302.852 303.838L302.801 301.933C302.801 301.933 302.827 301.779 302.904 301.753C302.981 301.701 303.058 301.701 303.11 301.753L304.86 302.551C305.066 302.654 305.272 302.808 305.401 303.014C305.813 303.657 305.658 304.507 305.015 304.919" fill="white"/>
<path d="M304.937 297.455C304.165 298.099 303.007 297.996 302.363 297.198C302.157 296.941 302.028 296.632 301.977 296.323L301.642 293.801C301.642 293.801 301.668 293.62 301.745 293.543C301.822 293.466 301.925 293.466 302.028 293.492L304.448 294.315C304.731 294.418 305.015 294.598 305.221 294.882C305.864 295.654 305.761 296.812 304.963 297.455" fill="white"/>
<path d="M302.852 289.528C301.951 290.429 300.509 290.429 299.608 289.528C299.299 289.219 299.119 288.859 299.016 288.499L298.295 285.41C298.295 285.41 298.295 285.179 298.398 285.076C298.501 284.998 298.604 284.947 298.733 284.973L301.822 285.693C302.209 285.796 302.569 286.002 302.852 286.285C303.753 287.186 303.753 288.627 302.852 289.528Z" fill="white"/>
<path d="M296.803 283.48C295.721 284.561 293.971 284.561 292.915 283.48C292.555 283.12 292.323 282.682 292.194 282.245L291.319 278.513C291.293 278.384 291.319 278.23 291.448 278.127C291.551 278.024 291.705 277.972 291.834 278.024L295.567 278.899C296.03 279.027 296.468 279.259 296.803 279.619C297.884 280.7 297.884 282.45 296.803 283.506" fill="white"/>
<path d="M251.647 225.081C251.003 225.493 250.849 226.368 251.261 226.985C251.389 227.191 251.595 227.346 251.801 227.449L253.552 228.247C253.552 228.247 253.706 228.272 253.758 228.247C253.809 228.195 253.861 228.144 253.861 228.066L253.809 226.162C253.809 225.93 253.732 225.699 253.578 225.493C253.166 224.849 252.291 224.695 251.673 225.107" fill="white"/>
<path d="M251.672 232.545C250.9 233.188 250.771 234.347 251.415 235.119C251.621 235.376 251.904 235.556 252.187 235.685L254.607 236.509C254.607 236.509 254.813 236.509 254.89 236.457C254.968 236.406 254.993 236.303 254.993 236.2L254.659 233.677C254.607 233.369 254.479 233.06 254.273 232.802C253.629 232.005 252.471 231.902 251.698 232.545" fill="white"/>
<path d="M253.758 240.446C252.857 241.347 252.857 242.788 253.758 243.689C254.067 243.998 254.427 244.178 254.788 244.281L257.877 245.002C257.877 245.002 258.109 245.002 258.212 244.899C258.315 244.822 258.34 244.693 258.315 244.564L257.594 241.476C257.491 241.09 257.285 240.729 257.002 240.446C256.101 239.546 254.659 239.546 253.758 240.446Z" fill="white"/>
<path d="M259.808 246.495C258.727 247.576 258.727 249.326 259.808 250.382C260.168 250.742 260.606 250.973 261.044 251.102L264.777 251.977C264.905 252.003 265.06 251.977 265.163 251.874C265.266 251.771 265.317 251.617 265.266 251.488L264.39 247.756C264.262 247.293 264.03 246.856 263.67 246.521C262.588 245.44 260.838 245.44 259.782 246.521" fill="white"/>
<path d="M287.663 312.074C286.916 312.229 286.195 311.74 286.041 310.993C285.989 310.736 286.015 310.504 286.092 310.273L286.762 308.497C286.762 308.497 286.839 308.368 286.916 308.368C286.993 308.368 287.071 308.368 287.122 308.445L288.435 309.835C288.59 310.015 288.718 310.221 288.744 310.479C288.899 311.225 288.409 311.946 287.663 312.1" fill="white"/>
<path d="M290.495 305.177C289.517 305.46 288.487 304.92 288.204 303.942C288.101 303.633 288.101 303.298 288.178 302.989L288.847 300.518C288.847 300.518 288.95 300.338 289.053 300.313C289.156 300.287 289.259 300.313 289.311 300.364L291.216 302.037C291.448 302.243 291.628 302.526 291.731 302.861C292.014 303.839 291.473 304.868 290.495 305.151" fill="white"/>
<path d="M291.602 297.043C290.444 297.532 289.079 296.966 288.616 295.808C288.461 295.422 288.41 295.01 288.461 294.624L288.976 291.484C288.976 291.484 289.079 291.252 289.182 291.201C289.311 291.149 289.439 291.175 289.517 291.227L292.117 293.08C292.426 293.311 292.683 293.646 292.838 294.032C293.327 295.216 292.76 296.554 291.602 297.043Z" fill="white"/>
<path d="M288.333 289.167C286.917 289.759 285.321 289.09 284.728 287.674C284.523 287.211 284.471 286.722 284.548 286.259L285.166 282.476C285.166 282.347 285.295 282.218 285.424 282.167C285.578 282.115 285.707 282.141 285.835 282.218L288.951 284.457C289.337 284.74 289.646 285.126 289.826 285.59C290.418 287.005 289.749 288.601 288.333 289.193" fill="white"/>
<path d="M268.947 217.927C268.201 218.081 267.711 218.802 267.866 219.548C267.917 219.806 268.02 220.011 268.175 220.192L269.488 221.581C269.488 221.581 269.617 221.659 269.694 221.633C269.771 221.633 269.822 221.556 269.848 221.504L270.518 219.728C270.595 219.497 270.621 219.265 270.569 219.008C270.415 218.261 269.694 217.772 268.947 217.927Z" fill="white"/>
<path d="M266.115 224.824C265.137 225.107 264.596 226.137 264.879 227.115C264.982 227.424 265.162 227.707 265.394 227.938L267.299 229.611C267.299 229.611 267.479 229.688 267.557 229.663C267.66 229.637 267.737 229.56 267.763 229.457L268.432 226.986C268.509 226.677 268.509 226.343 268.406 226.034C268.123 225.056 267.093 224.515 266.115 224.798" fill="white"/>
<path d="M265.034 232.931C263.85 233.42 263.309 234.758 263.798 235.942C263.953 236.328 264.21 236.663 264.519 236.894L267.119 238.748C267.119 238.748 267.351 238.825 267.454 238.773C267.583 238.722 267.66 238.619 267.66 238.516L268.175 235.376C268.226 234.99 268.175 234.578 268.021 234.192C267.531 233.008 266.193 232.468 265.034 232.957" fill="white"/>
<path d="M296.673 220.655C297.368 220.938 297.703 221.762 297.42 222.457C297.317 222.688 297.162 222.894 296.982 223.023L295.438 224.13C295.438 224.13 295.309 224.181 295.232 224.13C295.154 224.104 295.103 224.027 295.103 223.975L294.794 222.096C294.768 221.865 294.794 221.607 294.897 221.376C295.18 220.681 296.004 220.346 296.699 220.629" fill="white"/>
<path d="M290.495 224.824C291.473 225.107 292.014 226.137 291.731 227.115C291.628 227.424 291.448 227.707 291.216 227.938L289.311 229.611C289.311 229.611 289.131 229.688 289.053 229.663C288.95 229.637 288.873 229.56 288.847 229.457L288.178 226.986C288.101 226.677 288.101 226.343 288.204 226.034C288.487 225.056 289.517 224.515 290.495 224.798" fill="white"/>
<path d="M285.088 230.949C286.324 231.207 287.148 232.417 286.89 233.652C286.813 234.064 286.607 234.424 286.35 234.733L284.162 237.049C284.162 237.049 283.956 237.178 283.827 237.152C283.698 237.152 283.595 237.049 283.569 236.921L282.462 233.935C282.334 233.575 282.308 233.163 282.385 232.751C282.643 231.516 283.853 230.692 285.088 230.949Z" fill="white"/>
<path d="M259.936 309.345C260.631 309.628 261.455 309.294 261.738 308.599C261.841 308.367 261.867 308.11 261.841 307.878L261.532 305.999C261.532 305.999 261.481 305.871 261.404 305.845C261.326 305.819 261.249 305.845 261.198 305.845L259.653 306.952C259.473 307.106 259.318 307.286 259.215 307.518C258.932 308.213 259.267 309.036 259.962 309.32" fill="white"/>
<path d="M266.115 305.177C267.093 305.46 268.123 304.92 268.406 303.942C268.509 303.633 268.509 303.298 268.432 302.989L267.763 300.518C267.763 300.518 267.66 300.338 267.557 300.313C267.454 300.287 267.351 300.313 267.299 300.364L265.394 302.037C265.162 302.243 264.982 302.526 264.879 302.861C264.596 303.839 265.137 304.868 266.115 305.151" fill="white"/>
<path d="M271.547 299.025C272.783 299.282 273.993 298.459 274.25 297.223C274.327 296.812 274.302 296.4 274.173 296.039L273.066 293.054C273.066 293.054 272.937 292.848 272.808 292.822C272.68 292.797 272.551 292.822 272.474 292.925L270.286 295.242C270.028 295.525 269.848 295.911 269.745 296.323C269.487 297.558 270.311 298.768 271.547 299.025Z" fill="white"/>
<path d="M312.249 231.053C312.789 231.593 312.789 232.468 312.249 233.009C312.069 233.189 311.863 233.318 311.631 233.369L309.777 233.807C309.777 233.807 309.623 233.807 309.571 233.755C309.52 233.704 309.494 233.626 309.52 233.549L309.958 231.696C310.009 231.465 310.138 231.259 310.318 231.078C310.859 230.538 311.734 230.538 312.274 231.078" fill="white"/>
<path d="M304.938 232.545C305.71 233.188 305.839 234.347 305.195 235.119C304.989 235.376 304.706 235.556 304.423 235.685L302.003 236.509C302.003 236.509 301.823 236.509 301.72 236.457C301.642 236.406 301.617 236.303 301.617 236.2L301.951 233.677C302.003 233.369 302.132 233.06 302.338 232.802C302.981 232.005 304.14 231.902 304.912 232.545" fill="white"/>
<path d="M297.6 236.149C298.656 236.844 298.939 238.285 298.244 239.341C298.012 239.701 297.703 239.958 297.343 240.138L294.433 241.451C294.433 241.451 294.202 241.503 294.099 241.425C293.996 241.348 293.944 241.245 293.944 241.116L294.047 237.925C294.047 237.539 294.202 237.127 294.433 236.793C295.129 235.737 296.57 235.454 297.626 236.149" fill="white"/>
<path d="M244.362 298.922C244.902 299.463 245.778 299.463 246.318 298.922C246.498 298.742 246.627 298.536 246.679 298.305L247.116 296.451C247.116 296.451 247.116 296.297 247.065 296.246C247.013 296.194 246.936 296.168 246.859 296.194L245.005 296.632C244.774 296.683 244.568 296.812 244.387 296.992C243.847 297.532 243.847 298.407 244.387 298.948" fill="white"/>
<path d="M251.673 297.455C252.445 298.099 253.604 297.996 254.247 297.198C254.453 296.941 254.582 296.632 254.633 296.323L254.968 293.801C254.968 293.801 254.942 293.62 254.865 293.543C254.788 293.466 254.685 293.466 254.582 293.492L252.162 294.315C251.879 294.418 251.596 294.598 251.39 294.882C250.746 295.654 250.849 296.812 251.647 297.455" fill="white"/>
<path d="M259.036 293.851C260.091 294.546 261.507 294.263 262.228 293.208C262.46 292.848 262.588 292.462 262.614 292.076L262.717 288.884C262.717 288.884 262.666 288.652 262.563 288.575C262.46 288.498 262.331 288.498 262.228 288.55L259.319 289.862C258.958 290.042 258.65 290.3 258.418 290.66C257.723 291.715 258.006 293.131 259.061 293.851" fill="white"/>
<path d="M322.675 246.624C322.958 247.319 322.623 248.143 321.928 248.426C321.696 248.529 321.439 248.554 321.207 248.529L319.328 248.22C319.328 248.22 319.199 248.168 319.174 248.091C319.148 248.014 319.174 247.937 319.174 247.885L320.281 246.341C320.409 246.161 320.615 246.006 320.847 245.904C321.542 245.62 322.366 245.955 322.649 246.65" fill="white"/>
<path d="M315.338 245.208C315.827 246.108 315.493 247.215 314.591 247.704C314.283 247.859 313.974 247.936 313.665 247.91L311.116 247.756C311.116 247.756 310.936 247.704 310.884 247.601C310.833 247.524 310.833 247.395 310.884 247.318L312.146 245.105C312.3 244.847 312.558 244.616 312.841 244.461C313.742 243.972 314.849 244.307 315.338 245.208Z" fill="white"/>
<path d="M307.177 245.723C307.872 246.778 307.589 248.194 306.533 248.914C306.173 249.146 305.787 249.275 305.401 249.3L302.208 249.403C302.208 249.403 301.977 249.352 301.9 249.249C301.822 249.146 301.822 249.017 301.874 248.914L303.187 246.006C303.367 245.646 303.624 245.337 303.985 245.105C305.04 244.41 306.456 244.693 307.177 245.749" fill="white"/>
<path d="M233.96 283.351C234.244 284.046 235.067 284.38 235.763 284.097C235.994 283.994 236.2 283.84 236.329 283.66L237.436 282.115C237.436 282.115 237.487 281.987 237.436 281.909C237.41 281.832 237.333 281.807 237.281 281.781L235.402 281.472C235.17 281.446 234.913 281.472 234.681 281.575C233.986 281.858 233.651 282.682 233.935 283.376" fill="white"/>
<path d="M241.273 284.792C241.762 285.693 242.869 286.027 243.77 285.538C244.079 285.384 244.31 285.152 244.465 284.869L245.752 282.656C245.752 282.656 245.804 282.476 245.752 282.373C245.701 282.27 245.623 282.218 245.52 282.218L242.972 282.064C242.663 282.064 242.328 282.115 242.045 282.27C241.144 282.759 240.809 283.865 241.298 284.766" fill="white"/>
<path d="M249.459 284.278C250.154 285.333 251.596 285.617 252.651 284.922C253.012 284.69 253.269 284.381 253.449 284.021L254.762 281.113C254.762 281.113 254.814 280.881 254.736 280.778C254.659 280.675 254.556 280.624 254.427 280.624L251.235 280.726C250.849 280.726 250.463 280.881 250.102 281.113C249.047 281.807 248.764 283.249 249.459 284.304" fill="white"/>
<path d="M326.305 265.001C326.305 265.773 325.687 266.365 324.915 266.365C324.658 266.365 324.426 266.288 324.22 266.185L322.598 265.181C322.598 265.181 322.495 265.078 322.495 265.001C322.495 264.923 322.547 264.846 322.598 264.821L324.22 263.817C324.426 263.688 324.658 263.637 324.915 263.637C325.687 263.637 326.305 264.254 326.305 265.026" fill="white"/>
<path d="M320.101 260.882C320.204 261.886 319.457 262.787 318.453 262.89C318.119 262.916 317.784 262.864 317.501 262.735L315.21 261.603C315.21 261.603 315.055 261.474 315.055 261.371C315.055 261.268 315.081 261.166 315.158 261.114L317.192 259.57C317.449 259.39 317.758 259.261 318.093 259.235C319.097 259.132 319.998 259.879 320.101 260.882Z" fill="white"/>
<path d="M312.352 258.231C312.61 259.466 311.786 260.676 310.55 260.934C310.138 261.011 309.726 260.985 309.366 260.856L306.38 259.75C306.38 259.75 306.174 259.621 306.148 259.492C306.122 259.364 306.148 259.235 306.251 259.158L308.568 256.97C308.851 256.713 309.237 256.532 309.649 256.429C310.885 256.172 312.095 256.996 312.352 258.231Z" fill="white"/>
<path d="M230.305 265.001C230.305 265.773 230.923 266.365 231.695 266.365C231.953 266.365 232.184 266.288 232.39 266.185L234.012 265.181C234.012 265.181 234.115 265.078 234.115 265.001C234.115 264.923 234.064 264.846 234.012 264.821L232.39 263.817C232.184 263.688 231.953 263.637 231.695 263.637C230.949 263.637 230.305 264.254 230.305 265.026" fill="white"/>
<path d="M236.509 269.118C236.612 270.122 237.513 270.869 238.517 270.766C238.852 270.74 239.161 270.611 239.418 270.431L241.452 268.887C241.452 268.887 241.581 268.732 241.555 268.629C241.555 268.526 241.478 268.449 241.4 268.398L239.109 267.265C238.826 267.137 238.491 267.085 238.157 267.111C237.153 267.214 236.406 268.115 236.509 269.118Z" fill="white"/>
<path d="M244.259 271.769C244.516 273.004 245.726 273.828 246.962 273.571C247.374 273.493 247.734 273.287 248.043 273.03L250.36 270.842C250.36 270.842 250.489 270.636 250.463 270.508C250.463 270.379 250.36 270.276 250.231 270.25L247.245 269.118C246.884 268.989 246.473 268.964 246.061 269.041C244.825 269.298 244.001 270.508 244.259 271.743" fill="white"/>
<path d="M322.675 283.351C322.392 284.046 321.568 284.38 320.873 284.097C320.641 283.994 320.435 283.84 320.307 283.66L319.2 282.115C319.2 282.115 319.148 281.987 319.2 281.909C319.225 281.832 319.303 281.807 319.354 281.781L321.233 281.472C321.465 281.446 321.723 281.472 321.954 281.575C322.649 281.858 322.984 282.682 322.701 283.376" fill="white"/>
<path d="M318.504 277.174C318.221 278.152 317.191 278.693 316.213 278.41C315.904 278.307 315.621 278.126 315.389 277.895L313.716 275.99C313.716 275.99 313.639 275.81 313.664 275.733C313.69 275.63 313.767 275.553 313.87 275.527L316.342 274.858C316.651 274.781 316.985 274.781 317.294 274.884C318.273 275.167 318.813 276.196 318.53 277.174" fill="white"/>
<path d="M312.352 271.769C312.094 273.004 310.884 273.828 309.649 273.571C309.237 273.493 308.876 273.287 308.567 273.03L306.25 270.842C306.25 270.842 306.122 270.636 306.147 270.508C306.147 270.379 306.25 270.276 306.379 270.25L309.365 269.118C309.726 268.989 310.138 268.964 310.55 269.041C311.785 269.298 312.609 270.508 312.352 271.743" fill="white"/>
<path d="M233.961 246.624C233.678 247.319 234.013 248.143 234.708 248.426C234.939 248.529 235.197 248.554 235.428 248.529L237.308 248.22C237.308 248.22 237.437 248.168 237.462 248.091C237.488 248.014 237.462 247.937 237.462 247.885L236.355 246.341C236.201 246.161 236.021 246.006 235.789 245.904C235.094 245.62 234.27 245.955 233.987 246.65" fill="white"/>
<path d="M238.131 252.8C237.848 253.778 238.389 254.808 239.367 255.091C239.676 255.194 240.011 255.194 240.32 255.117L242.791 254.448C242.791 254.448 242.971 254.345 242.997 254.267C243.023 254.164 242.997 254.061 242.945 254.01L241.272 252.105C241.066 251.874 240.783 251.694 240.448 251.591C239.47 251.308 238.44 251.848 238.157 252.826" fill="white"/>
<path d="M244.259 258.231C244.001 259.466 244.825 260.676 246.061 260.934C246.473 261.011 246.884 260.985 247.245 260.856L250.231 259.75C250.231 259.75 250.437 259.621 250.463 259.492C250.489 259.364 250.463 259.235 250.36 259.158L248.043 256.97C247.76 256.713 247.374 256.532 246.962 256.429C245.726 256.172 244.516 256.996 244.259 258.231Z" fill="white"/>
<path d="M312.249 298.922C311.708 299.463 310.833 299.463 310.292 298.922C310.112 298.742 309.983 298.536 309.932 298.305L309.494 296.451C309.494 296.451 309.494 296.297 309.546 296.246C309.597 296.194 309.674 296.168 309.752 296.194L311.605 296.632C311.837 296.683 312.043 296.812 312.223 296.992C312.764 297.532 312.764 298.407 312.223 298.948" fill="white"/>
<path d="M310.781 291.64C310.137 292.438 308.979 292.541 308.207 291.897C307.949 291.691 307.769 291.408 307.64 291.125L306.816 288.706C306.816 288.706 306.816 288.526 306.868 288.423C306.919 288.346 307.022 288.32 307.125 288.32L309.648 288.654C309.957 288.706 310.266 288.835 310.524 289.04C311.322 289.684 311.425 290.842 310.781 291.614" fill="white"/>
<path d="M307.177 284.278C306.482 285.333 305.04 285.617 303.985 284.922C303.624 284.69 303.367 284.381 303.187 284.021L301.874 281.113C301.874 281.113 301.822 280.881 301.899 280.778C301.977 280.675 302.08 280.624 302.208 280.624L305.401 280.726C305.787 280.726 306.173 280.881 306.533 281.113C307.589 281.807 307.872 283.249 307.177 284.304" fill="white"/>
<path d="M244.362 231.053C243.821 231.593 243.821 232.468 244.362 233.009C244.542 233.189 244.748 233.318 244.979 233.369L246.833 233.807C246.833 233.807 246.987 233.807 247.039 233.755C247.09 233.704 247.116 233.626 247.09 233.549L246.653 231.696C246.601 231.465 246.473 231.259 246.292 231.078C245.752 230.538 244.876 230.538 244.336 231.078" fill="white"/>
<path d="M245.855 238.362C245.211 239.16 245.314 240.292 246.112 240.936C246.37 241.141 246.679 241.27 246.988 241.322L249.511 241.656C249.511 241.656 249.691 241.63 249.768 241.553C249.845 241.476 249.845 241.373 249.82 241.27L248.996 238.851C248.893 238.568 248.713 238.285 248.429 238.079C247.657 237.435 246.499 237.538 245.855 238.336" fill="white"/>
<path d="M249.459 245.723C248.764 246.778 249.047 248.194 250.102 248.914C250.463 249.146 250.849 249.275 251.235 249.3L254.427 249.403C254.427 249.403 254.659 249.352 254.736 249.249C254.814 249.146 254.814 249.017 254.762 248.914L253.449 246.006C253.269 245.646 253.012 245.337 252.651 245.105C251.596 244.41 250.18 244.693 249.459 245.749" fill="white"/>
<path d="M296.674 309.345C295.979 309.628 295.155 309.294 294.872 308.599C294.769 308.367 294.743 308.11 294.769 307.878L295.078 305.999C295.078 305.999 295.129 305.871 295.207 305.845C295.284 305.819 295.361 305.845 295.413 305.845L296.957 306.952C297.138 307.106 297.292 307.286 297.395 307.518C297.678 308.213 297.343 309.036 296.648 309.32" fill="white"/>
<path d="M298.115 302.011C297.214 302.5 296.107 302.165 295.618 301.264C295.464 300.956 295.386 300.647 295.412 300.338L295.567 297.79C295.567 297.79 295.618 297.61 295.721 297.558C295.798 297.507 295.927 297.507 296.004 297.558L298.218 298.845C298.476 299 298.707 299.257 298.888 299.54C299.377 300.441 299.016 301.548 298.141 302.037" fill="white"/>
<path d="M297.6 293.851C296.545 294.546 295.129 294.263 294.408 293.208C294.176 292.848 294.048 292.462 294.022 292.076L293.919 288.884C293.919 288.884 293.97 288.652 294.073 288.575C294.176 288.498 294.305 288.498 294.408 288.55L297.317 289.862C297.678 290.042 297.987 290.3 298.218 290.66C298.913 291.715 298.63 293.131 297.575 293.851" fill="white"/>
<path d="M259.937 220.655C259.242 220.938 258.907 221.762 259.191 222.457C259.294 222.688 259.448 222.894 259.628 223.023L261.173 224.13C261.173 224.13 261.302 224.181 261.379 224.13C261.456 224.104 261.482 224.027 261.508 223.975L261.816 222.096C261.842 221.865 261.816 221.607 261.713 221.376C261.43 220.681 260.606 220.346 259.911 220.629" fill="white"/>
<path d="M258.52 227.965C257.619 228.454 257.285 229.56 257.774 230.461C257.928 230.744 258.16 231.002 258.443 231.156L260.657 232.417C260.657 232.417 260.837 232.469 260.94 232.417C261.043 232.366 261.095 232.289 261.095 232.186L261.249 229.638C261.249 229.329 261.198 228.994 261.043 228.711C260.554 227.81 259.447 227.476 258.546 227.965" fill="white"/>
<path d="M259.035 236.149C257.98 236.844 257.696 238.285 258.391 239.341C258.623 239.701 258.932 239.958 259.292 240.138L262.202 241.451C262.202 241.451 262.433 241.503 262.536 241.425C262.639 241.348 262.691 241.245 262.691 241.116L262.588 237.925C262.588 237.539 262.433 237.127 262.202 236.793C261.506 235.737 260.065 235.454 259.009 236.149" fill="white"/>
<path d="M278.317 313C277.545 313 276.927 312.382 276.927 311.636C276.927 311.379 277.004 311.147 277.107 310.941L278.111 309.32C278.111 309.32 278.214 309.217 278.292 309.217C278.369 309.217 278.446 309.268 278.472 309.32L279.476 310.941C279.605 311.147 279.656 311.379 279.656 311.636C279.656 312.382 279.038 313 278.266 313" fill="white"/>
<path d="M282.437 306.772C281.433 306.875 280.532 306.128 280.429 305.125C280.403 304.79 280.429 304.455 280.584 304.172L281.716 301.882C281.716 301.882 281.845 301.727 281.948 301.727C282.051 301.727 282.154 301.753 282.205 301.83L283.75 303.863C283.93 304.121 284.059 304.43 284.085 304.764C284.188 305.768 283.441 306.669 282.437 306.772Z" fill="white"/>
<path d="M285.088 299.025C283.853 299.282 282.643 298.459 282.385 297.223C282.308 296.812 282.334 296.4 282.462 296.039L283.569 293.054C283.569 293.054 283.698 292.848 283.827 292.822C283.956 292.797 284.084 292.822 284.162 292.925L286.35 295.242C286.607 295.525 286.787 295.911 286.89 296.323C287.148 297.558 286.324 298.768 285.088 299.025Z" fill="white"/>
<path d="M278.317 217C277.545 217 276.927 217.618 276.927 218.39C276.927 218.647 277.004 218.879 277.107 219.085L278.111 220.706C278.111 220.706 278.214 220.809 278.292 220.809C278.369 220.809 278.446 220.758 278.472 220.706L279.476 219.085C279.605 218.879 279.656 218.647 279.656 218.39C279.656 217.618 279.038 217 278.266 217" fill="white"/>
<path d="M274.199 223.202C273.195 223.305 272.449 224.206 272.551 225.209C272.577 225.544 272.706 225.853 272.886 226.11L274.431 228.143C274.431 228.143 274.585 228.272 274.688 228.246C274.791 228.246 274.868 228.169 274.92 228.092L276.053 225.801C276.181 225.518 276.233 225.184 276.207 224.849C276.104 223.845 275.203 223.099 274.199 223.202Z" fill="white"/>
<path d="M271.547 230.949C270.311 231.207 269.487 232.417 269.745 233.652C269.822 234.064 270.028 234.424 270.286 234.733L272.474 237.049C272.474 237.049 272.68 237.178 272.808 237.152C272.937 237.152 273.04 237.049 273.066 236.921L274.173 233.935C274.302 233.575 274.327 233.163 274.25 232.751C273.993 231.516 272.783 230.692 271.547 230.949Z" fill="white"/>
<path d="M268.304 240.833C266.888 241.425 266.219 243.02 266.811 244.436C266.991 244.899 267.326 245.285 267.686 245.568L270.801 247.782C270.801 247.782 271.084 247.885 271.213 247.833C271.342 247.782 271.445 247.653 271.471 247.524L272.088 243.767C272.166 243.303 272.088 242.814 271.908 242.351C271.316 240.936 269.72 240.266 268.304 240.858" fill="white"/>
</g>
</svg>
