<svg width="443" height="414" viewBox="0 0 443 414" fill="none" xmlns="http://www.w3.org/2000/svg">
<g opacity="0.4">
<path d="M151.76 2.45104C153.735 2.85973 155.03 4.76695 154.621 6.74227C154.485 7.42342 154.212 7.96834 153.803 8.44514L150.33 12.1233C150.33 12.1233 149.989 12.3277 149.785 12.2596C149.58 12.2596 149.444 12.0552 149.376 11.919L147.605 7.21908C147.401 6.60604 147.333 5.99301 147.469 5.31186C147.878 3.33654 149.785 2.04235 151.76 2.45104Z" fill="white"/>
<path d="M137.933 16.4154C140.589 16.6878 142.564 19.0719 142.292 21.7283C142.224 22.6138 141.883 23.4312 141.406 24.1124L137.319 29.4934C137.319 29.4934 136.911 29.834 136.638 29.7659C136.366 29.7659 136.162 29.5615 136.025 29.3572L133.028 23.295C132.688 22.5457 132.551 21.6602 132.62 20.7747C132.892 18.1183 135.276 16.1429 137.933 16.4154Z" fill="white"/>
<path d="M127.034 35.1466C130.372 35.1466 133.096 37.8712 133.096 41.2088C133.096 42.2987 132.824 43.3885 132.279 44.274L127.852 51.426C127.852 51.426 127.375 51.8347 127.034 51.8347C126.694 51.8347 126.421 51.6304 126.217 51.426L121.789 44.274C121.244 43.3885 120.972 42.3668 120.972 41.2088C120.972 37.8712 123.697 35.1466 127.034 35.1466Z" fill="white"/>
<path d="M127.034 57.7609C131.053 57.7609 134.322 61.0304 134.322 65.0491C134.322 66.4114 133.982 67.6375 133.3 68.7273L127.987 77.3098C127.987 77.3098 127.443 77.8547 127.034 77.8547C126.625 77.8547 126.285 77.6504 126.08 77.3098L120.767 68.7273C120.154 67.6375 119.746 66.4114 119.746 65.0491C119.746 61.0304 123.015 57.7609 127.034 57.7609Z" fill="white"/>
<path d="M102.24 251.616C104.215 252.024 106.123 250.73 106.531 248.755C106.667 248.074 106.599 247.461 106.395 246.848L104.624 242.148C104.624 242.148 104.42 241.807 104.215 241.807C104.011 241.807 103.807 241.807 103.67 242.012L100.197 245.69C99.7878 246.167 99.4473 246.711 99.3791 247.393C98.9705 249.368 100.265 251.275 102.24 251.684" fill="white"/>
<path d="M116.135 237.585C118.792 237.857 121.176 235.882 121.448 233.225C121.517 232.34 121.448 231.454 121.04 230.705L118.043 224.643C118.043 224.643 117.702 224.234 117.43 224.234C117.157 224.234 116.885 224.302 116.748 224.507L112.662 229.888C112.185 230.569 111.844 231.386 111.776 232.272C111.504 234.928 113.479 237.312 116.135 237.585Z" fill="white"/>
<path d="M127.034 218.853C130.372 218.853 133.096 216.129 133.096 212.791C133.096 211.701 132.824 210.611 132.279 209.726L127.852 202.574C127.852 202.574 127.375 202.097 127.034 202.097C126.694 202.097 126.421 202.301 126.217 202.574L121.789 209.726C121.244 210.611 120.972 211.701 120.972 212.791C120.972 216.129 123.697 218.853 127.034 218.853Z" fill="white"/>
<path d="M127.034 196.239C131.053 196.239 134.322 192.969 134.322 188.95C134.322 187.588 133.982 186.362 133.3 185.272L127.987 176.69C127.987 176.69 127.443 176.145 127.034 176.145C126.625 176.145 126.285 176.349 126.08 176.69L120.767 185.272C120.154 186.362 119.746 187.588 119.746 188.95C119.746 192.969 123.015 196.239 127.034 196.239Z" fill="white"/>
<path d="M197.601 21.3882C199.304 22.4781 199.713 24.794 198.623 26.4287C198.282 26.9737 197.737 27.3823 197.192 27.6548L192.561 29.7664C192.561 29.7664 192.152 29.8345 192.016 29.7664C191.879 29.6301 191.743 29.4939 191.743 29.2895L191.879 24.2491C191.879 23.636 192.084 23.023 192.492 22.4781C193.582 20.7752 195.898 20.3665 197.533 21.4564" fill="white"/>
<path d="M179.414 29.017C181.798 30.3111 182.684 33.2401 181.39 35.6241C180.981 36.3734 180.368 37.0545 179.619 37.4632L173.761 40.8008C173.761 40.8008 173.284 40.937 173.011 40.8008C172.739 40.6646 172.603 40.4602 172.603 40.1878L172.194 33.4444C172.194 32.627 172.33 31.7415 172.739 30.9923C174.033 28.6083 176.962 27.7228 179.346 29.017" fill="white"/>
<path d="M162.181 42.1633C165.314 43.4575 166.745 46.9995 165.451 50.1327C165.042 51.1545 164.361 52.0399 163.543 52.653L156.664 57.5572C156.664 57.5572 156.051 57.7616 155.778 57.6254C155.438 57.4891 155.233 57.2167 155.233 56.9442L153.871 48.6342C153.735 47.6125 153.871 46.5226 154.28 45.5009C155.574 42.3676 159.116 40.9372 162.181 42.2314" fill="white"/>
<path d="M153.531 63.074C157.277 64.6406 158.98 68.8637 157.481 72.61C157.005 73.8361 156.119 74.8578 155.165 75.6071L146.924 81.4649C146.924 81.4649 146.242 81.7374 145.834 81.6012C145.493 81.4649 145.221 81.1244 145.153 80.7838L143.518 70.839C143.314 69.613 143.518 68.3188 143.995 67.0927C145.561 63.3464 149.784 61.5754 153.531 63.1421" fill="white"/>
<path d="M56.4675 232.612C58.1703 233.702 60.4181 233.294 61.5079 231.591C61.9166 231.046 62.0529 230.433 62.121 229.82L62.2572 224.779C62.2572 224.779 62.1891 224.371 61.9847 224.302C61.7804 224.166 61.5761 224.166 61.4398 224.302L56.808 226.414C56.2631 226.686 55.7182 227.095 55.3776 227.64C54.2878 229.343 54.6965 231.591 56.3993 232.681" fill="white"/>
<path d="M74.654 224.984C77.038 226.278 79.967 225.392 81.2612 223.008C81.6698 222.191 81.8742 221.373 81.8061 220.556L81.3974 213.813C81.3974 213.813 81.2612 213.336 80.9887 213.2C80.7844 213.063 80.4438 213.063 80.2394 213.2L74.3816 216.605C73.7004 217.014 73.0874 217.695 72.6106 218.445C71.3164 220.829 72.27 223.758 74.5859 225.052" fill="white"/>
<path d="M91.887 211.837C94.9522 213.131 98.5622 211.632 99.7883 208.567C100.197 207.545 100.333 206.455 100.197 205.434L98.8347 197.124C98.8347 197.124 98.5622 196.511 98.2898 196.374C97.9492 196.238 97.6768 196.306 97.4043 196.443L90.5247 201.347C89.7073 201.96 89.0262 202.845 88.6175 203.867C87.3233 207 88.8218 210.542 91.887 211.837Z" fill="white"/>
<path d="M100.537 190.994C104.284 192.561 108.507 190.79 110.073 187.043C110.618 185.817 110.755 184.523 110.55 183.297L108.915 173.284C108.915 172.944 108.575 172.603 108.234 172.467C107.894 172.331 107.485 172.399 107.144 172.603L98.9026 178.529C97.8808 179.278 97.0635 180.3 96.5866 181.526C95.02 185.273 96.791 189.496 100.537 191.062" fill="white"/>
<path d="M232.612 56.4675C233.702 58.1703 233.293 60.4181 231.59 61.5079C231.045 61.9166 230.432 62.0529 229.819 62.121L224.779 62.3253C224.779 62.3253 224.438 62.2572 224.302 62.0529C224.166 61.9166 224.166 61.7123 224.302 61.5079L226.413 56.8761C226.686 56.3312 227.095 55.7863 227.64 55.4457C229.342 54.3559 231.59 54.7646 232.68 56.4675" fill="white"/>
<path d="M212.927 56.5348C214.629 58.6464 214.357 61.6434 212.245 63.3463C211.564 63.8912 210.747 64.2318 209.929 64.368L203.254 65.2535C203.254 65.2535 202.777 65.1854 202.573 64.981C202.437 64.7767 202.369 64.5042 202.437 64.2318L204.617 57.829C204.889 57.0797 205.366 56.3305 206.115 55.7856C208.159 54.0827 211.224 54.3551 212.927 56.4667" fill="white"/>
<path d="M191.947 62.0521C194.331 64.4361 194.331 68.2505 191.947 70.6345C191.13 71.4519 190.176 71.9287 189.223 72.2012L181.049 74.1084C181.049 74.1084 180.436 74.1084 180.163 73.8359C179.891 73.6316 179.823 73.291 179.891 72.9504L181.798 64.7766C182.071 63.7549 182.616 62.8013 183.365 62.0521C185.749 59.668 189.563 59.668 191.947 62.0521Z" fill="white"/>
<path d="M175.94 78.0602C178.801 80.921 178.801 85.5528 175.94 88.3455C174.987 89.2991 173.829 89.9121 172.671 90.2527L162.794 92.5686C162.454 92.6367 162.045 92.5686 161.772 92.2962C161.5 92.0237 161.364 91.615 161.432 91.2744L163.748 81.3978C164.088 80.1717 164.701 79.0138 165.655 78.1283C168.516 75.2675 173.148 75.2675 175.94 78.1283" fill="white"/>
<path d="M21.3879 197.602C22.4777 199.304 24.7936 199.713 26.4284 198.623C26.9733 198.215 27.382 197.738 27.6544 197.193L29.766 192.561C29.766 192.561 29.766 192.152 29.766 192.016C29.6298 191.88 29.4935 191.744 29.2892 191.744L24.2487 191.948C23.6357 191.948 23.0226 192.152 22.4777 192.561C20.7748 193.651 20.3661 195.967 21.456 197.602" fill="white"/>
<path d="M41.1413 197.533C42.8442 199.645 45.9094 199.917 47.9528 198.214C48.634 197.669 49.1108 196.92 49.4513 196.171L51.631 189.768C51.631 189.768 51.631 189.291 51.4948 189.019C51.3585 188.814 51.0861 188.746 50.8136 188.746L44.1384 189.632C43.321 189.768 42.5036 190.108 41.8225 190.653C39.779 192.356 39.4385 195.421 41.1413 197.465" fill="white"/>
<path d="M62.0524 191.947C64.4364 194.331 68.2509 194.331 70.6349 191.947C71.4523 191.13 71.9291 190.176 72.2015 189.223L74.1087 181.049C74.1087 181.049 74.1087 180.436 73.8363 180.163C73.5638 179.959 73.2914 179.823 72.9508 179.891L64.777 181.798C63.7553 182.071 62.8017 182.616 62.0524 183.365C59.6684 185.749 59.6684 189.563 62.0524 191.947Z" fill="white"/>
<path d="M78.0594 175.94C80.9203 178.801 85.5521 178.801 88.3448 175.94C89.2984 174.986 89.9114 173.828 90.252 172.67L92.5679 162.794C92.636 162.453 92.5679 162.045 92.2954 161.772C92.023 161.5 91.6143 161.363 91.2737 161.5L81.3971 163.816C80.171 164.156 79.013 164.769 78.1275 165.723C75.2667 168.584 75.2667 173.215 78.1275 176.008" fill="white"/>
<path d="M251.616 102.241C252.025 104.216 250.73 106.123 248.755 106.532C248.074 106.668 247.461 106.6 246.848 106.396L242.08 104.625C242.08 104.625 241.739 104.42 241.739 104.216C241.739 104.012 241.739 103.807 241.875 103.671L245.554 100.197C246.03 99.7884 246.575 99.516 247.257 99.3798C249.232 98.9711 251.139 100.265 251.548 102.241" fill="white"/>
<path d="M233.361 94.7477C234.11 97.336 232.68 100.061 230.092 100.81C229.274 101.082 228.389 101.082 227.571 100.878L221.032 99.107C221.032 99.107 220.556 98.8346 220.487 98.6302C220.419 98.3578 220.487 98.0853 220.624 97.9491L225.051 92.9086C225.596 92.2956 226.345 91.8188 227.231 91.5463C229.819 90.797 232.544 92.2274 233.293 94.8158" fill="white"/>
<path d="M211.837 91.8869C213.131 95.0201 211.632 98.5621 208.567 99.8563C207.546 100.265 206.456 100.401 205.434 100.265L197.124 98.9027C197.124 98.9027 196.511 98.6302 196.443 98.3578C196.307 98.0172 196.375 97.6766 196.511 97.4723L201.415 90.6608C202.028 89.8434 202.914 89.1623 203.936 88.7536C207.069 87.4594 210.611 88.9579 211.905 92.0231" fill="white"/>
<path d="M190.994 100.537C192.561 104.283 190.79 108.507 187.043 110.073C185.817 110.618 184.523 110.754 183.297 110.55L173.352 108.915C173.012 108.915 172.671 108.575 172.535 108.234C172.399 107.825 172.467 107.485 172.671 107.144L178.529 98.9024C179.278 97.8806 180.3 97.0633 181.526 96.5865C185.272 95.0198 189.496 96.7908 191.062 100.537" fill="white"/>
<path d="M2.4519 151.828C2.86059 153.803 4.7678 155.097 6.74313 154.689C7.42428 154.552 7.96919 154.28 8.446 153.871L12.1242 150.397C12.1242 150.397 12.3285 150.057 12.2604 149.852C12.2604 149.648 12.0561 149.512 11.9198 149.444L7.21993 147.673C6.6069 147.468 5.99387 147.4 5.31272 147.536C3.33739 147.945 2.04321 149.852 2.4519 151.828Z" fill="white"/>
<path d="M20.7068 159.252C21.456 161.84 24.1806 163.271 26.769 162.521C27.5863 162.249 28.3356 161.772 28.9486 161.159L33.3761 156.119C33.3761 156.119 33.5804 155.642 33.5123 155.437C33.4442 155.165 33.2399 154.961 32.9674 154.893L26.4284 153.122C25.611 152.917 24.7255 152.917 23.9081 153.19C21.3198 153.939 19.8894 156.664 20.6386 159.252" fill="white"/>
<path d="M42.163 162.181C43.4572 165.314 46.9991 166.744 50.1324 165.45C51.1541 165.041 52.0396 164.36 52.6527 163.475L57.5569 156.663C57.5569 156.663 57.7613 156.05 57.6251 155.778C57.4888 155.437 57.2164 155.233 56.9439 155.233L48.6339 153.871C47.6122 153.734 46.5223 153.871 45.5006 154.279C42.3673 155.574 40.9369 159.115 42.2311 162.249" fill="white"/>
<path d="M63.0742 153.531C64.6408 157.277 68.8639 159.048 72.6102 157.482C73.8363 157.005 74.858 156.187 75.6073 155.166L81.4652 146.924C81.4652 146.924 81.7376 146.175 81.6014 145.834C81.4652 145.425 81.1246 145.221 80.784 145.153L70.7712 143.518C69.5451 143.314 68.2509 143.518 67.0248 143.995C63.2785 145.562 61.5757 149.785 63.0742 153.531Z" fill="white"/>
<path d="M251.616 151.828C251.207 153.803 249.3 155.097 247.325 154.689C246.644 154.552 246.099 154.28 245.622 153.871L241.944 150.397C241.944 150.397 241.739 150.057 241.808 149.852C241.808 149.648 242.012 149.512 242.148 149.444L246.916 147.673C247.529 147.468 248.142 147.4 248.823 147.536C250.799 147.945 252.093 149.852 251.684 151.828" fill="white"/>
<path d="M237.584 137.932C237.312 140.588 234.928 142.564 232.271 142.291C231.386 142.223 230.569 141.883 229.887 141.406L224.506 137.319C224.506 137.319 224.166 136.91 224.234 136.638C224.234 136.365 224.438 136.161 224.643 136.025L230.705 133.028C231.454 132.687 232.34 132.551 233.225 132.619C235.881 132.891 237.857 135.275 237.584 137.932Z" fill="white"/>
<path d="M218.853 127.035C218.853 130.372 216.128 133.097 212.791 133.097C211.701 133.097 210.611 132.825 209.726 132.28L202.573 127.852C202.573 127.852 202.097 127.375 202.097 127.035C202.097 126.694 202.301 126.422 202.573 126.217L209.726 121.79C210.611 121.245 211.701 120.973 212.791 120.973C216.128 120.973 218.853 123.697 218.853 127.035Z" fill="white"/>
<path d="M196.239 127.034C196.239 131.053 192.969 134.322 188.95 134.322C187.588 134.322 186.362 133.981 185.272 133.3L176.69 127.987C176.69 127.987 176.145 127.442 176.145 127.034C176.145 126.625 176.349 126.285 176.69 126.08L185.272 120.767C186.362 120.154 187.588 119.745 188.95 119.745C192.969 119.745 196.239 123.015 196.239 127.034Z" fill="white"/>
<path d="M2.4519 102.241C2.04321 104.216 3.33739 106.123 5.31272 106.532C5.99387 106.668 6.6069 106.6 7.21993 106.396L11.9198 104.625C11.9198 104.625 12.2604 104.42 12.2604 104.216C12.2604 104.012 12.2604 103.807 12.1242 103.671L8.446 100.197C7.96919 99.7884 7.42428 99.516 6.74313 99.3798C4.7678 98.9711 2.86059 100.265 2.4519 102.241Z" fill="white"/>
<path d="M16.4158 116.136C16.1433 118.792 18.1186 121.176 20.7751 121.449C21.6606 121.517 22.5461 121.381 23.2953 121.04L29.3576 118.043C29.3576 118.043 29.7662 117.702 29.7662 117.43C29.7662 117.157 29.6981 116.885 29.4938 116.749L24.1127 112.662C23.4316 112.185 22.6142 111.844 21.7287 111.776C19.0722 111.504 16.6882 113.479 16.4158 116.136Z" fill="white"/>
<path d="M35.1472 127.035C35.1472 130.372 37.8718 133.097 41.2094 133.097C42.2993 133.097 43.3891 132.825 44.2746 132.28L51.4266 127.852C51.4266 127.852 51.9035 127.375 51.9035 127.035C51.9035 126.694 51.6991 126.422 51.4266 126.217L44.2746 121.79C43.3891 121.245 42.2993 120.973 41.2094 120.973C37.8718 120.973 35.1472 123.697 35.1472 127.035Z" fill="white"/>
<path d="M57.7615 127.034C57.7615 131.053 61.031 134.322 65.0498 134.322C66.412 134.322 67.6381 133.981 68.728 133.3L77.3104 127.987C77.3104 127.987 77.8553 127.442 77.8553 127.034C77.8553 126.625 77.651 126.285 77.3104 126.08L68.728 120.767C67.6381 120.154 66.412 119.745 65.0498 119.745C61.031 119.745 57.7615 123.015 57.7615 127.034Z" fill="white"/>
<path d="M232.612 197.602C231.522 199.304 229.206 199.713 227.571 198.623C227.027 198.215 226.618 197.738 226.345 197.193L224.234 192.561C224.234 192.561 224.234 192.152 224.234 192.016C224.37 191.88 224.506 191.744 224.711 191.744L229.751 191.948C230.364 191.948 230.977 192.152 231.522 192.561C233.225 193.651 233.634 195.967 232.544 197.602" fill="white"/>
<path d="M224.983 179.414C223.689 181.798 220.76 182.683 218.376 181.389C217.558 180.98 216.945 180.367 216.537 179.618L213.131 173.76C213.131 173.76 212.995 173.283 213.131 173.011C213.267 172.738 213.471 172.602 213.744 172.602L220.487 172.193C221.305 172.193 222.19 172.33 222.939 172.738C225.323 174.032 226.209 176.961 224.915 179.345" fill="white"/>
<path d="M211.837 162.181C210.543 165.314 207.001 166.744 203.868 165.45C202.846 165.041 201.96 164.36 201.347 163.475L196.443 156.663C196.443 156.663 196.239 156.05 196.375 155.778C196.511 155.437 196.784 155.233 197.056 155.233L205.366 153.871C206.388 153.734 207.478 153.871 208.499 154.279C211.633 155.574 213.063 159.115 211.769 162.249" fill="white"/>
<path d="M190.994 153.531C189.427 157.277 185.204 159.048 181.458 157.482C180.232 157.005 179.21 156.187 178.461 155.166L172.603 146.924C172.603 146.924 172.33 146.175 172.467 145.834C172.603 145.425 172.943 145.221 173.284 145.153L183.229 143.518C184.455 143.314 185.749 143.518 186.975 143.995C190.721 145.562 192.424 149.785 190.926 153.531" fill="white"/>
<path d="M21.3881 56.4675C20.2983 58.1703 20.707 60.4181 22.4098 61.5079C22.9548 61.9166 23.5678 62.0529 24.1808 62.121L29.2213 62.3253C29.2213 62.3253 29.5619 62.2572 29.6981 62.0529C29.8343 61.9166 29.8343 61.7123 29.6981 61.5079L27.5866 56.8761C27.3141 56.3312 26.9054 55.7863 26.3605 55.4457C24.6576 54.3559 22.4098 54.7646 21.32 56.4675" fill="white"/>
<path d="M29.0169 74.6538C27.7227 77.0378 28.6082 79.9667 30.9922 81.2609C31.8096 81.6696 32.627 81.8739 33.4444 81.8058L40.1877 81.3971C40.1877 81.3971 40.6645 81.2609 40.8007 80.9885C40.937 80.7841 40.937 80.4435 40.8007 80.2392L37.395 74.3813C36.9863 73.7002 36.3052 73.0871 35.5559 72.6785C33.1719 71.3843 30.243 72.2698 28.9488 74.6538" fill="white"/>
<path d="M42.1631 91.8869C40.869 95.0201 42.3675 98.5621 45.4326 99.8563C46.4544 100.265 47.5442 100.401 48.5659 100.265L56.8759 98.9027C56.8759 98.9027 57.489 98.6302 57.5571 98.3578C57.6933 98.0172 57.6252 97.6766 57.489 97.4723L52.5847 90.6608C51.9717 89.8434 51.0862 89.1623 50.0644 88.7536C46.9312 87.4594 43.3892 88.9579 42.095 92.0231" fill="white"/>
<path d="M63.0744 100.537C61.5078 104.283 63.2788 108.507 67.0251 110.073C68.2512 110.618 69.5454 110.754 70.7714 110.55L80.7843 108.915C81.1249 108.915 81.4654 108.575 81.6017 108.234C81.7379 107.825 81.6698 107.485 81.4654 107.144L75.6076 98.9024C74.8583 97.8806 73.8366 97.0633 72.6105 96.5865C68.8642 95.0198 64.6411 96.7908 63.0744 100.537Z" fill="white"/>
<path d="M197.601 232.612C195.898 233.702 193.65 233.294 192.561 231.591C192.152 231.046 192.016 230.433 191.948 229.82L191.811 224.779C191.811 224.779 191.879 224.371 192.084 224.302C192.288 224.166 192.492 224.166 192.629 224.302L197.26 226.414C197.805 226.686 198.35 227.095 198.691 227.64C199.781 229.343 199.372 231.591 197.669 232.681" fill="white"/>
<path d="M197.465 212.927C195.421 214.63 192.356 214.357 190.653 212.246C190.108 211.565 189.768 210.747 189.632 209.93L188.746 203.255C188.746 203.255 188.814 202.778 189.019 202.574C189.223 202.369 189.495 202.369 189.768 202.437L196.171 204.617C196.92 204.889 197.669 205.366 198.214 206.116C199.917 208.159 199.644 211.224 197.533 212.927" fill="white"/>
<path d="M191.947 191.947C189.563 194.331 185.749 194.331 183.365 191.947C182.547 191.13 182.071 190.176 181.798 189.223L179.891 181.049C179.891 181.049 179.891 180.436 180.163 180.163C180.436 179.959 180.708 179.823 181.049 179.891L189.223 181.798C190.244 182.071 191.198 182.616 191.947 183.365C194.331 185.749 194.331 189.563 191.947 191.947Z" fill="white"/>
<path d="M175.94 175.94C173.079 178.801 168.448 178.801 165.655 175.94C164.701 174.986 164.088 173.828 163.748 172.67L161.432 162.794C161.364 162.453 161.432 162.045 161.772 161.772C162.045 161.5 162.453 161.363 162.794 161.5L172.671 163.816C173.897 164.156 175.055 164.769 175.94 165.723C178.801 168.584 178.801 173.215 175.94 176.008" fill="white"/>
<path d="M56.4672 21.3882C54.7643 22.4781 54.3556 24.794 55.4455 26.4287C55.7861 26.9737 56.331 27.3823 56.8759 27.6548L61.5077 29.7664C61.5077 29.7664 61.9164 29.8345 62.0526 29.7664C62.1888 29.6301 62.3251 29.4939 62.3251 29.2895L62.1889 24.2491C62.1889 23.636 61.9845 23.023 61.5758 22.4781C60.486 20.7752 58.1701 20.3665 56.5353 21.4564" fill="white"/>
<path d="M56.5354 41.1411C54.4919 42.844 54.1514 45.9092 55.8542 47.9526C56.3991 48.6338 57.1484 49.1106 57.8977 49.4511L64.3005 51.6308C64.3005 51.6308 64.8454 51.6308 65.0497 51.4946C65.2541 51.3584 65.3222 51.0859 65.3222 50.8134L64.4367 44.1382C64.3005 43.3208 63.9599 42.5034 63.415 41.8223C61.7121 39.7107 58.6469 39.4383 56.6035 41.1411" fill="white"/>
<path d="M62.0524 62.0521C59.6684 64.4361 59.6684 68.2505 62.0524 70.6345C62.8698 71.4519 63.8234 71.9287 64.777 72.2012L72.9508 74.1084C72.9508 74.1084 73.5638 74.1084 73.8363 73.8359C74.1087 73.6316 74.1768 73.291 74.1087 72.9504L72.2015 64.7766C71.9291 63.7549 71.3841 62.8013 70.6349 62.0521C68.2509 59.668 64.4364 59.668 62.0524 62.0521Z" fill="white"/>
<path d="M78.0594 78.0602C75.1986 80.921 75.1986 85.5528 78.0594 88.3455C79.013 89.2991 80.171 89.9121 81.3289 90.2527L91.2056 92.5686C91.5462 92.6367 91.9548 92.5686 92.2273 92.2962C92.4998 92.0237 92.636 91.615 92.4998 91.2744L90.1839 81.3978C89.8433 80.1717 89.2303 79.0138 88.2766 78.1283C85.4158 75.2675 80.784 75.2675 77.9913 78.1283" fill="white"/>
<path d="M151.76 251.616C149.785 252.024 147.878 250.73 147.469 248.755C147.333 248.074 147.401 247.461 147.605 246.848L149.376 242.148C149.376 242.148 149.58 241.807 149.785 241.807C149.989 241.807 150.193 241.807 150.33 242.012L153.803 245.69C154.212 246.167 154.553 246.711 154.621 247.393C155.03 249.368 153.735 251.275 151.76 251.684" fill="white"/>
<path d="M159.252 233.361C156.664 234.11 153.939 232.68 153.19 230.091C152.918 229.274 152.918 228.388 153.122 227.571L154.893 221.032C154.893 221.032 155.165 220.555 155.438 220.487C155.71 220.419 155.983 220.487 156.119 220.623L161.16 225.051C161.773 225.596 162.249 226.345 162.522 227.23C163.271 229.819 161.841 232.543 159.252 233.293" fill="white"/>
<path d="M162.181 211.837C159.116 213.131 155.506 211.632 154.28 208.567C153.871 207.545 153.735 206.455 153.871 205.434L155.233 197.124C155.233 197.124 155.506 196.511 155.778 196.374C156.119 196.238 156.46 196.306 156.664 196.443L163.543 201.347C164.361 201.96 165.042 202.845 165.451 203.867C166.745 207 165.246 210.542 162.181 211.837Z" fill="white"/>
<path d="M153.531 190.994C149.784 192.561 145.561 190.79 143.994 187.043C143.45 185.817 143.313 184.523 143.518 183.297L145.152 173.284C145.152 172.944 145.493 172.603 145.834 172.467C146.242 172.331 146.583 172.399 146.923 172.603L155.165 178.529C156.187 179.278 157.004 180.3 157.481 181.526C159.048 185.273 157.277 189.496 153.531 191.062" fill="white"/>
<path d="M102.24 2.45104C100.265 2.85973 98.9705 4.76695 99.3791 6.74227C99.5154 7.42342 99.7878 7.96834 100.197 8.44514L103.67 12.1233C103.67 12.1233 104.011 12.3277 104.215 12.2596C104.42 12.2596 104.556 12.0552 104.624 11.919L106.395 7.21908C106.599 6.60604 106.667 5.99301 106.531 5.31186C106.123 3.33654 104.215 2.04235 102.24 2.45104Z" fill="white"/>
<path d="M94.7475 20.7071C92.1591 21.4564 90.7287 24.181 91.478 26.7693C91.7505 27.5867 92.2273 28.336 92.8403 28.949L97.8808 33.3765C97.8808 33.3765 98.3576 33.5808 98.5619 33.5127C98.8344 33.4446 99.0387 33.2402 99.1069 32.9678L100.878 26.4288C101.082 25.6114 101.082 24.7259 100.81 23.9085C100.06 21.3202 97.3359 19.8897 94.7475 20.639" fill="white"/>
<path d="M91.8869 42.1633C88.7536 43.4575 87.3232 46.9995 88.6173 50.1327C89.026 51.1545 89.7072 52.0399 90.5246 52.653L97.4042 57.5572C97.4042 57.5572 98.0172 57.7616 98.2896 57.6254C98.6302 57.4891 98.8346 57.2167 98.8346 56.9442L100.197 48.6342C100.333 47.6125 100.197 46.5226 99.7882 45.5009C98.494 42.3676 94.952 40.9372 91.8869 42.2314" fill="white"/>
<path d="M175.6 9.67211C177.439 10.4214 178.324 12.601 177.575 14.4401C177.303 15.0532 176.894 15.5981 176.417 15.9387L172.33 18.8676C172.33 18.8676 171.99 19.0038 171.785 18.8676C171.581 18.7995 171.445 18.5951 171.445 18.4589L170.627 13.4865C170.559 12.8735 170.627 12.1924 170.9 11.5793C171.649 9.74022 173.829 8.85473 175.668 9.60399" fill="white"/>
<path d="M159.252 20.7071C161.841 21.4564 163.271 24.181 162.522 26.7693C162.249 27.5867 161.773 28.336 161.16 28.949L156.119 33.3765C156.119 33.3765 155.642 33.5808 155.438 33.5127C155.165 33.4446 154.961 33.2402 154.893 32.9678L153.122 26.4288C152.918 25.6114 152.918 24.7259 153.19 23.9085C153.939 21.3202 156.664 19.8897 159.252 20.639" fill="white"/>
<path d="M144.948 36.9178C148.218 37.599 150.398 40.8004 149.716 44.0699C149.512 45.1597 148.967 46.1133 148.286 46.9307L142.496 53.061C142.496 53.061 141.951 53.4016 141.611 53.3335C141.27 53.3335 140.998 53.061 140.93 52.7205L138.001 44.8191C137.66 43.8655 137.592 42.7757 137.796 41.6859C138.477 38.4164 141.679 36.2367 144.948 36.9178Z" fill="white"/>
<path d="M78.3999 244.395C80.239 245.144 82.4187 244.259 83.168 242.42C83.4404 241.807 83.5085 241.126 83.4404 240.513L82.6231 235.54C82.6231 235.54 82.4868 235.2 82.2825 235.132C82.0781 235.063 81.8738 235.132 81.7376 235.132L77.6507 238.06C77.1739 238.469 76.7652 238.946 76.4927 239.559C75.7435 241.398 76.6289 243.578 78.468 244.327" fill="white"/>
<path d="M94.7475 233.361C97.3359 234.11 100.06 232.68 100.81 230.091C101.082 229.274 101.082 228.388 100.878 227.571L99.1069 221.032C99.1069 221.032 98.8344 220.555 98.5619 220.487C98.2895 220.419 98.017 220.487 97.8808 220.623L92.8403 225.051C92.2273 225.596 91.7505 226.345 91.478 227.23C90.7287 229.819 92.1591 232.543 94.7475 233.293" fill="white"/>
<path d="M109.12 217.081C112.39 217.762 115.591 215.583 116.272 212.313C116.477 211.223 116.408 210.134 116.068 209.18L113.139 201.279C113.139 201.279 112.798 200.734 112.458 200.666C112.117 200.598 111.777 200.666 111.572 200.938L105.783 207.068C105.101 207.818 104.625 208.839 104.352 209.929C103.671 213.199 105.851 216.4 109.12 217.081Z" fill="white"/>
<path d="M216.809 37.1907C218.24 38.6211 218.24 40.937 216.809 42.3674C216.333 42.8443 215.788 43.1848 215.175 43.3211L210.27 44.479C210.27 44.479 209.862 44.479 209.725 44.3428C209.589 44.2065 209.521 44.0022 209.589 43.7979L210.747 38.8936C210.883 38.2806 211.224 37.7356 211.701 37.2588C213.131 35.8284 215.447 35.8284 216.877 37.2588" fill="white"/>
<path d="M197.465 41.1411C199.508 42.844 199.849 45.9092 198.146 47.9526C197.601 48.6338 196.852 49.1106 196.103 49.4511L189.7 51.6308C189.7 51.6308 189.223 51.6308 188.951 51.4946C188.746 51.3584 188.678 51.0859 188.678 50.8134L189.564 44.1382C189.7 43.3208 190.041 42.5034 190.585 41.8223C192.288 39.7107 195.353 39.4383 197.397 41.1411" fill="white"/>
<path d="M178.052 50.6773C180.845 52.5164 181.594 56.3309 179.755 59.1236C179.142 60.0772 178.325 60.7583 177.371 61.2351L169.674 64.709C169.674 64.709 169.061 64.8452 168.789 64.6409C168.516 64.4365 168.38 64.1641 168.38 63.8235L168.652 55.3773C168.652 54.3556 169.061 53.2657 169.674 52.3802C171.513 49.5875 175.328 48.8383 178.12 50.6773" fill="white"/>
<path d="M37.1905 216.81C38.6209 218.24 40.9368 218.24 42.3672 216.81C42.844 216.333 43.1846 215.788 43.3208 215.175L44.4788 210.271C44.4788 210.271 44.4788 209.862 44.3425 209.726C44.2063 209.59 44.002 209.521 43.7976 209.59L38.8934 210.748C38.2803 210.884 37.7354 211.224 37.2586 211.701C35.8282 213.132 35.8282 215.447 37.2586 216.878" fill="white"/>
<path d="M56.5352 212.927C58.5787 214.63 61.6438 214.357 63.3467 212.246C63.8916 211.565 64.2322 210.747 64.3684 209.93L65.2539 203.255C65.2539 203.255 65.1858 202.778 64.9815 202.574C64.7771 202.369 64.5047 202.369 64.2322 202.437L57.8294 204.617C57.0802 204.889 56.3309 205.366 55.786 206.116C54.0831 208.159 54.3556 211.224 56.4671 212.927" fill="white"/>
<path d="M76.016 203.391C78.8087 205.23 82.555 204.481 84.4622 201.688C85.0752 200.734 85.4158 199.713 85.4839 198.691L85.7564 190.245C85.7564 190.245 85.6201 189.632 85.3477 189.427C85.0752 189.223 84.7347 189.223 84.4622 189.359L76.7652 192.833C75.8116 193.31 74.9942 193.991 74.3812 194.944C72.5421 197.737 73.2914 201.483 76.0841 203.391" fill="white"/>
<path d="M244.396 78.4C245.145 80.2391 244.259 82.4188 242.42 83.168C241.807 83.4405 241.126 83.5086 240.513 83.4405L235.541 82.6231C235.541 82.6231 235.2 82.4869 235.132 82.2825C235.064 82.0782 235.132 81.8738 235.132 81.7376L238.061 77.6507C238.402 77.1739 238.947 76.7652 239.56 76.4928C241.399 75.7435 243.578 76.629 244.328 78.4681" fill="white"/>
<path d="M224.983 74.6538C226.277 77.0378 225.392 79.9667 223.008 81.2609C222.191 81.6696 221.373 81.8739 220.556 81.8058L213.812 81.3971C213.812 81.3971 213.336 81.2609 213.199 80.9885C213.063 80.7841 213.063 80.4435 213.199 80.2392L216.537 74.3813C216.946 73.7002 217.627 73.0871 218.376 72.6785C220.76 71.3843 223.689 72.2698 224.983 74.6538Z" fill="white"/>
<path d="M203.391 76.0163C205.23 78.809 204.481 82.5554 201.688 84.4626C200.734 85.0756 199.713 85.4162 198.691 85.4843L190.245 85.7567C190.245 85.7567 189.632 85.6205 189.427 85.3481C189.223 85.0756 189.223 84.735 189.359 84.4626L192.833 76.7656C193.31 75.812 193.991 74.9946 194.945 74.3816C197.737 72.5425 201.484 73.2917 203.391 76.0844" fill="white"/>
<path d="M9.67217 175.6C10.4214 177.439 12.6011 178.324 14.4402 177.575C15.0532 177.303 15.5981 176.894 15.9387 176.417L18.8677 172.33C18.8677 172.33 19.0039 171.99 18.8677 171.785C18.7995 171.581 18.5952 171.513 18.459 171.445L13.4866 170.628C12.8736 170.559 12.1924 170.628 11.5794 170.9C9.74028 171.649 8.85479 173.829 9.60405 175.668" fill="white"/>
<path d="M29.0166 179.414C30.3108 181.798 33.2398 182.683 35.6238 181.389C36.4412 180.98 37.0542 180.367 37.4629 179.618L40.8686 173.76C40.8686 173.76 41.0049 173.283 40.8686 173.011C40.7324 172.738 40.528 172.602 40.2556 172.602L33.5122 172.193C32.6949 172.193 31.8094 172.33 31.0601 172.738C28.6761 174.032 27.7906 176.961 29.0848 179.345" fill="white"/>
<path d="M50.6773 178.052C52.5164 180.845 56.3309 181.594 59.1236 179.755C60.0772 179.142 60.7583 178.325 61.2351 177.371L64.709 169.674C64.709 169.674 64.8452 169.061 64.6409 168.789C64.4365 168.516 64.1641 168.38 63.8235 168.38L55.3773 168.653C54.3556 168.653 53.3338 169.061 52.3802 169.674C49.5875 171.513 48.8383 175.328 50.6773 178.121" fill="white"/>
<path d="M254 127.034C254 129.078 252.365 130.644 250.322 130.644C249.641 130.644 249.028 130.44 248.483 130.168L244.191 127.511C244.191 127.511 243.919 127.239 243.919 127.034C243.919 126.83 244.055 126.626 244.191 126.558L248.483 123.901C249.028 123.56 249.641 123.424 250.322 123.424C252.365 123.424 254 125.059 254 127.102" fill="white"/>
<path d="M237.584 116.136C237.857 118.792 235.882 121.176 233.225 121.449C232.34 121.517 231.454 121.381 230.705 121.04L224.643 118.043C224.643 118.043 224.234 117.702 224.234 117.43C224.234 117.157 224.302 116.885 224.506 116.749L229.887 112.662C230.569 112.185 231.386 111.844 232.271 111.776C234.928 111.504 237.312 113.479 237.584 116.136Z" fill="white"/>
<path d="M217.082 109.12C217.763 112.389 215.583 115.591 212.314 116.272C211.224 116.476 210.134 116.408 209.18 116.067L201.279 113.138C201.279 113.138 200.734 112.798 200.666 112.457C200.598 112.117 200.666 111.776 200.938 111.572L207.069 105.782C207.818 105.101 208.84 104.624 209.93 104.352C213.199 103.67 216.4 105.85 217.082 109.12Z" fill="white"/>
<path d="M0 127.034C0 129.078 1.63475 130.644 3.6782 130.644C4.35934 130.644 4.97238 130.44 5.5173 130.168L9.80853 127.511C9.80853 127.511 10.081 127.239 10.081 127.034C10.081 126.83 9.94476 126.626 9.80853 126.558L5.5173 123.901C4.97238 123.56 4.35934 123.424 3.6782 123.424C1.70287 123.424 0 125.059 0 127.102" fill="white"/>
<path d="M16.4158 137.932C16.6882 140.588 19.0722 142.564 21.7287 142.291C22.6142 142.223 23.4316 141.883 24.1127 141.406L29.4938 137.319C29.4938 137.319 29.8344 136.91 29.7662 136.638C29.7662 136.365 29.5619 136.161 29.3576 136.025L23.2953 133.028C22.5461 132.687 21.6606 132.551 20.7751 132.619C18.1186 132.891 16.1433 135.275 16.4158 137.932Z" fill="white"/>
<path d="M36.9183 144.948C37.5994 148.217 40.8008 150.397 44.0703 149.716C45.1601 149.512 46.1137 148.967 46.9311 148.285L53.0615 142.496C53.0615 142.496 53.402 141.951 53.3339 141.61C53.3339 141.27 53.0615 140.997 52.7209 140.929L44.8196 137.932C43.866 137.591 42.7761 137.523 41.6863 137.728C38.4168 138.409 36.2371 141.61 36.9183 144.88" fill="white"/>
<path d="M244.396 175.6C243.647 177.439 241.467 178.324 239.628 177.575C239.015 177.303 238.47 176.894 238.129 176.417L235.2 172.33C235.2 172.33 235.064 171.99 235.2 171.785C235.269 171.581 235.473 171.513 235.609 171.445L240.582 170.628C241.195 170.559 241.876 170.628 242.489 170.9C244.328 171.649 245.213 173.829 244.464 175.668" fill="white"/>
<path d="M233.361 159.252C232.612 161.84 229.887 163.271 227.299 162.521C226.482 162.249 225.732 161.772 225.119 161.159L220.692 156.119C220.692 156.119 220.488 155.642 220.556 155.437C220.624 155.165 220.828 154.961 221.101 154.893L227.64 153.122C228.457 152.917 229.342 152.917 230.16 153.19C232.748 153.939 234.179 156.664 233.429 159.252" fill="white"/>
<path d="M217.082 144.948C216.4 148.217 213.199 150.397 209.93 149.716C208.84 149.512 207.886 148.967 207.069 148.285L200.938 142.496C200.938 142.496 200.598 141.951 200.666 141.61C200.666 141.27 200.938 140.997 201.279 140.929L209.18 137.932C210.134 137.591 211.224 137.523 212.314 137.728C215.583 138.409 217.763 141.61 217.082 144.88" fill="white"/>
<path d="M9.67217 78.4C8.92291 80.2391 9.8084 82.4188 11.6475 83.168C12.2605 83.4405 12.9417 83.5086 13.5547 83.4405L18.5271 82.6231C18.5271 82.6231 18.8677 82.4869 18.9358 82.2825C19.0039 82.0782 18.9358 81.8738 18.9358 81.7376L16.0068 77.6507C15.5982 77.1739 15.1214 76.7652 14.5083 76.4928C12.6692 75.7435 10.4895 76.629 9.74029 78.4681" fill="white"/>
<path d="M20.707 94.7477C19.9577 97.336 21.3881 100.061 23.9765 100.81C24.7939 101.082 25.6794 101.082 26.4968 100.878L33.0358 99.107C33.0358 99.107 33.5126 98.8346 33.5807 98.6302C33.6488 98.3578 33.5807 98.0853 33.4445 97.9491L29.017 92.9086C28.4721 92.2956 27.7228 91.8188 26.8373 91.5463C24.249 90.797 21.5244 92.2274 20.7751 94.8158" fill="white"/>
<path d="M36.9183 109.12C36.2371 112.389 38.4168 115.591 41.6863 116.272C42.7761 116.476 43.866 116.408 44.8196 116.067L52.7209 113.138C52.7209 113.138 53.2658 112.798 53.3339 112.457C53.402 112.117 53.3339 111.776 53.0615 111.572L46.9311 105.782C46.1819 105.101 45.1601 104.624 44.0703 104.352C40.8008 103.67 37.5994 105.85 36.9183 109.12Z" fill="white"/>
<path d="M216.809 216.81C215.379 218.24 213.063 218.24 211.633 216.81C211.156 216.333 210.815 215.788 210.679 215.175L209.521 210.271C209.521 210.271 209.521 209.862 209.657 209.726C209.793 209.59 209.998 209.521 210.202 209.59L215.106 210.748C215.719 210.884 216.264 211.224 216.741 211.701C218.172 213.132 218.172 215.447 216.741 216.878" fill="white"/>
<path d="M212.927 197.533C211.224 199.645 208.159 199.917 206.115 198.214C205.434 197.669 204.958 196.92 204.617 196.171L202.437 189.768C202.437 189.768 202.437 189.291 202.573 189.019C202.71 188.814 202.982 188.746 203.255 188.746L209.93 189.632C210.747 189.768 211.565 190.108 212.246 190.653C214.357 192.356 214.63 195.421 212.927 197.465" fill="white"/>
<path d="M203.391 178.052C201.552 180.845 197.737 181.594 194.945 179.755C193.991 179.142 193.31 178.325 192.833 177.371L189.359 169.674C189.359 169.674 189.223 169.061 189.427 168.789C189.632 168.516 189.904 168.38 190.245 168.38L198.691 168.653C199.713 168.653 200.734 169.061 201.688 169.674C204.481 171.513 205.23 175.328 203.391 178.121" fill="white"/>
<path d="M37.1907 37.1907C35.7603 38.6211 35.7603 40.937 37.1907 42.3674C37.6675 42.8443 38.2124 43.1848 38.8255 43.3211L43.7297 44.479C43.7297 44.479 44.1384 44.479 44.2747 44.3428C44.4109 44.2065 44.479 44.0022 44.4109 43.7979L43.2529 38.8936C43.1167 38.2806 42.7761 37.7356 42.2993 37.2588C40.8689 35.8284 38.553 35.8284 37.1226 37.2588" fill="white"/>
<path d="M41.1412 56.5348C39.4383 58.6464 39.7108 61.6434 41.8224 63.3463C42.5035 63.8912 43.3209 64.2318 44.1383 64.368L50.8135 65.2535C50.8135 65.2535 51.2903 65.1854 51.4947 64.981C51.699 64.7767 51.699 64.5042 51.6309 64.2318L49.4512 57.829C49.1787 57.0797 48.7019 56.3305 47.9527 55.7856C45.9092 54.0827 42.8441 54.3551 41.1412 56.4667" fill="white"/>
<path d="M50.6773 76.0163C48.8383 78.809 49.5875 82.5554 52.3802 84.4626C53.3338 85.0756 54.3556 85.4162 55.3773 85.4843L63.8235 85.7567C63.8235 85.7567 64.4365 85.6205 64.6409 85.3481C64.8452 85.0756 64.8452 84.735 64.709 84.4626L61.2351 76.7656C60.7583 75.812 60.0772 74.9946 59.1236 74.3816C56.3309 72.5425 52.5846 73.2917 50.6773 76.0844" fill="white"/>
<path d="M175.6 244.395C173.761 245.144 171.581 244.259 170.832 242.42C170.559 241.807 170.491 241.126 170.559 240.513L171.377 235.54C171.377 235.54 171.513 235.2 171.717 235.132C171.922 235.063 172.126 235.132 172.262 235.132L176.349 238.06C176.826 238.469 177.234 238.946 177.507 239.559C178.256 241.398 177.371 243.578 175.532 244.327" fill="white"/>
<path d="M179.414 224.984C177.03 226.278 174.102 225.392 172.807 223.008C172.399 222.191 172.194 221.373 172.262 220.556L172.671 213.813C172.671 213.813 172.807 213.336 173.08 213.2C173.284 213.063 173.625 213.063 173.829 213.2L179.687 216.605C180.368 217.014 180.981 217.695 181.458 218.445C182.752 220.829 181.798 223.758 179.483 225.052" fill="white"/>
<path d="M178.052 203.391C175.259 205.23 171.513 204.481 169.606 201.688C168.993 200.734 168.652 199.713 168.584 198.691L168.312 190.245C168.312 190.245 168.448 189.632 168.72 189.427C168.993 189.223 169.333 189.223 169.606 189.359L177.303 192.833C178.257 193.31 179.074 193.991 179.687 194.944C181.526 197.737 180.777 201.483 177.984 203.391" fill="white"/>
<path d="M78.4002 9.67211C76.5611 10.4214 75.6756 12.601 76.4249 14.4401C76.6973 15.0532 77.106 15.5981 77.5828 15.9387L81.6697 18.8676C81.6697 18.8676 82.0103 19.0038 82.2146 18.8676C82.4189 18.7995 82.4871 18.5951 82.5552 18.4589L83.3726 13.4865C83.4407 12.8735 83.3726 12.1924 83.1001 11.5793C82.3508 9.74022 80.1712 8.85473 78.3321 9.60399" fill="white"/>
<path d="M74.6534 29.017C72.2693 30.3111 71.3838 33.2401 72.678 35.6241C73.0867 36.3734 73.6997 37.0545 74.449 37.4632L80.3069 40.8008C80.3069 40.8008 80.7837 40.937 81.0561 40.8008C81.3286 40.6646 81.4648 40.4602 81.4648 40.1878L81.8735 33.4444C81.8735 32.627 81.7373 31.7415 81.3286 30.9923C80.0344 28.6083 77.1055 27.7228 74.7215 29.017" fill="white"/>
<path d="M76.0162 50.6773C73.2235 52.5164 72.4742 56.3309 74.3133 59.1236C74.9264 60.0772 75.7437 60.7583 76.6974 61.2351L84.3943 64.709C84.3943 64.709 85.0074 64.8452 85.2798 64.6409C85.5523 64.4365 85.6885 64.1641 85.6885 63.8235L85.416 55.3773C85.416 54.3556 85.0074 53.2657 84.3943 52.3802C82.5552 49.5875 78.7408 48.8383 75.9481 50.6773" fill="white"/>
<path d="M127.034 254.068C124.99 254.068 123.356 252.433 123.356 250.458C123.356 249.777 123.56 249.164 123.833 248.619L126.489 244.328C126.489 244.328 126.761 244.055 126.966 244.055C127.17 244.055 127.374 244.192 127.443 244.328L130.099 248.619C130.44 249.164 130.576 249.777 130.576 250.458C130.576 252.433 128.941 254.068 126.898 254.068" fill="white"/>
<path d="M137.932 237.585C135.276 237.857 132.892 235.882 132.619 233.225C132.551 232.34 132.619 231.454 133.028 230.705L136.025 224.643C136.025 224.643 136.366 224.234 136.638 224.234C136.911 224.234 137.183 224.302 137.319 224.507L141.406 229.888C141.883 230.569 142.224 231.386 142.292 232.272C142.564 234.928 140.589 237.312 137.932 237.585Z" fill="white"/>
<path d="M144.948 217.081C141.679 217.762 138.477 215.583 137.796 212.313C137.592 211.223 137.66 210.134 138.001 209.18L140.93 201.279C140.93 201.279 141.27 200.734 141.611 200.666C141.951 200.598 142.292 200.666 142.496 200.938L148.286 207.068C148.967 207.818 149.444 208.839 149.716 209.929C150.398 213.199 148.218 216.4 144.948 217.081Z" fill="white"/>
<path d="M127.034 0C124.99 0 123.356 1.63475 123.356 3.6782C123.356 4.35934 123.56 4.97238 123.833 5.5173L126.489 9.80853C126.489 9.80853 126.761 10.081 126.966 10.081C127.17 10.081 127.374 9.94476 127.443 9.80853L130.099 5.5173C130.44 4.97238 130.576 4.35934 130.576 3.6782C130.576 1.63475 128.941 0 126.898 0" fill="white"/>
<path d="M116.135 16.4154C113.479 16.6878 111.504 19.0719 111.776 21.7283C111.844 22.6138 112.185 23.4312 112.662 24.1124L116.748 29.4934C116.748 29.4934 117.157 29.834 117.43 29.7659C117.702 29.7659 117.906 29.5615 118.043 29.3572L121.04 23.295C121.38 22.5457 121.517 21.6602 121.448 20.7747C121.176 18.1183 118.792 16.1429 116.135 16.4154Z" fill="white"/>
<path d="M109.12 36.9178C105.851 37.599 103.671 40.8004 104.352 44.0699C104.556 45.1597 105.101 46.1133 105.783 46.9307L111.572 53.061C111.572 53.061 112.117 53.4016 112.458 53.3335C112.798 53.3335 113.071 53.061 113.139 52.7205L116.068 44.8191C116.408 43.8655 116.477 42.7757 116.272 41.6859C115.591 38.4164 112.39 36.2367 109.12 36.9178Z" fill="white"/>
<path d="M100.537 63.074C96.791 64.6406 95.02 68.8637 96.5866 72.61C97.0635 73.8361 97.9489 74.8578 98.9026 75.6071L107.144 81.4649C107.144 81.4649 107.894 81.7374 108.234 81.6012C108.575 81.4649 108.847 81.1244 108.915 80.7838L110.55 70.839C110.755 69.613 110.55 68.3188 110.073 67.0927C108.507 63.3464 104.284 61.5754 100.537 63.1421" fill="white"/>
</g>
<g opacity="0.4">
<path d="M391.057 286.24C392.06 286.448 392.717 287.416 392.51 288.419C392.441 288.765 392.302 289.042 392.095 289.284L390.331 291.151C390.331 291.151 390.158 291.255 390.054 291.221C389.95 291.221 389.881 291.117 389.847 291.048L388.947 288.661C388.844 288.35 388.809 288.039 388.878 287.693C389.086 286.69 390.054 286.033 391.057 286.24Z" fill="white"/>
<path d="M384.036 293.329C385.385 293.467 386.388 294.678 386.25 296.027C386.215 296.476 386.042 296.891 385.8 297.237L383.725 299.97C383.725 299.97 383.518 300.142 383.379 300.108C383.241 300.108 383.137 300.004 383.068 299.9L381.546 296.822C381.373 296.442 381.304 295.992 381.339 295.543C381.477 294.194 382.688 293.191 384.036 293.329Z" fill="white"/>
<path d="M378.503 302.841C380.197 302.841 381.581 304.224 381.581 305.919C381.581 306.472 381.443 307.026 381.166 307.475L378.918 311.107C378.918 311.107 378.676 311.314 378.503 311.314C378.33 311.314 378.191 311.211 378.088 311.107L375.84 307.475C375.563 307.026 375.425 306.507 375.425 305.919C375.425 304.224 376.808 302.841 378.503 302.841Z" fill="white"/>
<path d="M378.503 314.323C380.543 314.323 382.203 315.983 382.203 318.024C382.203 318.715 382.03 319.338 381.685 319.891L378.987 324.249C378.987 324.249 378.71 324.526 378.503 324.526C378.295 324.526 378.122 324.422 378.018 324.249L375.321 319.891C375.01 319.338 374.802 318.715 374.802 318.024C374.802 315.983 376.462 314.323 378.503 314.323Z" fill="white"/>
<path d="M365.913 412.756C366.916 412.963 367.885 412.306 368.092 411.303C368.161 410.957 368.127 410.646 368.023 410.335L367.124 407.948C367.124 407.948 367.02 407.775 366.916 407.775C366.813 407.775 366.709 407.775 366.64 407.879L364.876 409.747C364.668 409.989 364.495 410.266 364.461 410.611C364.253 411.614 364.91 412.583 365.913 412.79" fill="white"/>
<path d="M372.969 405.631C374.318 405.769 375.528 404.766 375.667 403.417C375.701 402.968 375.667 402.518 375.459 402.138L373.937 399.06C373.937 399.06 373.764 398.852 373.626 398.852C373.488 398.852 373.349 398.887 373.28 398.99L371.205 401.723C370.963 402.069 370.79 402.484 370.755 402.933C370.617 404.282 371.62 405.493 372.969 405.631Z" fill="white"/>
<path d="M378.503 396.12C380.197 396.12 381.581 394.736 381.581 393.042C381.581 392.488 381.443 391.935 381.166 391.485L378.918 387.854C378.918 387.854 378.676 387.612 378.503 387.612C378.33 387.612 378.191 387.715 378.088 387.854L375.84 391.485C375.563 391.935 375.425 392.488 375.425 393.042C375.425 394.736 376.808 396.12 378.503 396.12Z" fill="white"/>
<path d="M378.503 384.636C380.543 384.636 382.203 382.976 382.203 380.935C382.203 380.243 382.03 379.621 381.685 379.067L378.987 374.709C378.987 374.709 378.71 374.433 378.503 374.433C378.295 374.433 378.122 374.537 378.018 374.709L375.321 379.067C375.01 379.621 374.802 380.243 374.802 380.935C374.802 382.976 376.462 384.636 378.503 384.636Z" fill="white"/>
<path d="M414.334 295.855C415.198 296.408 415.406 297.584 414.853 298.414C414.68 298.691 414.403 298.899 414.126 299.037L411.774 300.109C411.774 300.109 411.567 300.144 411.498 300.109C411.429 300.04 411.359 299.971 411.359 299.867L411.429 297.308C411.429 296.996 411.532 296.685 411.74 296.408C412.293 295.544 413.469 295.336 414.299 295.89" fill="white"/>
<path d="M405.099 299.729C406.31 300.386 406.759 301.873 406.102 303.084C405.895 303.464 405.583 303.81 405.203 304.018L402.229 305.712C402.229 305.712 401.986 305.781 401.848 305.712C401.71 305.643 401.641 305.539 401.641 305.401L401.433 301.977C401.433 301.562 401.502 301.112 401.71 300.732C402.367 299.521 403.854 299.072 405.065 299.729" fill="white"/>
<path d="M396.349 306.404C397.94 307.061 398.666 308.859 398.009 310.45C397.802 310.969 397.456 311.419 397.041 311.73L393.547 314.22C393.547 314.22 393.236 314.324 393.098 314.255C392.925 314.185 392.821 314.047 392.821 313.909L392.129 309.689C392.06 309.171 392.129 308.617 392.337 308.098C392.994 306.507 394.793 305.781 396.349 306.438" fill="white"/>
<path d="M391.957 317.022C393.859 317.817 394.724 319.962 393.963 321.864C393.721 322.486 393.271 323.005 392.787 323.386L388.602 326.36C388.602 326.36 388.256 326.498 388.049 326.429C387.876 326.36 387.737 326.187 387.703 326.014L386.873 320.965C386.769 320.342 386.873 319.685 387.115 319.062C387.91 317.16 390.054 316.261 391.957 317.056" fill="white"/>
<path d="M342.672 403.105C343.536 403.659 344.678 403.451 345.231 402.586C345.439 402.31 345.508 401.999 345.542 401.687L345.611 399.128C345.611 399.128 345.577 398.92 345.473 398.886C345.369 398.817 345.266 398.817 345.196 398.886L342.845 399.958C342.568 400.096 342.291 400.304 342.118 400.581C341.565 401.445 341.772 402.586 342.637 403.14" fill="white"/>
<path d="M351.906 399.233C353.117 399.89 354.604 399.44 355.261 398.23C355.468 397.815 355.572 397.4 355.538 396.984L355.33 393.56C355.33 393.56 355.261 393.318 355.123 393.249C355.019 393.18 354.846 393.18 354.742 393.249L351.768 394.978C351.422 395.186 351.111 395.532 350.869 395.912C350.211 397.123 350.696 398.61 351.872 399.267" fill="white"/>
<path d="M360.656 392.557C362.213 393.214 364.046 392.453 364.668 390.897C364.876 390.378 364.945 389.825 364.876 389.306L364.184 385.086C364.184 385.086 364.046 384.775 363.908 384.706C363.735 384.637 363.596 384.671 363.458 384.741L359.965 387.231C359.55 387.542 359.204 387.992 358.996 388.51C358.339 390.101 359.1 391.9 360.656 392.557Z" fill="white"/>
<path d="M365.049 381.974C366.951 382.769 369.095 381.87 369.891 379.968C370.168 379.345 370.237 378.688 370.133 378.066L369.303 372.982C369.303 372.809 369.13 372.636 368.957 372.567C368.784 372.497 368.577 372.532 368.404 372.636L364.219 375.645C363.7 376.025 363.285 376.544 363.043 377.167C362.247 379.069 363.147 381.213 365.049 382.009" fill="white"/>
<path d="M432.111 313.667C432.664 314.532 432.457 315.673 431.592 316.227C431.315 316.434 431.004 316.504 430.693 316.538L428.133 316.642C428.133 316.642 427.96 316.607 427.891 316.504C427.822 316.434 427.822 316.331 427.891 316.227L428.963 313.875C429.102 313.598 429.309 313.322 429.586 313.149C430.451 312.595 431.592 312.803 432.145 313.667" fill="white"/>
<path d="M422.115 313.701C422.98 314.773 422.842 316.295 421.77 317.159C421.424 317.436 421.009 317.609 420.594 317.678L417.204 318.128C417.204 318.128 416.962 318.093 416.858 317.989C416.789 317.885 416.755 317.747 416.789 317.609L417.896 314.358C418.034 313.977 418.276 313.597 418.657 313.32C419.694 312.455 421.251 312.594 422.115 313.666" fill="white"/>
<path d="M411.463 316.502C412.674 317.713 412.674 319.65 411.463 320.86C411.048 321.275 410.564 321.517 410.08 321.656L405.929 322.624C405.929 322.624 405.618 322.624 405.48 322.486C405.341 322.382 405.307 322.209 405.341 322.036L406.31 317.886C406.448 317.367 406.725 316.883 407.105 316.502C408.316 315.292 410.253 315.292 411.463 316.502Z" fill="white"/>
<path d="M403.335 324.631C404.788 326.084 404.788 328.436 403.335 329.854C402.851 330.338 402.263 330.649 401.675 330.822L396.66 331.998C396.487 332.033 396.28 331.998 396.141 331.86C396.003 331.722 395.934 331.514 395.969 331.341L397.144 326.326C397.317 325.704 397.629 325.116 398.113 324.666C399.565 323.213 401.917 323.213 403.335 324.666" fill="white"/>
<path d="M324.86 385.329C325.413 386.194 326.589 386.401 327.419 385.848C327.696 385.64 327.903 385.398 328.042 385.121L329.114 382.77C329.114 382.77 329.114 382.562 329.114 382.493C329.045 382.424 328.976 382.355 328.872 382.355L326.312 382.458C326.001 382.458 325.69 382.562 325.413 382.77C324.549 383.323 324.341 384.499 324.894 385.329" fill="white"/>
<path d="M334.89 385.295C335.754 386.367 337.311 386.506 338.348 385.641C338.694 385.365 338.936 384.984 339.109 384.604L340.216 381.353C340.216 381.353 340.216 381.11 340.147 380.972C340.078 380.868 339.939 380.834 339.801 380.834L336.412 381.283C335.997 381.353 335.582 381.525 335.236 381.802C334.198 382.667 334.025 384.223 334.89 385.261" fill="white"/>
<path d="M345.508 382.458C346.718 383.668 348.655 383.668 349.866 382.458C350.281 382.043 350.523 381.559 350.661 381.074L351.629 376.924C351.629 376.924 351.629 376.613 351.491 376.475C351.353 376.371 351.214 376.302 351.041 376.336L346.891 377.305C346.372 377.443 345.888 377.72 345.508 378.1C344.297 379.311 344.297 381.247 345.508 382.458Z" fill="white"/>
<path d="M353.635 374.33C355.088 375.783 357.44 375.783 358.858 374.33C359.342 373.846 359.653 373.258 359.826 372.67L361.002 367.655C361.037 367.482 361.002 367.275 360.864 367.136C360.726 366.998 360.518 366.929 360.345 366.998L355.33 368.174C354.708 368.347 354.12 368.658 353.67 369.142C352.217 370.595 352.217 372.947 353.67 374.365" fill="white"/>
<path d="M441.76 336.909C441.968 337.912 441.31 338.881 440.307 339.088C439.962 339.157 439.65 339.123 439.339 339.019L436.918 338.12C436.918 338.12 436.745 338.016 436.745 337.912C436.745 337.808 436.745 337.705 436.814 337.635L438.682 335.872C438.924 335.664 439.201 335.526 439.547 335.457C440.55 335.249 441.518 335.906 441.725 336.909" fill="white"/>
<path d="M432.491 333.103C432.871 334.417 432.145 335.801 430.831 336.181C430.416 336.32 429.966 336.32 429.551 336.216L426.231 335.317C426.231 335.317 425.989 335.178 425.954 335.075C425.92 334.936 425.954 334.798 426.023 334.729L428.272 332.169C428.548 331.858 428.929 331.616 429.378 331.478C430.693 331.097 432.076 331.823 432.456 333.138" fill="white"/>
<path d="M421.562 331.653C422.219 333.244 421.458 335.042 419.902 335.699C419.383 335.907 418.83 335.976 418.311 335.907L414.092 335.215C414.092 335.215 413.78 335.077 413.746 334.938C413.677 334.765 413.711 334.592 413.78 334.489L416.27 331.03C416.582 330.615 417.031 330.269 417.55 330.062C419.141 329.404 420.94 330.165 421.597 331.722" fill="white"/>
<path d="M410.979 336.044C411.774 337.946 410.875 340.09 408.973 340.886C408.35 341.163 407.693 341.232 407.071 341.128L402.021 340.298C401.848 340.298 401.675 340.125 401.606 339.952C401.537 339.745 401.571 339.572 401.675 339.399L404.65 335.214C405.03 334.695 405.549 334.28 406.171 334.038C408.074 333.242 410.218 334.142 411.013 336.044" fill="white"/>
<path d="M315.245 362.087C315.453 363.09 316.421 363.747 317.424 363.54C317.77 363.47 318.047 363.332 318.289 363.124L320.156 361.361C320.156 361.361 320.26 361.188 320.225 361.084C320.225 360.98 320.122 360.911 320.053 360.876L317.666 359.977C317.355 359.873 317.044 359.839 316.698 359.908C315.695 360.116 315.038 361.084 315.245 362.087Z" fill="white"/>
<path d="M324.514 365.856C324.895 367.171 326.278 367.897 327.592 367.516C328.007 367.378 328.388 367.136 328.699 366.825L330.947 364.265C330.947 364.265 331.051 364.023 331.016 363.919C330.982 363.781 330.878 363.677 330.74 363.643L327.419 362.744C327.004 362.64 326.555 362.64 326.14 362.778C324.825 363.159 324.099 364.542 324.48 365.856" fill="white"/>
<path d="M335.409 367.343C336.066 368.934 337.864 369.66 339.455 369.003C339.974 368.796 340.424 368.45 340.735 368L343.225 364.541C343.225 364.541 343.329 364.23 343.26 364.092C343.19 363.919 343.052 363.815 342.914 363.815L338.694 363.123C338.176 363.054 337.622 363.123 337.103 363.331C335.512 363.988 334.786 365.787 335.443 367.378" fill="white"/>
<path d="M346.027 362.951C346.822 364.853 348.966 365.752 350.869 364.957C351.491 364.715 352.01 364.3 352.39 363.781L355.365 359.596C355.365 359.596 355.503 359.216 355.434 359.043C355.365 358.835 355.192 358.731 355.019 358.697L349.935 357.867C349.312 357.763 348.655 357.867 348.033 358.109C346.13 358.904 345.266 361.049 346.027 362.951Z" fill="white"/>
<path d="M441.76 362.087C441.553 363.09 440.584 363.747 439.581 363.54C439.235 363.47 438.959 363.332 438.717 363.124L436.849 361.361C436.849 361.361 436.745 361.188 436.78 361.084C436.78 360.98 436.884 360.911 436.953 360.876L439.374 359.977C439.685 359.873 439.996 359.839 440.342 359.908C441.345 360.116 442.002 361.084 441.795 362.087" fill="white"/>
<path d="M434.636 355.032C434.497 356.381 433.287 357.384 431.938 357.245C431.488 357.211 431.073 357.038 430.727 356.796L427.995 354.721C427.995 354.721 427.822 354.513 427.857 354.375C427.857 354.236 427.961 354.133 428.064 354.063L431.143 352.542C431.523 352.369 431.973 352.3 432.422 352.334C433.771 352.472 434.774 353.683 434.636 355.032Z" fill="white"/>
<path d="M425.124 349.498C425.124 351.193 423.741 352.576 422.046 352.576C421.493 352.576 420.939 352.438 420.49 352.161L416.858 349.913C416.858 349.913 416.616 349.671 416.616 349.498C416.616 349.325 416.72 349.187 416.858 349.083L420.49 346.835C420.939 346.558 421.493 346.42 422.046 346.42C423.741 346.42 425.124 347.803 425.124 349.498Z" fill="white"/>
<path d="M413.642 349.498C413.642 351.538 411.982 353.198 409.941 353.198C409.249 353.198 408.627 353.025 408.073 352.679L403.716 349.982C403.716 349.982 403.439 349.705 403.439 349.498C403.439 349.29 403.543 349.117 403.716 349.013L408.073 346.316C408.627 346.004 409.249 345.797 409.941 345.797C411.982 345.797 413.642 347.457 413.642 349.498Z" fill="white"/>
<path d="M315.245 336.909C315.038 337.912 315.695 338.881 316.698 339.088C317.044 339.157 317.355 339.123 317.666 339.019L320.053 338.12C320.053 338.12 320.225 338.016 320.225 337.912C320.225 337.808 320.225 337.705 320.156 337.635L318.289 335.872C318.047 335.664 317.77 335.526 317.424 335.457C316.421 335.249 315.453 335.906 315.245 336.909Z" fill="white"/>
<path d="M322.335 343.964C322.197 345.312 323.2 346.523 324.549 346.661C324.998 346.696 325.448 346.627 325.828 346.454L328.907 344.932C328.907 344.932 329.114 344.759 329.114 344.621C329.114 344.482 329.08 344.344 328.976 344.275L326.243 342.2C325.898 341.958 325.483 341.785 325.033 341.75C323.684 341.612 322.474 342.615 322.335 343.964Z" fill="white"/>
<path d="M331.846 349.498C331.846 351.193 333.23 352.576 334.925 352.576C335.478 352.576 336.031 352.438 336.481 352.161L340.112 349.913C340.112 349.913 340.355 349.671 340.355 349.498C340.355 349.325 340.251 349.187 340.112 349.083L336.481 346.835C336.031 346.558 335.478 346.42 334.925 346.42C333.23 346.42 331.846 347.803 331.846 349.498Z" fill="white"/>
<path d="M343.329 349.498C343.329 351.538 344.989 353.198 347.029 353.198C347.721 353.198 348.344 353.025 348.897 352.679L353.255 349.982C353.255 349.982 353.531 349.705 353.531 349.498C353.531 349.29 353.428 349.117 353.255 349.013L348.897 346.316C348.344 346.004 347.721 345.797 347.029 345.797C344.989 345.797 343.329 347.457 343.329 349.498Z" fill="white"/>
<path d="M432.111 385.329C431.557 386.194 430.381 386.401 429.551 385.848C429.275 385.64 429.067 385.398 428.929 385.121L427.857 382.77C427.857 382.77 427.857 382.562 427.857 382.493C427.926 382.424 427.995 382.355 428.099 382.355L430.658 382.458C430.969 382.458 431.281 382.562 431.557 382.77C432.422 383.323 432.63 384.499 432.076 385.329" fill="white"/>
<path d="M428.237 376.094C427.58 377.305 426.093 377.754 424.882 377.097C424.467 376.89 424.156 376.578 423.949 376.198L422.219 373.223C422.219 373.223 422.15 372.981 422.219 372.843C422.288 372.705 422.392 372.636 422.53 372.636L425.954 372.428C426.37 372.428 426.819 372.497 427.2 372.705C428.41 373.362 428.86 374.849 428.203 376.06" fill="white"/>
<path d="M421.562 367.343C420.905 368.934 419.106 369.66 417.515 369.003C416.997 368.796 416.547 368.45 416.236 368L413.746 364.541C413.746 364.541 413.642 364.23 413.711 364.092C413.78 363.919 413.919 363.815 414.057 363.815L418.276 363.123C418.795 363.054 419.349 363.123 419.867 363.331C421.458 363.988 422.185 365.787 421.527 367.378" fill="white"/>
<path d="M410.979 362.951C410.183 364.853 408.039 365.752 406.137 364.957C405.514 364.715 404.995 364.3 404.615 363.781L401.641 359.596C401.641 359.596 401.502 359.216 401.571 359.043C401.641 358.835 401.813 358.731 401.986 358.697L407.036 357.867C407.658 357.763 408.316 357.867 408.938 358.109C410.84 358.904 411.705 361.049 410.944 362.951" fill="white"/>
<path d="M324.86 313.667C324.307 314.532 324.514 315.673 325.379 316.227C325.655 316.434 325.967 316.504 326.278 316.538L328.837 316.642C328.837 316.642 329.01 316.607 329.079 316.504C329.149 316.434 329.149 316.331 329.079 316.227L328.007 313.875C327.869 313.598 327.661 313.322 327.385 313.149C326.52 312.595 325.379 312.803 324.825 313.667" fill="white"/>
<path d="M328.734 322.9C328.076 324.111 328.526 325.598 329.737 326.255C330.152 326.463 330.567 326.567 330.982 326.532L334.406 326.324C334.406 326.324 334.648 326.255 334.717 326.117C334.786 326.013 334.786 325.84 334.717 325.736L332.988 322.762C332.78 322.416 332.434 322.105 332.054 321.897C330.843 321.24 329.356 321.69 328.699 322.9" fill="white"/>
<path d="M335.409 331.653C334.752 333.244 335.512 335.042 337.069 335.699C337.588 335.907 338.141 335.976 338.66 335.907L342.879 335.215C342.879 335.215 343.19 335.077 343.225 334.938C343.294 334.765 343.26 334.592 343.19 334.489L340.7 331.03C340.389 330.615 339.939 330.269 339.421 330.062C337.83 329.404 336.031 330.165 335.374 331.722" fill="white"/>
<path d="M346.027 336.044C345.231 337.946 346.13 340.09 348.032 340.886C348.655 341.163 349.312 341.232 349.935 341.128L355.019 340.298C355.192 340.298 355.365 340.125 355.434 339.952C355.503 339.745 355.468 339.572 355.365 339.399L352.39 335.214C352.01 334.695 351.491 334.28 350.869 334.038C348.966 333.242 346.822 334.142 346.027 336.044Z" fill="white"/>
<path d="M414.334 403.105C413.469 403.659 412.328 403.451 411.774 402.586C411.567 402.31 411.498 401.999 411.463 401.687L411.394 399.128C411.394 399.128 411.428 398.92 411.532 398.886C411.636 398.817 411.74 398.817 411.809 398.886L414.161 399.958C414.437 400.096 414.714 400.304 414.887 400.581C415.44 401.445 415.233 402.586 414.368 403.14" fill="white"/>
<path d="M414.264 393.11C413.227 393.975 411.67 393.837 410.806 392.765C410.529 392.419 410.356 392.004 410.287 391.589L409.837 388.199C409.837 388.199 409.872 387.957 409.976 387.853C410.08 387.75 410.218 387.75 410.356 387.784L413.607 388.891C413.988 389.029 414.368 389.271 414.645 389.652C415.509 390.689 415.371 392.246 414.299 393.11" fill="white"/>
<path d="M411.463 382.458C410.253 383.668 408.316 383.668 407.105 382.458C406.69 382.043 406.448 381.559 406.31 381.074L405.341 376.924C405.341 376.924 405.341 376.613 405.48 376.475C405.618 376.371 405.756 376.302 405.929 376.336L410.08 377.305C410.598 377.443 411.083 377.72 411.463 378.1C412.674 379.311 412.674 381.247 411.463 382.458Z" fill="white"/>
<path d="M403.335 374.33C401.883 375.783 399.531 375.783 398.113 374.33C397.628 373.846 397.317 373.258 397.144 372.67L395.968 367.655C395.934 367.482 395.968 367.275 396.141 367.136C396.28 366.998 396.487 366.929 396.66 366.998L401.675 368.174C402.298 368.347 402.886 368.658 403.335 369.142C404.788 370.595 404.788 372.947 403.335 374.365" fill="white"/>
<path d="M342.672 295.855C341.807 296.408 341.6 297.584 342.153 298.414C342.326 298.691 342.603 298.899 342.879 299.037L345.231 300.109C345.231 300.109 345.439 300.144 345.508 300.109C345.577 300.04 345.646 299.971 345.646 299.867L345.577 297.308C345.577 296.996 345.473 296.685 345.266 296.408C344.712 295.544 343.536 295.336 342.706 295.89" fill="white"/>
<path d="M342.706 305.884C341.669 306.749 341.496 308.305 342.36 309.343C342.637 309.688 343.017 309.931 343.398 310.104L346.649 311.21C346.649 311.21 346.926 311.21 347.029 311.141C347.133 311.072 347.168 310.934 347.168 310.795L346.718 307.406C346.649 306.991 346.476 306.576 346.199 306.23C345.335 305.158 343.778 305.019 342.741 305.884" fill="white"/>
<path d="M345.508 316.502C344.297 317.713 344.297 319.65 345.508 320.86C345.923 321.275 346.407 321.517 346.891 321.656L351.041 322.624C351.041 322.624 351.353 322.624 351.491 322.486C351.629 322.382 351.664 322.209 351.629 322.036L350.661 317.886C350.523 317.367 350.246 316.883 349.866 316.502C348.655 315.292 346.718 315.292 345.508 316.502Z" fill="white"/>
<path d="M353.635 324.631C352.183 326.084 352.183 328.436 353.635 329.854C354.12 330.338 354.708 330.649 355.295 330.822L360.31 331.998C360.483 332.033 360.691 331.998 360.829 331.86C360.968 331.722 361.037 331.514 360.968 331.341L359.792 326.326C359.619 325.704 359.307 325.116 358.823 324.666C357.371 323.213 355.019 323.213 353.601 324.666" fill="white"/>
<path d="M391.057 412.756C390.054 412.963 389.086 412.306 388.878 411.303C388.809 410.957 388.844 410.646 388.947 410.335L389.847 407.948C389.847 407.948 389.95 407.775 390.054 407.775C390.158 407.775 390.262 407.775 390.331 407.879L392.095 409.747C392.302 409.989 392.475 410.266 392.51 410.611C392.717 411.614 392.06 412.583 391.057 412.79" fill="white"/>
<path d="M394.862 403.486C393.547 403.867 392.164 403.141 391.784 401.826C391.645 401.411 391.645 400.962 391.749 400.547L392.648 397.226C392.648 397.226 392.787 396.984 392.925 396.95C393.063 396.915 393.202 396.95 393.271 397.019L395.83 399.267C396.141 399.544 396.384 399.924 396.522 400.374C396.902 401.688 396.176 403.071 394.862 403.452" fill="white"/>
<path d="M396.349 392.557C394.793 393.214 392.96 392.453 392.337 390.897C392.129 390.378 392.06 389.825 392.129 389.306L392.821 385.086C392.821 385.086 392.96 384.775 393.098 384.706C393.271 384.637 393.444 384.671 393.547 384.741L397.041 387.231C397.456 387.542 397.802 387.992 398.009 388.51C398.666 390.101 397.905 391.9 396.349 392.557Z" fill="white"/>
<path d="M391.957 381.974C390.054 382.769 387.91 381.87 387.115 379.968C386.838 379.345 386.769 378.688 386.872 378.066L387.703 372.982C387.703 372.809 387.875 372.636 388.048 372.567C388.256 372.497 388.429 372.532 388.602 372.636L392.787 375.645C393.305 376.025 393.72 376.544 393.963 377.167C394.758 379.069 393.859 381.213 391.957 382.009" fill="white"/>
<path d="M365.913 286.24C364.91 286.448 364.253 287.416 364.461 288.419C364.53 288.765 364.668 289.042 364.876 289.284L366.64 291.151C366.64 291.151 366.813 291.255 366.916 291.221C367.02 291.221 367.089 291.117 367.124 291.048L368.023 288.661C368.127 288.35 368.161 288.039 368.092 287.693C367.885 286.69 366.916 286.033 365.913 286.24Z" fill="white"/>
<path d="M362.109 295.509C360.795 295.89 360.068 297.273 360.449 298.587C360.587 299.002 360.829 299.383 361.141 299.694L363.7 301.942C363.7 301.942 363.942 302.046 364.046 302.011C364.184 301.977 364.288 301.873 364.322 301.735L365.222 298.414C365.325 297.999 365.325 297.55 365.187 297.135C364.807 295.82 363.423 295.094 362.109 295.475" fill="white"/>
<path d="M360.656 306.404C359.065 307.061 358.339 308.859 358.996 310.45C359.204 310.969 359.55 311.419 359.965 311.73L363.458 314.22C363.458 314.22 363.769 314.324 363.907 314.255C364.08 314.185 364.184 314.047 364.184 313.909L364.876 309.689C364.945 309.171 364.876 308.617 364.668 308.098C364.011 306.507 362.213 305.781 360.656 306.438" fill="white"/>
<path d="M403.162 289.906C404.096 290.287 404.546 291.393 404.165 292.327C404.027 292.638 403.819 292.915 403.577 293.088L401.502 294.575C401.502 294.575 401.329 294.644 401.225 294.575C401.122 294.541 401.053 294.437 401.053 294.368L400.637 291.843C400.603 291.532 400.637 291.186 400.776 290.875C401.156 289.941 402.263 289.491 403.197 289.872" fill="white"/>
<path d="M394.862 295.509C396.176 295.89 396.902 297.273 396.522 298.587C396.384 299.002 396.141 299.383 395.83 299.694L393.271 301.942C393.271 301.942 393.029 302.046 392.925 302.011C392.787 301.977 392.683 301.873 392.648 301.735L391.749 298.414C391.645 297.999 391.645 297.55 391.784 297.135C392.164 295.82 393.547 295.094 394.862 295.475" fill="white"/>
<path d="M387.599 303.74C389.259 304.086 390.366 305.712 390.02 307.372C389.916 307.925 389.639 308.409 389.294 308.824L386.354 311.937C386.354 311.937 386.077 312.11 385.904 312.075C385.731 312.075 385.593 311.937 385.558 311.764L384.071 307.752C383.898 307.268 383.864 306.715 383.967 306.161C384.313 304.501 385.939 303.394 387.599 303.74Z" fill="white"/>
<path d="M353.809 409.089C354.742 409.469 355.849 409.019 356.23 408.086C356.368 407.774 356.402 407.429 356.368 407.117L355.953 404.592C355.953 404.592 355.884 404.42 355.78 404.385C355.676 404.35 355.572 404.385 355.503 404.385L353.428 405.872C353.186 406.08 352.978 406.322 352.84 406.633C352.46 407.567 352.909 408.674 353.843 409.054" fill="white"/>
<path d="M362.109 403.486C363.423 403.867 364.807 403.141 365.187 401.826C365.325 401.411 365.325 400.962 365.222 400.547L364.322 397.226C364.322 397.226 364.184 396.984 364.046 396.95C363.907 396.915 363.769 396.95 363.7 397.019L361.141 399.267C360.829 399.544 360.587 399.924 360.449 400.374C360.068 401.688 360.795 403.071 362.109 403.452" fill="white"/>
<path d="M369.407 395.22C371.067 395.566 372.692 394.459 373.038 392.799C373.142 392.246 373.107 391.692 372.934 391.208L371.447 387.196C371.447 387.196 371.274 386.919 371.101 386.885C370.928 386.85 370.755 386.885 370.652 387.023L367.712 390.136C367.366 390.516 367.124 391.035 366.985 391.588C366.64 393.249 367.746 394.874 369.407 395.22Z" fill="white"/>
<path d="M424.087 303.879C424.813 304.605 424.813 305.781 424.087 306.508C423.845 306.75 423.568 306.923 423.257 306.992L420.767 307.58C420.767 307.58 420.559 307.58 420.49 307.51C420.421 307.441 420.386 307.338 420.421 307.234L421.009 304.744C421.078 304.432 421.251 304.156 421.493 303.914C422.219 303.187 423.395 303.187 424.121 303.914" fill="white"/>
<path d="M414.264 305.884C415.302 306.749 415.475 308.305 414.61 309.343C414.333 309.688 413.953 309.931 413.573 310.104L410.322 311.21C410.322 311.21 410.079 311.21 409.941 311.141C409.837 311.072 409.803 310.934 409.803 310.795L410.252 307.406C410.322 306.991 410.494 306.576 410.771 306.23C411.636 305.158 413.192 305.019 414.23 305.884" fill="white"/>
<path d="M404.408 310.727C405.826 311.661 406.206 313.598 405.272 315.016C404.961 315.5 404.546 315.846 404.062 316.088L400.153 317.852C400.153 317.852 399.842 317.921 399.704 317.818C399.566 317.714 399.496 317.575 399.496 317.402L399.635 313.114C399.635 312.595 399.842 312.042 400.153 311.592C401.087 310.174 403.024 309.794 404.442 310.727" fill="white"/>
<path d="M332.884 395.082C333.61 395.808 334.786 395.808 335.512 395.082C335.754 394.84 335.927 394.563 335.996 394.252L336.584 391.762C336.584 391.762 336.584 391.554 336.515 391.485C336.446 391.416 336.342 391.381 336.239 391.416L333.748 392.004C333.437 392.073 333.16 392.246 332.918 392.488C332.192 393.214 332.192 394.39 332.918 395.116" fill="white"/>
<path d="M342.706 393.11C343.744 393.975 345.3 393.837 346.165 392.765C346.442 392.419 346.615 392.004 346.684 391.589L347.133 388.199C347.133 388.199 347.099 387.957 346.995 387.853C346.891 387.75 346.753 387.75 346.615 387.784L343.364 388.891C342.983 389.029 342.603 389.271 342.326 389.652C341.461 390.689 341.6 392.246 342.672 393.11" fill="white"/>
<path d="M352.598 388.268C354.016 389.202 355.918 388.821 356.887 387.403C357.198 386.919 357.371 386.4 357.405 385.882L357.544 381.593C357.544 381.593 357.475 381.282 357.336 381.178C357.198 381.074 357.025 381.074 356.887 381.143L352.978 382.907C352.494 383.149 352.079 383.495 351.768 383.979C350.834 385.397 351.214 387.3 352.633 388.268" fill="white"/>
<path d="M438.094 324.804C438.474 325.737 438.025 326.844 437.091 327.225C436.78 327.363 436.434 327.398 436.123 327.363L433.598 326.948C433.598 326.948 433.425 326.879 433.39 326.775C433.356 326.671 433.39 326.567 433.39 326.498L434.878 324.423C435.05 324.181 435.327 323.974 435.638 323.835C436.572 323.455 437.679 323.904 438.059 324.838" fill="white"/>
<path d="M428.237 322.9C428.894 324.111 428.444 325.598 427.234 326.255C426.819 326.463 426.404 326.567 425.989 326.532L422.565 326.324C422.565 326.324 422.323 326.255 422.254 326.117C422.184 326.013 422.184 325.84 422.254 325.736L423.948 322.762C424.156 322.416 424.502 322.105 424.882 321.897C426.093 321.24 427.58 321.69 428.237 322.9Z" fill="white"/>
<path d="M417.273 323.592C418.207 325.01 417.827 326.913 416.409 327.881C415.925 328.192 415.406 328.365 414.887 328.4L410.598 328.538C410.598 328.538 410.287 328.469 410.183 328.331C410.08 328.192 410.08 328.019 410.149 327.881L411.913 323.973C412.155 323.489 412.501 323.074 412.985 322.762C414.403 321.829 416.305 322.209 417.273 323.627" fill="white"/>
<path d="M318.911 374.158C319.292 375.092 320.398 375.541 321.332 375.161C321.643 375.022 321.92 374.815 322.093 374.573L323.58 372.498C323.58 372.498 323.649 372.325 323.58 372.221C323.546 372.117 323.442 372.083 323.373 372.048L320.848 371.633C320.537 371.598 320.191 371.633 319.879 371.771C318.946 372.152 318.496 373.259 318.876 374.192" fill="white"/>
<path d="M328.734 376.094C329.391 377.305 330.878 377.754 332.088 377.097C332.503 376.89 332.815 376.578 333.022 376.198L334.752 373.223C334.752 373.223 334.821 372.981 334.752 372.843C334.682 372.705 334.579 372.636 334.44 372.636L331.016 372.428C330.601 372.428 330.152 372.497 329.771 372.705C328.561 373.362 328.111 374.849 328.768 376.06" fill="white"/>
<path d="M339.732 375.403C340.666 376.821 342.603 377.202 344.021 376.268C344.505 375.957 344.851 375.542 345.093 375.058L346.857 371.149C346.857 371.149 346.926 370.838 346.822 370.7C346.718 370.561 346.58 370.492 346.407 370.492L342.118 370.631C341.6 370.631 341.081 370.838 340.597 371.149C339.179 372.083 338.798 374.02 339.732 375.438" fill="white"/>
<path d="M442.971 349.498C442.971 350.536 442.141 351.332 441.103 351.332C440.757 351.332 440.446 351.228 440.169 351.089L437.99 349.741C437.99 349.741 437.852 349.602 437.852 349.498C437.852 349.395 437.921 349.291 437.99 349.256L440.169 347.908C440.446 347.735 440.757 347.665 441.103 347.665C442.141 347.665 442.971 348.495 442.971 349.533" fill="white"/>
<path d="M434.636 343.964C434.774 345.312 433.771 346.523 432.422 346.661C431.972 346.696 431.523 346.627 431.142 346.454L428.064 344.932C428.064 344.932 427.857 344.759 427.857 344.621C427.857 344.482 427.891 344.344 427.995 344.275L430.727 342.2C431.073 341.958 431.488 341.785 431.938 341.75C433.287 341.612 434.497 342.615 434.636 343.964Z" fill="white"/>
<path d="M424.225 340.402C424.571 342.062 423.464 343.687 421.804 344.033C421.251 344.137 420.697 344.102 420.213 343.93L416.201 342.442C416.201 342.442 415.925 342.269 415.89 342.097C415.855 341.924 415.89 341.751 416.028 341.647L419.141 338.707C419.521 338.361 420.04 338.119 420.594 337.981C422.254 337.635 423.879 338.742 424.225 340.402Z" fill="white"/>
<path d="M314 349.498C314 350.536 314.83 351.332 315.868 351.332C316.213 351.332 316.525 351.228 316.801 351.089L318.98 349.741C318.98 349.741 319.119 349.602 319.119 349.498C319.119 349.395 319.05 349.291 318.98 349.256L316.801 347.908C316.525 347.735 316.213 347.665 315.868 347.665C314.865 347.665 314 348.495 314 349.533" fill="white"/>
<path d="M322.335 355.032C322.474 356.381 323.684 357.384 325.033 357.245C325.483 357.211 325.898 357.038 326.243 356.796L328.976 354.721C328.976 354.721 329.149 354.513 329.114 354.375C329.114 354.236 329.01 354.133 328.907 354.063L325.828 352.542C325.448 352.369 324.998 352.3 324.549 352.334C323.2 352.472 322.197 353.683 322.335 355.032Z" fill="white"/>
<path d="M332.745 358.594C333.091 360.254 334.717 361.361 336.377 361.015C336.93 360.911 337.415 360.635 337.83 360.289L340.942 357.349C340.942 357.349 341.115 357.072 341.081 356.899C341.081 356.726 340.942 356.588 340.769 356.553L336.757 355.032C336.273 354.859 335.72 354.824 335.167 354.928C333.506 355.274 332.4 356.899 332.745 358.559" fill="white"/>
<path d="M438.094 374.158C437.714 375.092 436.607 375.541 435.673 375.161C435.362 375.022 435.085 374.815 434.912 374.573L433.425 372.498C433.425 372.498 433.356 372.325 433.425 372.221C433.46 372.117 433.563 372.083 433.633 372.048L436.157 371.633C436.469 371.598 436.814 371.633 437.126 371.771C438.06 372.152 438.509 373.259 438.129 374.192" fill="white"/>
<path d="M432.491 365.856C432.111 367.171 430.727 367.897 429.413 367.516C428.998 367.378 428.618 367.136 428.306 366.825L426.058 364.265C426.058 364.265 425.954 364.023 425.989 363.919C426.024 363.781 426.127 363.677 426.266 363.643L429.586 362.744C430.001 362.64 430.451 362.64 430.866 362.778C432.18 363.159 432.906 364.542 432.526 365.856" fill="white"/>
<path d="M424.225 358.594C423.879 360.254 422.254 361.361 420.594 361.015C420.04 360.911 419.556 360.635 419.141 360.289L416.028 357.349C416.028 357.349 415.855 357.072 415.89 356.899C415.89 356.726 416.028 356.588 416.201 356.553L420.213 355.032C420.697 354.859 421.251 354.824 421.804 354.928C423.464 355.274 424.571 356.899 424.225 358.559" fill="white"/>
<path d="M318.911 324.804C318.531 325.737 318.98 326.844 319.914 327.225C320.225 327.363 320.571 327.398 320.883 327.363L323.407 326.948C323.407 326.948 323.58 326.879 323.615 326.775C323.649 326.671 323.615 326.567 323.615 326.498L322.128 324.423C321.92 324.181 321.678 323.974 321.367 323.835C320.433 323.455 319.326 323.904 318.946 324.838" fill="white"/>
<path d="M324.514 333.103C324.134 334.417 324.86 335.801 326.174 336.181C326.589 336.32 327.039 336.32 327.454 336.216L330.774 335.317C330.774 335.317 331.016 335.178 331.051 335.075C331.086 334.936 331.051 334.798 330.982 334.729L328.734 332.169C328.457 331.858 328.077 331.616 327.627 331.478C326.313 331.097 324.929 331.823 324.549 333.138" fill="white"/>
<path d="M332.745 340.402C332.4 342.062 333.506 343.687 335.167 344.033C335.72 344.137 336.273 344.102 336.757 343.93L340.769 342.442C340.769 342.442 341.046 342.269 341.081 342.097C341.115 341.924 341.081 341.751 340.942 341.647L337.83 338.707C337.449 338.361 336.93 338.119 336.377 337.981C334.717 337.635 333.091 338.742 332.745 340.402Z" fill="white"/>
<path d="M424.087 395.082C423.361 395.808 422.185 395.808 421.458 395.082C421.216 394.84 421.043 394.563 420.974 394.252L420.386 391.762C420.386 391.762 420.386 391.554 420.455 391.485C420.525 391.416 420.628 391.381 420.732 391.416L423.222 392.004C423.534 392.073 423.81 392.246 424.052 392.488C424.779 393.214 424.779 394.39 424.052 395.116" fill="white"/>
<path d="M422.115 385.295C421.251 386.367 419.694 386.506 418.657 385.641C418.311 385.365 418.069 384.984 417.896 384.604L416.789 381.353C416.789 381.353 416.789 381.11 416.858 380.972C416.927 380.868 417.066 380.834 417.204 380.834L420.594 381.283C421.009 381.353 421.424 381.525 421.769 381.802C422.842 382.667 422.98 384.223 422.115 385.261" fill="white"/>
<path d="M417.273 375.403C416.339 376.821 414.403 377.202 412.985 376.268C412.5 375.957 412.155 375.542 411.912 375.058L410.149 371.149C410.149 371.149 410.079 370.838 410.183 370.7C410.287 370.561 410.425 370.492 410.598 370.492L414.887 370.631C415.406 370.631 415.924 370.838 416.409 371.149C417.827 372.083 418.207 374.02 417.273 375.438" fill="white"/>
<path d="M332.884 303.879C332.158 304.605 332.158 305.781 332.884 306.508C333.126 306.75 333.403 306.923 333.714 306.992L336.204 307.58C336.204 307.58 336.412 307.58 336.481 307.51C336.55 307.441 336.585 307.338 336.55 307.234L335.962 304.744C335.893 304.432 335.72 304.156 335.478 303.914C334.752 303.187 333.576 303.187 332.849 303.914" fill="white"/>
<path d="M334.89 313.701C334.025 314.773 334.163 316.295 335.236 317.159C335.581 317.436 335.996 317.609 336.411 317.678L339.801 318.128C339.801 318.128 340.043 318.093 340.147 317.989C340.25 317.885 340.25 317.747 340.216 317.609L339.109 314.358C338.971 313.977 338.729 313.597 338.348 313.32C337.311 312.455 335.754 312.594 334.89 313.666" fill="white"/>
<path d="M339.732 323.592C338.798 325.01 339.179 326.913 340.597 327.881C341.081 328.192 341.6 328.365 342.118 328.4L346.407 328.538C346.407 328.538 346.718 328.469 346.822 328.331C346.926 328.192 346.926 328.019 346.857 327.881L345.093 323.973C344.851 323.489 344.505 323.074 344.021 322.762C342.603 321.829 340.7 322.209 339.732 323.627" fill="white"/>
<path d="M403.162 409.089C402.229 409.469 401.122 409.019 400.741 408.086C400.603 407.774 400.568 407.429 400.603 407.117L401.018 404.592C401.018 404.592 401.087 404.42 401.191 404.385C401.295 404.35 401.399 404.385 401.468 404.385L403.543 405.872C403.785 406.08 403.992 406.322 404.131 406.633C404.511 407.567 404.062 408.674 403.128 409.054" fill="white"/>
<path d="M405.099 399.233C403.888 399.89 402.401 399.44 401.744 398.23C401.537 397.815 401.433 397.4 401.467 396.984L401.675 393.56C401.675 393.56 401.744 393.318 401.883 393.249C401.986 393.18 402.159 393.18 402.263 393.249L405.237 394.978C405.583 395.186 405.894 395.532 406.137 395.912C406.794 397.123 406.31 398.61 405.134 399.267" fill="white"/>
<path d="M404.407 388.268C402.989 389.202 401.087 388.821 400.119 387.403C399.807 386.919 399.634 386.4 399.6 385.882L399.461 381.593C399.461 381.593 399.531 381.282 399.669 381.178C399.807 381.074 399.98 381.074 400.119 381.143L404.027 382.907C404.511 383.149 404.926 383.495 405.237 383.979C406.171 385.397 405.791 387.3 404.373 388.268" fill="white"/>
<path d="M353.808 289.906C352.875 290.287 352.425 291.393 352.805 292.327C352.944 292.638 353.151 292.915 353.393 293.088L355.469 294.575C355.469 294.575 355.641 294.644 355.745 294.575C355.849 294.541 355.884 294.437 355.918 294.368L356.333 291.843C356.368 291.532 356.333 291.186 356.195 290.875C355.814 289.941 354.708 289.491 353.774 289.872" fill="white"/>
<path d="M351.906 299.729C350.695 300.386 350.246 301.873 350.903 303.084C351.11 303.464 351.422 303.81 351.802 304.018L354.777 305.712C354.777 305.712 355.019 305.781 355.157 305.712C355.295 305.643 355.365 305.539 355.365 305.401L355.572 301.977C355.572 301.562 355.503 301.112 355.295 300.732C354.638 299.521 353.151 299.072 351.941 299.729" fill="white"/>
<path d="M352.598 310.727C351.18 311.661 350.799 313.598 351.733 315.016C352.044 315.5 352.46 315.846 352.944 316.088L356.852 317.852C356.852 317.852 357.163 317.921 357.302 317.818C357.44 317.714 357.509 317.575 357.509 317.402L357.371 313.114C357.371 312.595 357.163 312.042 356.852 311.592C355.918 310.174 353.981 309.794 352.563 310.727" fill="white"/>
<path d="M378.503 414C377.465 414 376.635 413.17 376.635 412.167C376.635 411.821 376.739 411.51 376.877 411.233L378.226 409.054C378.226 409.054 378.364 408.916 378.468 408.916C378.572 408.916 378.676 408.985 378.71 409.054L380.059 411.233C380.232 411.51 380.301 411.821 380.301 412.167C380.301 413.17 379.471 414 378.433 414" fill="white"/>
<path d="M384.036 405.631C382.687 405.769 381.477 404.766 381.339 403.417C381.304 402.968 381.339 402.518 381.546 402.138L383.068 399.06C383.068 399.06 383.241 398.852 383.379 398.852C383.517 398.852 383.656 398.887 383.725 398.99L385.8 401.723C386.042 402.069 386.215 402.484 386.25 402.933C386.388 404.282 385.385 405.493 384.036 405.631Z" fill="white"/>
<path d="M387.599 395.22C385.939 395.566 384.313 394.459 383.967 392.799C383.864 392.246 383.898 391.692 384.071 391.208L385.558 387.196C385.558 387.196 385.731 386.919 385.904 386.885C386.077 386.85 386.25 386.885 386.354 387.023L389.294 390.136C389.639 390.516 389.881 391.035 390.02 391.588C390.366 393.249 389.259 394.874 387.599 395.22Z" fill="white"/>
<path d="M378.503 284.995C377.465 284.995 376.635 285.825 376.635 286.863C376.635 287.209 376.739 287.52 376.877 287.797L378.226 289.975C378.226 289.975 378.364 290.114 378.468 290.114C378.572 290.114 378.676 290.045 378.71 289.975L380.059 287.797C380.232 287.52 380.301 287.209 380.301 286.863C380.301 285.825 379.471 284.995 378.433 284.995" fill="white"/>
<path d="M372.969 293.329C371.62 293.467 370.617 294.678 370.755 296.027C370.79 296.476 370.963 296.891 371.205 297.237L373.28 299.97C373.28 299.97 373.488 300.142 373.626 300.108C373.764 300.108 373.868 300.004 373.937 299.9L375.459 296.822C375.632 296.442 375.701 295.992 375.667 295.543C375.528 294.194 374.318 293.191 372.969 293.329Z" fill="white"/>
<path d="M369.407 303.74C367.746 304.086 366.64 305.712 366.985 307.372C367.089 307.925 367.366 308.409 367.712 308.824L370.652 311.937C370.652 311.937 370.928 312.11 371.101 312.075C371.274 312.075 371.412 311.937 371.447 311.764L372.934 307.752C373.107 307.268 373.142 306.715 373.038 306.161C372.692 304.501 371.067 303.394 369.407 303.74Z" fill="white"/>
<path d="M365.049 317.022C363.147 317.817 362.247 319.962 363.043 321.864C363.285 322.486 363.735 323.005 364.219 323.386L368.404 326.36C368.404 326.36 368.784 326.498 368.957 326.429C369.13 326.36 369.268 326.187 369.303 326.014L370.133 320.965C370.237 320.342 370.133 319.685 369.891 319.062C369.095 317.16 366.951 316.261 365.049 317.056" fill="white"/>
</g>
</svg>
