<svg width="48" height="48" viewBox="0 0 48 48" fill="none" xmlns="http://www.w3.org/2000/svg">
<path d="M23.9984 47.9968C37.2524 47.9968 47.9968 37.2524 47.9968 23.9984C47.9968 10.7445 37.2524 0 23.9984 0C10.7445 0 0 10.7445 0 23.9984C0 37.2524 10.7445 47.9968 23.9984 47.9968Z" fill="#F89C22"/>
<path d="M16.5653 24.6454L10.3239 18.6563L9.39874 17.7677L8.50447 16.9087C8.48597 17.0509 8.47363 17.193 8.47363 17.3411V31.6534C8.47363 31.8904 8.4983 32.1214 8.54764 32.3465L9.39874 31.529L10.3239 30.6404L16.5653 24.6454Z" fill="white"/>
<path d="M39.3899 16.9087L38.4956 17.7677L37.5705 18.6563L31.3291 24.6513L37.5705 30.6463L38.4956 31.5349L39.3467 32.3524C39.3961 32.1273 39.4207 31.8963 39.4207 31.6593V17.3411C39.4207 17.193 39.4084 17.0509 39.3899 16.9087Z" fill="white"/>
<path d="M10.6262 16.4348L22.005 27.3586C23.0781 28.3894 24.8235 28.3894 25.8966 27.3586L37.2693 16.4348L37.9231 15.8069L38.583 15.173C37.9416 14.4562 36.9979 14.0001 35.9372 14.0001H11.9583C10.8975 13.9941 9.95391 14.4503 9.3125 15.1671L9.97241 15.8009L10.6262 16.4289V16.4348Z" fill="white"/>
<path d="M37.1276 32.7257L30.0289 25.9072L27.2042 28.6204C26.3346 29.4557 25.1813 29.9177 23.9478 29.9177C22.7144 29.9177 21.5611 29.4557 20.6915 28.6204L17.8668 25.9072L10.7743 32.7257L10.1205 33.3536L9.4668 33.9816C10.102 34.6095 10.984 34.9946 11.9584 34.9946H35.9434C36.9241 34.9946 37.806 34.6036 38.4351 33.9816L37.7813 33.3536L37.1276 32.7257Z" fill="white"/>
</svg>
