<svg width="48" height="48" viewBox="0 0 48 48" fill="none" xmlns="http://www.w3.org/2000/svg">
<path fill-rule="evenodd" clip-rule="evenodd" d="M24.0001 0C10.4803 0 0 9.90366 0 23.2801C0 30.2768 2.86742 36.323 7.53724 40.499C7.92905 40.85 8.16605 41.3414 8.18225 41.8676L8.31305 46.1367C8.35505 47.4987 9.76146 48.3843 11.0077 47.8347L15.7711 45.7317C16.1749 45.5535 16.6273 45.5205 17.0527 45.6375C19.2415 46.2393 21.5713 46.5603 24.0001 46.5603C37.52 46.5603 48.0003 36.6566 48.0003 23.2801C48.0003 9.90366 37.52 0 24.0001 0Z" fill="url(#paint0_radial_1537_49768)"/>
<path fill-rule="evenodd" clip-rule="evenodd" d="M9.58736 30.0886L16.6374 18.9033C17.7588 17.1237 20.16 16.6809 21.843 17.9427L27.4501 22.1481C27.9643 22.5339 28.6723 22.5321 29.1847 22.1433L36.7573 16.3959C37.7683 15.6291 39.0877 16.8387 38.4109 17.9121L31.3609 29.0974C30.2395 30.8764 27.8377 31.3198 26.1553 30.058L20.5476 25.8526C20.0334 25.4668 19.3254 25.4686 18.813 25.8574L11.2404 31.6048C10.2294 32.3716 8.90996 31.162 9.58676 30.0886H9.58736Z" fill="white"/>
<defs>
<radialGradient id="paint0_radial_1537_49768" cx="0" cy="0" r="1" gradientUnits="userSpaceOnUse" gradientTransform="translate(9.36006 47.6373) scale(52.3203 52.3203)">
<stop stop-color="#0099FF"/>
<stop offset="0.61" stop-color="#A033FF"/>
<stop offset="0.93" stop-color="#FF5280"/>
<stop offset="1" stop-color="#FF7061"/>
</radialGradient>
</defs>
</svg>
