<svg width="48" height="48" viewBox="0 0 48 48" fill="none" xmlns="http://www.w3.org/2000/svg">
<path d="M23.9984 47.9968C37.2524 47.9968 47.9968 37.2524 47.9968 23.9984C47.9968 10.7445 37.2524 0 23.9984 0C10.7445 0 0 10.7445 0 23.9984C0 37.2524 10.7445 47.9968 23.9984 47.9968Z" fill="#1D9BF0"/>
<path d="M35.5039 18.097C35.5231 18.3525 35.523 18.6079 35.523 18.8634C35.523 26.7064 29.5514 35.7533 18.6332 35.7533C15.4078 35.7533 12.2495 34.8304 9.53516 33.0868C10.0046 33.1443 10.474 33.173 10.9466 33.173C13.6195 33.173 16.2157 32.2789 18.3202 30.6279C15.7814 30.58 13.5525 28.9226 12.7733 26.5052C13.6642 26.6777 14.5807 26.6425 15.4525 26.403C12.6838 25.8442 10.6912 23.4108 10.6912 20.5847V20.508C11.5151 20.9679 12.4411 21.2233 13.3864 21.2521C10.7774 19.5085 9.97265 16.0405 11.5502 13.3261C14.5648 17.0336 19.01 19.2881 23.7841 19.5276C23.3051 17.4647 23.9597 15.306 25.5022 13.8562C27.894 11.608 31.6526 11.723 33.9008 14.1148C35.2293 13.853 36.5034 13.3644 37.669 12.6746C37.2251 14.0478 36.299 15.2166 35.06 15.9574C36.2352 15.8201 37.3848 15.504 38.4674 15.0218C37.669 16.2161 36.6663 17.2571 35.5039 18.097Z" fill="white"/>
</svg>
