<svg width="48" height="48" viewBox="0 0 48 48" fill="none" xmlns="http://www.w3.org/2000/svg">
<path d="M23.9984 47.9968C37.2524 47.9968 47.9968 37.2524 47.9968 23.9984C47.9968 10.7445 37.2524 0 23.9984 0C10.7445 0 0 10.7445 0 23.9984C0 37.2524 10.7445 47.9968 23.9984 47.9968Z" fill="#00BCB4"/>
<path d="M15.9462 10.9072H31.9539V15.3001H33.8611V9H14.0391V15.3001H15.9462V10.9072Z" fill="white"/>
<path d="M36.3153 15.3003H11.5919C9.61475 15.3003 8 16.9087 8 18.8922V29.3499C8 31.327 9.60839 32.9417 11.5919 32.9417H14.0458V39.0002H33.8678V32.9417H36.3217C38.2988 32.9417 39.9135 31.3334 39.9135 29.3499V18.8922C39.9135 16.915 38.3052 15.3003 36.3217 15.3003H36.3153ZM31.9542 31.0346V37.093H15.9466V23.9971H31.9542V31.0282V31.0346Z" fill="white"/>
<path d="M19.0996 27.417V29.3242H28.5402V28.3706V27.417H19.0996Z" fill="white"/>
<path d="M19.0996 31.0278V31.9814V32.935H28.5402V31.9814V31.0278H19.0996Z" fill="white"/>
</svg>
