<svg width="48" height="48" viewBox="0 0 48 48" fill="none" xmlns="http://www.w3.org/2000/svg">
<path d="M37.179 0H10.821C4.84473 0 0 4.84473 0 10.821V37.179C0 43.1553 4.84473 48 10.821 48H37.179C43.1553 48 48 43.1553 48 37.179V10.821C48 4.84473 43.1553 0 37.179 0Z" fill="#06C755"/>
<path d="M39.9992 21.738C39.9992 14.577 32.8202 8.75098 23.9957 8.75098C15.1712 8.75098 7.99219 14.577 7.99219 21.738C7.99219 28.158 13.6862 33.534 21.3767 34.551C21.8972 34.6635 22.6067 34.8945 22.7867 35.34C22.9487 35.745 22.8917 36.378 22.8392 36.7875C22.8392 36.7875 22.6517 37.917 22.6112 38.157C22.5407 38.562 22.2902 39.7395 23.9972 39.0195C25.7057 38.2995 33.2132 33.5925 36.5702 29.7285C38.8892 27.1845 40.0007 24.6045 40.0007 21.738H39.9992Z" fill="white"/>
<path d="M34.6736 25.8733H30.1781C30.0086 25.8733 29.8721 25.7368 29.8721 25.5673V25.5628V18.5908V18.5833C29.8721 18.4138 30.0086 18.2773 30.1781 18.2773H34.6736C34.8416 18.2773 34.9796 18.4153 34.9796 18.5833V19.7188C34.9796 19.8883 34.8431 20.0248 34.6736 20.0248H31.6181V21.2038H34.6736C34.8416 21.2038 34.9796 21.3418 34.9796 21.5098V22.6453C34.9796 22.8148 34.8431 22.9513 34.6736 22.9513H31.6181V24.1303H34.6736C34.8416 24.1303 34.9796 24.2683 34.9796 24.4363V25.5718C34.9796 25.7413 34.8431 25.8778 34.6736 25.8778V25.8733Z" fill="#06C755"/>
<path d="M18.0432 25.8734C18.2112 25.8734 18.3492 25.7369 18.3492 25.5674V24.4319C18.3492 24.2639 18.2112 24.1259 18.0432 24.1259H14.9877V18.5819C14.9877 18.4139 14.8497 18.2759 14.6817 18.2759H13.5462C13.3767 18.2759 13.2402 18.4124 13.2402 18.5819V25.5614V25.5674C13.2402 25.7369 13.3767 25.8734 13.5462 25.8734H18.0417H18.0432Z" fill="#06C755"/>
<path d="M20.7496 18.2773H19.6156C19.4466 18.2773 19.3096 18.4143 19.3096 18.5833V25.5673C19.3096 25.7363 19.4466 25.8733 19.6156 25.8733H20.7496C20.9186 25.8733 21.0556 25.7363 21.0556 25.5673V18.5833C21.0556 18.4143 20.9186 18.2773 20.7496 18.2773Z" fill="#06C755"/>
<path d="M28.476 18.2773H27.3405C27.171 18.2773 27.0345 18.4138 27.0345 18.5833V22.7308L23.8395 18.4153C23.832 18.4048 23.823 18.3943 23.8155 18.3838C23.8155 18.3838 23.8155 18.3838 23.814 18.3823C23.808 18.3763 23.802 18.3688 23.796 18.3628C23.7945 18.3613 23.7915 18.3598 23.79 18.3583C23.784 18.3538 23.7795 18.3493 23.7735 18.3448C23.7705 18.3433 23.7675 18.3403 23.7645 18.3388C23.76 18.3343 23.754 18.3313 23.748 18.3283C23.745 18.3268 23.742 18.3238 23.739 18.3223C23.733 18.3193 23.7285 18.3163 23.7225 18.3133C23.7195 18.3118 23.7165 18.3103 23.7135 18.3088C23.7075 18.3058 23.7015 18.3028 23.6955 18.3013C23.6925 18.3013 23.6895 18.2983 23.685 18.2983C23.679 18.2968 23.673 18.2938 23.667 18.2923C23.664 18.2923 23.6595 18.2908 23.6565 18.2893C23.6505 18.2893 23.6445 18.2863 23.6385 18.2848C23.634 18.2848 23.6295 18.2848 23.625 18.2833C23.619 18.2833 23.6145 18.2818 23.6085 18.2818C23.6025 18.2818 23.598 18.2818 23.592 18.2818C23.589 18.2818 23.5845 18.2818 23.5815 18.2818H22.4535C22.2855 18.2818 22.1475 18.4183 22.1475 18.5878V25.5718C22.1475 25.7398 22.284 25.8778 22.4535 25.8778H23.589C23.7585 25.8778 23.895 25.7413 23.895 25.5718V21.4243L27.0945 25.7458C27.117 25.7773 27.144 25.8028 27.174 25.8223C27.174 25.8223 27.177 25.8238 27.177 25.8253C27.183 25.8298 27.189 25.8328 27.1965 25.8373C27.1995 25.8388 27.2025 25.8403 27.2055 25.8418C27.21 25.8448 27.216 25.8463 27.2205 25.8493C27.225 25.8523 27.231 25.8538 27.2355 25.8553C27.2385 25.8553 27.2415 25.8583 27.2445 25.8583C27.252 25.8613 27.258 25.8628 27.2655 25.8643C27.2655 25.8643 27.2685 25.8643 27.27 25.8643C27.2955 25.8703 27.3225 25.8748 27.3495 25.8748H28.4775C28.6455 25.8748 28.7835 25.7383 28.7835 25.5688V18.5848C28.7835 18.4168 28.647 18.2788 28.4775 18.2788L28.476 18.2773Z" fill="#06C755"/>
</svg>
