<svg width="65" height="80" viewBox="0 0 65 80" fill="none" xmlns="http://www.w3.org/2000/svg">
<g clip-path="url(#clip0_525_14881)">
<g style="mix-blend-mode:multiply">
<path d="M32.9019 80.3155C51.0732 80.3155 65.8039 76.642 65.8039 72.1104C65.8039 67.5788 51.0732 63.9053 32.9019 63.9053C14.7307 63.9053 0 67.5788 0 72.1104C0 76.642 14.7307 80.3155 32.9019 80.3155Z" fill="url(#paint0_radial_525_14881)"/>
</g>
<path d="M45.7962 30.1897L46.9978 32.4954C50.9143 32.8375 54 36.0952 54 40.0967V46.8799C54 49.8847 52.2495 52.473 49.7275 53.7226V57.5307C49.7275 58.8992 48.6297 60 47.2648 60H44.728C43.3632 60 42.2654 58.8992 42.2654 57.5307V54.5407H11.7643V57.5307C11.7643 58.8992 10.6665 60 9.30165 60H6.76484C5.4 60 4.3022 58.8992 4.3022 57.5307V53.7077C1.79506 52.4433 0.0593407 49.8698 0.0593407 46.8799V40.0967C0.0593407 36.125 3.11538 32.8821 6.98736 32.4954L8.18901 30.1897H2.61099C1.17198 30.1897 0 29.0145 0 27.5716V27.289C0 25.846 1.17198 24.6709 2.61099 24.6709H4.73242C6.82418 24.6709 8.61923 25.9204 9.45 27.7055L10.7258 25.2659C12.3874 22.0677 16.0071 20 19.9236 20H34.0615C37.9929 20 41.5978 22.0677 43.2593 25.2659L44.5203 27.6906C45.3511 25.9055 47.1313 24.6709 49.2231 24.6709H51.3593C52.7984 24.6709 53.9703 25.846 53.9703 27.289V27.5716C53.9703 29.0145 52.7984 30.1897 51.3593 30.1897H45.7962Z" fill="url(#paint1_linear_525_14881)"/>
<path d="M18.096 65.9059H0.944667C0.424667 65.9059 0 65.4823 0 64.9529C0 64.4235 0.424667 64 0.944667 64H18.096C18.616 64 19.0407 64.4235 19.0407 64.9529C19.0407 65.4823 18.616 65.9059 18.096 65.9059Z" fill="white"/>
<path d="M12.8267 69.5147H0.944667C0.424667 69.5147 0 69.0912 0 68.5618C0 68.0324 0.424667 67.6089 0.944667 67.6089H12.8267C13.3467 67.6089 13.7713 68.0324 13.7713 68.5618C13.7713 69.0824 13.3467 69.5147 12.8267 69.5147Z" fill="white"/>
<path d="M15.4739 47.2161C14.36 46.678 13.5489 45.9643 13.0282 45.0751C13.004 45.04 13.004 44.9932 13.004 44.9347C13.004 44.8411 13.0646 44.7709 13.1735 44.7124L16.7452 42.2906C16.8178 42.2555 16.8662 42.2321 16.8905 42.2321C16.951 42.2321 17.0236 42.3023 17.1205 42.431C17.7864 43.5776 18.6339 44.1509 19.6509 44.1509C20.341 44.1509 20.8616 43.9871 21.2006 43.6478C21.5517 43.3085 21.7212 42.8522 21.7212 42.2555C21.7212 41.6238 21.5154 41.1441 21.0917 40.7931C20.6679 40.4538 20.0504 40.2783 19.2514 40.2783H17.7864C17.5927 40.2783 17.4958 40.1847 17.4958 39.9975V36.8036C17.4958 36.6164 17.5927 36.5228 17.7864 36.5228H19.0213C20.3652 36.5228 21.0311 35.891 21.0311 34.6275C21.0311 34.0191 20.9222 33.5745 20.68 33.2937C20.45 33.0129 20.0868 32.8725 19.5904 32.8725C19.094 32.8725 18.7308 33.0246 18.4523 33.3405C18.1738 33.6564 17.9922 34.0425 17.8954 34.5105C17.859 34.7094 17.7501 34.803 17.5806 34.7562L13.2583 34.1712C13.0646 34.1361 12.9798 34.0308 13.004 33.867C13.0767 32.9778 13.4157 32.1589 14.021 31.4218C14.6264 30.6847 15.4134 30.0881 16.3941 29.6552C17.3747 29.2223 18.4523 29 19.6509 29C21.6849 29 23.2952 29.4446 24.5059 30.322C25.7045 31.1995 26.3099 32.428 26.3099 34.0074C26.3099 35.0837 26.0677 35.9495 25.5713 36.6047C25.0871 37.2599 24.3727 37.7512 23.4284 38.0671V38.149C24.4817 38.3479 25.3413 38.8159 26.0072 39.5413C26.6731 40.2666 27 41.1909 27 42.3257C27 44.1275 26.3341 45.5197 25.0144 46.5142C23.6947 47.5086 21.9876 48 19.8931 48C18.0649 48 16.5999 47.7309 15.486 47.1927L15.4739 47.2161Z" fill="white"/>
<path d="M30.7889 41.573C30.2582 41.0519 30 40.2702 30 39.2135C30 38.1568 30.2869 37.4186 30.8607 36.854C31.4344 36.2895 32.1803 36 33.084 36C33.9877 36 34.7336 36.2606 35.2643 36.7961C35.8094 37.3173 36.0676 38.0989 36.0676 39.1122C36.0676 40.1255 35.7807 40.965 35.2213 41.5296C34.6619 42.0796 33.916 42.3691 32.9836 42.3691C32.0512 42.3691 31.3053 42.1086 30.7746 41.5875L30.7889 41.573ZM33.6721 40.4005C33.7869 40.1544 33.8299 39.7491 33.8299 39.199C33.8299 38.649 33.7582 38.2726 33.6291 37.9976C33.5 37.737 33.2848 37.5923 32.9836 37.5923C32.7254 37.5923 32.5246 37.7226 32.4098 37.9976C32.2951 38.2581 32.2234 38.6635 32.2234 39.199C32.2234 39.7346 32.2951 40.0965 32.4242 40.3715C32.5676 40.6466 32.7684 40.7768 33.0266 40.7768C33.3422 40.7768 33.543 40.6466 33.6578 40.4005H33.6721ZM32.8545 47.8408C32.8545 47.8408 32.7398 47.8263 32.7111 47.7829C32.6824 47.7394 32.6967 47.696 32.7254 47.6381L39.0082 36.3185C39.0512 36.2316 39.123 36.2027 39.209 36.2027H41.2459C41.2459 36.2027 41.3607 36.2171 41.3893 36.2606C41.418 36.304 41.4037 36.3474 41.375 36.4053L35.0922 47.725C35.0635 47.8118 34.9918 47.8408 34.8914 47.8408H32.8545ZM38.7213 47.2039C38.1906 46.6827 37.9324 45.9011 37.9324 44.8444C37.9324 43.7877 38.2193 43.0495 38.793 42.4849C39.3668 41.9204 40.1127 41.6309 41.0164 41.6309C41.9201 41.6309 42.666 41.8914 43.1967 42.427C43.7418 42.9481 44 43.7298 44 44.7431C44 45.7563 43.7131 46.5959 43.1537 47.1604C42.5943 47.7105 41.8484 48 40.916 48C39.9836 48 39.2377 47.7394 38.707 47.2183L38.7213 47.2039ZM41.6045 46.0314C41.7193 45.7853 41.7623 45.38 41.7623 44.8299C41.7623 44.2799 41.6906 43.9035 41.5615 43.6285C41.4324 43.3534 41.2172 43.2232 40.916 43.2232C40.6578 43.2232 40.457 43.3534 40.3422 43.6285C40.2275 43.9035 40.1557 44.2943 40.1557 44.8299C40.1557 45.3655 40.2275 45.7274 40.3566 46.0024C40.5 46.2774 40.7008 46.4077 40.959 46.4077C41.2746 46.4077 41.4754 46.2774 41.5902 46.0314H41.6045Z" fill="white"/>
<g filter="url(#filter0_b_525_14881)">
<mask id="path-7-inside-1_525_14881" fill="white">
<path fill-rule="evenodd" clip-rule="evenodd" d="M57.7512 22.18C51.7306 9.33617 42.1904 1 31.4151 1H21.4426H19.374C19.6514 1 19.9289 1.01732 20.2063 1.03898C19.9196 1.02369 19.6218 1.01556 19.3121 1.01556C11.6706 1.35518 5.4957 5.97095 0 13.3346H16.6723C19.286 8.73755 22.7572 4.96739 26.3691 2.89334C32.1369 6.15756 36.661 13.3515 39.8284 22.18H31.7701L48.5351 41.5539L65.3001 22.18H57.7512ZM20.5488 1.06099C20.8441 1.08324 21.127 1.11315 21.3983 1.14956C21.1462 1.1119 20.8922 1.08124 20.6364 1.0577C20.6073 1.05918 20.5781 1.06031 20.5488 1.06099Z"/>
</mask>
<path fill-rule="evenodd" clip-rule="evenodd" d="M57.7512 22.18C51.7306 9.33617 42.1904 1 31.4151 1H21.4426H19.374C19.6514 1 19.9289 1.01732 20.2063 1.03898C19.9196 1.02369 19.6218 1.01556 19.3121 1.01556C11.6706 1.35518 5.4957 5.97095 0 13.3346H16.6723C19.286 8.73755 22.7572 4.96739 26.3691 2.89334C32.1369 6.15756 36.661 13.3515 39.8284 22.18H31.7701L48.5351 41.5539L65.3001 22.18H57.7512ZM20.5488 1.06099C20.8441 1.08324 21.127 1.11315 21.3983 1.14956C21.1462 1.1119 20.8922 1.08124 20.6364 1.0577C20.6073 1.05918 20.5781 1.06031 20.5488 1.06099Z" fill="url(#paint2_linear_525_14881)"/>
<path d="M57.7512 22.18L56.8457 22.6045L57.1155 23.18H57.7512V22.18ZM20.2063 1.03898L20.1531 2.03756L20.2842 0.0420142L20.2063 1.03898ZM19.3121 1.01556V0.0155607H19.2899L19.2677 0.0165469L19.3121 1.01556ZM0 13.3346L-0.801409 12.7364L-1.99413 14.3346H0V13.3346ZM16.6723 13.3346V14.3346H17.2541L17.5416 13.8288L16.6723 13.3346ZM26.3691 2.89334L26.8616 2.02305L26.3655 1.74226L25.8711 2.02614L26.3691 2.89334ZM39.8284 22.18V23.18H41.2496L40.7697 21.8423L39.8284 22.18ZM31.7701 22.18V21.18H29.5824L31.014 22.8344L31.7701 22.18ZM48.5351 41.5539L47.7789 42.2083L48.5351 43.0821L49.2913 42.2083L48.5351 41.5539ZM65.3001 22.18L66.0562 22.8344L67.4878 21.18H65.3001V22.18ZM20.5488 1.06099L20.5254 0.0612661L20.4737 2.05816L20.5488 1.06099ZM21.3983 1.14956L21.2653 2.14067L21.546 0.160531L21.3983 1.14956ZM20.6364 1.0577L20.728 0.0619045L20.6569 0.0553623L20.5856 0.0589892L20.6364 1.0577ZM31.4151 2C41.6284 2 50.9002 9.92065 56.8457 22.6045L58.6567 21.7556C52.5611 8.75168 42.7523 0 31.4151 0V2ZM21.4426 2H31.4151V0H21.4426V2ZM21.4426 0H19.374V2H21.4426V0ZM19.374 2C19.6122 2 19.859 2.0149 20.1285 2.03595L20.2842 0.0420142C19.9988 0.0197284 19.6907 0 19.374 0V2ZM19.3121 2.01556C19.6042 2.01556 19.8844 2.02323 20.1531 2.03756L20.2596 0.0403993C19.9549 0.0241475 19.6393 0.0155607 19.3121 0.0155607V2.01556ZM0.801409 13.9327C6.21448 6.67977 12.1457 2.33506 19.3565 2.01457L19.2677 0.0165469C11.1956 0.375309 4.77691 5.26212 -0.801409 12.7364L0.801409 13.9327ZM16.6723 12.3346H0V14.3346H16.6723V12.3346ZM25.8711 2.02614C22.0641 4.21223 18.4788 8.13409 15.803 12.8403L17.5416 13.8288C20.0932 9.34101 23.4503 5.72255 26.8671 3.76054L25.8711 2.02614ZM40.7697 21.8423C37.5779 12.946 32.9481 5.46761 26.8616 2.02305L25.8766 3.76363C31.3257 6.8475 35.7441 13.7571 38.8872 22.5177L40.7697 21.8423ZM31.7701 23.18H39.8284V21.18H31.7701V23.18ZM49.2913 40.8995L32.5263 21.5257L31.014 22.8344L47.7789 42.2083L49.2913 40.8995ZM64.5439 21.5257L47.7789 40.8995L49.2913 42.2083L66.0562 22.8344L64.5439 21.5257ZM57.7512 23.18H65.3001V21.18H57.7512V23.18ZM20.4737 2.05816C20.7497 2.07896 21.0133 2.10686 21.2653 2.14067L21.5313 0.158447C21.2407 0.119443 20.9385 0.0875207 20.624 0.0638194L20.4737 2.05816ZM21.546 0.160531C21.2753 0.120097 21.0026 0.0871724 20.728 0.0619045L20.5448 2.05349C20.7818 2.0753 21.0171 2.10371 21.2506 2.13859L21.546 0.160531ZM20.5723 2.06072C20.6117 2.0598 20.65 2.0583 20.6872 2.05641L20.5856 0.0589892C20.5646 0.0600573 20.5446 0.0608174 20.5254 0.0612661L20.5723 2.06072Z" fill="url(#paint3_linear_525_14881)" mask="url(#path-7-inside-1_525_14881)"/>
</g>
</g>
<defs>
<filter id="filter0_b_525_14881" x="-4" y="-3" width="73.3" height="48.554" filterUnits="userSpaceOnUse" color-interpolation-filters="sRGB">
<feFlood flood-opacity="0" result="BackgroundImageFix"/>
<feGaussianBlur in="BackgroundImageFix" stdDeviation="2"/>
<feComposite in2="SourceAlpha" operator="in" result="effect1_backgroundBlur_525_14881"/>
<feBlend mode="normal" in="SourceGraphic" in2="effect1_backgroundBlur_525_14881" result="shape"/>
</filter>
<radialGradient id="paint0_radial_525_14881" cx="0" cy="0" r="1" gradientUnits="userSpaceOnUse" gradientTransform="translate(32.9019 72.1132) scale(24.0369 9.2202)">
<stop stop-color="#231F20" stop-opacity="0.26"/>
<stop offset="0.468313" stop-color="#888183" stop-opacity="0.18"/>
<stop offset="0.926656" stop-color="white" stop-opacity="0"/>
</radialGradient>
<linearGradient id="paint1_linear_525_14881" x1="1.95636" y1="25.0605" x2="42.5" y2="57.7437" gradientUnits="userSpaceOnUse">
<stop stop-color="#FB64F3"/>
<stop offset="0.2026" stop-color="#D464F5"/>
<stop offset="0.4457" stop-color="#AC64F8"/>
<stop offset="0.668" stop-color="#8F64FA"/>
<stop offset="0.8601" stop-color="#7D64FB"/>
<stop offset="1" stop-color="#7764FB"/>
</linearGradient>
<linearGradient id="paint2_linear_525_14881" x1="50.9659" y1="41.8479" x2="42.4772" y2="-13.5991" gradientUnits="userSpaceOnUse">
<stop stop-color="white" stop-opacity="0.9"/>
<stop offset="0.0001" stop-color="white" stop-opacity="0.84"/>
<stop offset="0.510417" stop-color="white" stop-opacity="0.5"/>
<stop offset="0.895833" stop-color="#FAFAFA" stop-opacity="0.4"/>
<stop offset="1" stop-color="#EFEFEF" stop-opacity="0.3"/>
</linearGradient>
<linearGradient id="paint3_linear_525_14881" x1="8.24689" y1="3.29118" x2="17.9496" y2="63.001" gradientUnits="userSpaceOnUse">
<stop offset="0.286017" stop-color="white" stop-opacity="0"/>
<stop offset="0.437062" stop-color="white"/>
<stop offset="0.676651" stop-color="white" stop-opacity="0"/>
<stop offset="1" stop-color="white"/>
</linearGradient>
<clipPath id="clip0_525_14881">
<rect width="65" height="80" fill="white"/>
</clipPath>
</defs>
</svg>
