<svg width="65" height="80" viewBox="0 0 65 80" fill="none" xmlns="http://www.w3.org/2000/svg">
<g clip-path="url(#clip0_2736_82476)">
<g style="mix-blend-mode:multiply">
<path d="M32.9019 80.3155C51.0732 80.3155 65.8039 76.642 65.8039 72.1104C65.8039 67.5788 51.0732 63.9053 32.9019 63.9053C14.7307 63.9053 0 67.5788 0 72.1104C0 76.642 14.7307 80.3155 32.9019 80.3155Z" fill="url(#paint0_radial_2736_82476)"/>
</g>
<path d="M52.5491 56H4.44646C1.99002 56 0 54.3018 0 52.2094V27.7944C0 25.6982 1.99002 24 4.44646 24H52.5535C55.01 24 57 25.6982 57 27.7944V52.2094C56.9956 54.3018 55.0055 56 52.5491 56Z" fill="url(#paint1_linear_2736_82476)"/>
<path d="M18.096 62.9059H0.944667C0.424667 62.9059 0 62.4823 0 61.9529C0 61.4235 0.424667 61 0.944667 61H18.096C18.616 61 19.0407 61.4235 19.0407 61.9529C19.0407 62.4823 18.616 62.9059 18.096 62.9059Z" fill="white"/>
<path d="M12.8267 66.5147H0.944667C0.424667 66.5147 0 66.0912 0 65.5618C0 65.0324 0.424667 64.6089 0.944667 64.6089H12.8267C13.3467 64.6089 13.7713 65.0324 13.7713 65.5618C13.7713 66.0824 13.3467 66.5147 12.8267 66.5147Z" fill="white"/>
<path d="M28.612 49.1806C27.4201 48.6344 26.5579 47.91 26.0254 47.0075C26 46.9719 26 46.9244 26 46.865C26 46.77 26.0634 46.6988 26.1775 46.6394L29.918 44.1813C29.9941 44.1456 30.0448 44.1219 30.0702 44.1219C30.1336 44.1219 30.2096 44.1931 30.3111 44.3238C30.59 44.775 30.9958 45.1787 31.5283 45.5231C32.0609 45.8675 32.6441 46.0456 33.2654 46.0456C34.0642 46.0456 34.6855 45.8438 35.1293 45.4281C35.5731 45.0125 35.7887 44.4069 35.7887 43.6231C35.7887 42.8394 35.5478 42.2219 35.0786 41.7944C34.6095 41.3669 33.9628 41.1412 33.1386 41.1412C32.3905 41.1412 31.6551 41.4025 30.907 41.9369C30.7675 42.0319 30.6281 42.0556 30.4886 41.9963L26.7861 40.7019C26.6467 40.6425 26.5706 40.5356 26.5706 40.3575L27.2172 31.285C27.2172 31.095 27.3314 31 27.5469 31H39.2502C39.4531 31 39.5545 31.095 39.5545 31.285V34.6694C39.5545 34.8594 39.4531 34.9544 39.2502 34.9544H31.6551L31.4142 37.9706H31.503C32.2637 37.5194 33.2147 37.2938 34.3686 37.2938C36.5241 37.2938 38.1598 37.8637 39.3009 39.0037C40.4421 40.1437 41 41.64 41 43.5044C41 45.535 40.328 47.1262 38.9839 48.2781C37.6399 49.43 35.7253 50 33.2527 50C31.3381 50 29.7912 49.7269 28.612 49.1806Z" fill="white"/>
<path d="M43.6199 44.1797C43.2029 43.7889 43 43.2027 43 42.4101C43 41.6176 43.2254 41.0639 43.6762 40.6405C44.127 40.2171 44.7131 40 45.4232 40C46.1332 40 46.7193 40.1954 47.1363 40.5971C47.5645 40.9879 47.7674 41.5742 47.7674 42.3341C47.7674 43.0941 47.542 43.7238 47.1025 44.1472C46.6629 44.5597 46.0768 44.7768 45.3443 44.7768C44.6117 44.7768 44.0256 44.5814 43.6086 44.1906L43.6199 44.1797ZM45.8852 43.3004C45.9754 43.1158 46.0092 42.8118 46.0092 42.3993C46.0092 41.9867 45.9529 41.7045 45.8514 41.4982C45.75 41.3028 45.5809 41.1942 45.3443 41.1942C45.1414 41.1942 44.9836 41.2919 44.8934 41.4982C44.8033 41.6936 44.7469 41.9976 44.7469 42.3993C44.7469 42.801 44.8033 43.0724 44.9047 43.2786C45.0174 43.4849 45.1752 43.5826 45.3781 43.5826C45.626 43.5826 45.7838 43.4849 45.874 43.3004H45.8852ZM45.2428 48.8806C45.2428 48.8806 45.1527 48.8697 45.1301 48.8372C45.1076 48.8046 45.1189 48.772 45.1414 48.7286L50.0779 40.2388C50.1117 40.1737 50.168 40.152 50.2357 40.152H51.8361C51.8361 40.152 51.9262 40.1628 51.9488 40.1954C51.9713 40.228 51.96 40.2606 51.9375 40.304L47.001 48.7937C46.9785 48.8589 46.9221 48.8806 46.8432 48.8806H45.2428ZM49.8525 48.4029C49.4355 48.0121 49.2326 47.4258 49.2326 46.6333C49.2326 45.8408 49.458 45.2871 49.9088 44.8637C50.3596 44.4403 50.9457 44.2232 51.6557 44.2232C52.3658 44.2232 52.9518 44.4186 53.3689 44.8203C53.7971 45.2111 54 45.7973 54 46.5573C54 47.3172 53.7746 47.9469 53.335 48.3703C52.8955 48.7829 52.3094 49 51.5768 49C50.8443 49 50.2582 48.8046 49.8412 48.4138L49.8525 48.4029ZM52.1178 47.5235C52.208 47.339 52.2418 47.035 52.2418 46.6224C52.2418 46.2099 52.1855 45.9276 52.084 45.7214C51.9826 45.5151 51.8135 45.4174 51.5768 45.4174C51.374 45.4174 51.2162 45.5151 51.126 45.7214C51.0359 45.9276 50.9795 46.2207 50.9795 46.6224C50.9795 47.0241 51.0359 47.2955 51.1373 47.5018C51.25 47.7081 51.4078 47.8058 51.6107 47.8058C51.8586 47.8058 52.0164 47.7081 52.1066 47.5235H52.1178Z" fill="white"/>
<g filter="url(#filter0_b_2736_82476)">
<mask id="path-7-inside-1_2736_82476" fill="white">
<path fill-rule="evenodd" clip-rule="evenodd" d="M57.7512 19.8462C51.7306 7.81119 42.1904 0 31.4151 0H21.4426H19.374C19.6523 0 19.9306 0.0163271 20.209 0.0367157C19.9214 0.0223022 19.6227 0.014641 19.3121 0.014641C11.6706 0.332875 5.4957 4.65796 0 11.5578H16.6723C19.286 7.25031 22.7572 3.71757 26.3691 1.77414C32.1369 4.8328 36.661 11.5737 39.8284 19.8462H31.7701L48.5351 38L65.3001 19.8462H57.7512ZM20.5482 0.0571653C20.8452 0.0781279 21.1298 0.106352 21.4026 0.140736C21.149 0.10518 20.8937 0.0762453 20.6364 0.0540648C20.6071 0.0554611 20.5777 0.0565243 20.5482 0.0571653Z"/>
</mask>
<path fill-rule="evenodd" clip-rule="evenodd" d="M57.7512 19.8462C51.7306 7.81119 42.1904 0 31.4151 0H21.4426H19.374C19.6523 0 19.9306 0.0163271 20.209 0.0367157C19.9214 0.0223022 19.6227 0.014641 19.3121 0.014641C11.6706 0.332875 5.4957 4.65796 0 11.5578H16.6723C19.286 7.25031 22.7572 3.71757 26.3691 1.77414C32.1369 4.8328 36.661 11.5737 39.8284 19.8462H31.7701L48.5351 38L65.3001 19.8462H57.7512ZM20.5482 0.0571653C20.8452 0.0781279 21.1298 0.106352 21.4026 0.140736C21.149 0.10518 20.8937 0.0762453 20.6364 0.0540648C20.6071 0.0554611 20.5777 0.0565243 20.5482 0.0571653Z" fill="url(#paint2_linear_2736_82476)"/>
<path d="M57.7512 19.8462L56.8569 20.2936L57.1333 20.8462H57.7512V19.8462ZM20.209 0.0367157L20.1589 1.03546L20.282 -0.960612L20.209 0.0367157ZM19.3121 0.014641V-0.985359H19.2913L19.2705 -0.984493L19.3121 0.014641ZM0 11.5578L-0.782206 10.9348L-2.07493 12.5578H0V11.5578ZM16.6723 11.5578V12.5578H17.2352L17.5273 12.0766L16.6723 11.5578ZM26.3691 1.77414L26.8377 0.890675L26.3657 0.64041L25.8953 0.893517L26.3691 1.77414ZM39.8284 19.8462V20.8462H41.2821L40.7623 19.4886L39.8284 19.8462ZM31.7701 19.8462V18.8462H29.4855L31.0355 20.5247L31.7701 19.8462ZM48.5351 38L47.8005 38.6784L48.5351 39.474L49.2698 38.6784L48.5351 38ZM65.3001 19.8462L66.0347 20.5247L67.5847 18.8462H65.3001V19.8462ZM20.5482 0.0571653L20.5265 -0.942599L20.4778 1.05468L20.5482 0.0571653ZM21.4026 0.140736L21.2775 1.13289L21.5415 -0.849571L21.4026 0.140736ZM20.6364 0.0540648L20.7223 -0.942239L20.6556 -0.947987L20.5888 -0.944802L20.6364 0.0540648ZM31.4151 1C41.6636 1 50.9274 8.44068 56.8569 20.2936L58.6455 19.3988C52.5339 7.18171 42.7171 -1 31.4151 -1V1ZM21.4426 1H31.4151V-1H21.4426V1ZM21.4426 -1H19.374V1H21.4426V-1ZM19.374 1C19.6154 1 19.865 1.0142 20.1359 1.03404L20.282 -0.960612C19.9963 -0.981542 19.6892 -1 19.374 -1V1ZM19.3121 1.01464C19.6062 1.01464 19.8883 1.0219 20.1589 1.03546L20.259 -0.96203C19.9546 -0.977291 19.6392 -0.985359 19.3121 -0.985359V1.01464ZM0.782206 12.1809C6.18411 5.39873 12.117 1.31515 19.3537 1.01377L19.2705 -0.984493C11.2242 -0.649401 4.80728 3.91719 -0.782206 10.9348L0.782206 12.1809ZM16.6723 10.5578H0V12.5578H16.6723V10.5578ZM25.8953 0.893517C22.0903 2.94086 18.4997 6.61846 15.8174 11.0391L17.5273 12.0766C20.0723 7.88216 23.4242 4.49428 26.843 2.65475L25.8953 0.893517ZM40.7623 19.4886C37.5643 11.1363 32.9253 4.119 26.8377 0.890675L25.9006 2.6576C31.3484 5.5466 35.7577 12.0112 38.8946 20.2038L40.7623 19.4886ZM31.7701 20.8462H39.8284V18.8462H31.7701V20.8462ZM49.2698 37.3216L32.5048 19.1678L31.0355 20.5247L47.8005 38.6784L49.2698 37.3216ZM64.5654 19.1678L47.8005 37.3216L49.2698 38.6784L66.0347 20.5247L64.5654 19.1678ZM57.7512 20.8462H65.3001V18.8462H57.7512V20.8462ZM20.4778 1.05468C20.7567 1.07437 21.023 1.1008 21.2775 1.13289L21.5276 -0.851413C21.2366 -0.8881 20.9338 -0.918109 20.6186 -0.940354L20.4778 1.05468ZM21.5415 -0.849571C21.2703 -0.887595 20.9973 -0.91853 20.7223 -0.942239L20.5505 1.05037C20.79 1.07102 21.0278 1.09795 21.2637 1.13104L21.5415 -0.849571ZM20.5699 1.05693C20.609 1.05608 20.6471 1.05469 20.684 1.05293L20.5888 -0.944802C20.5671 -0.943769 20.5464 -0.943032 20.5265 -0.942599L20.5699 1.05693Z" fill="url(#paint3_linear_2736_82476)" mask="url(#path-7-inside-1_2736_82476)"/>
</g>
<path d="M12.3284 50C10.644 50 9.17798 49.6193 7.93028 48.858C6.68257 48.0771 5.7156 46.9546 5.02936 45.4905C4.34312 44.0068 4 42.2206 4 40.1318C4 36.7545 4.77982 34.2265 6.33945 32.5476C7.89908 30.8492 10.0098 30 12.6716 30C14.3352 30 15.7908 30.3904 17.0385 31.1713C18.2862 31.9327 19.2532 33.0649 19.9395 34.5681C20.6465 36.0713 21 37.877 21 39.9854C21 43.3041 20.2098 45.8028 18.6294 47.4817C17.0489 49.1606 14.9486 50 12.3284 50ZM12.5468 46.1347C13.337 46.1347 13.9505 45.9297 14.3872 45.5198C14.8239 45.0903 15.1254 44.4461 15.2917 43.5871C15.4789 42.7282 15.5725 41.5764 15.5725 40.1318C15.5725 38.0234 15.3125 36.4519 14.7927 35.4173C14.2936 34.3826 13.493 33.8653 12.3908 33.8653C11.6006 33.8653 10.9872 34.08 10.5505 34.5095C10.1138 34.939 9.81223 35.593 9.64587 36.4714C9.47951 37.3499 9.39633 38.5212 9.39633 39.9854C9.39633 42.0937 9.64587 43.6457 10.145 44.6413C10.644 45.6369 11.4446 46.1347 12.5468 46.1347Z" fill="white"/>
<circle cx="23" cy="47" r="2" fill="white"/>
</g>
<defs>
<filter id="filter0_b_2736_82476" x="-4" y="-4" width="73.3" height="46" filterUnits="userSpaceOnUse" color-interpolation-filters="sRGB">
<feFlood flood-opacity="0" result="BackgroundImageFix"/>
<feGaussianBlur in="BackgroundImageFix" stdDeviation="2"/>
<feComposite in2="SourceAlpha" operator="in" result="effect1_backgroundBlur_2736_82476"/>
<feBlend mode="normal" in="SourceGraphic" in2="effect1_backgroundBlur_2736_82476" result="shape"/>
</filter>
<radialGradient id="paint0_radial_2736_82476" cx="0" cy="0" r="1" gradientUnits="userSpaceOnUse" gradientTransform="translate(32.9019 72.1132) scale(24.0369 9.2202)">
<stop stop-color="#231F20" stop-opacity="0.26"/>
<stop offset="0.468313" stop-color="#888183" stop-opacity="0.18"/>
<stop offset="0.926656" stop-color="white" stop-opacity="0"/>
</radialGradient>
<linearGradient id="paint1_linear_2736_82476" x1="28.4962" y1="20.9539" x2="28.4962" y2="52.9546" gradientUnits="userSpaceOnUse">
<stop stop-color="#E3F1FF"/>
<stop offset="0.2049" stop-color="#A2D7FA"/>
<stop offset="0.4098" stop-color="#69C0F5"/>
<stop offset="0.5984" stop-color="#3BAEF1"/>
<stop offset="0.7656" stop-color="#1BA1EE"/>
<stop offset="0.9052" stop-color="#0799ED"/>
<stop offset="1" stop-color="#0096EC"/>
</linearGradient>
<linearGradient id="paint2_linear_2736_82476" x1="50.9659" y1="38.2755" x2="32.4594" y2="-31.4553" gradientUnits="userSpaceOnUse">
<stop stop-color="white" stop-opacity="0.9"/>
<stop offset="0.04" stop-color="white" stop-opacity="0.84"/>
<stop offset="0.28" stop-color="white" stop-opacity="0.5"/>
<stop offset="0.65" stop-color="#FAFAFA" stop-opacity="0.4"/>
<stop offset="1" stop-color="#EFEFEF" stop-opacity="0.3"/>
</linearGradient>
<linearGradient id="paint3_linear_2736_82476" x1="8.24689" y1="2.14689" x2="16.7928" y2="58.2726" gradientUnits="userSpaceOnUse">
<stop offset="0.286017" stop-color="white" stop-opacity="0"/>
<stop offset="0.437062" stop-color="white"/>
<stop offset="0.676651" stop-color="white" stop-opacity="0"/>
<stop offset="1" stop-color="white"/>
</linearGradient>
<clipPath id="clip0_2736_82476">
<rect width="65" height="80" fill="white"/>
</clipPath>
</defs>
</svg>
