<svg width="65" height="80" viewBox="0 0 65 80" fill="none" xmlns="http://www.w3.org/2000/svg">
<g clip-path="url(#clip0_525_14882)">
<path fill-rule="evenodd" clip-rule="evenodd" d="M32.0763 33.5128C33.4737 36.5807 35.3872 38.9348 37.8681 40.5752C37.8824 40.5847 37.8992 40.5897 37.9164 40.5897C37.9331 40.5897 37.9495 40.5945 37.9636 40.6035C40.4504 42.1842 43.3502 43 46.7145 43C51.9053 43 56.1099 41.2564 59.2763 37.7179C62.4428 34.1795 64 28.9487 64 21.9744C64 17.5641 63.3252 13.7692 61.9237 10.5897C60.5221 7.41026 58.6015 5.05128 56.1099 3.41026C53.6183 1.82051 50.7115 1 47.3893 1C42.0427 1 37.8382 2.74359 34.7237 6.33333C31.6092 9.87179 30.0519 15.2051 30 22.2821C30 26.6923 30.7267 30.4359 32.0763 33.5128ZM52.5802 29.5128C52.2735 31.3306 51.6649 32.6511 50.8039 33.5235C50.784 33.5437 50.7502 33.5382 50.7374 33.5128C50.7246 33.4875 50.6908 33.482 50.6703 33.5017C49.7904 34.3475 48.5591 34.7949 47.026 34.7949C44.8458 34.7949 43.2366 33.7692 42.2504 31.6667C41.2641 29.5641 40.745 26.282 40.745 21.8718C40.745 18.7949 40.9527 16.3333 41.2641 14.4872C41.6275 12.641 42.1985 11.3077 43.0809 10.3846C43.9634 9.51282 45.2092 9.05128 46.7664 9.05128C48.9466 9.05128 50.5557 10.1795 51.5939 12.3333C52.5802 14.4872 53.0992 17.8205 53.0992 22.2308C53.0992 25.3077 52.8916 27.6667 52.5802 29.5128ZM48 48.7491C48 49.9763 48.2924 50.8855 48.8933 51.4935C48.8979 51.4981 48.898 51.5056 48.8934 51.5103C48.8889 51.5149 48.889 51.5224 48.8936 51.527C49.4996 52.1294 50.3491 52.4306 51.4098 52.4306C52.4754 52.4306 53.3279 52.0929 53.9672 51.4511C54.6066 50.7925 54.9344 49.813 54.9344 48.6309C54.9344 47.4487 54.6393 46.5368 54.0164 45.9288C53.4098 45.304 52.5574 45 51.5246 45C50.4918 45 49.6393 45.3378 48.9836 45.9964C48.3279 46.655 48 47.5163 48 48.7491ZM52.377 48.7322C52.377 49.3685 52.3287 49.8387 52.2001 50.1265C52.198 50.1311 52.1935 50.1339 52.1885 50.1339C52.1835 50.1339 52.179 50.1369 52.1769 50.1414C52.0452 50.4236 51.8165 50.573 51.459 50.573C51.1639 50.573 50.9344 50.421 50.7705 50.1001C50.623 49.7793 50.541 49.3571 50.541 48.7322C50.541 48.1074 50.623 47.6345 50.7541 47.3305C50.8852 47.0097 51.1148 46.8577 51.4098 46.8577C51.7541 46.8577 52 47.0265 52.1475 47.3305C52.2951 47.6514 52.377 48.0905 52.377 48.7322ZM51.0984 58.7467C51.124 58.7864 51.21 58.8053 51.2461 58.8117C51.2569 58.8136 51.2678 58.8142 51.2787 58.8142H53.6066C53.7984 58.8142 53.8822 58.5943 53.9738 58.4258L61.0164 45.4729C61.0492 45.4053 61.0656 45.3546 61.0328 45.304C60.9672 45.2026 60.8083 45.2364 60.6875 45.2364H58.541C58.4426 45.2364 58.3607 45.2702 58.3115 45.3715L51.1148 58.5778C51.082 58.6454 51.0656 58.696 51.0984 58.7467ZM57.0656 55.3185C57.0656 56.5456 57.358 57.4549 57.9589 58.0628C57.9635 58.0675 57.9636 58.0749 57.959 58.0796C57.9545 58.0843 57.9545 58.0918 57.9592 58.0964C58.5652 58.6988 59.4147 59 60.4754 59C61.541 59 62.3934 58.6622 63.0328 58.0205C63.6721 57.3619 64 56.3824 64 55.2002C64 54.0181 63.7049 53.1062 63.082 52.4982C62.4754 51.8733 61.623 51.5694 60.5902 51.5694C59.5574 51.5694 58.7049 51.9071 58.0492 52.5657C57.3934 53.2244 57.0656 54.0856 57.0656 55.3185ZM61.4426 55.3016C61.4426 55.9378 61.3943 56.4081 61.2656 56.6959C61.2636 56.7004 61.2591 56.7033 61.2541 56.7033C61.2491 56.7033 61.2446 56.7062 61.2424 56.7107C61.1107 56.993 60.8821 57.1423 60.5246 57.1423C60.2295 57.1423 60 56.9903 59.8361 56.6695C59.6885 56.3486 59.6066 55.9264 59.6066 55.3016C59.6066 54.6767 59.6885 54.2207 59.8197 53.8999C59.9508 53.579 60.1803 53.427 60.4754 53.427C60.8197 53.427 61.0656 53.579 61.2131 53.8999C61.3607 54.2207 61.4426 54.6598 61.4426 55.3016Z" fill="url(#paint0_linear_525_14882)"/>
<g style="mix-blend-mode:multiply">
<path d="M32.9019 80.3155C51.0732 80.3155 65.8039 76.642 65.8039 72.1104C65.8039 67.5788 51.0732 63.9053 32.9019 63.9053C14.7307 63.9053 0 67.5788 0 72.1104C0 76.642 14.7307 80.3155 32.9019 80.3155Z" fill="url(#paint1_radial_525_14882)"/>
</g>
<g filter="url(#filter0_b_525_14882)">
<path d="M39.541 20.1308H35.5351V18.2888C35.5351 17.0241 34.6169 16 33.4829 16C32.3489 16 31.4307 17.0241 31.4307 18.2888V20.1308H11.8204V18.2888C11.8204 17.0241 10.9021 16 9.76816 16C8.63419 16 7.71592 17.0241 7.71592 18.2888V20.1308H2.45899C1.09699 20.1308 0 21.3611 0 22.8732V56.2576C0 57.7766 1.10315 59 2.45899 59H39.541C40.903 59 42 57.7697 42 56.2576V22.8732C42 21.3542 40.8968 20.1308 39.541 20.1308Z" fill="url(#paint2_linear_525_14882)"/>
<path d="M35.0351 20.1308V20.6308H35.5351H39.541C40.5716 20.6308 41.5 21.5785 41.5 22.8732V56.2576C41.5 57.5471 40.5762 58.5 39.541 58.5H2.45899C1.42843 58.5 0.5 57.5523 0.5 56.2576V22.8732C0.5 21.5837 1.4238 20.6308 2.45899 20.6308H7.71592H8.21592V20.1308V18.2888C8.21592 17.2476 8.96023 16.5 9.76816 16.5C10.5761 16.5 11.3204 17.2476 11.3204 18.2888V20.1308V20.6308H11.8204H31.4307H31.9307V20.1308V18.2888C31.9307 17.2476 32.675 16.5 33.4829 16.5C34.2908 16.5 35.0351 17.2476 35.0351 18.2888V20.1308Z" stroke="url(#paint3_linear_525_14882)"/>
</g>
<path d="M25.529 29.9159H7.96681C7.43462 29.9159 7 29.4901 7 28.9579C7 28.4257 7.43462 28 7.96681 28H25.529C26.0612 28 26.4958 28.4257 26.4958 28.9579C26.4958 29.4901 26.0612 29.9159 25.529 29.9159Z" fill="white"/>
<path d="M20.1362 33.5436H7.97569C7.4435 33.5436 7.00888 33.1178 7.00888 32.5856C7.00888 32.0534 7.4435 31.6277 7.97569 31.6277H20.1362C20.6684 31.6277 21.103 32.0534 21.103 32.5856C21.103 33.1089 20.6684 33.5436 20.1362 33.5436Z" fill="white"/>
<path d="M13.6798 39H7V43.4935H13.6798V39Z" fill="white"/>
<path d="M36 39H29.3202V43.4935H36V39Z" fill="white"/>
<path d="M24.8621 39H18.1823V43.4935H24.8621V39Z" fill="white"/>
<path d="M13.6798 46.554H7V51.0474H13.6798V46.554Z" fill="white"/>
<path d="M36 46.554H29.3202V51.0474H36V46.554Z" fill="white"/>
<path d="M24.8621 46.554H18.1823V51.0474H24.8621V46.554Z" fill="white"/>
</g>
<defs>
<filter id="filter0_b_525_14882" x="-4" y="12" width="50" height="51" filterUnits="userSpaceOnUse" color-interpolation-filters="sRGB">
<feFlood flood-opacity="0" result="BackgroundImageFix"/>
<feGaussianBlur in="BackgroundImageFix" stdDeviation="2"/>
<feComposite in2="SourceAlpha" operator="in" result="effect1_backgroundBlur_525_14882"/>
<feBlend mode="normal" in="SourceGraphic" in2="effect1_backgroundBlur_525_14882" result="shape"/>
</filter>
<linearGradient id="paint0_linear_525_14882" x1="48.7372" y1="59" x2="35.9366" y2="3.97799" gradientUnits="userSpaceOnUse">
<stop stop-color="#FF681E"/>
<stop offset="0.663793" stop-color="#F89C22"/>
<stop offset="1" stop-color="#FEB251"/>
</linearGradient>
<radialGradient id="paint1_radial_525_14882" cx="0" cy="0" r="1" gradientUnits="userSpaceOnUse" gradientTransform="translate(32.9019 72.1132) scale(24.0369 9.2202)">
<stop stop-color="#231F20" stop-opacity="0.26"/>
<stop offset="0.468313" stop-color="#888183" stop-opacity="0.18"/>
<stop offset="0.926656" stop-color="white" stop-opacity="0"/>
</radialGradient>
<linearGradient id="paint2_linear_525_14882" x1="47.25" y1="46.9031" x2="-23.5229" y2="2.98237" gradientUnits="userSpaceOnUse">
<stop stop-color="white" stop-opacity="0.9"/>
<stop offset="0.04" stop-color="white" stop-opacity="0.84"/>
<stop offset="0.28" stop-color="white" stop-opacity="0.5"/>
<stop offset="0.65" stop-color="#FAFAFA" stop-opacity="0.4"/>
<stop offset="1" stop-color="#EFEFEF" stop-opacity="0.3"/>
</linearGradient>
<linearGradient id="paint3_linear_525_14882" x1="5.30427" y1="18.0515" x2="17.1133" y2="70.2547" gradientUnits="userSpaceOnUse">
<stop offset="0.286017" stop-color="white" stop-opacity="0"/>
<stop offset="0.437062" stop-color="white"/>
<stop offset="0.676651" stop-color="white" stop-opacity="0"/>
<stop offset="1" stop-color="white"/>
</linearGradient>
<clipPath id="clip0_525_14882">
<rect width="65" height="80" fill="white"/>
</clipPath>
</defs>
</svg>
