<svg width="517" height="159" viewBox="0 0 517 159" fill="none" xmlns="http://www.w3.org/2000/svg">
<g opacity="0.25" clip-path="url(#clip0_525_15189)">
<path d="M403 122.611C406.521 122.611 409.423 125.514 409.423 129.034C409.423 130.207 409.115 131.319 408.559 132.246L403.865 139.842C403.865 139.842 403.371 140.336 403 140.336C402.63 140.336 402.321 140.151 402.135 139.842L397.442 132.246C396.886 131.319 396.577 130.207 396.577 129.034C396.577 125.514 399.48 122.611 403 122.611Z" fill="white"/>
<path d="M403 89.383C407.879 89.383 411.832 93.3357 411.832 98.2149C411.832 99.8207 411.399 101.365 410.597 102.662L404.112 113.099C403.865 113.47 403.432 113.717 402.938 113.717C402.444 113.717 402.012 113.47 401.765 113.099L395.28 102.662C394.539 101.365 394.044 99.8207 394.044 98.2149C394.044 93.3357 397.997 89.383 402.876 89.383" fill="white"/>
<path d="M403 43C410.103 43 415.846 48.7438 415.846 55.8464C415.846 58.1933 415.229 60.4167 414.117 62.3313L404.729 77.4629C404.359 78.0188 403.741 78.3893 403.062 78.3893C402.382 78.3893 401.703 78.0188 401.394 77.4629L392.006 62.3313C390.895 60.4167 390.277 58.2551 390.277 55.8464C390.277 48.7438 396.021 43 403.123 43" fill="white"/>
<path d="M438.389 158C438.389 161.52 435.487 164.423 431.966 164.423C430.793 164.423 429.681 164.114 428.755 163.558L421.158 158.865C421.158 158.865 420.726 158.37 420.726 158C420.726 157.629 420.911 157.32 421.158 157.135L428.755 152.441C429.681 151.885 430.793 151.577 431.966 151.577C435.487 151.577 438.389 154.479 438.389 158Z" fill="white"/>
<path d="M471.617 158C471.617 162.879 467.664 166.832 462.785 166.832C461.18 166.832 459.636 166.4 458.339 165.659L447.901 159.174C447.53 158.927 447.283 158.494 447.283 158C447.283 157.506 447.53 157.074 447.901 156.827L458.339 150.342C459.636 149.601 461.18 149.106 462.785 149.106C467.664 149.106 471.617 153.059 471.617 157.938" fill="white"/>
<path d="M518 158C518 165.102 512.256 170.846 505.154 170.846C502.807 170.846 500.583 170.229 498.669 169.117L483.537 159.729C482.981 159.359 482.611 158.741 482.611 158.062C482.611 157.382 482.981 156.703 483.537 156.394L498.669 147.006C500.583 145.895 502.807 145.277 505.154 145.277C512.256 145.277 518 151.021 518 158.123" fill="white"/>
<path d="M367.611 158C367.611 154.479 370.513 151.577 374.034 151.577C375.207 151.577 376.319 151.885 377.245 152.441L384.842 157.135C384.842 157.135 385.336 157.629 385.336 158C385.336 158.37 385.151 158.679 384.842 158.865L377.245 163.558C376.319 164.114 375.207 164.423 374.034 164.423C370.513 164.423 367.611 161.52 367.611 158Z" fill="white"/>
<path d="M334.383 158C334.383 153.121 338.336 149.168 343.215 149.168C344.821 149.168 346.365 149.6 347.662 150.341L358.099 156.826C358.47 157.073 358.717 157.506 358.717 158C358.717 158.494 358.47 158.926 358.099 159.173L347.662 165.658C346.365 166.399 344.821 166.894 343.215 166.894C338.336 166.894 334.383 162.941 334.383 158.062" fill="white"/>
<path d="M288 158C288 150.897 293.744 145.153 300.846 145.153C303.193 145.153 305.417 145.771 307.331 146.883L322.463 156.271C323.019 156.641 323.389 157.259 323.389 157.938C323.389 158.617 323.019 159.297 322.463 159.606L307.331 168.993C305.417 170.105 303.255 170.723 300.846 170.723C293.744 170.723 288 164.979 288 157.876" fill="white"/>
<path d="M377.987 132.986C380.519 130.454 384.595 130.454 387.066 132.986C387.868 133.789 388.424 134.839 388.733 135.889L390.771 144.536C390.833 144.845 390.771 145.215 390.524 145.462C390.277 145.709 389.907 145.771 389.598 145.709L380.951 143.671C379.901 143.424 378.851 142.806 378.048 142.004C375.516 139.471 375.516 135.395 378.048 132.925" fill="white"/>
<path d="M354.517 109.517C357.976 106.058 363.596 106.058 367.055 109.517C368.228 110.691 368.969 112.049 369.34 113.532L372.119 125.452C372.243 125.884 372.119 126.378 371.749 126.749C371.378 127.119 370.946 127.181 370.452 127.119L358.532 124.34C357.049 123.969 355.691 123.166 354.517 122.055C351.058 118.596 351.058 112.976 354.517 109.517Z" fill="white"/>
<path d="M321.66 76.6602C326.663 71.6575 334.815 71.6575 339.818 76.6602C341.486 78.3277 342.597 80.3658 343.153 82.4657L347.229 99.8207C347.353 100.438 347.229 101.179 346.674 101.674C346.18 102.168 345.438 102.353 344.821 102.229L327.466 98.1532C325.304 97.5973 323.328 96.4856 321.66 94.818C316.658 89.8154 316.658 81.6628 321.66 76.6602Z" fill="white"/>
<path d="M428.013 132.987C430.545 135.519 430.545 139.533 428.013 142.066C427.149 142.868 426.16 143.486 425.11 143.733L416.464 145.771C416.155 145.833 415.784 145.771 415.537 145.524C415.29 145.277 415.229 144.907 415.29 144.598L417.328 135.951C417.637 134.901 418.193 133.851 418.996 133.048C421.528 130.516 425.605 130.516 428.075 133.048" fill="white"/>
<path d="M451.483 109.517C454.941 112.976 454.941 118.596 451.483 122.055C450.309 123.228 448.951 123.969 447.468 124.34L435.487 127.119C435.054 127.243 434.56 127.119 434.19 126.749C433.819 126.378 433.696 125.946 433.819 125.452L436.598 113.532C436.969 112.049 437.772 110.691 438.883 109.517C442.342 106.058 447.962 106.058 451.421 109.517" fill="white"/>
<path d="M484.34 76.6602C489.343 81.6628 489.343 89.8154 484.34 94.818C482.672 96.4856 480.634 97.5973 478.534 98.1532L461.179 102.229C460.5 102.353 459.821 102.229 459.327 101.674C458.832 101.179 458.647 100.438 458.771 99.8207L462.847 82.4657C463.403 80.3041 464.515 78.3277 466.182 76.6602C471.185 71.6575 479.337 71.6575 484.34 76.6602Z" fill="white"/>
<path d="M447.036 51.7704C453.583 54.4879 456.733 62.0228 454.015 68.5695C453.089 70.7311 451.668 72.5222 449.939 73.881L435.425 84.2569C434.869 84.6275 434.19 84.751 433.51 84.4422C432.831 84.1951 432.398 83.5775 432.275 82.9599L429.372 65.3579C429.063 63.1962 429.372 60.9111 430.237 58.6876C432.954 52.1409 440.489 48.9911 447.036 51.7086" fill="white"/>
<path d="M296.77 113.964C299.488 107.417 307.023 104.268 313.569 106.985C315.731 107.912 317.522 109.332 318.881 111.061L329.257 125.575C329.627 126.131 329.751 126.811 329.442 127.49C329.195 128.169 328.577 128.602 327.96 128.663L310.358 131.566C308.196 131.875 305.911 131.566 303.687 130.701C297.141 127.984 293.991 120.449 296.708 113.902" fill="white"/>
<path d="M358.964 51.7699C365.511 49.0524 373.046 52.1405 375.763 58.749C376.69 60.9106 376.937 63.1958 376.628 65.4192L373.725 83.0212C373.602 83.6388 373.169 84.2565 372.552 84.5035C371.872 84.7505 371.193 84.6888 370.637 84.3182L356.123 73.9423C354.394 72.5835 352.911 70.7924 352.047 68.6308C349.329 62.0841 352.479 54.5492 359.026 51.8317" fill="white"/>
<path d="M509.23 113.964C511.947 120.511 508.859 128.046 502.251 130.763C500.089 131.69 497.804 131.937 495.58 131.628L477.978 128.725C477.361 128.602 476.743 128.169 476.496 127.49C476.249 126.811 476.311 126.131 476.681 125.575L487.057 111.061C488.416 109.332 490.207 107.85 492.369 106.985C498.916 104.268 506.45 107.417 509.168 113.964" fill="white"/>
</g>
<g opacity="0.25" clip-path="url(#clip1_525_15189)">
<path d="M68.5001 137.42C70.597 137.42 72.3261 139.149 72.3261 141.246C72.3261 141.945 72.1421 142.608 71.811 143.159L69.0151 147.684C69.0151 147.684 68.7208 147.979 68.5001 147.979C68.2793 147.979 68.0954 147.868 67.985 147.684L65.1891 143.159C64.858 142.608 64.6741 141.945 64.6741 141.246C64.6741 139.149 66.4031 137.42 68.5001 137.42Z" fill="white"/>
<path d="M68.5001 117.628C71.4064 117.628 73.7608 119.983 73.7608 122.889C73.7608 123.845 73.5033 124.765 73.0251 125.538L69.1623 131.755C69.0151 131.976 68.7576 132.123 68.4633 132.123C68.169 132.123 67.9115 131.976 67.7643 131.755L63.9015 125.538C63.4601 124.765 63.1658 123.845 63.1658 122.889C63.1658 119.983 65.5202 117.628 68.4265 117.628" fill="white"/>
<path d="M68.5 90C72.7307 90 76.152 93.4213 76.152 97.652C76.152 99.0499 75.7841 100.374 75.122 101.515L69.5301 110.528C69.3094 110.859 68.9415 111.08 68.5368 111.08C68.1322 111.08 67.7275 110.859 67.5435 110.528L61.9517 101.515C61.2895 100.374 60.9216 99.0867 60.9216 97.652C60.9216 93.4213 64.343 90 68.5736 90" fill="white"/>
<path d="M89.5798 158.5C89.5798 160.597 87.8508 162.326 85.7538 162.326C85.0549 162.326 84.3927 162.142 83.8408 161.811L79.3159 159.015C79.3159 159.015 79.0583 158.721 79.0583 158.5C79.0583 158.279 79.1687 158.095 79.3159 157.985L83.8408 155.189C84.3927 154.858 85.0549 154.674 85.7538 154.674C87.8508 154.674 89.5798 156.403 89.5798 158.5Z" fill="white"/>
<path d="M109.372 158.5C109.372 161.406 107.017 163.761 104.111 163.761C103.155 163.761 102.235 163.503 101.462 163.062L95.2451 159.199C95.0243 159.052 94.8772 158.794 94.8772 158.5C94.8772 158.206 95.0243 157.948 95.2451 157.801L101.462 153.938C102.235 153.497 103.155 153.203 104.111 153.203C107.017 153.203 109.372 155.557 109.372 158.463" fill="white"/>
<path d="M137 158.5C137 162.731 133.579 166.152 129.348 166.152C127.95 166.152 126.626 165.784 125.485 165.122L116.472 159.53C116.141 159.309 115.92 158.941 115.92 158.537C115.92 158.132 116.141 157.727 116.472 157.543L125.485 151.952C126.626 151.289 127.95 150.922 129.348 150.922C133.579 150.922 137 154.343 137 158.573" fill="white"/>
<path d="M47.4202 158.5C47.4202 156.403 49.1492 154.674 51.2462 154.674C51.9451 154.674 52.6073 154.858 53.1592 155.189L57.6841 157.985C57.6841 157.985 57.9784 158.279 57.9784 158.5C57.9784 158.721 57.8681 158.905 57.6841 159.015L53.1592 161.811C52.6073 162.142 51.9451 162.326 51.2462 162.326C49.1492 162.326 47.4202 160.597 47.4202 158.5Z" fill="white"/>
<path d="M27.6282 158.5C27.6282 155.594 29.9826 153.239 32.8889 153.239C33.8454 153.239 34.7651 153.497 35.5377 153.938L41.7549 157.801C41.9756 157.948 42.1228 158.206 42.1228 158.5C42.1228 158.794 41.9756 159.052 41.7549 159.199L35.5377 163.062C34.7651 163.503 33.8454 163.797 32.8889 163.797C29.9826 163.797 27.6282 161.443 27.6282 158.537" fill="white"/>
<path d="M0 158.5C0 154.269 3.42132 150.848 7.65199 150.848C9.04994 150.848 10.3743 151.216 11.5148 151.878L20.5279 157.47C20.859 157.691 21.0798 158.058 21.0798 158.463C21.0798 158.868 20.859 159.272 20.5279 159.456L11.5148 165.048C10.3743 165.71 9.08673 166.078 7.65199 166.078C3.42132 166.078 0 162.657 0 158.426" fill="white"/>
<path d="M53.6008 143.601C55.1091 142.092 57.5372 142.092 59.0087 143.601C59.4869 144.079 59.818 144.704 60.002 145.33L61.216 150.48C61.2528 150.664 61.216 150.885 61.0688 151.032C60.9217 151.179 60.701 151.216 60.517 151.179L55.3666 149.965C54.7412 149.818 54.1158 149.45 53.6376 148.972C52.1293 147.463 52.1293 145.035 53.6376 143.564" fill="white"/>
<path d="M39.621 129.621C41.6812 127.561 45.0289 127.561 47.0891 129.621C47.7881 130.32 48.2295 131.129 48.4503 132.012L50.1057 139.113C50.1793 139.37 50.1057 139.664 49.885 139.885C49.6643 140.106 49.4068 140.143 49.1124 140.106L42.0123 138.45C41.1294 138.23 40.32 137.751 39.621 137.089C37.5609 135.029 37.5609 131.681 39.621 129.621Z" fill="white"/>
<path d="M20.0496 110.05C23.0295 107.07 27.8855 107.07 30.8654 110.05C31.8587 111.043 32.5209 112.257 32.852 113.508L35.28 123.845C35.3536 124.213 35.28 124.655 34.9489 124.949C34.6546 125.243 34.2131 125.354 33.8452 125.28L23.5077 122.852C22.2201 122.521 21.0429 121.859 20.0496 120.865C17.0697 117.886 17.0697 113.03 20.0496 110.05Z" fill="white"/>
<path d="M83.3993 143.601C84.9076 145.109 84.9076 147.5 83.3993 149.009C82.8843 149.487 82.2956 149.855 81.6702 150.002L76.5199 151.216C76.3359 151.253 76.1152 151.216 75.968 151.069C75.8209 150.922 75.7841 150.701 75.8209 150.517L77.0349 145.367C77.2188 144.741 77.5499 144.116 78.0282 143.638C79.5365 142.129 81.9645 142.129 83.4361 143.638" fill="white"/>
<path d="M97.3789 129.621C99.4391 131.681 99.4391 135.029 97.3789 137.089C96.6799 137.788 95.8706 138.23 94.9877 138.45L87.8507 140.106C87.5932 140.179 87.2989 140.106 87.0782 139.885C86.8574 139.664 86.7838 139.407 86.8574 139.113L88.5129 132.012C88.7336 131.129 89.2119 130.32 89.8741 129.621C91.9342 127.561 95.282 127.561 97.3421 129.621" fill="white"/>
<path d="M116.95 110.05C119.93 113.03 119.93 117.886 116.95 120.865C115.957 121.859 114.743 122.521 113.492 122.852L103.155 125.28C102.75 125.354 102.345 125.28 102.051 124.949C101.757 124.655 101.646 124.213 101.72 123.845L104.148 113.508C104.479 112.22 105.141 111.043 106.134 110.05C109.114 107.07 113.97 107.07 116.95 110.05Z" fill="white"/>
<path d="M94.7302 95.2241C98.6298 96.8427 100.506 101.331 98.8873 105.23C98.3355 106.518 97.4893 107.585 96.4593 108.394L87.814 114.575C87.4829 114.795 87.0782 114.869 86.6735 114.685C86.2689 114.538 86.0114 114.17 85.9378 113.802L84.2087 103.317C84.0248 102.03 84.2087 100.669 84.7238 99.3444C86.3425 95.4448 90.8306 93.5686 94.7302 95.1873" fill="white"/>
<path d="M5.22405 132.27C6.84274 128.37 11.3309 126.494 15.2305 128.113C16.5181 128.665 17.585 129.511 18.3943 130.541L24.5748 139.186C24.7955 139.517 24.8691 139.922 24.6851 140.327C24.538 140.731 24.1701 140.989 23.8022 141.026L13.3175 142.755C12.0299 142.939 10.6687 142.755 9.34435 142.24C5.44478 140.621 3.56858 136.133 5.18727 132.233" fill="white"/>
<path d="M42.27 95.2238C46.1695 93.6051 50.6577 95.4446 52.2764 99.3809C52.8282 100.669 52.9754 102.03 52.7915 103.354L51.0624 113.839C50.9888 114.207 50.7313 114.575 50.3634 114.722C49.9587 114.869 49.5541 114.832 49.223 114.611L40.5777 108.431C39.5476 107.622 38.6647 106.555 38.1497 105.267C36.531 101.367 38.4072 96.8793 42.3068 95.2606" fill="white"/>
<path d="M131.776 132.27C133.395 136.17 131.555 140.658 127.619 142.276C126.331 142.828 124.97 142.975 123.646 142.791L113.161 141.062C112.793 140.989 112.425 140.731 112.278 140.327C112.131 139.922 112.168 139.517 112.389 139.186L118.569 130.541C119.378 129.511 120.445 128.628 121.733 128.113C125.632 126.494 130.121 128.37 131.739 132.27" fill="white"/>
</g>
<g opacity="0.25">
<path d="M234.5 34.9595C236.046 34.9595 237.321 36.2342 237.321 37.7802C237.321 38.2955 237.185 38.7836 236.941 39.1905L234.88 42.5264C234.88 42.5264 234.663 42.7434 234.5 42.7434C234.337 42.7434 234.202 42.662 234.12 42.5264L232.059 39.1905C231.815 38.7836 231.679 38.2955 231.679 37.7802C231.679 36.2342 232.954 34.9595 234.5 34.9595Z" fill="white"/>
<path d="M234.5 20.3682C236.643 20.3682 238.378 22.104 238.378 24.2466C238.378 24.9517 238.188 25.6298 237.836 26.1993L234.988 30.7828C234.88 30.9456 234.69 31.054 234.473 31.054C234.256 31.054 234.066 30.9456 233.958 30.7828L231.11 26.1993C230.784 25.6298 230.567 24.9517 230.567 24.2466C230.567 22.104 232.303 20.3682 234.446 20.3682" fill="white"/>
<path d="M234.5 0C237.619 0 240.141 2.52229 240.141 5.64124C240.141 6.67185 239.87 7.64822 239.382 8.48899L235.259 15.1337C235.097 15.3778 234.826 15.5405 234.527 15.5405C234.229 15.5405 233.931 15.3778 233.795 15.1337L229.672 8.48899C229.184 7.64822 228.913 6.69897 228.913 5.64124C228.913 2.52229 231.435 0 234.554 0" fill="white"/>
<path d="M234.5 66.0405C232.954 66.0405 231.679 64.7658 231.679 63.2199C231.679 62.7046 231.815 62.2164 232.059 61.8096L234.12 58.4737C234.12 58.4737 234.337 58.2567 234.5 58.2567C234.663 58.2567 234.798 58.3381 234.88 58.4737L236.941 61.8096C237.185 62.2164 237.321 62.7046 237.321 63.2199C237.321 64.7658 236.046 66.0405 234.5 66.0405Z" fill="white"/>
<path d="M234.5 80.6319C232.357 80.6319 230.622 78.8961 230.622 76.7535C230.622 76.0483 230.811 75.3703 231.164 74.8008L234.012 70.2173C234.12 70.0545 234.31 69.946 234.527 69.946C234.744 69.946 234.934 70.0545 235.042 70.2173L237.89 74.8008C238.216 75.3703 238.433 76.0483 238.433 76.7535C238.433 78.8961 236.697 80.6319 234.554 80.6319" fill="white"/>
<path d="M234.5 101C231.381 101 228.859 98.4777 228.859 95.3588C228.859 94.3282 229.13 93.3518 229.618 92.511L233.741 85.8663C233.903 85.6222 234.175 85.4595 234.473 85.4595C234.771 85.4595 235.07 85.6222 235.205 85.8663L239.328 92.511C239.816 93.3518 240.087 94.301 240.087 95.3588C240.087 98.4777 237.565 101 234.446 101" fill="white"/>
<path d="M250.041 50.4999C250.041 52.0459 248.766 53.3206 247.22 53.3206C246.705 53.3206 246.217 53.185 245.81 52.9409L242.474 50.8796C242.474 50.8796 242.284 50.6627 242.284 50.4999C242.284 50.3372 242.365 50.2016 242.474 50.1202L245.81 48.059C246.217 47.8149 246.705 47.6793 247.22 47.6793C248.766 47.6793 250.041 48.954 250.041 50.4999Z" fill="white"/>
<path d="M264.632 50.5C264.632 52.6426 262.896 54.3784 260.754 54.3784C260.048 54.3784 259.37 54.1885 258.801 53.8631L254.217 51.0153C254.055 50.9068 253.946 50.717 253.946 50.5C253.946 50.283 254.055 50.0932 254.217 49.9847L258.801 47.137C259.37 46.8115 260.048 46.5945 260.754 46.5945C262.896 46.5945 264.632 48.3303 264.632 50.4729" fill="white"/>
<path d="M285 50.5C285 53.6189 282.478 56.1412 279.359 56.1412C278.328 56.1412 277.352 55.87 276.511 55.3818L269.866 51.2594C269.622 51.0966 269.459 50.8254 269.459 50.5271C269.459 50.2287 269.622 49.9304 269.866 49.7948L276.511 45.6724C277.352 45.1842 278.328 44.913 279.359 44.913C282.478 44.913 285 47.4352 285 50.5542" fill="white"/>
<path d="M218.959 50.4999C218.959 48.954 220.234 47.6793 221.78 47.6793C222.295 47.6793 222.784 47.8149 223.19 48.059L226.526 50.1202C226.526 50.1202 226.743 50.3372 226.743 50.4999C226.743 50.6627 226.662 50.7983 226.526 50.8796L223.19 52.9409C222.784 53.185 222.295 53.3206 221.78 53.3206C220.234 53.3206 218.959 52.0459 218.959 50.4999Z" fill="white"/>
<path d="M204.368 50.4999C204.368 48.3573 206.104 46.6216 208.247 46.6216C208.952 46.6216 209.63 46.8114 210.199 47.1369L214.783 49.9846C214.945 50.0931 215.054 50.283 215.054 50.4999C215.054 50.7169 214.945 50.9068 214.783 51.0152L210.199 53.863C209.63 54.1884 208.952 54.4054 208.247 54.4054C206.104 54.4054 204.368 52.6696 204.368 50.5271" fill="white"/>
<path d="M184 50.4999C184 47.3809 186.522 44.8586 189.641 44.8586C190.672 44.8586 191.648 45.1299 192.489 45.618L199.134 49.7405C199.378 49.9032 199.541 50.1744 199.541 50.4728C199.541 50.7711 199.378 51.0694 199.134 51.205L192.489 55.3275C191.648 55.8157 190.699 56.0869 189.641 56.0869C186.522 56.0869 184 53.5646 184 50.4456" fill="white"/>
<path d="M223.516 39.5157C224.628 38.4038 226.418 38.4038 227.503 39.5157C227.855 39.8683 228.099 40.3294 228.235 40.7904L229.13 44.5874C229.157 44.723 229.13 44.8858 229.021 44.9943C228.913 45.1027 228.75 45.1299 228.615 45.1027L224.818 44.2077C224.357 44.0993 223.896 43.828 223.543 43.4755C222.431 42.3635 222.431 40.5735 223.543 39.4886" fill="white"/>
<path d="M213.21 29.2097C214.728 27.6909 217.196 27.6909 218.715 29.2097C219.231 29.725 219.556 30.3217 219.719 30.9726L220.939 36.207C220.993 36.3969 220.939 36.6138 220.777 36.7766C220.614 36.9393 220.424 36.9664 220.207 36.9393L214.973 35.7188C214.322 35.5561 213.725 35.2035 213.21 34.7153C211.691 33.1966 211.691 30.7285 213.21 29.2097Z" fill="white"/>
<path d="M198.781 14.7812C200.978 12.5843 204.558 12.5843 206.755 14.7812C207.487 15.5134 207.975 16.4084 208.219 17.3306L210.009 24.9517C210.064 25.2229 210.009 25.5483 209.765 25.7653C209.548 25.9823 209.223 26.0637 208.952 26.0094L201.331 24.2194C200.381 23.9753 199.513 23.4871 198.781 22.7548C196.584 20.558 196.584 16.978 198.781 14.7812Z" fill="white"/>
<path d="M245.484 61.4842C244.372 62.5961 242.609 62.5961 241.497 61.4842C241.118 61.1316 240.874 60.6705 240.765 60.2095L239.87 56.4125C239.843 56.2769 239.87 56.1141 239.979 56.0057C240.087 55.8972 240.25 55.8701 240.385 55.8972L244.182 56.7922C244.643 56.9007 245.105 57.1448 245.457 57.5244C246.569 58.6364 246.569 60.4264 245.457 61.5113" fill="white"/>
<path d="M255.79 71.7903C254.271 73.3091 251.803 73.3091 250.285 71.7903C249.769 71.275 249.444 70.6783 249.281 70.0274L248.061 64.7929C248.006 64.6031 248.061 64.3861 248.223 64.2234C248.386 64.0607 248.576 64.0336 248.793 64.0607L254.027 65.2811C254.678 65.4439 255.275 65.7964 255.79 66.2846C257.309 67.8034 257.309 70.2715 255.79 71.7903Z" fill="white"/>
<path d="M270.219 86.2187C268.022 88.4155 264.442 88.4155 262.245 86.2187C261.513 85.4864 261.025 84.5914 260.781 83.6693L258.991 76.0482C258.936 75.777 258.991 75.4515 259.235 75.2345C259.452 75.0176 259.75 74.9362 260.048 74.9905L267.669 76.7805C268.619 77.0246 269.487 77.5127 270.219 78.245C272.416 80.4418 272.416 84.0219 270.219 86.2187Z" fill="white"/>
<path d="M245.484 39.5158C246.596 40.6278 246.596 42.3907 245.484 43.5027C245.105 43.8553 244.671 44.1265 244.21 44.235L240.413 45.13C240.277 45.1571 240.114 45.13 240.006 45.0215C239.897 44.913 239.87 44.7503 239.897 44.6147L240.792 40.8177C240.928 40.3566 241.172 39.8955 241.525 39.543C242.636 38.431 244.427 38.431 245.511 39.543" fill="white"/>
<path d="M255.79 29.2097C257.309 30.7285 257.309 33.1966 255.79 34.7153C255.275 35.2307 254.678 35.5561 254.027 35.7188L248.766 36.9393C248.576 36.9935 248.359 36.9393 248.196 36.7766C248.034 36.6138 247.979 36.424 248.034 36.207L249.254 30.9726C249.417 30.3217 249.769 29.725 250.257 29.2097C251.776 27.6909 254.244 27.6909 255.763 29.2097" fill="white"/>
<path d="M270.219 14.7812C272.416 16.978 272.416 20.558 270.219 22.7548C269.487 23.4871 268.592 23.9753 267.669 24.2194L260.048 26.0094C259.75 26.0637 259.452 26.0094 259.235 25.7653C259.018 25.5483 258.936 25.2229 258.991 24.9517L260.781 17.3306C261.025 16.3813 261.513 15.5134 262.245 14.7812C264.442 12.5843 268.022 12.5843 270.219 14.7812Z" fill="white"/>
<path d="M223.516 61.484C222.404 60.372 222.404 58.582 223.516 57.4972C223.896 57.1446 224.33 56.9005 224.791 56.7649L228.588 55.8699C228.723 55.8428 228.886 55.8699 228.994 55.9784C229.103 56.0869 229.13 56.2496 229.103 56.3852L228.208 60.1822C228.072 60.6432 227.828 61.1043 227.476 61.4569C226.364 62.5689 224.574 62.5689 223.489 61.4569" fill="white"/>
<path d="M213.21 71.7902C211.691 70.2714 211.691 67.8034 213.21 66.2846C213.725 65.7693 214.322 65.4438 214.973 65.2811L220.207 64.0606C220.397 64.0064 220.614 64.0606 220.777 64.2234C220.939 64.3861 220.966 64.603 220.939 64.7929L219.719 70.0273C219.556 70.6782 219.203 71.2749 218.715 71.7902C217.196 73.309 214.728 73.309 213.21 71.7902Z" fill="white"/>
<path d="M198.781 86.2187C196.584 84.0218 196.584 80.4418 198.781 78.245C199.513 77.5127 200.408 77.0245 201.331 76.7804L208.952 74.9904C209.25 74.9362 209.548 74.9904 209.765 75.2345C209.982 75.4515 210.064 75.7769 210.009 76.0481L208.219 83.6692C207.975 84.6185 207.487 85.4864 206.755 86.2187C204.558 88.4155 200.978 88.4155 198.781 86.2187Z" fill="white"/>
<path d="M253.838 3.85136C256.712 5.0447 258.096 8.3535 256.902 11.2284C256.495 12.1776 255.872 12.9641 255.112 13.5608L248.739 18.1172C248.495 18.2799 248.196 18.3342 247.898 18.1986C247.6 18.0901 247.41 17.8189 247.356 17.5476L246.081 9.81806C245.945 8.86881 246.081 7.86532 246.461 6.88895C247.654 4.01409 250.963 2.6309 253.838 3.82424" fill="white"/>
<path d="M215.163 97.1487C212.288 95.9553 210.904 92.6465 212.098 89.7716C212.505 88.8224 213.128 88.0359 213.888 87.4392L220.261 82.8828C220.505 82.7201 220.804 82.6659 221.102 82.8015C221.4 82.91 221.59 83.1812 221.645 83.4524L222.919 91.182C223.055 92.1312 222.919 93.1347 222.54 94.1111C221.346 96.9859 218.037 98.3691 215.163 97.1758" fill="white"/>
<path d="M281.149 69.8374C279.955 72.7123 276.647 74.0955 273.772 72.9021C272.822 72.4953 272.036 71.8715 271.439 71.1121L266.883 64.7386C266.72 64.4945 266.666 64.1962 266.801 63.8978C266.91 63.5995 267.181 63.4097 267.452 63.3554L275.182 62.0807C276.131 61.9451 277.135 62.0807 278.111 62.4604C280.986 63.6537 282.369 66.9625 281.176 69.8374" fill="white"/>
<path d="M187.851 31.1625C189.045 28.2876 192.353 26.9045 195.228 28.0978C196.177 28.5046 196.964 29.1284 197.561 29.8878L202.117 36.2613C202.28 36.5054 202.334 36.8038 202.198 37.1021C202.09 37.4004 201.819 37.5903 201.548 37.6174L193.818 38.8921C192.869 39.0277 191.865 38.8921 190.889 38.5124C188.014 37.3191 186.631 34.0103 187.824 31.1354" fill="white"/>
<path d="M215.162 3.85112C218.037 2.65778 221.346 4.01385 222.54 6.91583C222.946 7.86508 223.055 8.86857 222.919 9.84494L221.644 17.5745C221.59 17.8457 221.4 18.117 221.129 18.2254C220.831 18.3339 220.533 18.3068 220.288 18.1441L213.915 13.5877C213.156 12.991 212.505 12.2045 212.125 11.2552C210.932 8.38039 212.315 5.07158 215.19 3.87824" fill="white"/>
<path d="M253.837 97.1488C250.963 98.3421 247.654 96.986 246.46 94.084C246.054 93.1348 245.945 92.1313 246.081 91.1549L247.355 83.4254C247.41 83.127 247.6 82.8829 247.898 82.7744C248.196 82.666 248.495 82.6931 248.739 82.8558L255.112 87.4122C255.872 88.0089 256.523 88.7954 256.902 89.7446C258.096 92.6195 256.712 95.9283 253.837 97.1216" fill="white"/>
<path d="M281.149 31.1625C282.342 34.0374 280.986 37.3462 278.084 38.5395C277.135 38.9463 276.131 39.0548 275.155 38.9192L267.425 37.6445C267.154 37.5903 266.883 37.4004 266.774 37.1021C266.666 36.8038 266.693 36.5054 266.856 36.2613L271.412 29.8878C272.009 29.1284 272.795 28.4775 273.745 28.0978C276.619 26.9045 279.928 28.2876 281.122 31.1625" fill="white"/>
<path d="M187.851 69.8375C186.658 66.9626 188.014 63.6538 190.916 62.4605C191.865 62.0537 192.869 61.9452 193.845 62.0808L201.575 63.3555C201.873 63.4097 202.117 63.5996 202.226 63.8708C202.334 64.1691 202.307 64.4675 202.144 64.7116L197.588 71.0851C196.991 71.8445 196.205 72.4954 195.255 72.8751C192.381 74.0684 189.072 72.6852 187.878 69.8104" fill="white"/>
</g>
<defs>
<clipPath id="clip0_525_15189">
<rect width="229" height="116" fill="white" transform="translate(288 43)"/>
</clipPath>
<clipPath id="clip1_525_15189">
<rect width="137" height="69" fill="white" transform="translate(0 90)"/>
</clipPath>
</defs>
</svg>
