<svg width="52" height="36" viewBox="0 0 52 36" fill="none" xmlns="http://www.w3.org/2000/svg">
<path d="M41.7859 20.2972C41.631 19.7934 41.3807 19.3256 40.9993 18.9297C40.0697 17.982 38.6752 17.3462 36.8159 17.0103L36.8517 16.8544C38.3296 16.4825 39.6287 15.8467 40.7729 14.923C41.9051 13.9993 42.6441 12.8597 42.9897 11.4922C43.9432 7.67744 41.7383 5.47018 36.375 4.84639L37.5787 0.143952L30.964 0L29.7483 4.59447L21.6557 4.43852C21.322 4.43852 21.1194 4.55848 21.0598 4.8104L20.1421 8.20527H12.0376L11.2748 10.4965H19.5104L18.0921 15.7148H0.691267L0 17.922H17.4962L16.1256 22.9603H7.11529L6.40018 25.0956H15.5416L14.1352 30.2659C14.0637 30.5298 14.1948 30.6618 14.5405 30.6618L22.8595 30.6858L21.6557 35.2323H28.5088L29.7245 30.5418C32.2035 30.3259 34.2535 29.858 35.9221 29.1623C35.9221 29.1143 35.9221 29.0663 35.9221 29.0063C35.9221 25.0477 38.3653 21.6528 41.7859 20.2852V20.2972ZM32.9425 22.6844C32.4657 24.5318 30.9044 25.4435 28.2347 25.4315L24.5638 25.4075C24.3612 25.4075 24.2778 25.3236 24.3255 25.1676L24.3493 25.0836L24.9095 22.9484L25.6603 20.1173C25.6961 19.9613 25.8272 19.8774 26.0298 19.8894L29.4623 19.9254C32.2631 19.9494 33.4192 20.8491 32.9544 22.6844H32.9425ZM34.468 12.128C34.2535 12.9677 33.7887 13.6155 33.0497 14.0713C32.3227 14.5152 31.3692 14.7431 30.2132 14.7311L27.3647 14.6951C27.162 14.6951 27.0905 14.6231 27.1263 14.4672L28.1751 10.4965L28.33 9.93269C28.3658 9.77674 28.4969 9.70477 28.6876 9.70477L31.3216 9.75275C32.4181 9.76475 33.2285 9.94469 33.7648 10.2566C34.4442 10.6525 34.6945 11.2762 34.468 12.14V12.128Z" fill="white"/>
<path d="M51.666 26.943C51.5349 26.5111 51.3561 26.0912 51.1535 25.6954C50.8436 25.1076 50.4384 24.5677 49.9736 24.0879C48.7341 22.8283 47.0297 22.0486 45.1466 22.0486C43.8952 22.0486 42.7272 22.3965 41.726 22.9963C40.0336 24.0039 38.7941 25.7314 38.4366 27.7707C38.3651 28.1785 38.3174 28.5984 38.3174 29.0303C38.3174 32.4011 40.6653 35.2082 43.776 35.856C44.217 35.9519 44.6818 35.9999 45.1585 35.9999C47.28 35.9999 49.175 35.0163 50.4384 33.4688C50.7125 33.1209 50.9628 32.749 51.1773 32.3531C51.2846 32.1612 51.38 31.9573 51.4634 31.7414C51.809 30.9016 51.9997 29.9899 51.9997 29.0303C51.9997 28.3105 51.8924 27.6147 51.6898 26.9549L51.666 26.943ZM49.4968 29.0183V30.2179H43.9429V24.3038H46.3265V27.8187H49.4968V29.0183Z" fill="white"/>
</svg>
