<svg width="46" height="36" viewBox="0 0 46 36" fill="none" xmlns="http://www.w3.org/2000/svg">
<path d="M41.2652 0H14.5325C11.919 0 9.79771 2.10194 9.79771 4.69161V10.5794H3.91439C1.75796 10.5794 0 12.3213 0 14.4581V16.1071H35.5811V14.4581C35.5811 12.3213 33.8232 10.5794 31.6668 10.5794H12.1299V4.69161C12.1299 3.37935 13.2082 2.32258 14.5208 2.32258H41.2535C42.5778 2.32258 43.6443 3.39097 43.6443 4.69161V21.809C43.6443 23.1213 42.5661 24.1781 41.2535 24.1781H35.5694V20.4503H0V32.1213C0 34.2581 1.75796 36 3.91439 36H31.6668C33.8232 36 35.5811 34.2581 35.5811 32.1213V26.5123H41.2652C43.8787 26.5123 46 24.4103 46 21.8206V4.69161C46 2.10194 43.8787 0 41.2652 0ZM31.069 28.1729C31.069 29.7058 29.815 30.9484 28.268 30.9484C27.389 30.9484 26.6038 30.5419 26.0999 29.9032C25.5842 30.5303 24.8107 30.9484 23.9317 30.9484C22.3847 30.9484 21.1307 29.7058 21.1307 28.1729C21.1307 27.5458 21.3417 26.9768 21.6932 26.5123C22.2089 25.8387 23.0176 25.3974 23.9317 25.3974C24.8459 25.3974 25.5959 25.8039 26.0999 26.4426C26.6155 25.8155 27.389 25.3974 28.268 25.3974C29.147 25.3974 29.9908 25.8387 30.5065 26.5123C30.8581 26.9768 31.069 27.5458 31.069 28.1729Z" fill="white"/>
</svg>
