<svg width="34" height="37" viewBox="0 0 34 37" fill="none" xmlns="http://www.w3.org/2000/svg">
<path d="M17.9846 34.625H15.5542V30.1556C15.4545 30.2035 15.3673 30.2635 15.2676 30.3114C15.0433 30.4192 14.8189 30.5151 14.5946 30.6109C14.4076 30.539 14.2207 30.4552 14.0337 30.3593C13.3482 30.0478 12.6877 29.6643 12.0022 29.197C10.8556 28.4182 9.7588 27.4237 8.83651 26.3453C8.6371 26.1056 8.45015 25.89 8.28812 25.6743C7.82698 25.0872 7.52786 24.6318 7.39076 24.4162C7.35337 24.3563 7.31598 24.2963 7.27859 24.2364C7.27859 24.2125 7.1041 23.7691 7.1041 23.7691C6.4934 22.1396 6.18182 20.474 6.18182 18.8445V11.9068C9.23534 11.1639 12.0894 10.0136 14.5821 8.50386C17.0872 10.0136 19.9289 11.1639 22.9824 11.9068V18.8445C22.9824 18.9523 22.9699 19.0482 22.9699 19.156H29.1393C29.1393 19.156 29.1393 19.156 29.1518 19.156C29.1518 19.0482 29.1642 18.9523 29.1642 18.8445V6.85032C23.294 6.47887 17.9846 4.3101 14.5696 0.943115C11.1796 4.32208 5.87023 6.47887 0 6.85032V18.8564C0 21.2289 0.44868 23.5654 1.29619 25.8061C1.40836 26.1056 1.50806 26.4172 1.6327 26.7167V26.7407C1.65762 26.7766 1.80718 27.0762 2.09384 27.5195C2.36803 27.9629 2.77933 28.55 3.30279 29.233C3.52713 29.5206 3.77639 29.8201 4.03812 30.1436C5.10997 31.3898 6.55572 32.8037 8.38783 34.0498C9.28519 34.6609 10.2573 35.2361 11.3416 35.7393C12.3387 36.1946 13.423 36.602 14.5821 36.8896C15.8035 36.5781 16.9377 36.1467 17.9846 35.6554C18.6078 35.3559 19.206 35.0324 19.7669 34.6969C19.8043 34.6729 19.8416 34.6489 19.879 34.625H18.0469C18.0469 34.625 18.0095 34.625 17.9846 34.625Z" fill="white"/>
<path d="M29.1517 26.2138V21.5527H28.9772H22.8951V26.2138H20.4648H18.0469V28.5743V32.2288H22.8951V32.4086V36.8899H29.1517V32.2288H34V26.2138H29.1517Z" fill="white"/>
</svg>
