<svg width="40" height="36" viewBox="0 0 40 36" fill="none" xmlns="http://www.w3.org/2000/svg">
<path d="M31.9571 28.4178C31.553 28.5697 31.149 28.709 30.7197 28.8355C30.4798 28.8988 30.2525 28.9748 30.0126 29.0381L29.7222 29.114L29.4318 29.0381C29.1288 28.9621 28.8384 28.8735 28.5606 28.7849C23.5606 27.2659 20.5177 23.6204 19.1414 21.5191C18.9773 21.2659 18.8384 21.0507 18.7247 20.8482C18.4975 20.4685 18.346 20.1773 18.2828 20.0634C18.2197 19.9115 18.1692 19.7469 18.1061 19.5824C18.0303 19.3798 17.9545 19.19 17.8914 18.9874C17.8157 18.7596 17.7273 18.5444 17.6515 18.3166H7.34848L9.11616 14.9115C9.74747 13.6836 11.1869 12.8988 12.7778 12.8988H16.8561V10.3672H12.7778C10.2652 10.3672 7.94192 11.6963 6.88131 13.7469L6.07323 15.3166C5.54293 14.1647 4.39394 13.3672 3.04293 13.3672H1.66667C0.74495 13.3672 0 14.114 0 15.0381V15.2153C0 16.1393 0.74495 16.8862 1.66667 16.8862H5.2399L4.4697 18.3672C1.98232 18.6077 0.0252525 20.6836 0.0252525 23.2406V27.5824C0.0252525 29.5064 1.13636 31.152 2.75253 31.9621V34.4178C2.75253 35.2912 3.4596 36.0001 4.33081 36.0001H5.9596C6.83081 36.0001 7.53788 35.2912 7.53788 34.4178V32.5064H27.1086V34.4178C27.1086 35.2912 27.8157 36.0001 28.6869 36.0001H30.3157C31.1869 36.0001 31.8939 35.2912 31.8939 34.4178V31.9748C33.5101 31.1647 34.6338 29.5191 34.6338 27.5824V27.0887C34.2298 27.3419 33.8005 27.5824 33.346 27.7976C32.904 28.0254 32.4369 28.2279 31.9444 28.4052L31.9571 28.4178ZM9.36869 23.4558C9.36869 24.671 8.38384 25.6457 7.17172 25.6457H4.93687C3.72475 25.6457 2.75253 24.6583 2.75253 23.4558C2.75253 22.4685 3.40909 21.633 4.30556 21.3672C4.50758 21.3039 4.72222 21.2659 4.93687 21.2659H7.17172C7.55051 21.2659 7.89141 21.3672 8.19444 21.5317C8.88889 21.8988 9.35606 22.6204 9.35606 23.4558H9.36869Z" fill="white"/>
<path d="M29.7099 0C27.2983 2.49367 23.5483 4.08861 19.3943 4.35443V13.2025C19.3943 14.9494 19.7099 16.6709 20.3034 18.3291C20.3791 18.557 20.4549 18.7722 20.5433 19C20.5433 19 20.5433 19.0127 20.5433 19.0253C20.5559 19.0506 20.6695 19.2658 20.8716 19.5949C21.061 19.9114 21.3514 20.3544 21.7301 20.8608C21.8943 21.0759 22.0584 21.2911 22.2478 21.5316C23.0054 22.4557 24.0281 23.4937 25.316 24.4177C25.9473 24.8734 26.6418 25.2911 27.3993 25.6582C28.1064 26 28.864 26.2911 29.6847 26.5063C30.5559 26.2785 31.3514 25.962 32.0837 25.5949C32.5256 25.3797 32.9423 25.1392 33.3463 24.8861C33.7882 24.6076 34.2175 24.3038 34.6089 24C37.4246 21.7848 38.7882 19.1013 38.8766 18.9367C39.6089 17.1646 40.0003 15.2025 40.0003 13.2025V4.35443C35.8463 4.07595 32.0963 2.48101 29.6847 0H29.7099ZM33.0054 13.3797L29.9498 16.8987L29.5963 17.3165L28.7125 18.3418L28.6115 18.4557C28.3842 18.7215 28.0559 18.8734 27.715 18.8861C27.6897 18.8861 27.6771 18.8861 27.6645 18.8861C27.6266 18.8861 27.6014 18.8734 27.5635 18.8608C27.2731 18.8354 26.9953 18.7342 26.7807 18.5316L26.5786 18.3291L22.7402 14.6329L23.9145 13.4051L24.4827 12.8101L27.5635 15.7848L28.3337 14.8987L34.8488 7.39241L36.7554 9.05063L33.0054 13.3671V13.3797Z" fill="white"/>
</svg>
