<svg width="44" height="36" viewBox="0 0 44 36" fill="none" xmlns="http://www.w3.org/2000/svg">
<path d="M32.6833 20.2104C32.2774 20.2104 31.9699 20.4175 31.7854 20.8196C31.6008 21.2216 31.5024 21.8429 31.5024 22.6592C31.5024 23.4754 31.6132 24.0358 31.8223 24.45C32.0314 24.8642 32.3512 25.0713 32.7572 25.0713C33.2369 25.0713 33.569 24.8764 33.7412 24.4988C33.9135 24.1211 33.9996 23.4998 33.9996 22.647C33.9996 21.7942 33.9012 21.2216 33.692 20.8074C33.4829 20.4053 33.1508 20.1982 32.6833 20.1982V20.2104Z" fill="white"/>
<path d="M20.6153 15.826C20.7875 15.4484 20.8736 14.827 20.8736 13.9742C20.8736 13.1215 20.7752 12.5489 20.5661 12.1346C20.3569 11.7326 20.0248 11.5255 19.5574 11.5255C19.1514 11.5255 18.8439 11.7326 18.6594 12.1346C18.4749 12.5367 18.3765 13.158 18.3765 13.9742C18.3765 14.7905 18.4872 15.3509 18.6963 15.7651C18.9054 16.1793 19.2252 16.3864 19.6312 16.3864C20.1109 16.3864 20.4431 16.1915 20.6153 15.8138V15.826Z" fill="white"/>
<path d="M41.2197 27.533C42.9665 24.7675 43.9998 21.5025 43.9998 18.0061C43.9998 8.05279 35.8687 0 25.831 0C15.7933 0 7.6499 8.05279 7.6499 17.9939C7.6499 18.1523 7.6745 18.2985 7.6745 18.4569C8.6832 18.4569 9.59348 19.0294 10.0486 19.931L11.6847 23.2081C11.6847 23.2081 11.7708 23.3056 11.8446 23.3178L15.498 23.8416C16.5067 23.9878 17.3309 24.6822 17.6507 25.6447C17.9706 26.6071 17.7122 27.6426 16.9742 28.3492L14.3294 30.8954C14.3294 30.8954 14.2556 31.0051 14.2679 31.0782L14.4278 32.0041C17.5523 34.5015 21.5133 36 25.831 36C29.4844 36 32.8918 34.9157 35.7334 33.0761L41.3181 34.5624C42.1792 34.7939 42.9788 34.0142 42.7451 33.1492L41.232 27.533H41.2197ZM16.1131 17.6284C15.2889 16.8365 14.883 15.6305 14.883 14.0102C14.883 12.3898 15.3258 11.2569 16.2238 10.3919C17.1218 9.5269 18.2781 9.08832 19.6927 9.08832C21.1074 9.08832 22.2637 9.49036 23.1001 10.2944C23.9366 11.0985 24.3672 12.2802 24.3672 13.8396C24.3672 15.399 23.9243 16.6904 23.0509 17.531C22.1776 18.3838 21.0089 18.8102 19.5574 18.8102C18.1059 18.8102 16.9496 18.4081 16.1254 17.6162L16.1131 17.6284ZM22.9033 27.3624C22.8418 27.4964 22.7311 27.5574 22.5712 27.5574H19.2991C19.1884 27.5574 19.1146 27.5208 19.0777 27.4599C19.0408 27.399 19.0531 27.3137 19.1023 27.2284L29.2138 9.35635C29.2876 9.23452 29.3983 9.16142 29.5459 9.16142H32.818C32.9288 9.16142 33.0026 9.19797 33.0395 9.25888C33.0764 9.3198 33.0641 9.40508 33.0149 9.49036L22.9156 27.3624H22.9033ZM29.2507 26.3025C28.4265 25.5107 28.0206 24.3046 28.0206 22.6843C28.0206 21.064 28.4634 19.931 29.3614 19.066C30.2594 18.201 31.4157 17.7624 32.8303 17.7624C34.245 17.7624 35.4013 18.1645 36.2378 18.9685C37.0742 19.7726 37.5048 20.9543 37.5048 22.5137C37.5048 24.0731 37.0619 25.3645 36.1886 26.2051C35.3152 27.0579 34.1466 27.4843 32.695 27.4843C31.2435 27.4843 30.0872 27.0822 29.263 26.2904L29.2507 26.3025Z" fill="white"/>
<path d="M12.6079 29.1529L15.2526 26.6067C15.2526 26.6067 15.3387 26.5214 15.3018 26.3996C15.2649 26.2777 15.1665 26.2656 15.1296 26.2656L11.4762 25.7417C10.6028 25.6199 9.85242 25.0717 9.47109 24.292L7.97035 21.2706L7.84734 21.0148C7.84734 21.0148 7.78583 20.9052 7.66282 20.9052C7.53981 20.9052 7.4906 20.9904 7.4783 21.0148L5.84225 24.292C5.44861 25.0717 4.69824 25.6077 3.83716 25.7417L0.183724 26.2656C0.183724 26.2656 0.0607129 26.2899 0.0115083 26.3996C-0.0253951 26.5214 0.0361106 26.5945 0.0607129 26.6067L2.70546 29.1529C3.33282 29.762 3.61574 30.6392 3.46813 31.492L2.84077 35.0859C2.84077 35.0859 2.81617 35.2077 2.92688 35.293C3.02529 35.3661 3.1114 35.3173 3.1483 35.3052L6.4081 33.6118C7.18307 33.2097 8.11796 33.2097 8.89293 33.6118L12.1527 35.3052C12.1527 35.3052 12.2634 35.3661 12.3742 35.293C12.4726 35.2199 12.4603 35.1224 12.4603 35.0859L11.8329 31.492C11.7345 30.9072 11.8452 30.3224 12.1281 29.8107C12.2511 29.5793 12.4111 29.3478 12.6079 29.1651V29.1529Z" fill="white"/>
</svg>
