<svg width="151" height="19" viewBox="0 0 151 19" fill="none" xmlns="http://www.w3.org/2000/svg">
<path d="M97.147 7.46249V0.379883H99.5046L102.296 3.74907L105.088 0.379883H107.446V7.46249H105.713L105.666 2.23561L102.465 6.06378H102.128L98.8794 2.23561V7.46249H97.147ZM109.301 3.90932C109.301 1.54911 111.515 0.150391 114.139 0.150391C116.762 0.150391 118.977 1.61637 118.977 3.90932C118.977 6.20226 116.858 7.66824 114.139 7.66824C111.42 7.66824 109.301 6.20028 109.301 3.90932ZM117.171 3.90932C117.171 2.4651 115.823 1.66385 114.139 1.66385C112.359 1.66385 111.083 2.57984 111.083 3.90932C111.083 5.37728 112.406 6.15478 114.139 6.15478C115.871 6.15478 117.171 5.30606 117.171 3.90932ZM120.829 7.46249V0.379883H123.164L127.713 5.69778V0.379883H129.446V7.46249H127.111L122.562 2.1446V7.46249H120.829ZM131.731 7.46249V0.379883H139.431V1.91511H133.463V3.03883H138.469V4.55229H133.463V5.95101H139.431V7.46447H131.731V7.46249ZM144.078 7.46249V4.71254L139.842 0.49463V0.379883H142.009L144.946 3.38307L147.906 0.379883H150.073V0.49463L145.812 4.71254V7.46249H144.08H144.078Z" fill="#F89C22"/>
<path d="M103.042 11.429H97.1445V18.5116H98.8769V16.2424H102.801C104.533 16.2424 105.665 15.3481 105.665 13.8129C105.665 12.4379 104.631 11.429 103.042 11.429ZM102.826 14.7289H98.879V12.9642H102.753C103.524 12.9642 103.908 13.2629 103.908 13.8347C103.908 14.4064 103.547 14.7289 102.826 14.7289Z" fill="#F89C22"/>
<path d="M106.988 18.5116V11.429H108.721V17.0001H114.184V18.5116H106.988Z" fill="#F89C22"/>
<path d="M114.93 15.4411V11.429H116.662V15.1641C116.662 16.4699 117.481 17.2039 119.213 17.2039C120.945 17.2039 121.789 16.4699 121.789 15.1641V11.429H123.521V15.4411C123.521 17.6648 121.475 18.7193 119.213 18.7193C116.83 18.7193 114.93 17.6648 114.93 15.4411Z" fill="#F89C22"/>
<path d="M125.015 18.0072L125.569 16.5174C126.749 16.9309 128.12 17.1822 129.516 17.1822C130.912 17.1822 131.874 16.9072 131.874 16.3117C131.874 15.922 131.56 15.6925 130.839 15.647L128.095 15.463C126.338 15.3482 125.328 14.7745 125.328 13.4925C125.328 11.9573 127.156 11.2688 129.3 11.2688C130.839 11.2688 132.212 11.4528 133.224 11.7278L132.862 13.2175C131.78 12.9425 130.575 12.7585 129.3 12.7368C127.904 12.713 127.181 12.988 127.181 13.4015C127.181 13.7457 127.495 13.9515 128.168 13.997L131.007 14.2027C132.835 14.3412 133.727 14.9585 133.727 16.288C133.727 18.0764 131.874 18.6719 129.539 18.6719C127.638 18.6719 126.145 18.3969 125.015 18.0072Z" fill="#F89C22"/>
<path d="M20.985 3.62036C16.1679 3.62036 13.6523 6.24567 13.6523 11.2371C13.6523 16.2286 15.9248 18.7688 20.8333 18.7688C25.7418 18.7688 28.195 16.1435 28.195 11.1521C28.195 6.1606 25.9225 3.62036 20.985 3.62036ZM20.985 15.277C19.4395 15.277 18.4092 14.5549 18.4092 11.1224C18.4092 7.91939 19.4083 7.11221 20.8333 7.11221C22.682 7.11221 23.4382 8.18053 23.4382 11.2668C23.4382 14.3531 22.7423 15.277 20.985 15.277Z" fill="white"/>
<path d="M12.049 14.4401H6.4446C5.98969 14.4401 5.59709 14.0643 5.59709 13.633V0.561793C5.59709 0.447047 5.50569 0.330322 5.35406 0.330322H1.20376C1.05212 0.330322 0.931641 0.445069 0.931641 0.561793V15.0752C0.931641 16.9507 2.53734 18.48 4.50655 18.48H12.051C12.2027 18.48 12.3232 18.3653 12.3232 18.2485V14.6993C12.3232 14.5549 12.2027 14.4401 12.051 14.4401H12.049Z" fill="white"/>
<path d="M54.9478 3.87964H50.8577C50.7061 3.87964 50.5856 3.99438 50.5856 4.13881V13.3145C50.5856 14.3235 49.4639 15.3048 47.9808 15.3048C46.5869 15.3048 45.9804 14.555 45.9804 13.1128V4.13881C45.9804 3.99438 45.8599 3.87964 45.7083 3.87964H41.5871C41.4354 3.87964 41.3149 3.99438 41.3149 4.13881V13.459C41.3149 16.8638 43.4046 18.7689 46.7386 18.7689C48.5562 18.7689 49.7672 18.1913 50.677 17.5859C50.8598 17.4711 51.0094 17.4988 51.1008 17.7006L51.3126 18.2783C51.3729 18.4227 51.4331 18.4801 51.5848 18.4801H54.9478C55.1306 18.4801 55.2511 18.3654 55.2511 18.2209V4.13881C55.2511 3.99438 55.1306 3.87964 54.9478 3.87964Z" fill="white"/>
<path d="M39.026 14.7114C38.9554 14.5333 38.7207 14.5115 38.5586 14.6006C38.0435 14.9349 37.3892 15.1802 36.6621 15.1802C35.7731 15.1802 35.3286 14.8004 35.3286 13.8428V7.55554C35.3286 7.39925 35.4449 7.2667 35.6339 7.2667H38.864C39.0281 7.2667 39.1693 7.17767 39.1693 6.99962V4.14679C39.1693 3.96874 39.0281 3.87971 38.864 3.87971H35.6339C35.447 3.87971 35.3286 3.74518 35.3286 3.61263V0.603507C35.3286 0.447215 35.2122 0.336426 35.0481 0.336426H32.6136C32.4495 0.336426 32.3332 0.425453 32.3083 0.603507C32.1442 2.67685 30.5302 3.83816 29.0553 3.88169C28.8684 3.88169 28.7749 3.99248 28.7749 4.14877V7.0016C28.7749 7.17965 28.9162 7.26868 29.0553 7.26868H30.4138C30.5779 7.26868 30.7192 7.40321 30.7192 7.55752V13.8666C30.7192 17.0775 32.2397 18.771 35.7295 18.771C37.9999 18.771 39.4518 18.1696 39.9898 17.8352C40.0833 17.768 40.1062 17.6572 40.0833 17.5444L39.0302 14.7133L39.026 14.7114Z" fill="white"/>
<path d="M56.9461 16.5313C56.8298 16.4205 56.8526 16.286 56.9461 16.1515L58.7014 13.542C58.7948 13.3857 58.9818 13.4312 59.1002 13.4965C60.5293 14.4995 61.9813 15.2355 63.6431 15.2355C64.1811 15.2355 65.1408 15.0792 65.1408 14.276C65.1408 13.6746 64.017 13.2274 62.7997 12.8713C60.7163 12.2462 57.8829 11.2886 57.8829 8.25576C57.8829 5.98062 59.9207 3.61646 63.8778 3.61646C66.2895 3.61646 68.2088 4.33065 69.5923 5.55725C69.7335 5.69178 69.6629 5.84807 69.5923 5.9371L67.5088 8.39029C67.4153 8.50108 67.2284 8.43579 67.11 8.36853C66.5948 8.05594 65.3069 7.18743 63.7843 7.18743C63.0344 7.18743 62.5442 7.50002 62.5442 8.03418C62.5442 8.65935 63.6452 9.03722 64.9102 9.4606C66.9936 10.1748 69.7813 11.0215 69.7813 14.0326C69.7813 16.3078 67.8141 18.7392 63.4353 18.7392C60.9531 18.7392 58.3773 17.8034 56.9482 16.5313H56.9461Z" fill="white"/>
<path d="M77.3694 16.5313C77.2531 16.4205 77.276 16.286 77.3694 16.1515L79.1247 13.542C79.2182 13.3857 79.4051 13.4312 79.5235 13.4965C80.9526 14.4995 82.4046 15.2355 84.0664 15.2355C84.6044 15.2355 85.5641 15.0792 85.5641 14.276C85.5641 13.6746 84.4403 13.2274 83.2231 12.8713C81.1396 12.2462 78.3063 11.2886 78.3063 8.25576C78.3063 5.98062 80.344 3.61646 84.3011 3.61646C86.7128 3.61646 88.6322 4.33065 90.0156 5.55725C90.1568 5.69178 90.0862 5.84807 90.0156 5.9371L87.9321 8.39029C87.8387 8.50108 87.6517 8.43579 87.5333 8.36853C87.0182 8.05594 85.7303 7.18743 84.2077 7.18743C83.4578 7.18743 82.9676 7.50002 82.9676 8.03418C82.9676 8.65935 84.0685 9.03722 85.3335 9.4606C87.417 10.1748 90.2046 11.0215 90.2046 14.0326C90.2046 16.3078 88.2375 18.7392 83.8587 18.7392C81.3764 18.7392 78.8006 17.8034 77.3715 16.5313H77.3694Z" fill="#F9BE00"/>
<path d="M74.312 0.330322C72.3989 0.330322 70.8472 1.80817 70.8472 3.63026C70.8472 4.23763 71.0196 4.80542 71.3187 5.2921L73.855 9.17962C73.9505 9.32207 74.1188 9.41901 74.312 9.41901C74.5031 9.41901 74.6713 9.32405 74.769 9.17962L77.3053 5.2921C77.6044 4.80344 77.7768 4.23565 77.7768 3.63026C77.7768 1.80817 76.2251 0.330322 74.312 0.330322Z" fill="#F9BE00"/>
</svg>
