<svg width="294" height="130" viewBox="0 0 294 130" fill="none" xmlns="http://www.w3.org/2000/svg">
<g opacity="0.7" clip-path="url(#clip0_2209_74117)">
<path d="M226.34 21.3315C228.4 21.3315 230.098 19.6299 230.098 17.5662C230.098 16.8783 229.917 16.2266 229.592 15.6836L226.846 11.2303C226.846 11.2303 226.556 10.9407 226.34 10.9407C226.123 10.9407 225.942 11.0493 225.834 11.2303L223.087 15.6836C222.762 16.2266 222.581 16.8783 222.581 17.5662C222.581 19.6299 224.28 21.3315 226.34 21.3315Z" fill="white"/>
<path d="M226.34 40.8101C229.195 40.8101 231.508 38.4929 231.508 35.6327C231.508 34.6914 231.255 33.7863 230.785 33.026L226.99 26.9073C226.846 26.6901 226.593 26.5453 226.304 26.5453C226.015 26.5453 225.762 26.6901 225.617 26.9073L221.822 33.026C221.389 33.7863 221.1 34.6914 221.1 35.6327C221.1 38.4929 223.413 40.8101 226.268 40.8101" fill="white"/>
<path d="M226.339 68C230.495 68 233.856 64.6329 233.856 60.4694C233.856 59.0936 233.495 57.7902 232.845 56.6678L227.351 47.7976C227.134 47.4718 226.773 47.2545 226.375 47.2545C225.978 47.2545 225.58 47.4718 225.4 47.7976L219.906 56.6678C219.256 57.7902 218.895 59.0574 218.895 60.4694C218.895 64.6329 222.256 68 226.412 68" fill="white"/>
<path d="M247.048 0.586237C247.048 -1.47745 245.349 -3.17908 243.289 -3.17908C242.603 -3.17908 241.952 -2.99806 241.41 -2.67221L236.965 0.07937C236.965 0.07937 236.712 0.369008 236.712 0.586238C236.712 0.803468 236.82 0.984498 236.965 1.09311L241.41 3.84469C241.952 4.17054 242.603 4.35156 243.289 4.35156C245.349 4.35156 247.048 2.64992 247.048 0.586237Z" fill="white"/>
<path d="M266.491 0.58628C266.491 -2.27392 264.178 -4.59103 261.323 -4.59103C260.383 -4.59103 259.48 -4.3376 258.721 -3.90314L252.613 -0.101609C252.397 0.0432105 252.252 0.296641 252.252 0.586281C252.252 0.875921 252.397 1.12936 252.613 1.27418L258.721 5.07571C259.48 5.51017 260.383 5.7998 261.323 5.7998C264.178 5.7998 266.491 3.48268 266.491 0.622485" fill="white"/>
<path d="M293.632 0.586195C293.632 -3.57738 290.271 -6.94445 286.115 -6.94445C284.742 -6.94445 283.441 -6.58239 282.32 -5.9307L273.466 -0.427539C273.141 -0.210309 272.924 0.151743 272.924 0.549998C272.924 0.948253 273.141 1.3465 273.466 1.52753L282.32 7.03069C283.441 7.68238 284.742 8.04443 286.115 8.04443C290.271 8.04443 293.632 4.67737 293.632 0.51379" fill="white"/>
<path d="M205.631 0.586238C205.631 2.64992 207.329 4.35156 209.389 4.35156C210.076 4.35156 210.727 4.17054 211.269 3.84469L215.714 1.09311C215.714 1.09311 216.003 0.803467 216.003 0.586237C216.003 0.369007 215.895 0.187985 215.714 0.0793691L211.269 -2.67221C210.727 -2.99806 210.076 -3.17908 209.389 -3.17908C207.329 -3.17908 205.631 -1.47745 205.631 0.586238Z" fill="white"/>
<path d="M186.187 0.586354C186.187 3.44655 188.5 5.76367 191.356 5.76367C192.295 5.76367 193.199 5.51024 193.958 5.07578L200.065 1.27425C200.282 1.12943 200.427 0.875993 200.427 0.586353C200.427 0.296713 200.282 0.0432827 200.065 -0.101537L193.958 -3.90307C193.199 -4.33753 192.295 -4.62716 191.356 -4.62716C188.5 -4.62716 186.187 -2.31004 186.187 0.550155" fill="white"/>
<path d="M159.047 0.586546C159.047 4.75012 162.408 8.11719 166.564 8.11719C167.937 8.11719 169.238 7.75514 170.359 7.10345L179.213 1.60029C179.538 1.38306 179.755 1.02101 179.755 0.62275C179.755 0.224495 179.538 -0.173755 179.213 -0.35478L170.359 -5.85794C169.238 -6.50963 167.973 -6.87168 166.564 -6.87168C162.408 -6.87168 159.047 -3.50462 159.047 0.658958" fill="white"/>
<path d="M211.703 15.2495C213.185 16.7339 215.57 16.7339 217.016 15.2495C217.485 14.7788 217.811 14.1633 217.991 13.5479L219.184 8.47915C219.22 8.29812 219.184 8.0809 219.04 7.93608C218.895 7.79126 218.678 7.75505 218.497 7.79126L213.438 8.98602C212.823 9.13084 212.209 9.49289 211.739 9.96355C210.257 11.448 210.257 13.8375 211.739 15.2857" fill="white"/>
<path d="M197.969 29.0072C199.993 31.0347 203.282 31.0347 205.305 29.0072C205.992 28.3193 206.426 27.5228 206.643 26.6539L208.269 19.6663C208.341 19.4129 208.269 19.1233 208.052 18.906C207.835 18.6888 207.582 18.6526 207.293 18.6888L200.318 20.318C199.451 20.5353 198.656 21.0059 197.969 21.6576C195.945 23.6851 195.945 26.9797 197.969 29.0072Z" fill="white"/>
<path d="M178.743 48.2683C181.671 51.2009 186.441 51.2009 189.368 48.2683C190.344 47.2908 190.995 46.096 191.32 44.865L193.705 34.6914C193.778 34.3294 193.705 33.8949 193.38 33.6053C193.091 33.3156 192.657 33.207 192.296 33.2794L182.141 35.669C180.876 35.9948 179.719 36.6465 178.743 37.624C175.816 40.5567 175.816 45.3357 178.743 48.2683Z" fill="white"/>
<path d="M240.976 15.2491C242.458 13.7647 242.458 11.4113 240.976 9.92693C240.47 9.45627 239.892 9.09422 239.278 8.9494L234.218 7.75464C234.038 7.71843 233.821 7.75463 233.676 7.89946C233.532 8.04428 233.495 8.2615 233.532 8.44253L234.724 13.5112C234.905 14.1267 235.23 14.7422 235.7 15.2129C237.182 16.6973 239.567 16.6973 241.013 15.2129" fill="white"/>
<path d="M254.709 29.0072C256.733 26.9797 256.733 23.6851 254.709 21.6576C254.022 20.9697 253.227 20.5352 252.36 20.318L245.349 18.6888C245.096 18.6164 244.806 18.6888 244.59 18.906C244.373 19.1233 244.301 19.3767 244.373 19.6663L245.999 26.6539C246.216 27.5228 246.686 28.3193 247.336 29.0072C249.36 31.0347 252.649 31.0347 254.673 29.0072" fill="white"/>
<path d="M273.936 48.2683C276.863 45.3357 276.863 40.5566 273.936 37.624C272.96 36.6465 271.767 35.9948 270.539 35.669L260.383 33.2794C259.986 33.207 259.588 33.2794 259.299 33.6053C259.01 33.8949 258.902 34.3294 258.974 34.6914L261.359 44.865C261.684 46.1322 262.335 47.2908 263.311 48.2683C266.238 51.2009 271.008 51.2009 273.936 48.2683Z" fill="white"/>
<path d="M252.107 62.8588C255.937 61.2657 257.78 56.8487 256.19 53.011C255.648 51.7438 254.817 50.6939 253.805 49.8974L245.312 43.8149C244.987 43.5977 244.589 43.5253 244.192 43.7063C243.794 43.8511 243.541 44.2132 243.469 44.5752L241.77 54.8937C241.59 56.1608 241.77 57.5004 242.276 58.8038C243.867 62.6415 248.276 64.488 252.107 62.895" fill="white"/>
<path d="M164.179 26.4005C165.769 30.2382 170.178 32.0847 174.009 30.4916C175.274 29.9486 176.322 29.1158 177.117 28.1021L183.189 19.5939C183.406 19.2681 183.478 18.8698 183.297 18.4716C183.153 18.0733 182.791 17.8199 182.43 17.7837L172.13 16.082C170.865 15.901 169.528 16.082 168.227 16.5889C164.396 18.1819 162.553 22.599 164.143 26.4367" fill="white"/>
<path d="M200.572 62.8588C204.402 64.4518 208.812 62.6416 210.402 58.7676C210.944 57.5004 211.088 56.1609 210.908 54.8575L209.209 44.5391C209.137 44.177 208.884 43.815 208.522 43.6701C208.125 43.5253 207.727 43.5615 207.402 43.7787L198.909 49.8612C197.897 50.6577 197.03 51.7076 196.524 52.9748C194.934 56.8126 196.777 61.2296 200.608 62.8226" fill="white"/>
<path d="M288.5 26.4005C290.09 22.5627 288.283 18.1457 284.416 16.5527C283.151 16.0096 281.814 15.8648 280.513 16.0458L270.213 17.7475C269.851 17.8199 269.49 18.0733 269.346 18.4716C269.201 18.8698 269.237 19.2681 269.454 19.5939L275.525 28.1021C276.321 29.1158 277.369 29.9848 278.633 30.4916C282.464 32.0847 286.873 30.2382 288.464 26.4005" fill="white"/>
</g>
<g opacity="0.5" clip-path="url(#clip1_2209_74117)">
<path d="M33.6469 10.6655C34.6768 10.6655 35.5261 9.81471 35.5261 8.78287C35.5261 8.43892 35.4358 8.11307 35.2732 7.84154L33.8998 5.61493C33.8998 5.61493 33.7553 5.47011 33.6469 5.47011C33.5384 5.47011 33.4481 5.52442 33.3939 5.61493L32.0206 7.84154C31.8579 8.11307 31.7676 8.43892 31.7676 8.78287C31.7676 9.81471 32.6169 10.6655 33.6469 10.6655Z" fill="white"/>
<path d="M33.6465 20.4048C35.074 20.4048 36.2305 19.2462 36.2305 17.8161C36.2305 17.3455 36.104 16.8929 35.8691 16.5127L33.9718 13.4534C33.8995 13.3448 33.773 13.2724 33.6284 13.2724C33.4839 13.2724 33.3574 13.3448 33.2851 13.4534L31.3878 16.5127C31.1709 16.8929 31.0264 17.3455 31.0264 17.8161C31.0264 19.2462 32.1828 20.4048 33.6104 20.4048" fill="white"/>
<path d="M33.6462 34C35.7243 34 37.4048 32.3165 37.4048 30.2347C37.4048 29.5468 37.2241 28.8951 36.8988 28.3339L34.1522 23.8988C34.0438 23.7359 33.8631 23.6273 33.6643 23.6273C33.4655 23.6273 33.2668 23.7359 33.1764 23.8988L30.4298 28.3339C30.1045 28.8951 29.9238 29.5287 29.9238 30.2347C29.9238 32.3165 31.6043 34 33.6824 34" fill="white"/>
<path d="M44 0.293119C44 -0.738724 43.1508 -1.58954 42.1208 -1.58954C41.7774 -1.58954 41.4522 -1.49903 41.1811 -1.33611L38.9585 0.039685C38.9585 0.039685 38.832 0.184504 38.832 0.293119C38.832 0.401734 38.8862 0.492249 38.9585 0.546556L41.1811 1.92235C41.4522 2.08527 41.7774 2.17578 42.1208 2.17578C43.1508 2.17578 44 1.32496 44 0.293119Z" fill="white"/>
<path d="M53.7221 0.29314C53.7221 -1.13696 52.5656 -2.29552 51.1381 -2.29552C50.6683 -2.29552 50.2165 -2.1688 49.8371 -1.95157L46.7832 -0.0508046C46.6748 0.0216052 46.6025 0.14832 46.6025 0.29314C46.6025 0.43796 46.6748 0.564679 46.7832 0.637089L49.8371 2.53785C50.2165 2.75508 50.6683 2.8999 51.1381 2.8999C52.5656 2.8999 53.7221 1.74134 53.7221 0.311243" fill="white"/>
<path d="M67.2926 0.293342C67.2926 -1.78845 65.6121 -3.47198 63.534 -3.47198C62.8474 -3.47198 62.1968 -3.29095 61.6367 -2.96511L57.2095 -0.213525C57.0469 -0.10491 56.9385 0.0761156 56.9385 0.275243C56.9385 0.474371 57.0469 0.673496 57.2095 0.764008L61.6367 3.51559C62.1968 3.84143 62.8474 4.02246 63.534 4.02246C65.6121 4.02246 67.2926 2.33893 67.2926 0.257139" fill="white"/>
<path d="M23.292 0.293119C23.292 1.32496 24.1413 2.17578 25.1713 2.17578C25.5146 2.17578 25.8399 2.08527 26.1109 1.92235L28.3335 0.546556C28.3335 0.546556 28.4781 0.401734 28.4781 0.293119C28.4781 0.184504 28.4239 0.0939923 28.3335 0.0396846L26.1109 -1.33611C25.8399 -1.49903 25.5146 -1.58954 25.1713 -1.58954C24.1413 -1.58954 23.292 -0.738724 23.292 0.293119Z" fill="white"/>
<path d="M13.5703 0.293177C13.5703 1.72328 14.7268 2.88184 16.1543 2.88184C16.6241 2.88184 17.0759 2.75512 17.4554 2.53789L20.5092 0.637125C20.6176 0.564715 20.6899 0.437996 20.6899 0.293176C20.6899 0.148356 20.6176 0.0216414 20.5092 -0.0507687L17.4554 -1.95153C17.0759 -2.16876 16.6241 -2.31358 16.1543 -2.31358C14.7268 -2.31358 13.5703 -1.15502 13.5703 0.275078" fill="white"/>
<path d="M-3.29175e-07 0.293273C-1.47179e-07 2.37506 1.68051 4.05859 3.75855 4.05859C4.44521 4.05859 5.09573 3.87757 5.6559 3.55173L10.083 0.800144C10.2457 0.691528 10.3541 0.510503 10.3541 0.311375C10.3541 0.112248 10.2457 -0.0868773 10.083 -0.17739L5.6559 -2.92897C5.09573 -3.25482 4.46328 -3.43584 3.75855 -3.43584C1.68051 -3.43584 -5.08005e-07 -1.75231 -3.2601e-07 0.329479" fill="white"/>
<path d="M26.3276 7.6245C27.0685 8.3667 28.2611 8.3667 28.9839 7.6245C29.2188 7.38917 29.3814 7.08142 29.4718 6.77368L30.0681 4.23933C30.0862 4.14882 30.0681 4.0402 29.9958 3.96779C29.9235 3.89538 29.8151 3.87728 29.7248 3.89539L27.195 4.49277C26.8878 4.56518 26.5806 4.7462 26.3457 4.98153C25.6048 5.72374 25.6048 6.9185 26.3457 7.6426" fill="white"/>
<path d="M19.4611 14.5034C20.473 15.5171 22.1174 15.5171 23.1293 14.5034C23.4726 14.1594 23.6895 13.7612 23.7979 13.3267L24.611 9.83292C24.6472 9.7062 24.611 9.56138 24.5026 9.45277C24.3942 9.34415 24.2677 9.32605 24.1231 9.34415L20.6356 10.1588C20.202 10.2674 19.8044 10.5027 19.4611 10.8286C18.4492 11.8423 18.4492 13.4896 19.4611 14.5034Z" fill="white"/>
<path d="M9.84775 24.1342C11.3114 25.6005 13.6967 25.6005 15.1603 24.1342C15.6482 23.6454 15.9735 23.048 16.1361 22.4325L17.3287 17.3457C17.3649 17.1647 17.3287 16.9475 17.1661 16.8026C17.0215 16.6578 16.8047 16.6035 16.624 16.6397L11.5463 17.8345C10.9139 17.9974 10.3356 18.3233 9.84775 18.812C8.38408 20.2783 8.38408 22.6679 9.84775 24.1342Z" fill="white"/>
<path d="M40.9643 7.62454C41.7052 6.88233 41.7052 5.70567 40.9643 4.96347C40.7113 4.72813 40.4222 4.54711 40.115 4.4747L37.5852 3.87732C37.4948 3.85922 37.3864 3.87732 37.3141 3.94973C37.2419 4.02214 37.2238 4.13075 37.2419 4.22126L37.8382 6.75562C37.9285 7.06336 38.0912 7.3711 38.3261 7.60643C39.0669 8.34864 40.2596 8.34864 40.9824 7.60643" fill="white"/>
<path d="M47.831 14.5034C48.8429 13.4896 48.8429 11.8423 47.831 10.8286C47.4876 10.4846 47.0901 10.2674 46.6564 10.1588L43.1509 9.34415C43.0244 9.30795 42.8798 9.34415 42.7714 9.45277C42.663 9.56138 42.6268 9.6881 42.663 9.83292L43.4761 13.3267C43.5845 13.7612 43.8194 14.1594 44.1447 14.5034C45.1566 15.5171 46.801 15.5171 47.8129 14.5034" fill="white"/>
<path d="M57.444 24.1342C58.9076 22.6679 58.9076 20.2783 57.444 18.812C56.9561 18.3233 56.3598 17.9974 55.7454 17.8345L50.6677 16.6397C50.469 16.6035 50.2702 16.6397 50.1256 16.8026C49.9811 16.9475 49.9268 17.1647 49.963 17.3457L51.1556 22.4325C51.3182 23.0661 51.6435 23.6454 52.1314 24.1342C53.5951 25.6005 55.9803 25.6005 57.444 24.1342Z" fill="white"/>
<path d="M46.5303 31.4294C48.4457 30.6329 49.3673 28.4244 48.5722 26.5055C48.3012 25.8719 47.8856 25.3469 47.3796 24.9487L43.1332 21.9075C42.9705 21.7988 42.7718 21.7626 42.573 21.8532C42.3742 21.9256 42.2477 22.1066 42.2116 22.2876L41.3623 27.4468C41.2719 28.0804 41.3623 28.7502 41.6153 29.4019C42.4104 31.3208 44.6149 32.244 46.5303 31.4475" fill="white"/>
<path d="M2.56568 13.2002C3.36076 15.1191 5.5653 16.0423 7.48071 15.2458C8.11316 14.9743 8.63719 14.5579 9.03473 14.0511L12.0705 9.79697C12.1789 9.63404 12.215 9.43492 12.1247 9.23579C12.0524 9.03666 11.8717 8.90994 11.691 8.89184L6.54107 8.04102C5.90862 7.95051 5.24004 8.04102 4.58952 8.29446C2.6741 9.09097 1.75253 11.2995 2.54761 13.2183" fill="white"/>
<path d="M20.7629 31.4294C22.6783 32.2259 24.8828 31.3208 25.6779 29.3838C25.9489 28.7502 26.0212 28.0804 25.9309 27.4287L25.0816 22.2695C25.0454 22.0885 24.9189 21.9075 24.7382 21.8351C24.5395 21.7627 24.3407 21.7808 24.1781 21.8894L19.9316 24.9306C19.4257 25.3288 18.992 25.8538 18.739 26.4874C17.9439 28.4063 18.8655 30.6148 20.7809 31.4113" fill="white"/>
<path d="M64.7269 13.2002C65.522 11.2814 64.6185 9.07287 62.685 8.27636C62.0525 8.00482 61.384 7.93241 60.7334 8.02292L55.5835 8.87374C55.4028 8.90994 55.2221 9.03666 55.1498 9.23579C55.0775 9.43492 55.0956 9.63404 55.204 9.79697L58.2398 14.0511C58.6373 14.5579 59.1613 14.9924 59.7938 15.2458C61.7092 16.0423 63.9138 15.1191 64.7088 13.2002" fill="white"/>
</g>
<g opacity="0.7">
<path d="M119.524 101.687C120.734 101.687 121.732 100.689 121.732 99.4795C121.732 99.0762 121.625 98.6941 121.434 98.3757L119.821 95.7648C119.821 95.7648 119.651 95.595 119.524 95.595C119.397 95.595 119.29 95.6587 119.227 95.7648L117.614 98.3757C117.423 98.6941 117.316 99.0762 117.316 99.4795C117.316 100.689 118.314 101.687 119.524 101.687Z" fill="white"/>
<path d="M119.524 113.106C121.201 113.106 122.56 111.748 122.56 110.071C122.56 109.519 122.411 108.989 122.135 108.543L119.906 104.955C119.821 104.828 119.673 104.743 119.503 104.743C119.333 104.743 119.185 104.828 119.1 104.955L116.871 108.543C116.616 108.989 116.446 109.519 116.446 110.071C116.446 111.748 117.805 113.106 119.482 113.106" fill="white"/>
<path d="M119.524 129.047C121.965 129.047 123.939 127.073 123.939 124.632C123.939 123.826 123.727 123.061 123.345 122.403L120.118 117.203C119.991 117.012 119.779 116.885 119.545 116.885C119.312 116.885 119.078 117.012 118.972 117.203L115.746 122.403C115.364 123.061 115.151 123.804 115.151 124.632C115.151 127.073 117.125 129.047 119.566 129.047" fill="white"/>
<path d="M119.524 77.3606C118.314 77.3606 117.316 78.3583 117.316 79.5682C117.316 79.9715 117.423 80.3536 117.614 80.672L119.227 83.2828C119.227 83.2828 119.397 83.4526 119.524 83.4526C119.651 83.4526 119.757 83.389 119.821 83.2828L121.434 80.672C121.625 80.3536 121.732 79.9715 121.732 79.5682C121.732 78.3583 120.734 77.3606 119.524 77.3606Z" fill="white"/>
<path d="M119.524 65.9415C117.847 65.9415 116.488 67.3 116.488 68.9768C116.488 69.5287 116.637 70.0594 116.913 70.5052L119.142 74.0924C119.226 74.2198 119.375 74.3047 119.545 74.3047C119.715 74.3047 119.863 74.2198 119.948 74.0924L122.177 70.5052C122.432 70.0594 122.602 69.5287 122.602 68.9768C122.602 67.3 121.243 65.9415 119.566 65.9415" fill="white"/>
<path d="M119.524 49.9998C117.083 49.9998 115.109 51.9739 115.109 54.4149C115.109 55.2215 115.322 55.9857 115.704 56.6437L118.93 61.8442C119.057 62.0352 119.27 62.1626 119.503 62.1626C119.737 62.1626 119.97 62.0352 120.076 61.8442L123.303 56.6437C123.685 55.9857 123.897 55.2428 123.897 54.4149C123.897 51.9739 121.923 49.9998 119.482 49.9998" fill="white"/>
<path d="M131.687 89.5244C131.687 88.3145 130.689 87.3168 129.479 87.3168C129.076 87.3168 128.694 87.423 128.376 87.614L125.765 89.2272C125.765 89.2272 125.616 89.397 125.616 89.5244C125.616 89.6517 125.68 89.7579 125.765 89.8216L128.376 91.4348C128.694 91.6258 129.076 91.7319 129.479 91.7319C130.689 91.7319 131.687 90.7343 131.687 89.5244Z" fill="white"/>
<path d="M143.106 89.5235C143.106 87.8466 141.748 86.4881 140.071 86.4881C139.519 86.4881 138.988 86.6367 138.543 86.8914L134.955 89.1202C134.828 89.2051 134.743 89.3537 134.743 89.5235C134.743 89.6933 134.828 89.8419 134.955 89.9268L138.543 92.1556C138.988 92.4103 139.519 92.5801 140.071 92.5801C141.748 92.5801 143.106 91.2216 143.106 89.5447" fill="white"/>
<path d="M159.048 89.5238C159.048 87.0828 157.073 85.1087 154.632 85.1087C153.826 85.1087 153.062 85.321 152.404 85.7031L147.203 88.9295C147.012 89.0568 146.885 89.2691 146.885 89.5026C146.885 89.7361 147.012 89.9696 147.203 90.0757L152.404 93.3021C153.062 93.6842 153.826 93.8965 154.632 93.8965C157.073 93.8965 159.048 91.9224 159.048 89.4814" fill="white"/>
<path d="M107.361 89.5244C107.361 90.7343 108.359 91.7319 109.569 91.7319C109.972 91.7319 110.354 91.6258 110.673 91.4348L113.284 89.8216C113.284 89.8216 113.453 89.6517 113.453 89.5244C113.453 89.397 113.39 89.2909 113.284 89.2272L110.673 87.614C110.354 87.423 109.972 87.3168 109.569 87.3168C108.359 87.3168 107.361 88.3145 107.361 89.5244Z" fill="white"/>
<path d="M95.9414 89.5237C95.9414 91.2006 97.2999 92.5591 98.9768 92.5591C99.5287 92.5591 100.059 92.4105 100.505 92.1558L104.092 89.927C104.22 89.8421 104.305 89.6935 104.305 89.5237C104.305 89.3539 104.22 89.2053 104.092 89.1204L100.505 86.8916C100.059 86.6369 99.5287 86.4671 98.9768 86.4671C97.2999 86.4671 95.9414 87.8256 95.9414 89.5025" fill="white"/>
<path d="M80 89.5239C80 91.9649 81.9741 93.939 84.4151 93.939C85.2217 93.939 85.9859 93.7267 86.6439 93.3446L91.8444 90.1182C92.0354 89.9908 92.1628 89.7786 92.1628 89.5451C92.1628 89.3116 92.0354 89.0781 91.8444 88.972L86.6439 85.7456C85.9859 85.3635 85.2429 85.1512 84.4151 85.1512C81.9741 85.1512 80 87.1253 80 89.5663" fill="white"/>
<path d="M110.927 98.1207C111.798 98.991 113.199 98.991 114.048 98.1207C114.324 97.8448 114.515 97.4839 114.621 97.1231L115.321 94.1514C115.342 94.0452 115.321 93.9179 115.236 93.833C115.151 93.7481 115.024 93.7268 114.918 93.7481L111.946 94.4485C111.585 94.5335 111.225 94.7457 110.949 95.0217C110.078 95.8919 110.078 97.2929 110.949 98.1419" fill="white"/>
<path d="M102.861 106.187C104.05 107.376 105.982 107.376 107.17 106.187C107.574 105.784 107.828 105.317 107.956 104.807L108.911 100.711C108.953 100.562 108.911 100.392 108.783 100.265C108.656 100.138 108.507 100.116 108.338 100.138L104.241 101.093C103.732 101.22 103.265 101.496 102.861 101.878C101.673 103.067 101.673 104.998 102.861 106.187Z" fill="white"/>
<path d="M91.5688 117.479C93.2882 119.198 96.09 119.198 97.8094 117.479C98.3825 116.906 98.7646 116.205 98.9556 115.484L100.357 109.519C100.399 109.307 100.357 109.052 100.166 108.882C99.9957 108.713 99.741 108.649 99.5287 108.691L93.5641 110.092C92.8212 110.283 92.1419 110.665 91.5688 111.238C89.8495 112.958 89.8495 115.76 91.5688 117.479Z" fill="white"/>
<path d="M128.121 80.9273C127.251 80.057 125.871 80.057 125.001 80.9273C124.704 81.2033 124.513 81.5641 124.428 81.925L123.727 84.8967C123.706 85.0028 123.727 85.1302 123.812 85.2151C123.897 85.3 124.025 85.3212 124.131 85.3L127.102 84.5995C127.463 84.5146 127.824 84.3235 128.1 84.0264C128.97 83.1561 128.97 81.7551 128.1 80.9061" fill="white"/>
<path d="M136.187 72.8613C134.998 71.6726 133.066 71.6726 131.878 72.8613C131.474 73.2646 131.22 73.7315 131.092 74.241L130.137 78.3377C130.095 78.4863 130.137 78.6561 130.264 78.7834C130.392 78.9108 130.54 78.932 130.71 78.9108L134.807 77.9556C135.316 77.8282 135.783 77.5523 136.187 77.1702C137.375 75.9815 137.375 74.0499 136.187 72.8613Z" fill="white"/>
<path d="M147.479 61.5691C145.759 59.8498 142.957 59.8498 141.238 61.5691C140.665 62.1422 140.283 62.8427 140.092 63.5644L138.691 69.5291C138.648 69.7413 138.691 69.996 138.882 70.1659C139.052 70.3357 139.285 70.3993 139.519 70.3569L145.483 68.9559C146.226 68.7649 146.905 68.3828 147.479 67.8097C149.198 66.0904 149.198 63.2885 147.479 61.5691Z" fill="white"/>
<path d="M128.121 98.1205C128.991 97.2502 128.991 95.8705 128.121 95.0002C127.823 94.7242 127.484 94.512 127.123 94.4271L124.151 93.7266C124.045 93.7054 123.918 93.7266 123.833 93.8115C123.748 93.8964 123.727 94.0238 123.748 94.1299L124.448 97.1016C124.554 97.4624 124.746 97.8233 125.021 98.0992C125.892 98.9695 127.293 98.9695 128.142 98.0992" fill="white"/>
<path d="M136.186 106.187C137.375 104.998 137.375 103.067 136.186 101.878C135.783 101.475 135.316 101.22 134.807 101.093L130.689 100.138C130.54 100.095 130.37 100.138 130.243 100.265C130.116 100.392 130.073 100.541 130.116 100.711L131.071 104.807C131.198 105.317 131.474 105.784 131.856 106.187C133.045 107.376 134.976 107.376 136.165 106.187" fill="white"/>
<path d="M147.479 117.479C149.199 115.76 149.199 112.958 147.479 111.238C146.906 110.665 146.206 110.283 145.484 110.092L139.519 108.691C139.286 108.649 139.052 108.691 138.882 108.882C138.713 109.052 138.649 109.307 138.691 109.519L140.092 115.484C140.283 116.227 140.666 116.906 141.239 117.479C142.958 119.198 145.76 119.198 147.479 117.479Z" fill="white"/>
<path d="M110.926 80.9276C110.056 81.7979 110.056 83.1988 110.926 84.0479C111.223 84.3238 111.563 84.5148 111.924 84.621L114.896 85.3214C115.002 85.3427 115.129 85.3214 115.214 85.2365C115.299 85.1516 115.32 85.0243 115.299 84.9181L114.598 81.9464C114.492 81.5856 114.301 81.2247 114.025 80.9488C113.155 80.0785 111.754 80.0785 110.905 80.9488" fill="white"/>
<path d="M102.861 72.8613C101.673 74.05 101.673 75.9816 102.861 77.1703C103.265 77.5736 103.732 77.8283 104.241 77.9556L108.338 78.9108C108.486 78.9533 108.656 78.9108 108.783 78.7835C108.911 78.6561 108.932 78.4863 108.911 78.3377L107.956 74.241C107.828 73.7316 107.552 73.2646 107.17 72.8613C105.982 71.6726 104.05 71.6726 102.861 72.8613Z" fill="white"/>
<path d="M91.5688 61.5688C89.8495 63.2881 89.8495 66.09 91.5688 67.8094C92.1419 68.3825 92.8424 68.7646 93.5641 68.9556L99.5287 70.3565C99.7622 70.399 99.9957 70.3565 100.166 70.1655C100.335 69.9957 100.399 69.741 100.357 69.5287L98.9556 63.5641C98.7646 62.8211 98.3825 62.1419 97.8094 61.5688C96.09 59.8494 93.2881 59.8494 91.5688 61.5688Z" fill="white"/>
<path d="M134.659 126.034C136.909 125.1 137.991 122.51 137.057 120.26C136.739 119.517 136.251 118.901 135.656 118.434L130.668 114.868C130.477 114.741 130.244 114.699 130.01 114.805C129.777 114.89 129.628 115.102 129.586 115.314L128.588 121.364C128.482 122.107 128.588 122.892 128.885 123.656C129.819 125.906 132.409 126.989 134.659 126.055" fill="white"/>
<path d="M104.39 53.0143C102.14 53.9482 101.057 56.5379 101.991 58.7879C102.31 59.5308 102.798 60.1464 103.392 60.6133L108.38 64.1794C108.571 64.3068 108.805 64.3492 109.038 64.2431C109.272 64.1582 109.42 63.9459 109.463 63.7336L110.46 57.6841C110.567 56.9412 110.46 56.1558 110.163 55.3916C109.229 53.1416 106.64 52.0591 104.39 52.993" fill="white"/>
<path d="M156.033 74.3896C155.099 72.1396 152.51 71.057 150.259 71.991C149.517 72.3094 148.901 72.7976 148.434 73.3919L144.868 78.3802C144.741 78.5712 144.698 78.8047 144.804 79.0382C144.889 79.2717 145.101 79.4203 145.314 79.4627L151.363 80.4604C152.106 80.5665 152.892 80.4603 153.656 80.1632C155.906 79.2292 156.988 76.6396 156.054 74.3896" fill="white"/>
<path d="M83.0133 104.658C83.9473 106.908 86.5369 107.991 88.7869 107.057C89.5298 106.738 90.1454 106.25 90.6124 105.656L94.1784 100.668C94.3058 100.477 94.3483 100.243 94.2421 100.01C94.1572 99.7761 93.9449 99.6275 93.7327 99.6063L87.6831 98.6086C86.9402 98.5025 86.1548 98.6086 85.3907 98.9058C83.1407 99.8397 82.0581 102.429 82.9921 104.679" fill="white"/>
<path d="M104.388 126.033C106.638 126.967 109.228 125.906 110.162 123.635C110.48 122.892 110.565 122.106 110.459 121.342L109.461 115.293C109.419 115.08 109.27 114.868 109.058 114.783C108.824 114.698 108.591 114.72 108.4 114.847L103.412 118.413C102.817 118.88 102.308 119.496 102.011 120.239C101.077 122.489 102.159 125.078 104.409 126.012" fill="white"/>
<path d="M134.658 53.014C132.408 52.08 129.818 53.1413 128.884 55.4126C128.566 56.1555 128.481 56.9409 128.587 57.705L129.585 63.7546C129.627 63.9881 129.776 64.1791 130.009 64.264C130.243 64.3489 130.476 64.3277 130.667 64.2003L135.656 60.6343C136.25 60.1673 136.759 59.5517 137.057 58.8088C137.991 56.5588 136.908 53.9692 134.658 53.0352" fill="white"/>
<path d="M156.032 104.658C156.966 102.408 155.905 99.8185 153.634 98.8846C152.891 98.5662 152.106 98.4813 151.341 98.5874L145.292 99.585C145.08 99.6275 144.867 99.7761 144.782 100.01C144.697 100.243 144.719 100.477 144.846 100.668L148.412 105.656C148.879 106.25 149.495 106.76 150.238 107.057C152.488 107.991 155.077 106.908 156.011 104.658" fill="white"/>
<path d="M83.0145 74.3893C82.0805 76.6393 83.1419 79.2289 85.4131 80.1629C86.156 80.4813 86.9414 80.5662 87.7056 80.4601L93.7551 79.4624C93.9886 79.42 94.1796 79.2714 94.2645 79.0591C94.3494 78.8256 94.3282 78.5921 94.2009 78.4011L90.6348 73.4129C90.1678 72.8185 89.5523 72.3091 88.8093 72.0119C86.5593 71.078 83.9697 72.1605 83.0357 74.4105" fill="white"/>
</g>
<defs>
<clipPath id="clip0_2209_74117">
<rect width="134" height="68" fill="white" transform="matrix(1 -8.74228e-08 -8.74228e-08 -1 159.047 68)"/>
</clipPath>
<clipPath id="clip1_2209_74117">
<rect width="67" height="34" fill="white" transform="matrix(1 -8.74228e-08 -8.74228e-08 -1 0 34)"/>
</clipPath>
</defs>
</svg>
