<svg width="65" height="80" viewBox="0 0 65 80" fill="none" xmlns="http://www.w3.org/2000/svg">
<g clip-path="url(#clip0_525_14761)">
<g style="mix-blend-mode:multiply">
<path d="M32.9019 80.3155C51.0732 80.3155 65.8039 76.6419 65.8039 72.1104C65.8039 67.5788 51.0732 63.9052 32.9019 63.9052C14.7307 63.9052 0 67.5788 0 72.1104C0 76.6419 14.7307 80.3155 32.9019 80.3155Z" fill="url(#paint0_radial_525_14761)"/>
</g>
<path d="M60.9786 27.8302C60.9786 27.7363 60.9683 27.6424 60.958 27.5485C60.5357 27.298 60.0825 27.4441 59.6396 27.4441C59.5057 27.3919 59.3821 27.3919 59.2482 27.4232C58.0947 27.2667 56.9308 27.1832 55.7978 26.9223C55.1284 26.7761 54.428 26.7657 53.7997 26.4735C52.5329 26.0456 51.2866 25.5446 50.0712 24.981C49.9579 24.908 49.8549 24.8349 49.7416 24.7723C48.2791 23.9374 46.8165 23.092 45.6424 21.8396C45.1583 21.2656 44.6124 20.7333 44.1695 20.1175C44.0562 19.9506 43.9532 19.9714 43.8296 20.1175C43.6236 20.3889 43.4074 20.6707 43.1808 20.9212C40.6882 23.7495 37.5263 25.4507 33.9729 26.4839C31.8408 27.1101 29.647 27.371 27.4326 27.4337C27.0206 27.4441 27 27.6111 27 27.9346C27 32.5685 27.0103 37.2024 27 41.8363C27 44.3932 27.3193 46.898 28.0197 49.3611C28.5346 51.1666 29.2968 52.8365 30.4504 54.3081C31.5936 56.0197 32.9429 57.5539 34.4879 58.9002C35.5075 59.8708 36.6302 60.7058 37.8146 61.4468C39.3905 62.3965 41.0178 63.2106 42.7997 63.7011C43.2941 63.8368 43.7678 64.0977 44.324 63.962C46.8989 63.3254 49.2267 62.1251 51.3999 60.6118C53.3053 59.2864 54.943 57.6687 56.4055 55.8527C57.4767 54.5272 58.5067 53.16 59.1864 51.5737C60.3606 48.8184 60.958 45.9066 60.9786 42.9112C61.0198 37.8703 60.9889 32.8398 60.9889 27.7989L60.9786 27.8302Z" fill="url(#paint1_linear_525_14761)"/>
<g filter="url(#filter0_b_525_14761)">
<path d="M43.981 11.1319C43.981 11.0097 43.9609 10.8875 43.9609 10.7755C43.4183 10.4496 42.8254 10.6431 42.2527 10.6329C42.0819 10.5718 41.9111 10.5616 41.7402 10.6024C40.2431 10.3987 38.7459 10.2867 37.2688 9.95068C36.4046 9.75721 35.5003 9.75721 34.6864 9.37027C33.0485 8.81022 31.4408 8.16871 29.8633 7.44574C29.7226 7.3541 29.5719 7.26245 29.4312 7.18099C27.5321 6.10163 25.643 5.01208 24.1157 3.38285C23.4827 2.63951 22.7793 1.95727 22.2065 1.15284C22.0558 0.938999 21.9252 0.959365 21.7745 1.15284C21.5032 1.50923 21.2319 1.86562 20.9304 2.20165C17.6949 5.86742 13.6053 8.06689 9.01324 9.411C6.24998 10.2154 3.41639 10.5616 0.552651 10.6431C0.0301446 10.6635 0 10.8773 0 11.2948C0 17.2924 0.0100482 23.3002 0 29.2978C0 32.6072 0.422025 35.8555 1.32636 39.0325C1.98954 41.3643 2.98432 43.5332 4.4815 45.4374C5.96863 47.6572 7.70697 49.6326 9.70656 51.3841C11.0229 52.6365 12.4799 53.7159 14.0072 54.6833C16.047 55.9154 18.1571 56.9642 20.4581 57.6057C21.1012 57.789 21.7041 58.125 22.4276 57.9519C25.7636 57.1271 28.768 55.5692 31.5815 53.6243C34.0433 51.9136 36.1735 49.8058 38.0525 47.4637C39.4392 45.7429 40.7756 43.9711 41.6498 41.9243C43.1671 38.3604 43.9408 34.5928 43.9709 30.7132C44.0212 24.1963 43.991 17.6692 43.991 11.1522L43.981 11.1319Z" fill="url(#paint2_linear_525_14761)"/>
<path d="M0.569689 11.1428C3.4628 11.0604 6.33956 10.7101 9.153 9.89107L9.1537 9.89087C13.8112 8.5276 17.9911 6.28673 21.3039 2.53406C21.549 2.26079 21.7738 1.97616 21.9876 1.69763C22.3377 2.15491 22.732 2.58883 23.1079 3.00247C23.3274 3.24404 23.5406 3.47868 23.735 3.70703L23.7428 3.71611L23.7509 3.72481C25.3372 5.41691 27.2916 6.54003 29.1823 7.61465C29.3163 7.69228 29.4588 7.77897 29.5903 7.86468L29.6213 7.88487L29.655 7.90028C31.2393 8.62635 32.8538 9.27108 34.4985 9.83443C34.9602 10.0493 35.4344 10.1526 35.8766 10.2262C36.0434 10.254 36.1998 10.2769 36.3506 10.2991C36.6292 10.3399 36.8886 10.378 37.1587 10.4384C38.2373 10.6837 39.3402 10.8143 40.4147 10.9416C40.8396 10.9919 41.2601 11.0417 41.6728 11.0978L41.7654 11.1104L41.8562 11.0887C41.9295 11.0713 42.0016 11.0741 42.0843 11.1037L42.1617 11.1314L42.2438 11.1328C42.4139 11.1359 42.5799 11.1237 42.725 11.1121C42.7441 11.1105 42.7629 11.109 42.7813 11.1075C42.9091 11.0971 43.0195 11.0881 43.1292 11.0857C43.2645 11.0827 43.3789 11.0907 43.4808 11.1146C43.4809 11.1205 43.481 11.1262 43.481 11.1319V11.2485L43.491 11.2688C43.4911 13.0083 43.4933 14.748 43.4955 16.4877C43.5015 21.2298 43.5075 25.9718 43.4709 30.7093C43.4413 34.5237 42.6809 38.2258 41.19 41.7279C40.3451 43.7062 39.0476 45.432 37.6632 47.15L37.6625 47.1508C35.8073 49.4633 33.7114 51.5352 31.2971 53.213C28.5177 55.1343 25.5693 56.6598 22.3095 57.4661C22.0575 57.526 21.8162 57.5022 21.5409 57.4292C21.3999 57.3918 21.2575 57.3436 21.0984 57.2888L21.0628 57.2765C20.9181 57.2265 20.7584 57.1714 20.5952 57.1248L20.5924 57.1241C18.3523 56.4995 16.2866 55.4757 14.2702 54.258C12.7647 53.3041 11.3369 52.2452 10.0512 51.0218L10.0438 51.0147L10.036 51.0079C8.0691 49.2851 6.35968 47.3426 4.8969 45.1591L4.88631 45.1433L4.87455 45.1283C3.42591 43.2859 2.45676 41.1793 1.80729 38.8957L1.80726 38.8956C0.916501 35.7663 0.500035 32.5644 0.5 29.2982C0.506699 25.299 0.504465 21.2949 0.502232 17.2929C0.501116 15.2927 0.5 13.293 0.5 11.2948C0.5 11.2312 0.500883 11.184 0.502859 11.1474M0.569689 11.1428C0.568749 11.1429 0.567809 11.1429 0.566868 11.1429L0.552651 10.6431L0.572125 11.1427C0.571309 11.1428 0.570497 11.1428 0.569689 11.1428ZM0.569689 11.1428C0.543309 11.1439 0.521204 11.1456 0.502859 11.1474M0.502859 11.1474C0.504135 11.1238 0.505868 11.1047 0.508114 11.0885C0.510342 11.0725 0.512312 11.0659 0.512324 11.0659C0.512341 11.0659 0.508299 11.0797 0.495128 11.0993C0.483228 11.117 0.468129 11.1329 0.451914 11.1453C0.436429 11.1572 0.425725 11.1613 0.425818 11.1613C0.429399 11.1599 0.451256 11.1528 0.502859 11.1474Z" stroke="url(#paint3_linear_525_14761)"/>
</g>
<path d="M29.34 21.32H8.16C7.52 21.32 7 20.8 7 20.16C7 19.52 7.52 19 8.16 19H29.34C29.98 19 30.5 19.52 30.5 20.16C30.5 20.8 29.98 21.32 29.34 21.32Z" fill="white"/>
<path d="M22.83 25.71H8.16C7.52 25.71 7 25.19 7 24.55C7 23.91 7.52 23.39 8.16 23.39H22.83C23.47 23.39 23.99 23.91 23.99 24.55C23.99 25.19 23.47 25.71 22.83 25.71Z" fill="white"/>
</g>
<defs>
<filter id="filter0_b_525_14761" x="-4" y="-3" width="52" height="65" filterUnits="userSpaceOnUse" color-interpolation-filters="sRGB">
<feFlood flood-opacity="0" result="BackgroundImageFix"/>
<feGaussianBlur in="BackgroundImageFix" stdDeviation="2"/>
<feComposite in2="SourceAlpha" operator="in" result="effect1_backgroundBlur_525_14761"/>
<feBlend mode="normal" in="SourceGraphic" in2="effect1_backgroundBlur_525_14761" result="shape"/>
</filter>
<radialGradient id="paint0_radial_525_14761" cx="0" cy="0" r="1" gradientUnits="userSpaceOnUse" gradientTransform="translate(32.9019 72.1132) scale(24.0369 9.2202)">
<stop stop-color="#231F20" stop-opacity="0.26"/>
<stop offset="0.468313" stop-color="#888183" stop-opacity="0.18"/>
<stop offset="0.926656" stop-color="white" stop-opacity="0"/>
</radialGradient>
<linearGradient id="paint1_linear_525_14761" x1="24.8268" y1="32.9651" x2="59.5443" y2="48.9675" gradientUnits="userSpaceOnUse">
<stop stop-color="#FB64F3"/>
<stop offset="0.2" stop-color="#D464F5"/>
<stop offset="0.45" stop-color="#AC64F8"/>
<stop offset="0.67" stop-color="#8F64FA"/>
<stop offset="0.86" stop-color="#7D64FB"/>
<stop offset="1" stop-color="#7764FB"/>
</linearGradient>
<linearGradient id="paint2_linear_525_14761" x1="35.8696" y1="51.7204" x2="8.21677" y2="8.01075" gradientUnits="userSpaceOnUse">
<stop stop-color="white" stop-opacity="0.9"/>
<stop offset="0.04" stop-color="white" stop-opacity="0.84"/>
<stop offset="0.28" stop-color="white" stop-opacity="0.5"/>
<stop offset="0.65" stop-color="#FAFAFA" stop-opacity="0.4"/>
<stop offset="1" stop-color="#EFEFEF" stop-opacity="0.3"/>
</linearGradient>
<linearGradient id="paint3_linear_525_14761" x1="5.55686" y1="4.22034" x2="31.7461" y2="81.4836" gradientUnits="userSpaceOnUse">
<stop offset="0.286017" stop-color="white" stop-opacity="0"/>
<stop offset="0.437062" stop-color="white"/>
<stop offset="0.676651" stop-color="white" stop-opacity="0"/>
<stop offset="1" stop-color="white"/>
</linearGradient>
<clipPath id="clip0_525_14761">
<rect width="65" height="80" fill="white"/>
</clipPath>
</defs>
</svg>
