<svg width="178" height="104" viewBox="0 0 178 104" fill="none" xmlns="http://www.w3.org/2000/svg">
<path d="M50.9561 7.57129L25 39.5" stroke="#00BCB4" stroke-width="4" stroke-miterlimit="10"/>
<path d="M108 78.5L105.896 94.544C105.433 98.7865 101.835 102 97.548 102H19.7824C15.4954 102 11.8971 98.7865 11.4349 94.544L6.39551 48.499" stroke="#00BCB4" stroke-width="4" stroke-miterlimit="10"/>
<path d="M69 8L82 24" stroke="#00BCB4" stroke-width="4" stroke-miterlimit="10"/>
<path d="M78.5 48.4982H2V45.736C2 42.333 4.77346 39.5708 8.19043 39.5708H77" stroke="#F89C22" stroke-width="4" stroke-miterlimit="10"/>
<path d="M54.5952 10.7017C57.008 10.7017 58.9639 8.75375 58.9639 6.35085C58.9639 3.94794 57.008 2 54.5952 2C52.1825 2 50.2266 3.94794 50.2266 6.35085C50.2266 8.75375 52.1825 10.7017 54.5952 10.7017Z" stroke="#F89C22" stroke-width="4" stroke-miterlimit="10"/>
<path d="M65.3989 10.7017C67.8117 10.7017 69.7676 8.75375 69.7676 6.35085C69.7676 3.94794 67.8117 2 65.3989 2C62.9862 2 61.0303 3.94794 61.0303 6.35085C61.0303 8.75375 62.9862 10.7017 65.3989 10.7017Z" stroke="#F89C22" stroke-width="4" stroke-miterlimit="10"/>
<path d="M25.1846 101.612V60.8833H32.7164V95.3019" stroke="#00BCB4" stroke-width="4" stroke-miterlimit="10"/>
<path d="M45.5654 101.612V60.8833H53.0973V95.3019" stroke="#00BCB4" stroke-width="4" stroke-miterlimit="10"/>
<path d="M65.248 101.612V60.8833H72.7799V95.3019" stroke="#00BCB4" stroke-width="4" stroke-miterlimit="10"/>
<path d="M85 101.612V63.5005M92.5318 95.3019V71.0005" stroke="#00BCB4" stroke-width="4" stroke-miterlimit="10"/>
<path d="M139.974 72.8887L165.168 97.2691C167.535 99.5602 171.34 99.5455 173.689 97.2362V97.2362C176.064 94.9011 176.049 91.1106 173.655 88.794L148.529 64.479" stroke="#00BCB4" stroke-width="4" stroke-miterlimit="10"/>
<ellipse cx="117.438" cy="40.7674" rx="39.4376" ry="38.7674" stroke="#00BCB4" stroke-width="4" stroke-miterlimit="10"/>
<ellipse cx="117.437" cy="40.7679" rx="29.2965" ry="28.7986" stroke="#00BCB4" stroke-width="4" stroke-miterlimit="10"/>
<rect width="9.98171" height="32.9396" transform="matrix(0.708403 -0.705809 0.708403 0.705809 102.132 33.0884)" fill="#F89C22"/>
<rect width="9.98171" height="32.9396" transform="matrix(-0.708403 -0.705809 0.708403 -0.705809 109.203 56.3379)" fill="#F89C22"/>
</svg>
